<svg width="84" height="52" viewBox="0 0 84 52" fill="none" xmlns="http://www.w3.org/2000/svg">
<path d="M52.6648 0.722075C52.6648 0.722075 57.1976 -0.00916833 58.4148 8.10591C59.7675 17.1276 63.379 15.6435 69.1142 22.9689C72.4662 27.2495 68.9389 34.8089 61.7706 34.6589C54.6021 34.5128 48.1286 32.4109 44.0051 33.3101C39.8819 34.2093 39.6552 23.499 43.7237 20.1944C47.7921 16.8899 39.118 7.40046 44.4036 3.17485C49.6892 -1.05077 52.6648 0.722075 52.6648 0.722075Z" fill="#31446C"/>
<path d="M41.6397 24.9684L36.9571 42.0867L38.6275 40.1638C38.0097 40.4928 37.2932 40.745 36.5001 40.9243C35.7067 41.1033 34.8441 41.2057 33.9413 41.253C33.0384 41.3007 32.0989 41.2933 31.1339 41.253C30.1726 41.213 29.1892 41.1399 28.1913 41.0559H28.1876C27.4805 40.9958 26.7785 41.2188 26.2357 41.6759C25.6929 42.133 25.3537 42.7869 25.2926 43.4939C25.1718 44.8977 26.1697 46.1404 27.5369 46.3634C28.5677 46.5279 29.6133 46.6814 30.688 46.8059C31.7625 46.9301 32.8628 47.0214 34.0034 47.047C35.144 47.0725 36.3245 47.0288 37.5454 46.8532C38.7628 46.6779 40.0276 46.3597 41.263 45.8261C42.0527 45.486 42.6155 44.8356 42.8713 44.0788L42.93 43.8998L48.5484 27.0629C49.1806 25.1692 48.1572 23.1261 46.2638 22.4935C44.3701 21.8612 42.3267 22.8847 41.6944 24.7781C41.676 24.8402 41.6541 24.9097 41.6397 24.9684Z" fill="#F8AE9D"/>
<path d="M64.9361 45.172C64.9361 45.172 65.108 46.4586 63.3825 46.7984L45.4309 47.1678C45.4309 47.1678 44.2245 46.5426 44.4622 45.044C44.4622 45.0403 52.0911 40.884 64.9361 45.172Z" fill="#31446C"/>
<path d="M45.4785 45.5703C49.4483 45.3799 57.2562 45.3947 63.5289 47.8072C63.3057 46.545 63.1338 45.2743 63.0135 43.9982C59.0545 43.7313 49.3459 43.1941 45.5296 44.0459L45.4785 45.5703Z" fill="#F8AE9D"/>
<path d="M44.9922 51.5197C56.0904 52.8293 64.3658 50.2831 64.3658 50.2831C63.8875 49.1952 63.5369 47.9701 63.2884 46.8561C63.066 45.8523 62.8942 44.8379 62.7735 43.8169C58.8185 43.6039 49.1188 43.1754 45.3062 43.8548L45.2551 45.0712L44.9922 51.5197Z" fill="#F8AE9D"/>
<path d="M44.3815 41.827V41.8525C44.3886 41.922 44.3923 41.9949 44.396 42.0718C44.4144 42.3642 44.4289 42.7151 44.44 43.1136C44.4508 43.4353 44.4544 43.7862 44.4581 44.1626C44.4581 44.444 44.4618 44.7365 44.4618 45.04C49.7548 42.7554 60.5785 44.3785 64.9358 45.1716C64.8921 44.9523 64.8518 44.7364 64.8115 44.5245C64.7823 44.3674 64.7568 44.2139 64.7275 44.0602C64.4388 42.3898 64.2851 40.8875 64.234 39.5458L64.2229 39.1876C64.1792 37.1955 64.3948 34.3626 64.8336 31.4455C64.8628 31.2444 64.8957 31.0433 64.925 30.8459L64.9908 30.4513C65.1501 29.4824 65.3365 28.5182 65.5499 27.5597C65.623 27.2381 65.6852 26.9127 65.7365 26.591C65.7949 26.2328 65.8386 25.8745 65.8715 25.52C65.9521 24.6208 65.9447 23.7434 65.8278 22.9282C65.6194 21.477 65.0529 20.227 64.0037 19.4228C63.4117 18.9695 62.6623 18.6552 61.7336 18.531C61.4303 18.4907 61.1305 18.4504 60.8418 18.4175C60.0344 18.3212 59.2251 18.2408 58.4145 18.1764C58.1916 18.158 57.9833 18.1435 57.7967 18.1288C57.4643 18.1046 57.1317 18.0838 56.7988 18.0666C56.7185 18.0629 56.6746 18.0593 56.6746 18.0593L48.5487 20.3075L47.7738 20.5194C47.4447 20.6218 47.1339 20.7205 46.8451 20.8155C46.1286 21.053 45.5182 21.2796 44.992 21.5028C44.3413 21.7805 43.8222 22.0511 43.4126 22.3362C41.6216 23.5752 41.8774 25.0046 41.8848 27.8193V28.013C41.8848 28.2249 41.8811 28.4371 41.8738 28.649C41.8666 28.9138 41.8519 29.1783 41.8298 29.4423C41.7926 29.9689 41.7402 30.4942 41.6727 31.0178C41.2852 34.1833 40.5616 37.0054 41.2815 38.464C42.053 40.0283 43.6248 41.2713 44.1804 41.6806C44.3047 41.7757 44.3815 41.827 44.3815 41.827Z" fill="#D7970F"/>
<path d="M59.3071 43.7497C59.3422 43.7424 59.3743 43.7251 59.3996 43.6998C59.4249 43.6745 59.4423 43.6423 59.4495 43.6073C59.4543 43.584 59.4543 43.56 59.4497 43.5367C59.445 43.5134 59.4358 43.4912 59.4226 43.4715C59.4093 43.4518 59.3923 43.4349 59.3725 43.4217C59.3527 43.4086 59.3305 43.3996 59.3071 43.3951C55.604 42.6641 52.9394 41.359 52.9136 41.3446C52.8709 41.3237 52.8217 41.3204 52.7766 41.3354C52.7315 41.3504 52.6941 41.3825 52.6724 41.4248C52.6516 41.4676 52.6483 41.5168 52.6633 41.5619C52.6783 41.6071 52.7104 41.6445 52.7527 41.6662C52.7785 41.6807 55.4835 43.0076 59.2376 43.7463C59.2632 43.7534 59.285 43.7534 59.3071 43.7497ZM56.3132 18.7211C56.3132 18.7211 55.5859 21.4737 52.837 22.2376C49.3423 23.2063 48.8162 22.033 48.8162 22.033C48.9038 21.5321 48.933 21.0422 48.9112 20.5232C48.9022 20.3217 48.8863 20.1205 48.8635 19.9201C48.8014 19.3571 48.6845 18.7429 48.52 18.0412C48.4834 17.8767 48.4395 17.705 48.3958 17.5295L48.3921 17.5076C50.7827 16.6084 52.658 15.2594 53.8056 13.2636L54.1458 12.9967L54.3758 12.814L54.4416 12.953L54.4527 13.417C54.5003 15.5995 54.8694 16.8898 56.3132 18.7211Z" fill="#F8AE9D"/>
<path d="M52.3397 15.3764C51.9704 16.6193 51.0273 18.8528 48.8633 19.9165C48.8012 19.3535 48.6843 18.7394 48.5198 18.0376C48.4832 17.8731 48.4395 17.7012 48.3955 17.5259C48.4429 17.5259 48.4942 17.5222 48.5453 17.5185C49.8978 17.4382 51.2687 16.5609 52.3397 15.3764Z" fill="#F8AE9D"/>
<path d="M56.9199 8.88085C57.1757 10.2041 56.3642 12.0428 54.6424 12.4265L54.6351 12.4302L54.5987 12.4376C54.584 12.5179 54.5658 12.5984 54.5474 12.6824C54.54 12.719 54.5292 12.7556 54.5219 12.7922C54.5219 12.7958 54.5219 12.7995 54.5182 12.803C53.8712 15.2594 50.9212 17.2005 49.196 17.5842C48.5782 17.7195 48.1359 17.6611 47.9969 17.6574C46.0814 17.6137 45.2591 15.1936 45.1822 13.2381C45.1703 12.9675 45.1752 12.6965 45.197 12.4265C45.197 12.4084 45.2004 12.39 45.2004 12.3755C45.2004 12.3755 44.0746 9.83847 43.7055 8.70527C42.9964 6.51205 43.8443 3.98242 48.6842 2.58625C53.524 1.18982 55.2931 4.019 55.9512 5.57258C56.0607 5.83212 56.3166 7.45151 56.0973 7.76213C56.6053 7.91217 56.832 8.43494 56.9199 8.88085Z" fill="#F8AE9D"/>
<path d="M48.6548 15.5593C48.8959 15.4497 48.991 15.2413 48.9983 15.2302C49.0239 15.1681 48.9983 15.0986 48.9362 15.0731C48.9076 15.0606 48.8752 15.0597 48.8459 15.0706C48.8165 15.0815 48.7926 15.1033 48.7791 15.1315C48.7717 15.1462 48.6474 15.4021 48.2966 15.3839C48.2647 15.3823 48.2334 15.3932 48.2095 15.4144C48.1855 15.4355 48.1709 15.4653 48.1686 15.4971C48.165 15.5629 48.216 15.6214 48.2818 15.6251C48.4096 15.6332 48.5375 15.6107 48.6548 15.5593ZM54.6385 12.4266L54.6314 12.4302L54.5948 12.4376C54.5801 12.5179 54.5619 12.5984 54.5435 12.6824C54.5364 12.719 54.5253 12.7556 54.518 12.7922C54.518 12.7959 54.518 12.7993 54.5143 12.803C54.3098 12.8103 54.0502 12.7848 53.7941 12.6677C53.6315 12.5935 53.486 12.4865 53.3666 12.3534C53.3507 12.3357 53.3384 12.315 53.3304 12.2925C53.3225 12.27 53.3192 12.2462 53.3205 12.2224C53.3218 12.1986 53.3279 12.1754 53.3383 12.1539C53.3487 12.1325 53.3632 12.1133 53.3811 12.0975C53.3986 12.0811 53.4192 12.0685 53.4418 12.0603C53.4643 12.0522 53.4883 12.0487 53.5122 12.05C53.5361 12.0514 53.5595 12.0576 53.581 12.0683C53.6024 12.079 53.6215 12.094 53.637 12.1123C53.7702 12.2567 53.9432 12.3585 54.1342 12.4047C54.2429 12.4323 54.3549 12.4445 54.4669 12.441C54.5327 12.4339 54.5912 12.4302 54.6385 12.4266Z" fill="#F8AE9D"/>
<path opacity="0.5" d="M46.1143 12.6605C46.1472 12.8579 45.7453 13.099 45.1785 13.2343C45.1668 12.9638 45.1718 12.6927 45.1933 12.4228C45.6976 12.3899 46.0814 12.4812 46.1143 12.6605Z" fill="#F8AE9D"/>
<path d="M47.3905 13.0587C47.3625 13.0649 47.3335 13.0636 47.3062 13.0551L46.5571 12.7884C46.5323 12.7795 46.5102 12.7644 46.4929 12.7445C46.4757 12.7247 46.4638 12.7007 46.4584 12.675C46.4528 12.6491 46.4543 12.6223 46.4626 12.5973C46.471 12.5722 46.4859 12.5499 46.5057 12.5325C46.9774 12.1156 47.2038 11.571 47.2223 10.8181C47.2241 10.7777 47.2414 10.7395 47.2707 10.7116C47.3 10.6836 47.3389 10.668 47.3794 10.6681C47.4198 10.6699 47.4579 10.6873 47.4859 10.7166C47.5138 10.7459 47.5293 10.7848 47.5292 10.8252C47.511 11.571 47.3062 12.134 46.8895 12.5873L47.4086 12.77C47.4465 12.7837 47.4775 12.8115 47.4953 12.8476C47.513 12.8838 47.516 12.9254 47.5036 12.9637C47.4946 12.988 47.4795 13.0096 47.4596 13.0262C47.4398 13.0429 47.4159 13.0541 47.3905 13.0587Z" fill="#F8AE9D"/>
<path opacity="0.5" d="M49.1776 12.0978C49.2178 12.3244 49.8101 12.4084 50.5008 12.2879C51.1918 12.167 51.7219 11.8856 51.6817 11.6627C51.6414 11.436 51.0491 11.3521 50.3584 11.4726C49.6674 11.5932 49.1412 11.8712 49.1776 12.0978Z" fill="#F8AE9D"/>
<path d="M54.2766 11.425C54.3119 11.4121 54.3424 11.3888 54.3639 11.358C54.3855 11.3273 54.3971 11.2906 54.3971 11.2531C54.3971 9.96273 55.7788 9.13671 55.7935 9.12566C55.8143 9.1138 55.8325 9.09793 55.8471 9.07897C55.8617 9.06001 55.8724 9.03832 55.8785 9.01519C55.8846 8.99207 55.8861 8.96796 55.8828 8.94426C55.8795 8.92056 55.8715 8.89776 55.8594 8.87717C55.8475 8.85635 55.8316 8.83811 55.8126 8.8235C55.7936 8.80889 55.7719 8.79821 55.7488 8.79208C55.7256 8.78596 55.7015 8.78451 55.6777 8.78782C55.654 8.79113 55.6312 8.79913 55.6106 8.81136C55.5448 8.84795 54.0315 9.74714 54.0352 11.2531C54.0352 11.3555 54.1157 11.436 54.2179 11.436C54.2363 11.436 54.2581 11.4286 54.2766 11.425Z" fill="#F8AE9D"/>
<path d="M55.6985 10.4271C55.7206 10.4198 55.7407 10.4073 55.7569 10.3905C55.7745 10.3745 55.7888 10.3551 55.7989 10.3335C55.809 10.312 55.8147 10.2886 55.8157 10.2648C55.8167 10.241 55.813 10.2173 55.8047 10.1949C55.7965 10.1726 55.7839 10.1521 55.7677 10.1346C55.7495 10.1128 55.3073 9.64134 54.5871 9.80928C54.5638 9.81476 54.5418 9.82479 54.5223 9.83881C54.5029 9.85282 54.4864 9.87053 54.4738 9.89093C54.4613 9.91133 54.4528 9.93402 54.4491 9.95768C54.4453 9.98134 54.4462 10.0055 54.4518 10.0288C54.4572 10.0522 54.4672 10.0742 54.4812 10.0936C54.4952 10.1131 54.5129 10.1295 54.5333 10.1421C54.5536 10.1547 54.5763 10.163 54.6 10.1668C54.6236 10.1705 54.6478 10.1695 54.6711 10.1639C55.1865 10.0433 55.4974 10.376 55.501 10.3797C55.5521 10.4381 55.6327 10.4526 55.6985 10.4271Z" fill="#F8AE9D"/>
<path d="M49.5433 5.18511C49.5433 5.18511 49.5396 6.63629 50.8776 7.21381C51.9852 7.69289 52.6102 7.7658 52.6102 7.7658C52.6102 7.7658 51.7294 11.9185 53.2901 12.1962C54.8547 12.4742 53.875 8.29963 56.0903 7.76212C56.0903 7.76212 56.8652 7.44045 56.5141 6.04797C56.1632 4.65523 54.2624 1.01793 49.3643 2.02689C45.6904 2.78367 42.8101 5.38253 43.1718 7.98876C43.5338 10.5953 43.9944 9.98483 43.9944 9.98483C43.9944 9.98483 43.4461 8.52996 45.0105 7.06404C46.3045 5.84687 49.5433 5.18511 49.5433 5.18511Z" fill="#31446C"/>
<path d="M55.2562 41.7832C55.2914 41.7829 55.3255 41.7711 55.3534 41.7496C55.3812 41.728 55.4013 41.6979 55.4104 41.6639C55.4195 41.6299 55.4173 41.5939 55.404 41.5613C55.3907 41.5287 55.367 41.5013 55.3367 41.4834C55.2854 41.4542 54.1048 40.789 52.8692 40.6903C52.8285 40.6894 52.789 40.7042 52.7587 40.7315C52.7285 40.7588 52.7098 40.7966 52.7066 40.8373C52.7033 40.8779 52.7157 40.9182 52.7412 40.95C52.7667 40.9818 52.8033 41.0026 52.8437 41.0083C54.0061 41.0996 55.1648 41.7503 55.1796 41.7577C55.2014 41.7795 55.2269 41.7832 55.2562 41.7832Z" fill="#F8AE9D"/>
<path d="M53.294 41.0703C53.3234 41.0703 53.3524 41.0628 53.378 41.0484C54.1237 40.5951 55.0266 40.5293 55.034 40.5257C55.0762 40.5217 55.1154 40.5017 55.1432 40.4697C55.1711 40.4377 55.1856 40.3962 55.1838 40.3538C55.1805 40.3113 55.1607 40.2718 55.1286 40.2437C55.0965 40.2157 55.0547 40.2015 55.0121 40.204C54.9719 40.2077 54.0213 40.2772 53.2135 40.7705C53.1773 40.7924 53.1513 40.8278 53.141 40.8688C53.1308 40.9099 53.1371 40.9533 53.1588 40.9897C53.1711 41.0148 53.1904 41.0358 53.2144 41.0501C53.2385 41.0644 53.2661 41.0714 53.294 41.0703Z" fill="#F8AE9D"/>
<path d="M57.6726 22.6579L52.2701 42.4153L54.1964 40.1966C53.4836 40.5767 52.6576 40.8655 51.7436 41.0739C50.8297 41.2787 49.8318 41.3993 48.7936 41.4504C47.7518 41.5054 46.6662 41.4943 45.5549 41.4504C44.4438 41.403 43.3106 41.3224 42.159 41.2237H42.1518C40.4519 41.0776 38.957 42.3388 38.8107 44.0384C38.6717 45.6578 39.8233 47.0945 41.4024 47.3504C42.5904 47.5404 43.8005 47.7194 45.0395 47.8621C46.2788 48.0045 47.5509 48.1143 48.8668 48.1435C50.1827 48.1727 51.5462 48.1216 52.9534 47.9168C54.3609 47.712 55.8195 47.3467 57.2451 46.7326C57.6785 46.5457 58.0677 46.2698 58.3876 45.9228C58.7075 45.5758 58.9508 45.1654 59.1019 44.7183L59.1714 44.5135L65.6487 25.0778C66.3763 22.8919 65.1991 20.5342 63.0133 19.8029C60.8311 19.0756 58.4697 20.2525 57.7384 22.4387C57.7166 22.5081 57.691 22.5921 57.6726 22.6579Z" fill="#F8AE9D"/>
<path d="M64.6849 49.5623L64.244 48.4981L63.3475 46.7487C63.3475 46.7487 52.8017 48.5368 45.226 46.6718L45.0449 47.5255C45.0449 47.5255 49.4035 50.2707 56.2493 50.0856C63.099 49.9009 64.6849 49.5623 64.6849 49.5623Z" fill="#31446C"/>
<path d="M49.4487 48.353H24.6512L24.3812 47.2532C24.2132 46.5617 24.6549 45.8702 25.2648 45.8702H48.1449C48.554 45.8702 48.9154 46.1879 49.0286 46.652L49.4487 48.353Z" fill="#E1E4E5"/>
<path d="M6.39093 22.6692L10.631 40.6028L10.7445 41.0742L11.0296 42.2806C11.0893 42.5343 11.233 42.7605 11.4373 42.9223C11.6417 43.0842 11.8947 43.1723 12.1554 43.1724H40.7225C41.4683 43.1724 42.0239 42.4743 41.8521 41.7467L37.2134 22.1354C37.1537 21.8817 37.01 21.6555 36.8057 21.4936C36.6013 21.3318 36.3483 21.2437 36.0876 21.2436H7.52045C6.77104 21.2473 6.21904 21.9454 6.39093 22.6692Z" fill="#D7970F"/>
<path d="M20.2704 32.9776C20.4057 34.2132 21.5171 35.2111 22.7524 35.2111C23.988 35.2111 24.8764 34.2096 24.7411 32.9776C24.6058 31.742 23.4945 30.7441 22.2591 30.7441C21.0236 30.7441 20.1351 31.742 20.2704 32.9776Z" fill="white"/>
<path d="M34.9502 21.2474L39.8889 43.1762H40.7223C41.468 43.1762 42.02 42.4779 41.8482 41.7506L37.2095 22.1392C37.1497 21.8855 37.006 21.6593 36.8016 21.4975C36.5972 21.3356 36.3441 21.2475 36.0834 21.2474H34.9502ZM26.6783 43.1762L27.5446 48.0488H24.6825L23.8159 43.1762H26.6783Z" fill="#31446C"/>
<path d="M31.8286 47.2079L31.2439 46.3856C31.1404 46.2408 31.0037 46.1228 30.8454 46.0414C30.6871 45.96 30.5117 45.9176 30.3337 45.9176H22.4855C22.2817 45.917 22.0818 45.9727 21.9076 46.0785C21.7334 46.1843 21.5918 46.3361 21.4984 46.5172L21.1036 47.2737C20.9172 47.6283 21.1767 48.0487 21.5753 48.0487H31.3937C31.8251 48.0487 32.0773 47.5591 31.8286 47.2079Z" fill="#31446C"/>
<path d="M0 49.3821V50.6345C0 51.3566 0.523557 51.9393 1.17479 51.9393H82.825C83.4728 51.9393 84 51.3566 84 50.6345V49.3821C84 48.6632 83.4762 48.0772 82.825 48.0772H1.17479C0.526979 48.0807 0 48.6632 0 49.3821Z" fill="white"/>
</svg>
