<svg width="67" height="47" viewBox="0 0 67 47" fill="none" xmlns="http://www.w3.org/2000/svg">
<path d="M50.7326 0H2.01209C0.900843 0 0 0.920568 0 2.05615V18.6141C0 19.7496 0.900843 20.6702 2.01209 20.6702H50.7326C51.8438 20.6702 52.7447 19.7496 52.7447 18.6141V2.05615C52.7447 0.920568 51.8438 0 50.7326 0Z" fill="#D7970F"/>
<path d="M42.0532 16.3936C43.6278 16.3936 44.9043 15.1171 44.9043 13.5425C44.9043 11.9679 43.6278 10.6915 42.0532 10.6915C40.4786 10.6915 39.2021 11.9679 39.2021 13.5425C39.2021 15.1171 40.4786 16.3936 42.0532 16.3936Z" fill="white"/>
<path fillRule="evenodd" clipRule="evenodd" d="M44.9043 16.0676C45.5852 15.3955 45.9665 14.4879 45.9653 13.5425C45.9665 12.5972 45.5851 11.6896 44.9043 11.0175C45.3228 10.8027 45.7886 10.6908 46.2614 10.6915C47.8738 10.6915 49.1809 11.9679 49.1809 13.5425C49.1809 15.1172 47.8738 16.3936 46.2614 16.3936C45.7715 16.3936 45.3098 16.2759 44.9043 16.0676Z" fill="white"/>
<path d="M29.7363 4.98936H6.61477C5.32344 4.98936 4.27661 5.94671 4.27661 7.12766C4.27661 8.30861 5.32344 9.26596 6.61477 9.26596H29.7363C31.0277 9.26596 32.0745 8.30861 32.0745 7.12766C32.0745 5.94671 31.0277 4.98936 29.7363 4.98936Z" fill="white"/>
<path d="M21.1807 11.4043H6.6172C5.32453 11.4043 4.27661 12.5212 4.27661 13.8989C4.27661 15.2767 5.32453 16.3936 6.6172 16.3936H21.1807C22.4734 16.3936 23.5213 15.2767 23.5213 13.8989C23.5213 12.5212 22.4734 11.4043 21.1807 11.4043Z" fill="white"/>
<path d="M64.988 26.3723H16.2675C15.1562 26.3723 14.2554 27.2612 14.2554 28.3576V44.3445C14.2554 45.441 15.1562 46.3298 16.2675 46.3298H64.988C66.0992 46.3298 67.0001 45.441 67.0001 44.3445V28.3576C67.0001 27.2612 66.0992 26.3723 64.988 26.3723Z" fill="#D7970F"/>
<path d="M55.9521 42.766C57.7235 42.766 59.1595 41.3299 59.1595 39.5585C59.1595 37.7871 57.7235 36.3511 55.9521 36.3511C54.1807 36.3511 52.7446 37.7871 52.7446 39.5585C52.7446 41.3299 54.1807 42.766 55.9521 42.766Z" fill="white"/>
<path fillRule="evenodd" clipRule="evenodd" d="M58.4469 42.3992C59.1278 41.6431 59.509 40.622 59.5077 39.5585C59.509 38.4949 59.1276 37.4739 58.4468 36.7179C58.8653 36.4762 59.3311 36.3503 59.8039 36.3511C61.4163 36.3511 62.7234 37.7871 62.7234 39.5585C62.7234 41.3299 61.4163 42.766 59.8039 42.766C59.314 42.766 58.8522 42.6334 58.4469 42.3992Z" fill="white"/>
<path d="M43.3389 30.6489H20.8102C19.552 30.6489 18.532 31.7658 18.532 33.1436C18.532 34.5214 19.552 35.6383 20.8102 35.6383H43.3389C44.5971 35.6383 45.6171 34.5214 45.6171 33.1436C45.6171 31.7658 44.5971 30.6489 43.3389 30.6489Z" fill="white"/>
<path d="M34.81 37.7766H20.7859C19.5411 37.7766 18.532 38.7339 18.532 39.9149C18.532 41.0958 19.5411 42.0532 20.7859 42.0532H34.81C36.0548 42.0532 37.0639 41.0958 37.0639 39.9149C37.0639 38.7339 36.0548 37.7766 34.81 37.7766Z" fill="white"/>
</svg>
