<svg width="93" height="57" viewBox="0 0 93 57" fill="none" xmlns="http://www.w3.org/2000/svg">
<path fillRule="evenodd" clipRule="evenodd" d="M28.9666 28.9738C22.3724 26.5737 18.9723 19.283 21.3721 12.6897C23.7719 6.09623 31.063 2.6968 37.6572 5.0968C44.2513 7.49695 47.6515 14.7877 45.2516 21.3811C42.8519 27.9746 35.5607 31.3739 28.9666 28.9738Z" fill="#E1E4E5"/>
<path fillRule="evenodd" clipRule="evenodd" d="M30.0026 26.0637C25.0023 24.2439 22.424 18.7154 24.2437 13.7158C26.0634 8.71613 31.5921 6.13841 36.5923 7.95841C41.5926 9.77827 44.1709 15.3067 42.3512 20.3064C40.5314 25.306 35.0027 27.8837 30.0026 26.0637Z" fill="white"/>
<path d="M35.24 28.9313C34.9022 27.8919 35.4711 26.7756 36.5105 26.4379C37.5498 26.1002 38.6662 26.6689 39.004 27.7083L40.5485 32.4621L36.7845 33.6849L35.24 28.9313Z" fill="#E1E4E5"/>
<path d="M40.1635 31.1633L36.1332 32.4729C35.6597 32.6267 35.4006 33.1352 35.5544 33.6087L41.3994 51.5977C41.5533 52.0712 42.0618 52.3303 42.5353 52.1765L46.5656 50.8669C47.0391 50.7131 47.2982 50.2046 47.1443 49.7311L41.2994 31.7421C41.1455 31.2686 40.637 31.0095 40.1635 31.1633Z" fill="#31446C"/>
<path fillRule="evenodd" clipRule="evenodd" d="M60.6122 46.6402L59.2124 44.4456C57.4942 41.7521 55.0594 39.5907 52.1811 38.2041L46.4405 35.4388C45.515 34.9929 44.501 34.7614 43.4738 34.7613H42.2555L42.7185 36.2979L36.1952 34.7046C35.4362 34.5192 34.689 35.0492 34.613 35.8268C34.591 36.0525 34.6291 36.2801 34.7235 36.4863C34.818 36.6925 34.9654 36.87 35.1507 37.0008L36.954 38.2725C35.8242 38.8168 35.6675 40.3624 36.665 41.1224L37.5813 41.8205C36.7116 42.3584 36.6613 43.6049 37.4849 44.2111L38.8142 45.1895C38.7321 45.6051 38.7906 46.0362 38.9805 46.415C39.1704 46.7937 39.4809 47.0984 39.863 47.2812L41.2845 47.9607C41.495 48.0614 41.714 48.1431 41.939 48.2049L48.5121 50.0122L55.8475 54.93L60.6122 46.6402Z" fill="#F8AE9D"/>
<path fillRule="evenodd" clipRule="evenodd" d="M72.7651 56.0862L56.8649 40.861L45.9185 51.8973L50.3106 56.0862H72.7651Z" fill="#D7970F"/>
<path d="M57.2884 44.5151C56.815 44.5151 56.4312 44.8988 56.4312 45.3722C56.4312 45.8456 56.815 46.2294 57.2884 46.2294C57.7618 46.2294 58.1455 45.8456 58.1455 45.3722C58.1455 44.8988 57.7618 44.5151 57.2884 44.5151Z" fill="white"/>
<path d="M28.3951 54.8838C19.8804 51.7754 13.9246 44.3618 10.4281 38.6904C6.63148 32.5329 4.83205 27.0411 4.81434 26.9861L4.43848 27.1359C4.45619 27.1909 6.26834 32.7243 10.0885 38.9234C13.6188 44.6515 19.6362 52.1405 28.2565 55.2878L28.3951 54.8838Z" fill="#D6EFB6"/>
<path d="M5.14744 24.9906C5.92201 26.455 6.05715 28.1193 5.64244 29.5617C4.28901 29.2306 3.03372 28.271 2.259 26.8066C1.48357 25.3421 1.34829 23.6777 1.76315 22.2354C3.11729 22.5666 4.37186 23.5261 5.14744 24.9906ZM4.31358 30.5909C5.01772 30.8674 5.65637 31.288 6.18866 31.8255C6.72094 32.3631 7.13513 33.0059 7.40473 33.7127C6.13415 34.3786 4.57129 34.5013 3.09115 33.9186C2.38715 33.6417 1.74864 33.2211 1.21639 32.6835C0.684138 32.1459 0.269855 31.5033 0 30.7966C1.27057 30.13 2.83343 30.0081 4.31358 30.5909ZM5.48115 39.2024C7.66916 38.8899 9.33187 37.8556 9.19501 36.8923C9.05801 35.929 7.1733 35.4016 4.9853 35.7143C2.79729 36.027 1.13457 37.0613 1.27143 38.0244C1.40843 38.9877 3.29315 39.5152 5.48115 39.2024ZM8.48359 44.0997C10.6716 43.7872 12.3343 42.7529 12.1973 41.7896C12.0604 40.8263 10.1757 40.2989 7.98759 40.6116C5.79958 40.9243 4.13686 41.9586 4.27386 42.9217C4.41072 43.885 6.29544 44.4124 8.48359 44.0997Z" fill="#D6EFB6"/>
<path d="M7.84133 32.9717C7.92747 31.426 8.57033 30.0301 9.51647 29.0772C10.3579 29.998 10.847 31.3734 10.7609 32.9191C10.6748 34.4648 10.0319 35.8607 9.08561 36.8135C8.24347 35.8928 7.75518 34.5174 7.84133 32.9717ZM10.9755 38.04C11.0389 36.4934 11.6623 35.0857 12.594 34.116C13.4499 35.0197 13.9585 36.385 13.8951 37.9315C13.8318 39.4781 13.2082 40.8858 12.2756 41.8557C11.4215 40.9518 10.9122 39.5865 10.9755 38.04ZM13.2008 45.662C13.8056 45.3418 14.4705 45.3317 15.0313 45.5756C14.8599 46.2074 14.4409 46.7716 13.8369 47.0917C13.2319 47.4118 12.567 47.422 12.0062 47.178C12.1768 46.5463 12.5959 45.9821 13.2008 45.662ZM25.0951 55.3564C21.7852 51.3797 20.9732 46.0128 20.8749 42.2111C20.7679 38.0834 21.4556 34.8571 21.4626 34.825L21.2341 34.7911C21.2271 34.8233 20.5338 38.0737 20.6405 42.2285C20.7392 46.068 21.5601 51.4898 24.9108 55.516L25.0951 55.3564Z" fill="#D6EFB6"/>
<path d="M22.1999 33.9357C22.162 34.8806 21.7513 35.7407 21.1327 36.3334C20.5599 35.7817 20.2157 34.9481 20.2536 34.0031C20.291 33.0581 20.7019 32.198 21.3203 31.6053C21.8936 32.1571 22.2373 32.9906 22.1999 33.9357ZM20.1817 36.46C20.4499 36.7985 20.6444 37.1893 20.7528 37.6073C20.8612 38.0253 20.8812 38.4613 20.8115 38.8874C19.9935 38.8514 19.187 38.4636 18.6239 37.7514C18.3559 37.4129 18.1615 37.0221 18.0531 36.6042C17.9446 36.1863 17.9246 35.7503 17.9942 35.3242C18.8123 35.3597 19.6186 35.7479 20.1817 36.46ZM18.2873 41.0444C19.4567 41.5179 20.574 41.4846 20.7827 40.97C20.9915 40.4553 20.2127 39.6544 19.0435 39.181C17.874 38.7076 16.7567 38.7409 16.548 39.2554C16.3392 39.7702 17.118 40.571 18.2873 41.0444ZM18.3637 44.3225C19.5332 44.7959 20.6505 44.7625 20.8592 44.2479C21.068 43.7333 20.2892 42.9323 19.1199 42.4589C17.9505 41.9854 16.8332 42.0189 16.6245 42.5335C16.4157 43.048 17.1945 43.849 18.3637 44.3225Z" fill="#D6EFB6"/>
<path d="M21.2387 38.647C21.7247 37.909 22.4424 37.4045 23.1827 37.2058C23.3337 37.9015 23.1806 38.7205 22.6946 39.4587C22.2086 40.1967 21.4908 40.701 20.7506 40.8998C20.5991 40.2038 20.7528 39.385 21.2387 38.647ZM21.3313 42.0471C21.8063 41.3021 22.5178 40.7864 23.2558 40.5751C23.4188 41.2665 23.2781 42.0862 22.8031 42.8312C22.3281 43.5762 21.6167 44.092 20.8783 44.303C20.716 43.612 20.8564 42.7921 21.3313 42.0471ZM20.2427 46.4465C20.633 46.4621 20.964 46.6478 21.1708 46.9291C20.9048 47.1918 20.5363 47.35 20.1464 47.3345C19.7561 47.3191 19.4251 47.1334 19.2183 46.852C19.4837 46.5893 19.8523 46.4311 20.2427 46.4465Z" fill="#D6EFB6"/>
<path d="M35.0039 56.1117C34.2482 55.0735 30.0428 49.5545 27.2622 48.5668C24.193 47.4765 26.998 51.5352 26.998 51.5352C26.998 51.5352 21.6759 45.3805 19.6433 45.8627C17.7803 46.3047 19.5215 50.0744 19.5215 50.0744C19.5215 50.0744 17.4989 47.9567 14.9739 47.8835C12.5165 47.8125 16.4636 55.4155 16.6776 55.8127L35.0039 56.1117ZM78.1274 50.1025C72.1994 43.7021 70.3504 34.7594 69.8433 28.3851C69.2924 21.464 70.1601 15.9896 70.1687 15.9356L69.7811 15.8978C69.7721 15.9526 68.8974 21.4672 69.4503 28.4339C69.9616 34.8716 71.8303 43.9058 77.8317 50.386L78.1274 50.1025Z" fill="#D6EFB6"/>
<path d="M71.3282 14.3813C71.35 15.9712 70.7356 17.4483 69.748 18.4951C68.7343 17.6166 68.0801 16.2456 68.059 14.6562C68.037 13.0663 68.6514 11.5892 69.6391 10.5425C70.6531 11.4202 71.3062 12.7916 71.3282 14.3813ZM68.1587 18.7868C68.64 19.3314 69.0023 19.9705 69.2223 20.6632C69.4424 21.3559 69.5154 22.0869 69.4367 22.8095C68.0567 22.8173 66.6647 22.2335 65.6529 21.0848C64.641 19.9361 64.2203 18.4616 64.3746 17.0628C65.7549 17.0543 67.1469 17.6381 68.1587 18.7868ZM65.3814 26.6421C67.3922 27.3395 69.2694 27.1904 69.5746 26.3091C69.8797 25.4276 68.497 24.1478 66.4864 23.4505C64.4757 22.7531 62.5983 22.9022 62.2931 23.7836C61.9881 24.6649 63.3707 25.9448 65.3814 26.6421ZM65.805 32.1381C67.8157 32.8355 69.693 32.6864 69.9981 31.8051C70.3033 30.9236 68.9207 29.6438 66.91 28.9465C64.8993 28.2491 63.022 28.3982 62.7169 29.2796C62.4117 30.1609 63.7943 31.4408 65.805 32.1381Z" fill="#D6EFB6"/>
<path d="M70.136 22.3711C70.8876 21.0915 72.0502 20.1851 73.2782 19.7896C73.595 20.9451 73.4107 22.3329 72.659 23.6125C71.9074 24.8921 70.7449 25.7987 69.5169 26.1939C69.1994 25.0382 69.3844 23.6507 70.136 22.3711ZM70.5977 28.0711C71.3302 26.7808 72.4813 25.8557 73.7044 25.4395C74.0409 26.5868 73.8777 27.9745 73.1453 29.2649C72.4129 30.5552 71.2617 31.4804 70.0379 31.8962C69.7024 30.7504 69.8649 29.3622 70.5977 28.0711ZM69.1609 35.5481C69.8192 35.5417 70.393 35.826 70.7663 36.281C70.3424 36.744 69.7363 37.0401 69.0786 37.047C68.4203 37.0534 67.8466 36.7692 67.4731 36.3141C67.8963 35.8508 68.5026 35.5545 69.1609 35.5481ZM72.9686 46.4438C72.9686 46.4438 69.7594 39.3497 70.8322 37.7668C72.3149 35.5791 74.1584 42.292 74.2486 41.7018C75.0977 36.1298 74.9199 29.1024 78.8917 28.0375C81.1493 27.4322 78.7426 33.286 79.0227 34.7942C79.3029 36.3024 83.0589 30.9178 85.3719 28.0687C87.6848 25.2199 89.1012 26.7917 87.7606 30.2478C86.4642 33.5898 81.767 37.506 82.8185 37.8411C83.8699 38.1761 89.7655 33.5205 90.6539 35.2362C91.7435 37.34 82.6616 41.0535 83.5729 41.4727C84.4843 41.8917 88.8103 39.9221 88.8103 41.5977C88.8103 43.2733 82.832 43.6924 82.9876 44.417C83.2395 45.5901 86.9946 42.5864 87.2879 44.2144C87.5878 45.8793 82.1902 46.0055 82.3786 47.308C82.487 48.0563 83.8465 47.2731 84.0923 48.302C84.653 50.648 76.147 53.9358 76.147 53.9358L72.9686 46.4438Z" fill="#D6EFB6"/>
<path d="M64.988 47.4843C63.2247 48.3086 63.7005 50.3559 63.7005 50.3559C63.7005 50.3559 58.9201 46.6303 57.1327 48.8048C55.3452 50.9793 56.2848 55.2412 58.381 55.9343C60.477 56.6271 78.7094 56.1415 78.7094 56.1415C78.7094 56.1415 66.574 46.743 64.988 47.4843Z" fill="#D6EFB6"/>
<path d="M73.0166 55.9426C73.0166 55.9426 78.6165 48.7679 80.957 47.6683C83.4513 46.4968 81.2886 50.5562 81.2886 50.5562C81.2886 50.5562 86.6218 45.3275 87.8745 46.6331C89.1272 47.9385 87.7895 49.1602 87.7895 49.1602C87.7895 49.1602 92.2552 48.3319 92.9066 50.0019C93.9072 52.5676 86.5619 53.8435 86.5619 53.8435C86.5619 53.8435 90.0808 53.0728 89.3766 54.6612C88.3152 57.0562 73.0166 55.9426 73.0166 55.9426Z" fill="#D6EFB6"/>
<path d="M78.7096 56.1238C78.7096 56.1238 69.7866 56.7534 68.049 55.1588C66.3109 53.5642 68.035 50.6752 68.035 50.6752C68.035 50.6752 64.973 48.2596 65.0206 46.6824C65.0682 45.1051 67.063 45.9055 67.063 45.9055C67.063 45.9055 63.6823 41.5609 64.4837 40.7344C65.9774 39.1956 69.8862 43.7115 69.8862 43.7115C69.8862 43.7115 68.7263 41.5632 69.9499 41.2222C71.7955 40.7076 73.1533 46.0059 73.1533 46.0059C73.1533 46.0059 72.8089 43.9135 74.0812 44.1915C76.3646 44.6899 78.7096 56.1238 78.7096 56.1238Z" fill="#D6EFB6"/>
<path d="M39.2122 5.96046e-07C38.7974 5.96046e-07 38.4611 0.3363 38.4611 0.751145C38.4611 1.16599 38.7974 1.50229 39.2122 1.50229C39.6271 1.50229 39.9634 1.16599 39.9634 0.751145C39.9634 0.3363 39.6271 5.96046e-07 39.2122 5.96046e-07Z" fill="#E1E4E5"/>
<path d="M74.9696 6.46005C74.5547 6.46005 74.2184 6.79635 74.2184 7.2112C74.2184 7.62604 74.5547 7.96234 74.9696 7.96234C75.3844 7.96234 75.7207 7.62604 75.7207 7.2112C75.7207 6.79635 75.3844 6.46005 74.9696 6.46005Z" fill="#E1E4E5"/>
<path d="M9.99134 10.3665C9.61791 10.3665 9.31519 10.6692 9.31519 11.0426C9.31519 11.4161 9.61791 11.7188 9.99134 11.7188C10.3648 11.7188 10.6675 11.4161 10.6675 11.0426C10.6675 10.6692 10.3648 10.3665 9.99134 10.3665Z" fill="#E1E4E5"/>
</svg>
