<svg width="118" height="69" viewBox="0 0 118 69" fill="none" xmlns="http://www.w3.org/2000/svg">
<path d="M4.90976 62.74V67.9H3.90976V62.74H1.00977V61.84H7.81976V62.74H4.90976Z" fill="white"/>
<path d="M22.4405 67.9L20.8004 65.59H17.7305V67.9H16.7305V61.84H21.4405C21.9911 61.8061 22.5332 61.9891 22.9505 62.35C23.1348 62.5315 23.2783 62.7503 23.3715 62.9917C23.4646 63.2331 23.5051 63.4916 23.4904 63.75C23.4937 63.992 23.4531 64.2325 23.3705 64.46C23.2966 64.6567 23.1844 64.8369 23.0405 64.99C22.898 65.1405 22.7284 65.2626 22.5405 65.35C22.3395 65.4402 22.1278 65.504 21.9105 65.54L23.5405 67.9H22.4405ZM21.3205 64.67C21.6304 64.6876 21.9372 64.5995 22.1905 64.42C22.2913 64.3367 22.371 64.2308 22.4231 64.1109C22.4753 63.991 22.4983 63.8605 22.4904 63.73C22.4904 63.06 22.0705 62.73 21.2305 62.73H17.6905V64.67H21.3205Z" fill="white"/>
<path d="M38.5204 67.9L37.8204 66.55H33.7404L33.0404 67.9H31.9404L35.1504 61.84H36.4404L39.6504 67.9H38.5204ZM35.7804 62.67L34.2304 65.67H37.3304L35.7804 62.67Z" fill="white"/>
<path d="M51.3497 67.9H50.1997L46.9297 61.84H48.0497L50.7697 66.9L53.4997 61.84H54.6197L51.3497 67.9Z" fill="white"/>
<path d="M63.4404 67.9V61.84H69.5604V62.74H64.4404V64.31H67.9904V65.21H64.4404V67H69.7904V67.9H63.4404Z" fill="white"/>
<path d="M84.8399 67.9L83.1999 65.59H80.1299V67.9H79.1299V61.84H83.9099C84.4605 61.8061 85.0026 61.9891 85.4199 62.35C85.6042 62.5315 85.7478 62.7503 85.8409 62.9917C85.934 63.2331 85.9746 63.4916 85.9599 63.75C85.9632 63.992 85.9225 64.2325 85.8399 64.46C85.766 64.6567 85.6538 64.8369 85.5099 64.99C85.3675 65.1405 85.1978 65.2626 85.0099 65.35C84.8089 65.4402 84.5972 65.504 84.3799 65.54L86.0099 67.9H84.8399ZM83.7599 64.67C84.0698 64.6876 84.3766 64.5995 84.6299 64.42C84.7307 64.3367 84.8104 64.2308 84.8625 64.1109C84.9147 63.991 84.9377 63.8605 84.9299 63.73C84.9299 63.06 84.5099 62.73 83.6699 62.73H80.1299V64.67H83.7599Z" fill="white"/>
<path d="M100.63 63.26C100.202 63.035 99.749 62.8605 99.2804 62.74C98.8222 62.6275 98.3522 62.5705 97.8804 62.57C97.393 62.5464 96.9059 62.6247 96.4504 62.8C96.1204 62.94 95.9604 63.14 95.9604 63.39C95.9604 63.64 96.1404 63.86 96.4904 63.98C96.6709 64.0466 96.859 64.0902 97.0504 64.11C97.2725 64.1421 97.4962 64.1622 97.7204 64.17L98.5004 64.22C98.7804 64.22 99.0704 64.22 99.3804 64.3C99.9809 64.3392 100.562 64.5283 101.07 64.85C101.249 64.9885 101.391 65.1681 101.485 65.3736C101.579 65.5791 101.622 65.8043 101.61 66.03C101.618 66.331 101.544 66.6284 101.396 66.8907C101.248 67.153 101.032 67.3704 100.77 67.52C100.009 67.9139 99.1557 68.0936 98.3004 68.04C97.6062 68.0497 96.9138 67.969 96.2404 67.8C95.6775 67.6445 95.1508 67.3794 94.6904 67.02L95.2404 66.29C95.6992 66.5828 96.1976 66.8085 96.7204 66.96C97.2383 67.1024 97.7733 67.173 98.3104 67.17C98.8752 67.1979 99.439 67.0988 99.9604 66.88C100.12 66.8164 100.258 66.708 100.357 66.5678C100.457 66.4276 100.513 66.2617 100.52 66.09C100.527 65.9978 100.514 65.9052 100.481 65.8188C100.448 65.7324 100.397 65.6543 100.33 65.59C100.174 65.4531 99.9843 65.36 99.7804 65.32C99.4909 65.2539 99.1967 65.2104 98.9004 65.19L97.7104 65.11C97.2982 65.085 96.8877 65.0382 96.4804 64.97C96.175 64.9312 95.8779 64.8434 95.6004 64.71C95.386 64.6065 95.2031 64.4477 95.0704 64.25C94.9511 64.0292 94.8925 63.7808 94.9004 63.53C94.8974 63.2545 94.9693 62.9834 95.1085 62.7456C95.2476 62.5078 95.4488 62.3123 95.6904 62.18C96.3875 61.8106 97.1731 61.641 97.9604 61.69C99.1188 61.6462 100.263 61.9567 101.24 62.58L100.63 63.26Z" fill="white"/>
<path d="M111.01 67.9V61.84H117.13V62.74H112.02V64.31H115.57V65.21H112.02V67H117.36V67.9H111.01Z" fill="white"/>
<path d="M116.87 43.83H112.99V54.14H116.87V43.83Z" fill="#F4D79F"/>
<path d="M89.8805 50.8H72.3605V44.02H68.4805V54.14H93.7605V43.83H89.8805V50.8Z" fill="#F4D79F"/>
<path d="M60.6904 21.31V26.21H98.6604L91.0704 37.37H74.8704L80.4704 29.5H76.2804L68.8304 40.68H93.3904L102.87 26.21L112.8 40.7H117.22L107.6 26.21H111.68V21.31H60.6904Z" fill="#FAB114"/>
<path d="M60.69 26.21H42.71V21.31H60.69" fill="#FAB114"/>
<path d="M18.8996 20.15L15.1696 23.95C13.6896 23.95 12.4696 23.95 11.5896 23.87C10.5182 23.8709 9.45061 23.7434 8.40962 23.49C7.38609 23.1516 6.436 22.6223 5.60963 21.93C3.89641 20.4016 2.5322 18.5224 1.60963 16.42C1.1663 15.0929 0.956497 13.6989 0.989603 12.3C0.861196 11.0217 0.966235 9.73073 1.2996 8.49001C1.67769 7.36188 2.25707 6.31158 3.00962 5.39001C3.83016 4.22535 4.84496 3.21054 6.00962 2.39001C7.43528 1.41658 9.05057 0.755465 10.7496 0.450005C12.1517 0.147296 13.5925 0.0663219 15.0196 0.210015C17.4603 0.460375 19.7783 1.40423 21.6996 2.93002C22.6076 3.55949 23.4194 4.31739 24.1096 5.18002C24.9057 6.18139 25.4631 7.35098 25.7396 8.6C25.9762 10.0997 25.9219 11.6309 25.5796 13.11C25.5796 13.11 23.0996 17.79 21.5796 17.46C21.2996 17.39 21.4096 17.12 20.8096 16.6C20.2096 16.08 20.0596 16.15 20.0296 15.9C19.9996 15.65 20.3596 15.42 20.6496 15.13C21.1546 14.4848 21.4292 13.6893 21.4296 12.87C21.5757 11.8647 21.4937 10.8393 21.1896 9.87002C20.9086 9.01043 20.46 8.21506 19.8696 7.52999C19.2695 6.80061 18.5323 6.19589 17.6996 5.74999C17.0387 5.41269 16.3308 5.17674 15.5996 5.05001C14.5477 4.86522 13.4716 4.86522 12.4196 5.05001C11.4196 5.23001 8.62962 5.72999 7.12962 7.99999C6.49796 9.06486 6.12782 10.2643 6.0496 11.5C5.90835 12.3206 5.90835 13.1594 6.0496 13.98C6.30142 15.2531 6.89221 16.4347 7.75962 17.4C8.75593 18.494 10.0481 19.2756 11.4796 19.65C12.4796 19.92 14.7296 20.5 15.9096 19.42C16.2596 19.1 16.5996 18.56 16.9996 18.64C17.2496 18.69 17.3396 18.95 17.8496 19.42C18.0465 19.5954 18.2535 19.759 18.4696 19.91" fill="#FAB114"/>
<path d="M28.8409 18.0107L25.0009 14.3207C25.0009 12.8407 25.0009 11.6207 25.0009 10.7407C24.9884 9.66714 25.1059 8.59601 25.3509 7.5507C25.6843 6.52814 26.2029 5.57563 26.8809 4.74071C27.6404 3.79074 28.5489 2.97011 29.5709 2.31071C30.4191 1.65408 31.3548 1.11893 32.3509 0.720718C33.6727 0.265729 35.0631 0.0424441 36.4609 0.0607147C37.7369 -0.0746579 39.0268 0.0167699 40.2709 0.330734C41.4061 0.699446 42.4662 1.26841 43.4009 2.01073C44.7029 2.90346 45.8152 4.04535 46.6734 5.37041C47.5316 6.69547 48.1187 8.17745 48.4009 9.73073C48.7133 11.1312 48.8044 12.572 48.6709 14.0007C48.5359 15.4537 48.1573 16.8735 47.5509 18.2007C47.1357 19.0885 46.6225 19.9271 46.0209 20.7007C45.4062 21.6169 44.6579 22.436 43.8009 23.1307C42.8109 23.9471 41.6428 24.5192 40.3909 24.8007C38.8976 25.0511 37.3702 25.0138 35.8909 24.6907C35.8909 24.6907 31.1809 22.2607 31.5009 20.7707C31.5609 20.4907 31.8409 20.6007 32.3409 19.9907C32.8409 19.3807 32.7909 19.2407 33.0409 19.2007C33.2909 19.1607 33.5209 19.5307 33.8209 19.8207C34.4677 20.3191 35.2644 20.5835 36.0809 20.5707C37.0878 20.7073 38.1125 20.6185 39.0809 20.3107C39.9335 20.0199 40.719 19.5608 41.3909 18.9607C42.1208 18.3558 42.7226 17.6113 43.1609 16.7707C43.4906 16.1092 43.7165 15.4009 43.8309 14.6707C44.0136 13.6152 44.0136 12.5362 43.8309 11.4807C43.6409 10.4807 43.1209 7.70073 40.8309 6.23073C39.7605 5.60773 38.5575 5.24783 37.3209 5.18071C36.4964 5.0458 35.6554 5.0458 34.8309 5.18071C33.5624 5.45203 32.3889 6.05603 31.4309 6.93071C30.3502 7.94321 29.5832 9.24482 29.2209 10.6807C28.9709 11.6807 28.4009 13.9307 29.5009 15.1007C29.8209 15.4507 30.3609 15.7807 30.2909 16.1807C30.2209 16.5807 29.9909 16.5207 29.5209 17.0507C29.3428 17.2427 29.1821 17.4502 29.0409 17.6707" fill="#FAB114"/>
<path d="M32.4397 28.02L35.8097 23.89C37.2697 23.74 38.4897 23.67 39.3697 23.64C40.4395 23.5338 41.5186 23.5674 42.5798 23.74C43.6278 23.9758 44.6197 24.414 45.4997 25.03C46.5114 25.7079 47.4063 26.5455 48.1497 27.51C48.8698 28.3055 49.4756 29.1974 49.9497 30.16C50.5151 31.4244 50.8535 32.7783 50.9497 34.16C51.1789 35.423 51.1789 36.717 50.9497 37.98C50.6787 39.1409 50.1974 40.2424 49.5297 41.23C48.7495 42.6069 47.7045 43.8158 46.4551 44.7872C45.2057 45.7586 43.7765 46.4732 42.2497 46.89C40.8807 47.3159 39.4534 47.5251 38.0197 47.51C36.5605 47.4901 35.1144 47.2299 33.7397 46.74C32.8231 46.3918 31.9451 45.9494 31.1197 45.42C30.1599 44.8795 29.2813 44.2062 28.5097 43.42C27.6239 42.5004 26.9632 41.3879 26.5798 40.17C26.2042 38.7007 26.1159 37.1728 26.3197 35.67C26.3197 35.67 28.3197 30.78 29.8697 30.98C30.1497 30.98 30.0697 31.3 30.7197 31.75C31.2097 32.1 31.4997 32.14 31.5597 32.38C31.6197 32.62 31.2697 32.89 31.0097 33.21C30.5656 33.8941 30.3648 34.7078 30.4397 35.52C30.3877 36.5453 30.5618 37.5695 30.9497 38.52C31.3044 39.35 31.8251 40.0986 32.4797 40.72C33.1465 41.3928 33.9379 41.9295 34.8097 42.3C35.4954 42.5793 36.2211 42.7481 36.9597 42.8C38.0252 42.885 39.0974 42.787 40.1297 42.51C41.1297 42.23 43.8397 41.51 45.1297 39.09C45.663 37.9737 45.9235 36.7467 45.8898 35.51C45.9545 34.6768 45.8802 33.8387 45.6698 33.03C45.2975 31.7938 44.608 30.6768 43.6698 29.79C42.5738 28.7899 41.2128 28.1267 39.7497 27.88C38.7497 27.71 36.4398 27.33 35.3598 28.52C35.0498 28.87 34.7598 29.44 34.3598 29.4C34.1098 29.4 33.9997 29.12 33.4397 28.7C33.2321 28.5386 33.0113 28.3947 32.7797 28.27" fill="#FAB114"/>
<path d="M22.7203 30.78L26.4403 34.57C26.4403 36.05 26.3702 37.27 26.3002 38.15C26.2991 39.2218 26.1511 40.2884 25.8603 41.32C25.5111 42.3381 24.9678 43.2788 24.2603 44.09C23.4783 45.024 22.5495 45.8245 21.5103 46.46C20.6437 47.0873 19.6948 47.5921 18.6903 47.96C17.3573 48.3881 15.9591 48.5777 14.5603 48.52C13.281 48.6226 11.9938 48.4939 10.7603 48.14C9.63386 47.7483 8.58961 47.1515 7.68025 46.38C6.50952 45.5387 5.49434 44.4998 4.68025 43.31C3.73881 41.8648 3.10563 40.241 2.82027 38.54C2.54439 37.1305 2.48704 35.6869 2.65025 34.26C2.94058 31.8249 3.9227 29.5241 5.48027 27.63C6.12357 26.7322 6.8951 25.9337 7.77025 25.26C8.78224 24.473 9.96334 23.9321 11.2203 23.68C12.7213 23.4718 14.2482 23.5498 15.7203 23.91C15.7203 23.91 20.3603 26.47 20.0003 27.91C19.9403 28.19 19.6603 28.08 19.1403 28.68C18.7403 29.12 18.6702 29.42 18.4303 29.44C18.1903 29.46 17.9503 29.11 17.6603 28.81C17.0265 28.2935 16.2377 28.0047 15.4203 27.99C14.4186 27.8287 13.3936 27.8936 12.4203 28.18C11.5563 28.4382 10.7558 28.8742 10.0703 29.46C9.33029 30.051 8.70927 30.7772 8.24025 31.6C7.89107 32.255 7.64487 32.9599 7.51027 33.69C7.31329 34.7394 7.29637 35.8148 7.46025 36.87C7.63025 37.87 8.07027 40.67 10.3203 42.2C11.3741 42.8508 12.5661 43.2447 13.8002 43.35C14.6211 43.4885 15.4594 43.4885 16.2803 43.35C17.5563 43.1159 18.7471 42.5464 19.7303 41.7C20.8382 40.7129 21.6399 39.4288 22.0403 38C22.3203 37 22.9503 34.77 21.8803 33.57C21.5703 33.22 21.0403 32.88 21.1203 32.47C21.1803 32.22 21.4303 32.14 21.9203 31.63C22.0975 31.4382 22.2612 31.2344 22.4103 31.02" fill="#FAB114"/>
</svg>
