<svg width="208" height="200" viewBox="0 0 208 200" fill="none" xmlns="http://www.w3.org/2000/svg">
<path d="M142.725 16.5414C143.841 9.6374 139.148 3.1361 132.245 2.02031C125.341 0.904516 118.839 5.59676 117.723 12.5007C116.608 19.4047 121.3 25.906 128.204 27.0218C135.108 28.1376 141.609 23.4453 142.725 16.5414Z" fill="#EBEBEB"/>
<path d="M142.783 17.2598C143.857 10.6923 139.404 4.49734 132.837 3.42304C126.269 2.34874 120.074 6.80189 119 13.3694C117.926 19.937 122.379 26.1319 128.946 27.2062C135.514 28.2805 141.709 23.8273 142.783 17.2598Z" fill="#DBDBDB"/>
<path d="M135.858 25.5514C141.656 23.1825 144.435 16.5622 142.067 10.7646C139.698 4.96699 133.077 2.18748 127.28 4.5564C121.482 6.92532 118.703 13.5456 121.072 19.3432C123.44 25.1408 130.061 27.9203 135.858 25.5514Z" fill="white"/>
<path d="M131.042 4.84473H130.753V6.55799H131.042V4.84473Z" fill="#EBEBEB"/>
<path d="M125.793 6.18968L125.543 6.33398L126.399 7.81786L126.649 7.67356L125.793 6.18968Z" fill="#EBEBEB"/>
<path d="M122.043 9.42169L121.898 9.67285L123.389 10.5295L123.533 10.2783L122.043 9.42169Z" fill="#EBEBEB"/>
<path d="M122.145 15.1721H120.432V15.4608H122.145V15.1721Z" fill="#EBEBEB"/>
<path d="M123.247 19.576L121.764 20.4329L121.908 20.6829L123.392 19.826L123.247 19.576Z" fill="#EBEBEB"/>
<path d="M126.396 22.8227L125.54 24.3069L125.79 24.4511L126.646 22.9669L126.396 22.8227Z" fill="#EBEBEB"/>
<path d="M131.042 24.0742H130.753V25.7875H131.042V24.0742Z" fill="#EBEBEB"/>
<path d="M135.407 22.84L135.157 22.9844L136.014 24.4681L136.264 24.3238L135.407 22.84Z" fill="#EBEBEB"/>
<path d="M138.551 19.57L138.406 19.8201L139.886 20.6743L140.03 20.4243L138.551 19.57Z" fill="#EBEBEB"/>
<path d="M141.37 15.1721H139.656V15.4608H141.37V15.1721Z" fill="#EBEBEB"/>
<path d="M139.888 9.95359L138.408 10.8079L138.553 11.0579L140.032 10.2036L139.888 9.95359Z" fill="#EBEBEB"/>
<path d="M136.018 6.18282L135.162 7.66699L135.412 7.81121L136.268 6.32704L136.018 6.18282Z" fill="#EBEBEB"/>
<path d="M132.57 11.6936L127.618 21.4297L127.875 21.5606L132.828 11.8245L132.57 11.6936Z" fill="#EBEBEB"/>
<path d="M130.32 11.4353L129.944 11.5105L132.056 22.0588L132.432 21.9835L130.32 11.4353Z" fill="#DBDBDB"/>
<path d="M93.8097 96.7839H12.5576V2.95215H93.8097V96.7839ZM14.446 94.8908H91.9166V4.84525H14.4507L14.446 94.8908Z" fill="#EBEBEB"/>
<path d="M53.3921 5.3418H51.499V95.837H53.3921V5.3418Z" fill="#EBEBEB"/>
<path d="M95.5317 6.78027H10.8389V9.41642H95.5317V6.78027Z" fill="#EBEBEB"/>
<path d="M95.5317 9.74805H10.8389V12.3842H95.5317V9.74805Z" fill="#EBEBEB"/>
<path d="M95.5317 12.7102H10.8389V15.3464H95.5317V12.7102Z" fill="#EBEBEB"/>
<path d="M95.5317 15.6782H10.8389V18.3144H95.5317V15.6782Z" fill="#EBEBEB"/>
<path d="M95.5317 18.6453H10.8389V21.2814H95.5317V18.6453Z" fill="#EBEBEB"/>
<path d="M95.5317 21.6084H10.8389V24.2445H95.5317V21.6084Z" fill="#EBEBEB"/>
<path d="M95.5317 24.5754H10.8389V27.2116H95.5317V24.5754Z" fill="#EBEBEB"/>
<path d="M95.5317 27.5432H10.8389V30.1794H95.5317V27.5432Z" fill="#EBEBEB"/>
<path d="M95.5317 30.5056H10.8389V33.1418H95.5317V30.5056Z" fill="#EBEBEB"/>
<path d="M89.9098 6.24585H89.4365V67.0098H89.9098V6.24585Z" fill="#263238"/>
<path d="M90.5112 69.2147H88.8311L89.2523 66.801H90.09L90.5112 69.2147Z" fill="#263238"/>
<path d="M91.6139 6.24585H91.1406V94.1475H91.6139V6.24585Z" fill="#263238"/>
<path d="M92.2145 95.9218H90.5391L90.9555 93.5081H91.798L92.2145 95.9218Z" fill="#263238"/>
<path d="M98.4666 2.58252H7.90039V8.09619H98.4666V2.58252Z" fill="#DBDBDB"/>
<path d="M203.837 24.2964H152.78V88.591H203.837V24.2964Z" fill="#EBEBEB"/>
<path d="M197.34 37.5813H159.104V38.7976H197.34V37.5813Z" fill="#DBDBDB"/>
<path d="M191.48 40.1272H159.104V41.3435H191.48V40.1272Z" fill="#DBDBDB"/>
<path d="M183.794 42.6689H159.104V43.8853H183.794V42.6689Z" fill="#DBDBDB"/>
<path d="M196.005 45.2156H159.104V46.4319H196.005V45.2156Z" fill="#DBDBDB"/>
<path d="M192.867 47.7566H159.104V48.9729H192.867V47.7566Z" fill="#DBDBDB"/>
<path d="M194.14 52.8445H159.104V54.0608H194.14V52.8445Z" fill="#DBDBDB"/>
<path d="M172.526 55.3911H159.104V56.6074H172.526V55.3911Z" fill="#DBDBDB"/>
<path d="M186.17 57.9321H159.104V59.1485H186.17V57.9321Z" fill="#DBDBDB"/>
<path d="M196.005 60.4788H159.104V61.6951H196.005V60.4788Z" fill="#DBDBDB"/>
<path d="M190.922 63.0198H159.104V64.2361H190.922V63.0198Z" fill="#DBDBDB"/>
<path d="M193.582 68.1074H159.104V69.3237H193.582V68.1074Z" fill="#DBDBDB"/>
<path d="M179.975 70.6543H159.104V71.8706H179.975V70.6543Z" fill="#DBDBDB"/>
<path d="M179.975 78.354H159.104V79.5703H179.975V78.354Z" fill="#DBDBDB"/>
<path d="M194.116 83.4372C196.251 83.4372 197.982 81.706 197.982 79.5705C197.982 77.435 196.251 75.7039 194.116 75.7039C191.98 75.7039 190.249 77.435 190.249 79.5705C190.249 81.706 191.98 83.4372 194.116 83.4372Z" fill="#FAB114"/>
<path d="M164.801 29.2517C165.265 29.2519 165.717 29.4068 166.084 29.6919C166.099 29.703 166.111 29.7171 166.121 29.7333C166.13 29.7495 166.136 29.7675 166.138 29.7861C166.141 29.8048 166.139 29.8236 166.134 29.8416C166.128 29.8596 166.119 29.8763 166.107 29.8906C166.096 29.9054 166.083 29.9179 166.067 29.9273C166.052 29.9367 166.034 29.943 166.016 29.9456C165.998 29.9483 165.98 29.9473 165.962 29.9427C165.944 29.9381 165.928 29.9301 165.913 29.919C165.597 29.6675 165.205 29.5307 164.801 29.5309C164.34 29.5309 163.898 29.7139 163.573 30.0397C163.247 30.3654 163.064 30.8072 163.064 31.2679C163.064 31.7285 163.247 32.1703 163.573 32.4961C163.898 32.8218 164.34 33.0048 164.801 33.0048C165.202 33.0109 165.593 32.8751 165.904 32.6214C165.918 32.6091 165.935 32.6001 165.954 32.5951C165.972 32.59 165.992 32.589 166.011 32.5922C166.03 32.5953 166.048 32.6025 166.063 32.6133C166.079 32.6241 166.093 32.6382 166.102 32.6546C166.117 32.667 166.128 32.6823 166.136 32.6994C166.143 32.7166 166.147 32.7352 166.147 32.754C166.147 32.7728 166.143 32.7913 166.136 32.8085C166.128 32.8256 166.117 32.8409 166.102 32.8533C165.734 33.1337 165.283 33.2851 164.82 33.284C164.555 33.284 164.293 33.2319 164.048 33.1306C163.804 33.0292 163.581 32.8807 163.394 32.6935C163.207 32.5063 163.059 32.284 162.957 32.0394C162.856 31.7948 162.804 31.5326 162.804 31.2679C162.804 31.0031 162.856 30.7409 162.957 30.4963C163.059 30.2517 163.207 30.0294 163.394 29.8422C163.581 29.655 163.804 29.5065 164.048 29.4052C164.293 29.3039 164.555 29.2517 164.82 29.2517H164.801Z" fill="#A6A6A6"/>
<path d="M168.904 29.252C169.308 29.2311 169.708 29.3318 170.054 29.5411C170.4 29.7503 170.675 30.0584 170.844 30.4257C171.013 30.7929 171.068 31.2024 171.002 31.6011C170.936 31.9999 170.751 32.3696 170.473 32.6626C170.194 32.9555 169.834 33.1582 169.439 33.2445C169.045 33.3308 168.633 33.2966 168.258 33.1465C167.882 32.9963 167.561 32.7371 167.334 32.4022C167.108 32.0674 166.987 31.6723 166.987 31.2681C166.979 31.0095 167.022 30.7517 167.115 30.5099C167.207 30.2681 167.346 30.047 167.524 29.8595C167.703 29.6719 167.916 29.5216 168.153 29.4173C168.39 29.3131 168.645 29.2568 168.904 29.252ZM168.904 33.005C169.251 33.0249 169.596 32.9402 169.895 32.7618C170.193 32.5835 170.431 32.3197 170.578 32.0046C170.725 31.6894 170.774 31.3375 170.718 30.9943C170.663 30.6511 170.506 30.3324 170.267 30.0795C170.029 29.8265 169.72 29.6509 169.381 29.5755C169.041 29.5 168.687 29.5281 168.364 29.6561C168.041 29.7841 167.763 30.0062 167.568 30.2936C167.372 30.581 167.267 30.9205 167.267 31.2681C167.254 31.7155 167.419 32.1496 167.726 32.4753C168.033 32.8009 168.457 32.9914 168.904 33.005Z" fill="#A6A6A6"/>
<path d="M172.133 29.8957V33.1471C172.137 33.167 172.136 33.1874 172.131 33.2069C172.126 33.2264 172.116 33.2446 172.104 33.2601C172.091 33.2757 172.075 33.2882 172.056 33.2967C172.038 33.3053 172.018 33.3098 171.998 33.3098C171.978 33.3098 171.958 33.3053 171.94 33.2967C171.921 33.2882 171.905 33.2757 171.892 33.2601C171.879 33.2446 171.87 33.2264 171.865 33.2069C171.86 33.1874 171.859 33.167 171.863 33.1471V29.5029C171.854 29.4759 171.853 29.4466 171.861 29.4193C171.87 29.392 171.887 29.3682 171.91 29.3515C171.941 29.3308 171.978 29.3228 172.014 29.3289C172.05 29.3351 172.083 29.3551 172.104 29.3846L174.513 32.6975V29.465C174.513 29.4294 174.527 29.3952 174.552 29.3696C174.577 29.344 174.61 29.329 174.646 29.3278C174.664 29.3272 174.683 29.3302 174.7 29.3368C174.717 29.3435 174.733 29.3535 174.746 29.3663C174.759 29.3791 174.77 29.3944 174.777 29.4114C174.784 29.4284 174.788 29.4466 174.788 29.465V33.1235C174.788 33.1419 174.784 33.1601 174.777 33.1771C174.77 33.1941 174.759 33.2094 174.746 33.2222C174.733 33.235 174.717 33.245 174.7 33.2517C174.683 33.2583 174.664 33.2613 174.646 33.2607C174.626 33.2605 174.606 33.2558 174.588 33.2467C174.57 33.2377 174.554 33.2247 174.542 33.2087C174.536 33.2068 174.531 33.2037 174.527 33.1996C174.523 33.1955 174.52 33.1905 174.518 33.185L172.133 29.8957Z" fill="#A6A6A6"/>
<path d="M177.192 29.5873H175.995C175.958 29.5861 175.923 29.5706 175.897 29.5441C175.872 29.5176 175.857 29.4822 175.857 29.4454C175.859 29.4093 175.873 29.3751 175.899 29.3496C175.924 29.3241 175.959 29.3093 175.995 29.3081H178.664C178.7 29.3093 178.734 29.3241 178.76 29.3496C178.785 29.3751 178.8 29.4093 178.801 29.4454C178.801 29.4822 178.787 29.5176 178.761 29.5441C178.736 29.5706 178.701 29.5861 178.664 29.5873H177.467V33.1464C177.467 33.1828 177.452 33.2177 177.426 33.2434C177.401 33.2692 177.366 33.2836 177.329 33.2836C177.293 33.2836 177.258 33.2692 177.232 33.2434C177.207 33.2177 177.192 33.1828 177.192 33.1464V29.5873Z" fill="#A6A6A6"/>
<path d="M181.838 32.3847C181.839 32.2657 181.809 32.1485 181.753 32.0436C181.697 31.9387 181.616 31.8494 181.517 31.7836C181.373 31.6883 181.212 31.6209 181.043 31.5849H181.015H180.068V33.1561C180.062 33.1888 180.045 33.2183 180.019 33.2395C179.994 33.2607 179.962 33.2723 179.929 33.2723C179.895 33.2723 179.863 33.2607 179.838 33.2395C179.812 33.2183 179.795 33.1888 179.789 33.1561V29.4551C179.791 29.4216 179.804 29.3897 179.826 29.3648C179.849 29.3398 179.879 29.3232 179.912 29.3179H181.048C181.305 29.3205 181.554 29.4103 181.753 29.5725C181.952 29.7347 182.091 29.9598 182.146 30.2109C182.201 30.462 182.169 30.7243 182.055 30.9549C181.942 31.1856 181.754 31.371 181.521 31.4807C181.539 31.493 181.558 31.5026 181.578 31.5091C181.738 31.5954 181.872 31.723 181.966 31.8787C182.06 32.0343 182.111 32.2123 182.113 32.3942C182.105 32.5534 182.121 32.713 182.16 32.8674C182.171 32.9034 182.19 32.936 182.217 32.9621C182.249 32.9584 182.282 32.9651 182.31 32.9813C182.338 32.9975 182.36 33.0223 182.373 33.052C182.382 33.0884 182.378 33.1268 182.361 33.1605C182.345 33.1942 182.317 33.2211 182.283 33.2366H182.203C182.148 33.2313 182.095 33.2114 182.05 33.1789C182.005 33.1465 181.97 33.1027 181.947 33.052C181.855 32.8424 181.818 32.6128 181.838 32.3847ZM181.043 29.5876H180.064V31.3009H181.067C181.294 31.2978 181.511 31.2045 181.669 31.0416C181.828 30.8788 181.915 30.6596 181.912 30.4324C181.909 30.2052 181.815 29.9886 181.652 29.8302C181.49 29.6717 181.27 29.5845 181.043 29.5876Z" fill="#A6A6A6"/>
<path d="M185.569 32.2569H183.756L183.406 33.2034C183.396 33.2296 183.379 33.2523 183.356 33.2683C183.333 33.2844 183.306 33.2931 183.278 33.2933H183.226C183.191 33.2786 183.164 33.2513 183.149 33.217C183.134 33.1827 183.133 33.144 183.145 33.1088L184.523 29.4267C184.535 29.401 184.555 29.3793 184.579 29.3643C184.603 29.3492 184.631 29.3413 184.66 29.3415C184.689 29.3401 184.717 29.3474 184.742 29.3627C184.766 29.3779 184.786 29.4002 184.797 29.4267L186.174 33.1088C186.188 33.1428 186.188 33.1807 186.175 33.2148C186.161 33.249 186.136 33.277 186.103 33.2933H186.051C186.023 33.2928 185.995 33.284 185.972 33.2681C185.948 33.2521 185.93 33.2296 185.919 33.2034L185.569 32.2569ZM183.86 31.9776H185.469L184.665 29.8432L183.86 31.9776Z" fill="#A6A6A6"/>
<path d="M188.725 29.2517C189.189 29.2519 189.641 29.4068 190.007 29.6919C190.022 29.703 190.035 29.7171 190.045 29.7333C190.054 29.7495 190.06 29.7675 190.062 29.7861C190.064 29.8048 190.063 29.8236 190.057 29.8416C190.052 29.8596 190.043 29.8763 190.031 29.8906C190.02 29.9054 190.007 29.9179 189.991 29.9273C189.975 29.9367 189.958 29.943 189.94 29.9456C189.922 29.9483 189.903 29.9473 189.886 29.9427C189.868 29.9381 189.852 29.9301 189.837 29.919C189.521 29.6675 189.129 29.5307 188.725 29.5309C188.264 29.5309 187.822 29.7139 187.497 30.0397C187.171 30.3654 186.988 30.8072 186.988 31.2679C186.988 31.7285 187.171 32.1703 187.497 32.4961C187.822 32.8218 188.264 33.0048 188.725 33.0048C189.126 33.0109 189.517 32.8751 189.828 32.6214C189.842 32.6091 189.859 32.6001 189.878 32.5951C189.896 32.59 189.916 32.589 189.935 32.5922C189.953 32.5953 189.971 32.6025 189.987 32.6133C190.003 32.6241 190.016 32.6382 190.026 32.6546C190.04 32.667 190.052 32.6823 190.059 32.6994C190.067 32.7166 190.071 32.7352 190.071 32.754C190.071 32.7728 190.067 32.7913 190.059 32.8085C190.052 32.8256 190.04 32.8409 190.026 32.8533C189.658 33.1337 189.207 33.2851 188.744 33.284C188.479 33.284 188.217 33.2319 187.972 33.1306C187.728 33.0292 187.505 32.8807 187.318 32.6935C187.131 32.5063 186.982 32.284 186.881 32.0394C186.78 31.7948 186.728 31.5326 186.728 31.2679C186.728 31.0031 186.78 30.7409 186.881 30.4963C186.982 30.2517 187.131 30.0294 187.318 29.8422C187.505 29.655 187.728 29.5065 187.972 29.4052C188.217 29.3039 188.479 29.2517 188.744 29.2517H188.725Z" fill="#A6A6A6"/>
<path d="M192.251 29.5873H191.053C191.016 29.5861 190.982 29.5706 190.956 29.5441C190.93 29.5176 190.916 29.4822 190.916 29.4454C190.917 29.4093 190.932 29.3751 190.958 29.3496C190.983 29.3241 191.017 29.3093 191.053 29.3081H193.723C193.759 29.3093 193.793 29.3241 193.818 29.3496C193.844 29.3751 193.859 29.4093 193.86 29.4454C193.86 29.4638 193.857 29.4821 193.851 29.4993C193.844 29.5165 193.834 29.5322 193.821 29.5455C193.808 29.5587 193.793 29.5693 193.776 29.5765C193.759 29.5836 193.741 29.5873 193.723 29.5873H192.525V33.1464C192.525 33.1828 192.511 33.2177 192.485 33.2434C192.459 33.2692 192.424 33.2836 192.388 33.2836C192.352 33.2836 192.317 33.2692 192.291 33.2434C192.265 33.2177 192.251 33.1828 192.251 33.1464V29.5873Z" fill="#A6A6A6"/>
<path d="M108.003 149.469H201.763L203.713 111.001H106.053L108.003 149.469Z" fill="#EBEBEB"/>
<path d="M197.32 128.611H158.118L157.385 115.255H198.176L197.32 128.611ZM158.568 128.138H196.875L197.67 115.728H157.886L158.568 128.138Z" fill="#DBDBDB"/>
<path d="M196.596 143.974H159.657L159.056 131.919H197.348L196.596 143.974ZM160.106 143.501H196.151L196.847 132.393H159.553L160.106 143.501Z" fill="#DBDBDB"/>
<path d="M181.494 123.372H174.906L174.494 120.149H181.91L181.494 123.372ZM175.341 122.899H181.096L181.39 120.622H175.048L175.341 122.899Z" fill="#DBDBDB"/>
<path d="M181.494 139.558H174.906L174.494 136.335H181.91L181.494 139.558ZM175.341 139.085H181.096L181.39 136.808H175.048L175.341 139.085Z" fill="#DBDBDB"/>
<path d="M151.213 128.611H112.012L111.278 115.255H152.07L151.213 128.611ZM112.462 128.138H150.769L151.549 115.728H111.794L112.462 128.138Z" fill="#DBDBDB"/>
<path d="M150.489 143.974H113.55L112.949 131.919H151.242L150.489 143.974ZM114 143.501H150.045L150.74 132.393H113.446L114 143.501Z" fill="#DBDBDB"/>
<path d="M135.386 123.372H128.798L128.387 120.149H135.803L135.386 123.372ZM129.234 122.899H134.984L135.278 120.622H128.936L129.234 122.899Z" fill="#DBDBDB"/>
<path d="M135.386 139.558H128.798L128.387 136.335H135.803L135.386 139.558ZM129.234 139.085H134.984L135.278 136.808H128.936L129.234 139.085Z" fill="#DBDBDB"/>
<path d="M116.413 149.469L115.822 153.662L114.639 162.082H112.324V149.469H116.413Z" fill="#EBEBEB"/>
<path d="M116.413 149.469L115.822 153.662H112.324V149.469H116.413Z" fill="#DBDBDB"/>
<path d="M193.354 149.469L193.94 153.662L195.128 162.082H197.443V149.469H193.354Z" fill="#EBEBEB"/>
<path d="M193.354 149.469L193.94 153.662H197.443V149.469H193.354Z" fill="#DBDBDB"/>
<path d="M104.695 200.001C151.859 200.001 190.093 195.019 190.093 188.874C190.093 182.729 151.859 177.747 104.695 177.747C57.5309 177.747 19.2969 182.729 19.2969 188.874C19.2969 195.019 57.5309 200.001 104.695 200.001Z" fill="#EBEBEB"/>
<path d="M26.3584 176.697C40.4783 176.697 51.9248 173.955 51.9248 170.572C51.9248 167.19 40.4783 164.448 26.3584 164.448C12.2385 164.448 0.791992 167.19 0.791992 170.572C0.791992 173.955 12.2385 176.697 26.3584 176.697Z" fill="#EBEBEB"/>
<path d="M2.18359 162.082L27.8115 161.968L53.4394 161.926L104.695 161.85L155.951 161.926L181.579 161.968L207.207 162.082L181.579 162.2L155.951 162.243L104.695 162.318L53.4394 162.243L27.8115 162.2L2.18359 162.082Z" fill="#263238"/>
<path d="M27.1104 80.1187C27.1104 80.1187 14.384 78.3392 17.3562 62.9719C17.3562 62.9719 31.5781 66.1665 27.1104 80.1187Z" fill="#FAB114"/>
<path opacity="0.1" d="M27.1104 80.1187C27.1104 80.1187 14.384 78.3392 17.3562 62.9719C17.3562 62.9719 31.5781 66.1665 27.1104 80.1187Z" fill="black"/>
<path d="M26.4667 76.9104C26.218 76.1338 25.929 75.3708 25.6006 74.6245C25.6006 74.5251 25.6006 74.4257 25.5674 74.331C25.5674 74.118 25.5296 73.9098 25.5154 73.6968C25.4775 73.2235 25.4491 72.7787 25.4207 72.3196C25.3687 71.4014 25.3119 70.4833 25.2977 69.5651C25.2977 69.5131 25.2172 69.5178 25.2172 69.5651C25.2172 70.488 25.2172 71.4062 25.2172 72.3243C25.2172 72.7976 25.2645 73.2425 25.2929 73.7016C25.2929 73.8057 25.2929 73.9051 25.2929 74.0092C24.5776 72.4788 23.7221 71.0181 22.7372 69.6456C22.3223 69.0339 21.8752 68.4446 21.3979 67.8803C20.8915 67.2981 20.3567 66.7444 19.8408 66.1717C19.8077 66.1339 19.7556 66.1717 19.7887 66.2285C20.7026 67.2393 21.5231 68.3307 22.2403 69.4894C22.6284 70.0715 22.9928 70.6726 23.343 71.2831L23.2247 71.2405L22.7514 71.056L21.7102 70.6631C21.0287 70.4076 20.3472 70.1615 19.6657 69.9012C19.6231 69.9012 19.5947 69.9579 19.6373 69.9721C20.3141 70.2419 20.9814 70.5259 21.6534 70.8146L22.6379 71.2405L23.1348 71.444C23.2414 71.4974 23.3543 71.5372 23.4708 71.5624C23.7264 72.0356 23.982 72.4852 24.2186 72.9585C24.8088 74.149 25.3272 75.3739 25.7709 76.6264C25.8041 76.7116 25.8325 76.8015 25.8656 76.8914C25.5294 76.698 25.1799 76.5288 24.8197 76.385L23.5039 75.7887C22.6095 75.377 21.7244 74.9605 20.8678 74.4777C20.859 74.4727 20.8486 74.4714 20.8388 74.4741C20.8291 74.4767 20.8208 74.4831 20.8157 74.4919C20.8107 74.5007 20.8094 74.5111 20.8121 74.5209C20.8147 74.5307 20.8212 74.539 20.8299 74.544C21.7055 75.0173 22.5621 75.5331 23.4377 76.0064C23.8778 76.2431 24.318 76.4797 24.7676 76.6927C25.1376 76.9126 25.5402 77.0723 25.9603 77.1659C26.3873 78.3305 26.6686 79.5434 26.798 80.777C26.9399 82.514 26.9257 84.2651 26.9683 86.0067H27.0109C27.1387 84.426 27.2097 82.8311 27.2192 81.2456C27.2006 79.7697 26.9465 78.3062 26.4667 76.9104Z" fill="#263238"/>
<path d="M24.5073 67.8753C24.3844 68.7737 24.3417 69.6812 24.3796 70.5872C24.3796 70.6109 24.4174 70.6109 24.4174 70.5872C24.4695 69.688 24.4789 68.7887 24.5831 67.8942C24.5878 67.8469 24.5121 67.828 24.5073 67.8753Z" fill="#263238"/>
<path d="M20.8679 68.6469C20.2989 68.4286 19.7508 68.1593 19.2304 67.8423C19.1878 67.8139 19.1499 67.8849 19.1925 67.9086C19.7024 68.2527 20.2607 68.5191 20.849 68.6989C20.8774 68.7084 20.9247 68.6611 20.8679 68.6469Z" fill="#263238"/>
<path d="M27.5173 104.512C27.5173 103.092 27.4795 101.701 27.4653 100.295C27.4369 95.624 27.399 90.9527 27.3138 86.2815C27.2476 82.571 27.1608 78.8637 27.0535 75.1595C27.0532 75.1499 27.0504 75.1404 27.0455 75.1322C27.0405 75.1239 27.0335 75.117 27.0251 75.1122C27.0251 74.0994 27.0251 73.0866 27.0251 72.0738C27.0251 72.0454 26.9967 72.0359 26.9636 72.0359C26.9305 72.0359 26.9021 72.0359 26.9068 72.0738C26.9068 73.0897 26.9068 74.1041 26.9068 75.1169C26.9068 75.1169 26.8737 75.1406 26.8737 75.1595C26.6891 81.7854 26.5234 88.3592 26.4809 94.9614C26.4809 96.3055 26.4809 97.6449 26.4809 98.989C26.4335 103.289 26.4162 107.593 26.4288 111.9C26.4288 112.581 26.4288 113.268 26.4288 113.954C26.4288 117.892 26.4714 121.829 26.4714 125.786C26.4714 125.994 26.708 126.103 26.9447 126.112C27.1813 126.122 27.5363 126.008 27.5363 125.767C27.5363 121.427 27.5647 117.082 27.5647 112.742C27.5505 109.988 27.5505 107.248 27.5173 104.512Z" fill="#263238"/>
<path d="M22.2025 100.238C22.2025 100.238 16.0783 95.7042 10.2712 98.7616C4.46406 101.819 3.5459 113.641 3.5459 113.641C3.5459 113.641 12.0649 114.862 17.4508 109.746C22.6284 104.824 22.2025 100.238 22.2025 100.238Z" fill="#FAB114"/>
<path d="M23.8691 100.518C22.7448 100.07 21.5269 99.907 20.3243 100.044C20.0773 100.001 19.8273 99.9752 19.5765 99.9687L18.7104 99.9025L16.9262 99.7794C15.7193 99.6895 14.5077 99.6138 13.3009 99.4907C13.2925 99.4936 13.2853 99.4991 13.2801 99.5063C13.275 99.5135 13.2723 99.5221 13.2723 99.5309C13.2723 99.5398 13.275 99.5484 13.2801 99.5556C13.2853 99.5628 13.2925 99.5683 13.3009 99.5712C14.4935 99.7226 15.6672 99.893 16.8741 100.011C17.4894 100.073 18.1046 100.139 18.7246 100.182L19.1695 100.224C18.9896 100.267 18.8051 100.309 18.6252 100.362C17.6647 100.641 16.7353 101.019 15.8518 101.488C15.3785 101.573 14.9053 101.71 14.432 101.819C13.6748 101.999 12.9222 102.193 12.1697 102.392C10.6836 102.78 9.21176 103.22 7.73514 103.651C7.68781 103.651 7.71147 103.736 7.73514 103.722C9.20703 103.362 10.6931 103.031 12.1697 102.681L14.3184 102.165L14.8816 102.032C13.2389 103.054 11.7705 104.332 10.5322 105.818C9.34047 107.285 8.32689 108.888 7.5127 110.594C7.5127 110.636 7.55056 110.679 7.57895 110.636C8.58682 108.893 9.81655 107.288 11.2374 105.861C11.209 105.941 11.1853 106.027 11.1569 106.107L10.8162 107.186C10.589 107.91 10.3429 108.63 10.1441 109.354C10.1441 109.401 10.2056 109.415 10.2198 109.354C10.4801 108.653 10.7262 107.934 10.9723 107.248C11.0907 106.902 11.2137 106.561 11.332 106.216C11.3983 106.036 11.4598 105.856 11.5166 105.676C11.5166 105.624 11.5592 105.568 11.5781 105.511C12.2604 104.848 12.9844 104.23 13.7457 103.66C14.7566 102.921 15.8472 102.297 16.9972 101.8C16.9972 101.904 16.9593 102.013 16.9356 102.113C16.8741 102.392 16.8126 102.671 16.7558 102.95C16.6375 103.528 16.5239 104.11 16.4103 104.692C16.1784 105.875 16.0364 107.058 15.814 108.261C15.814 108.313 15.8802 108.332 15.8897 108.261C16.1642 107.068 16.5191 105.894 16.7842 104.701C16.9167 104.105 17.0492 103.509 17.177 102.913L17.3474 102.07C17.3758 101.914 17.4136 101.758 17.4326 101.597L17.7639 101.46C19.3683 100.863 21.1431 100.433 22.8563 100.764C23.6667 100.914 24.4274 101.262 25.0707 101.777C25.7139 102.293 26.2198 102.959 26.5431 103.717C26.5999 103.85 26.8082 103.764 26.775 103.627C26.4438 102.179 25.218 101.086 23.8691 100.518Z" fill="#263238"/>
<path d="M14.4975 105.562C14.3271 106.339 14.152 107.115 13.9816 107.891C13.7882 108.634 13.6459 109.39 13.5557 110.153C13.5557 110.186 13.5935 110.186 13.603 110.153C13.8284 109.407 14.0023 108.647 14.1236 107.877C14.275 107.11 14.4265 106.343 14.5732 105.577C14.5827 105.534 14.5069 105.515 14.4975 105.562Z" fill="#263238"/>
<path d="M8.57694 107.536C7.79603 107.929 7.04352 108.379 6.21055 108.705C6.20589 108.707 6.20165 108.71 6.19805 108.714C6.19446 108.717 6.19159 108.721 6.18961 108.726C6.18764 108.73 6.18659 108.735 6.18653 108.74C6.18647 108.745 6.18739 108.75 6.18926 108.755C6.19112 108.76 6.19389 108.764 6.19739 108.768C6.2009 108.771 6.20508 108.774 6.20969 108.776C6.21431 108.778 6.21927 108.779 6.22429 108.779C6.22931 108.779 6.23429 108.778 6.23895 108.776C7.05366 108.416 7.84833 108.011 8.61953 107.565C8.61953 107.565 8.61953 107.527 8.57694 107.536Z" fill="#263238"/>
<path d="M23.5802 91.9086C23.5802 91.9086 16.0977 92.3818 12.6144 87.455C9.1311 82.5282 9.91674 75.4717 9.91674 75.4717C9.91674 75.4717 17.7779 76.4182 20.8968 79.9725C24.0156 83.5268 23.5802 91.9086 23.5802 91.9086Z" fill="#FAB114"/>
<path d="M27.0776 99.2912C26.8173 98.4914 26.4954 97.701 26.1925 96.9248C25.8896 96.1486 25.5915 95.4198 25.246 94.6815C24.5796 93.1735 23.8323 91.7027 23.0074 90.2753C22.4773 89.3666 21.9094 88.4816 21.3273 87.6107C21.3273 87.4782 21.2894 87.3457 21.2705 87.2132C21.2373 86.9813 21.2042 86.7399 21.1663 86.5175C21.0906 86.0442 21.0102 85.5709 20.9297 85.0976C20.7593 84.0612 20.5464 83.0341 20.3807 82.0024C20.3807 81.9551 20.2955 81.9551 20.305 82.0024C20.4517 83.0247 20.5558 84.0517 20.6978 85.074C20.7688 85.5756 20.8351 86.0773 20.9108 86.579L20.996 87.1233C19.8547 85.4529 18.619 83.849 17.2949 82.3195L16.7791 81.7232C16.7791 81.6664 16.7317 81.6096 16.7081 81.5528C16.6513 81.4108 16.5992 81.2688 16.5472 81.1221C16.4336 80.8287 16.3295 80.5305 16.2206 80.2324C16.0124 79.6455 15.8231 79.0539 15.6621 78.4528C15.6621 78.4055 15.577 78.4292 15.5912 78.4528C15.7426 79.0681 15.8988 79.6786 16.0644 80.2844C16.1543 80.5779 16.249 80.8665 16.3531 81.1552C16.3531 81.2026 16.3863 81.2499 16.4052 81.2972C15.4586 80.256 14.4506 79.2527 13.4425 78.2588C13.4093 78.2257 13.3573 78.2588 13.3904 78.3156C15.3238 80.3386 17.0961 82.5097 18.6911 84.8089C18.5096 84.7515 18.3247 84.7057 18.1374 84.6717C17.56 84.5581 16.9826 84.4776 16.4005 84.4019C15.1794 84.2457 13.9631 84.0943 12.7515 83.9002C12.6994 83.9002 12.6805 83.9665 12.7515 83.976C13.911 84.2031 15.0563 84.4492 16.2111 84.7332C16.7554 84.8563 17.2997 84.9604 17.8439 85.0692C18.2904 85.1643 18.7299 85.2893 19.1597 85.4431C19.278 85.6182 19.4058 85.7886 19.5241 85.9637C20.0731 86.7588 20.5984 87.5776 21.1143 88.3964L20.3523 88.2497C19.7749 88.1361 19.1928 88.032 18.6154 87.9373C17.4748 87.748 16.3295 87.5492 15.2031 87.2936C15.1557 87.2936 15.1368 87.3599 15.2031 87.3694C16.3484 87.6391 17.4795 87.9515 18.6154 88.2544C19.1644 88.4011 19.7181 88.5336 20.2719 88.6567L21.1001 88.8365C21.2117 88.8658 21.3258 88.8848 21.4408 88.8933C22.5341 90.6634 23.5564 92.4807 24.5077 94.3313C24.9242 95.1453 25.3264 95.9688 25.7145 96.7923C26.1026 97.6158 26.4576 98.5103 26.8267 99.3717C26.8788 99.5515 27.1486 99.4805 27.0776 99.2912Z" fill="#263238"/>
<path d="M19.4286 82.0979C19.2867 81.3833 19.1352 80.6781 18.9554 79.9587C18.9554 79.9114 18.8702 79.9351 18.8796 79.9587C19.0216 80.6592 19.1589 81.3785 19.2867 82.0648C19.3911 82.7704 19.5317 83.4702 19.7079 84.1614C19.6632 83.4679 19.5699 82.7784 19.4286 82.0979Z" fill="#263238"/>
<path d="M15.0646 81.8891C14.7191 81.714 14.3499 81.5768 13.9902 81.4159L13.4223 81.1934L13.1336 81.0798C13.023 81.0443 12.9167 80.9967 12.8165 80.9379C12.7597 80.9 12.7266 80.9946 12.7834 81.0041C12.8944 81.0343 13.001 81.0789 13.1005 81.1366L13.3844 81.2644L13.9334 81.5058C14.2921 81.674 14.6603 81.821 15.0362 81.9459C15.0788 81.9791 15.1072 81.9081 15.0646 81.8891Z" fill="#263238"/>
<path d="M31.2373 86.0254C31.2373 86.0254 35.7666 77.5679 42.6527 76.2569C49.5389 74.946 53.7605 82.0357 53.7605 82.0357C53.7605 82.0357 48.7343 88.4533 42.4019 89.5749C36.0695 90.6966 31.2373 86.0254 31.2373 86.0254Z" fill="#FAB114"/>
<path d="M47.2716 80.0484C45.4765 79.8051 43.6554 79.8274 41.8668 80.1146L42.1744 79.949L43.7031 79.1633C44.7534 78.5826 45.8322 78.055 46.9355 77.5826C46.9876 77.5589 46.9355 77.4879 46.9072 77.5116C45.8281 78.0133 44.7112 78.4582 43.6321 78.9314C43.0878 79.1775 42.5577 79.4378 42.0324 79.7171C41.6916 79.8969 41.3178 80.0673 40.9817 80.285C39.4685 80.5885 37.9983 81.0765 36.6039 81.738L37.4653 80.7914C38.1042 80.0862 38.7384 79.3479 39.4436 78.709C39.4814 78.6759 39.4436 78.6238 39.3868 78.6569C38.6674 79.31 37.9054 79.9158 37.205 80.5974C36.869 80.9286 36.5424 81.2694 36.2253 81.6244C36.0691 81.7995 35.9082 81.9793 35.752 82.1686C33.3862 83.4353 31.3305 85.2107 29.7331 87.3671C28.1356 89.5235 27.0361 92.0072 26.5137 94.6395C26.5137 94.6868 26.5752 94.7105 26.5894 94.6631C27.5596 91.4387 29.2973 88.4977 31.6535 86.0921C34.1927 83.5139 37.3866 81.6764 40.8918 80.7772C42.9711 80.2474 45.1215 80.0525 47.2621 80.1998C47.2822 80.2011 47.302 80.1943 47.317 80.181C47.3321 80.1677 47.3413 80.1489 47.3426 80.1288C47.3438 80.1087 47.337 80.089 47.3237 80.0739C47.3104 80.0588 47.2917 80.0496 47.2716 80.0484Z" fill="#263238"/>
<path opacity="0.1" d="M53.7606 82.0356C53.7606 82.0356 48.7344 88.4533 42.402 89.5749C37.5793 90.4268 33.6132 87.9137 31.9899 86.6738L31.6396 86.1011C31.6396 86.1011 34.9005 83.3561 41.072 81.7706C47.2436 80.1851 53.7606 82.0356 53.7606 82.0356Z" fill="black"/>
<path d="M43.2674 77.0336C42.7402 77.342 42.2299 77.6785 41.7388 78.0417C41.2601 78.4067 40.8151 78.8138 40.4089 79.258C40.4036 79.2664 40.4014 79.2764 40.4027 79.2863C40.404 79.2961 40.4087 79.3052 40.416 79.3119C40.4233 79.3187 40.4328 79.3226 40.4427 79.3232C40.4526 79.3237 40.4624 79.3207 40.4704 79.3148C40.9437 78.9172 41.3838 78.5197 41.8618 78.1458C42.3222 77.7672 42.8059 77.4178 43.31 77.0999C43.3144 77.0971 43.3181 77.0934 43.3211 77.0892C43.324 77.0849 43.3261 77.0801 43.3272 77.0751C43.3283 77.07 43.3284 77.0648 43.3275 77.0597C43.3266 77.0546 43.3247 77.0498 43.3219 77.0454C43.3191 77.0411 43.3154 77.0373 43.3112 77.0344C43.3069 77.0314 43.3022 77.0293 43.2971 77.0282C43.2921 77.0271 43.2868 77.0271 43.2817 77.028C43.2767 77.0289 43.2718 77.0308 43.2674 77.0336Z" fill="#263238"/>
<path d="M47.0495 78.463C46.7939 78.5718 46.5336 78.6617 46.278 78.7706L45.5113 79.0877C45.4592 79.0877 45.4829 79.2013 45.5397 79.1776L46.3064 78.8653C46.5667 78.7611 46.8176 78.6428 47.0731 78.5387C47.1205 78.5198 47.0968 78.444 47.0495 78.463Z" fill="#263238"/>
<path d="M30.333 96.6701C30.333 96.6701 31.5446 105.061 37.8534 107.996C44.1621 110.93 51.8529 107.996 51.8529 107.996C51.8529 107.996 48.8476 89.8454 30.333 96.6701Z" fill="#FAB114"/>
<path d="M47.5038 102.548C46.9264 102.482 46.3442 102.383 45.7716 102.278L44.9197 102.117L44.4795 102.028C44.3092 101.871 44.1435 101.71 43.9684 101.554C42.7702 100.505 41.4774 99.5684 40.1065 98.7572C39.361 98.3155 38.5898 97.9188 37.7969 97.5693H37.9152L39.9929 97.6592C41.3748 97.7255 42.7615 97.7539 44.1435 97.8438C44.1956 97.8438 44.1908 97.7728 44.1435 97.7681C42.7521 97.6734 41.3701 97.522 39.9834 97.4037L37.9673 97.2238L36.926 97.1339L36.661 97.1055C36.3013 96.9682 35.9416 96.8405 35.5725 96.7269C33.8528 96.1366 32.0031 96.035 30.2292 96.4334C28.6437 96.8405 27.0582 97.8817 26.6465 99.5523C26.6465 99.6091 26.7222 99.6517 26.7459 99.5949C27.3375 98.1751 28.8898 97.4888 30.2907 97.2001C31.2274 97.0224 32.1873 97.0032 33.1304 97.1434C33.194 97.5756 33.3002 98.0004 33.4475 98.4117C33.6226 99.0033 33.793 99.5949 33.9728 100.182C34.3325 101.36 34.7253 102.548 35.0755 103.708C35.0755 103.718 35.0795 103.727 35.0866 103.734C35.0937 103.742 35.1034 103.746 35.1134 103.746C35.1234 103.746 35.1331 103.742 35.1402 103.734C35.1473 103.727 35.1513 103.718 35.1513 103.708C34.8578 102.529 34.607 101.341 34.323 100.158C34.1858 99.5807 34.0391 99.0033 33.8971 98.4259C33.8146 98.0226 33.7087 97.6243 33.58 97.2333C34.1327 97.3296 34.6795 97.4576 35.2175 97.6166C36.1854 97.9064 37.1338 98.2573 38.0572 98.6673C38.1471 99.2636 38.2844 99.8552 38.4216 100.447C38.592 101.185 38.786 101.919 39.0179 102.643C39.0206 102.65 39.0255 102.656 39.0318 102.661C39.0382 102.665 39.0457 102.668 39.0534 102.668C39.0612 102.668 39.0687 102.665 39.075 102.661C39.0814 102.656 39.0862 102.65 39.0889 102.643L39.0605 102.506C38.9185 101.819 38.7671 101.133 38.6204 100.447C38.5068 99.8931 38.3979 99.3393 38.2796 98.7903C39.0654 99.1395 39.8331 99.5281 40.5797 99.9546C40.5797 100.125 40.6365 100.3 40.6602 100.456C40.7075 100.74 40.7596 101.029 40.8116 101.318C40.93 101.961 41.0578 102.61 41.2139 103.249C41.4995 104.486 41.8614 105.705 42.2977 106.898C42.2924 106.904 42.2894 106.913 42.2894 106.921C42.2894 106.93 42.2924 106.938 42.2977 106.945L42.3356 106.987C42.364 107.021 42.4066 106.987 42.3971 106.95C42.1084 105.705 41.7724 104.47 41.4979 103.225C41.3654 102.6 41.2281 101.975 41.1003 101.332C41.0388 101.019 40.982 100.707 40.9205 100.385L40.8779 100.106C41.7277 100.604 42.5478 101.151 43.3342 101.744C44.696 102.763 45.9561 103.912 47.0968 105.175C47.1394 105.227 47.2293 105.175 47.1867 105.099C46.7183 104.463 46.2176 103.852 45.6864 103.268C45.3693 102.927 45.038 102.595 44.702 102.274H44.8061C45.1043 102.326 45.3977 102.368 45.6959 102.406C46.278 102.487 46.8649 102.543 47.4517 102.61C47.5369 102.619 47.5558 102.548 47.5038 102.548Z" fill="#263238"/>
<path d="M43.0733 105.387C43.0733 105.316 43.0733 105.241 43.0355 105.17C42.9976 105.099 42.974 104.99 42.9598 104.895C42.832 104.332 42.7231 103.769 42.619 103.201C42.619 103.163 42.5527 103.172 42.5527 103.201C42.5912 103.952 42.751 104.692 43.026 105.392C43.026 105.416 43.0781 105.392 43.0733 105.392V105.387Z" fill="#263238"/>
<path d="M37.7925 105.25C37.7925 105.25 37.7925 105.212 37.7546 105.212C37.5748 104.469 37.4044 103.726 37.253 102.978C37.1725 102.585 37.0921 102.193 37.0163 101.8C36.9737 101.587 36.9359 101.374 36.898 101.161C36.8815 100.973 36.8352 100.789 36.7608 100.616C36.7581 100.609 36.7532 100.603 36.7469 100.599C36.7405 100.594 36.733 100.592 36.7253 100.592C36.7175 100.592 36.71 100.594 36.7036 100.599C36.6973 100.603 36.6925 100.609 36.6898 100.616C36.6848 100.998 36.7391 101.378 36.8507 101.743C36.9264 102.15 37.0069 102.562 37.0968 102.969C37.2814 103.797 37.4849 104.62 37.7215 105.434C37.7244 105.443 37.7299 105.45 37.7371 105.455C37.7443 105.46 37.7529 105.463 37.7617 105.463C37.7706 105.463 37.7792 105.46 37.7864 105.455C37.7936 105.45 37.7991 105.443 37.802 105.434L37.7925 105.25Z" fill="#263238"/>
<path d="M46.9547 100.12C45.7999 99.9638 44.6498 99.7982 43.495 99.6467C43.4477 99.6467 43.4288 99.7177 43.495 99.7225C44.6451 99.8928 45.7999 100.035 46.9547 100.196C46.9547 100.205 46.9783 100.129 46.9547 100.12Z" fill="#263238"/>
<path d="M27.1007 76.9908C27.1007 76.9908 23.2388 60.057 41.4362 53.1992C41.4362 53.1992 46.4814 75.4953 27.1007 76.9908Z" fill="#FAB114"/>
<path d="M31.029 67.3883L31.2231 67.27L32.2548 66.6926L34.3656 65.5141C35.7523 64.7332 37.1248 63.9287 38.521 63.1477C38.5683 63.1477 38.521 63.0578 38.4831 63.0815C37.0633 63.8435 35.6435 64.5581 34.2473 65.3012L32.1601 66.4039L31.3083 66.8772C31.914 65.7271 32.5624 64.6007 33.2771 63.5122C34.2236 62.0592 35.2696 60.6725 36.3534 59.3284C36.3647 59.3165 36.3708 59.3006 36.3703 59.2841C36.3699 59.2677 36.3629 59.2521 36.351 59.2408C36.3391 59.2296 36.3232 59.2235 36.3067 59.2239C36.2903 59.2243 36.2748 59.2313 36.2635 59.2432C34.6655 60.7936 33.2535 62.5249 32.056 64.4019C32.056 64.3404 32.056 64.2789 32.056 64.2221C32.056 63.8009 32.0892 63.3797 32.0939 62.9584C32.0939 62.1302 32.0655 61.302 32.0939 60.4785C32.0939 60.4264 32.0182 60.4311 32.0134 60.4785C31.9803 61.2925 31.8809 62.1065 31.8336 62.9206C31.8336 63.3229 31.7957 63.7299 31.7815 64.1369C31.7815 64.3546 31.7815 64.6102 31.7815 64.8468C31.4092 65.4431 31.0511 66.0474 30.7072 66.6595C30.0973 67.7636 29.5537 68.9031 29.0791 70.0718C29.0791 69.6506 29.0365 69.2294 29.0129 68.8081C28.9561 67.8616 28.8472 66.9576 28.8046 66.03C28.8046 66.02 28.8006 66.0103 28.7935 66.0032C28.7864 65.9961 28.7768 65.9921 28.7668 65.9921C28.7567 65.9921 28.7471 65.9961 28.74 66.0032C28.7329 66.0103 28.7289 66.02 28.7289 66.03C28.7289 66.9766 28.7289 67.8852 28.7289 68.8129C28.7289 69.2861 28.7573 69.7594 28.7857 70.2043C28.7857 70.3747 28.7857 70.5498 28.8188 70.7202C28.2402 72.2342 27.7813 73.7914 27.4463 75.3772C27.1307 77.0695 26.9047 78.7772 26.7695 80.4933C26.7695 80.4933 26.7695 80.4933 26.7695 80.4933C26.953 78.9496 27.2697 77.4247 27.7161 75.9357C27.9385 75.1358 28.1894 74.3407 28.4355 73.5693C29.1927 73.2143 29.9168 72.7695 30.6457 72.3624L32.9316 71.113C34.4508 70.28 35.9653 69.4329 37.5318 68.6993C37.5744 68.6993 37.5318 68.6094 37.4892 68.633C35.9038 69.3477 34.3041 70.0528 32.7565 70.8148C31.9803 71.2076 31.2183 71.6241 30.4611 72.0501C29.8316 72.405 29.1785 72.76 28.568 73.1717C28.7431 72.6417 28.9277 72.1163 29.1312 71.6005C29.6896 70.1642 30.3231 68.7582 31.029 67.3883Z" fill="#263238"/>
<path d="M29.4955 63.5115C29.4926 63.5032 29.4872 63.4959 29.4799 63.4908C29.4727 63.4857 29.4641 63.4829 29.4553 63.4829C29.4464 63.4829 29.4378 63.4857 29.4306 63.4908C29.4234 63.4959 29.4179 63.5032 29.415 63.5115C29.4813 64.4581 29.5144 65.4425 29.6185 66.408C29.6185 66.4193 29.623 66.4301 29.631 66.4381C29.639 66.4461 29.6498 66.4505 29.6611 66.4505C29.6724 66.4505 29.6833 66.4461 29.6913 66.4381C29.6992 66.4301 29.7037 66.4193 29.7037 66.408C29.6706 65.4425 29.5665 64.4817 29.4955 63.5115Z" fill="#263238"/>
<path d="M38.2176 66.7489C37.0818 67.2221 35.9317 67.6434 34.7958 68.1166C34.7674 68.1166 34.7958 68.1829 34.7958 68.1687C35.9459 67.738 37.077 67.2695 38.2223 66.8246C38.2886 66.8057 38.2649 66.7299 38.2176 66.7489Z" fill="#263238"/>
<path d="M39.9498 58.9355C38.8358 59.4467 37.7546 60.0268 36.7126 60.6724C36.7051 60.6807 36.7005 60.6913 36.6994 60.7025C36.6984 60.7136 36.701 60.7249 36.7069 60.7344C36.7127 60.744 36.7215 60.7515 36.7319 60.7556C36.7424 60.7598 36.7539 60.7605 36.7647 60.7576C37.8201 60.1376 38.8944 59.546 39.9877 59.0017C40.035 59.0065 39.9924 58.9166 39.9498 58.9355Z" fill="#263238"/>
<path d="M39.6709 113.618H13.4277V141.281H39.6709V113.618Z" fill="#455A64"/>
<path d="M12.9691 123.41H11.625V170.795H12.9691V123.41Z" fill="#263238"/>
<path d="M41.3412 123.41H39.9971V170.795H41.3412V123.41Z" fill="#263238"/>
<path d="M27.8675 123.41H26.5234V170.795H27.8675V123.41Z" fill="#263238"/>
<path d="M40.6698 139.511H12.2969V143.34H40.6698V139.511Z" fill="#263238"/>
<path d="M145.221 155.318C145.221 155.318 145.221 175.702 145.221 175.717C145.221 179.612 145.188 183.029 144.994 184.794C144.997 184.798 144.998 184.803 144.998 184.808C144.998 184.813 144.997 184.818 144.994 184.822C144.994 185.241 144.897 185.654 144.71 186.029L144.687 186.053C143.532 186.843 112.39 187.913 111.292 187.582C110.194 187.25 111.041 184.098 112.239 183.09C113.436 182.082 125.159 176.346 125.159 176.346L125.353 155.971L145.221 155.318Z" fill="#AD6359"/>
<path d="M145.216 171.528V175.717C145.216 179.612 145.183 183.029 144.989 184.794C144.992 184.799 144.993 184.803 144.993 184.808C144.993 184.813 144.992 184.818 144.989 184.823C144.94 185.234 144.845 185.639 144.705 186.03L144.682 186.053C143.527 186.844 112.385 187.913 111.287 187.582C110.189 187.251 111.036 184.099 112.234 183.09C113.431 182.082 125.154 176.346 125.154 176.346L125.097 172.087L145.216 171.528Z" fill="#C7C7C7"/>
<path d="M111.288 187.582C112.386 187.913 143.527 186.848 144.687 186.053C145.132 185.76 145.241 181.211 145.217 175.717V175.542L125.117 176.015L125.141 176.356C125.141 176.356 113.403 182.096 112.22 183.104C111.037 184.113 110.185 187.265 111.288 187.582Z" fill="#263238"/>
<path d="M111.595 186.365C116.844 186.053 138.027 185.305 143.233 185.419C143.276 185.419 143.276 185.447 143.233 185.452C138.027 185.868 116.853 186.451 111.6 186.47C111.491 186.451 111.486 186.37 111.595 186.365Z" fill="#455A64"/>
<path d="M123.447 176.464C125.501 175.991 128.038 176.237 129.666 177.657C129.732 177.714 129.666 177.799 129.585 177.78C127.589 177.211 125.537 176.858 123.466 176.725C123.435 176.721 123.406 176.707 123.384 176.685C123.362 176.663 123.349 176.633 123.347 176.602C123.345 176.571 123.354 176.54 123.372 176.515C123.39 176.49 123.417 176.472 123.447 176.464Z" fill="#455A64"/>
<path d="M121.988 177.416C124.038 176.943 126.579 177.189 128.207 178.609C128.269 178.661 128.207 178.751 128.122 178.732C126.126 178.162 124.074 177.809 122.002 177.676C121.972 177.672 121.943 177.658 121.922 177.635C121.901 177.612 121.889 177.583 121.887 177.552C121.885 177.521 121.894 177.491 121.913 177.466C121.931 177.441 121.958 177.423 121.988 177.416Z" fill="#455A64"/>
<path d="M120.526 178.362C122.58 177.888 125.117 178.139 126.745 179.554C126.811 179.611 126.745 179.701 126.664 179.682C124.668 179.112 122.616 178.757 120.545 178.622C120.514 178.619 120.485 178.605 120.463 178.582C120.442 178.56 120.428 178.531 120.426 178.5C120.424 178.469 120.433 178.438 120.451 178.413C120.469 178.387 120.496 178.369 120.526 178.362Z" fill="#455A64"/>
<path d="M147.006 79.7505L146.987 81.0993L146.225 140.666L146.22 140.893L145.771 176.573L123.972 176.138L128.179 79.8215L128.236 78.5342L128.449 67.3601H146.859L147.006 79.7505Z" fill="#455A64"/>
<path d="M124.885 172.503C128.288 172.47 127.308 172.432 130.711 172.442C132.377 172.442 143.324 172.484 144.876 172.759C144.909 172.759 144.909 172.825 144.876 172.83C143.314 173.066 132.372 172.83 130.706 172.801C127.303 172.73 128.283 172.711 124.88 172.603C124.87 172.599 124.861 172.592 124.854 172.583C124.848 172.573 124.845 172.562 124.846 172.551C124.846 172.54 124.85 172.529 124.857 172.521C124.864 172.512 124.874 172.506 124.885 172.503Z" fill="#263238"/>
<path d="M134.648 86.0161C134.648 86.0061 134.644 85.9965 134.637 85.9894C134.63 85.9823 134.621 85.9783 134.61 85.9783C134.6 85.9783 134.591 85.9823 134.584 85.9894C134.577 85.9965 134.573 86.0061 134.573 86.0161C134.573 91.7191 134.341 94.9137 134.203 100.612C134.066 106.31 133.901 112.008 133.73 117.702C133.423 129.094 132.963 140.476 132.542 151.863C132.306 158.249 132.011 164.632 131.657 171.012C131.657 171.021 131.661 171.029 131.667 171.035C131.673 171.041 131.682 171.045 131.69 171.045C131.699 171.045 131.708 171.041 131.714 171.035C131.72 171.029 131.723 171.021 131.723 171.012C132.552 159.653 133.342 148.257 133.796 136.865C134.251 125.473 134.573 114.086 134.625 102.694C134.672 96.3004 134.634 92.4101 134.648 86.0161Z" fill="#263238"/>
<path d="M147.001 79.7505L146.225 140.666L131.615 67.3601H146.855L147.001 79.7505Z" fill="#263238"/>
<path d="M169.671 154.216C169.671 154.216 172.416 174.41 172.416 174.424C172.965 178.286 173.363 181.68 173.419 183.455C173.419 183.455 173.419 183.455 173.419 183.483C173.475 183.896 173.436 184.317 173.306 184.713C173.305 184.723 173.305 184.732 173.306 184.742C172.265 185.688 141.549 190.942 140.418 190.762C139.287 190.582 139.703 187.345 140.73 186.185C141.757 185.026 152.624 177.761 152.624 177.761L150.068 157.547L169.671 154.216Z" fill="#AD6359"/>
<path d="M171.853 170.278C171.853 170.278 172.416 174.41 172.416 174.424C172.965 178.286 173.363 181.68 173.419 183.454C173.419 183.454 173.419 183.454 173.419 183.483C173.428 183.896 173.39 184.309 173.306 184.713C173.305 184.723 173.305 184.732 173.306 184.742C172.265 185.688 141.549 190.942 140.418 190.762C139.287 190.582 139.703 187.345 140.73 186.185C141.757 185.026 152.624 177.761 152.624 177.761L151.975 173.539L171.853 170.278Z" fill="#C7C7C7"/>
<path d="M140.4 190.762C141.535 190.942 172.246 185.684 173.288 184.742C173.69 184.387 173.183 179.872 172.417 174.425L172.388 174.254L152.539 177.425L152.605 177.761C152.605 177.761 141.748 185.031 140.712 186.19C139.675 187.35 139.245 190.578 140.4 190.762Z" fill="#263238"/>
<path d="M140.541 189.512C145.7 188.499 166.571 184.898 171.778 184.306C171.82 184.306 171.825 184.33 171.778 184.339C166.69 185.456 145.776 188.887 140.57 189.616C140.447 189.631 140.432 189.536 140.541 189.512Z" fill="#455A64"/>
<path d="M150.949 178.106C152.922 177.377 155.468 177.264 157.272 178.447C157.343 178.494 157.272 178.594 157.205 178.584C155.151 178.288 153.071 178.213 151.001 178.362C150.97 178.363 150.939 178.352 150.915 178.333C150.891 178.314 150.874 178.286 150.868 178.256C150.862 178.225 150.866 178.194 150.881 178.166C150.896 178.139 150.92 178.118 150.949 178.106Z" fill="#455A64"/>
<path d="M149.628 179.243C151.602 178.514 154.148 178.4 155.951 179.588C156.022 179.631 155.951 179.73 155.885 179.721C153.831 179.426 151.751 179.352 149.68 179.498C149.649 179.499 149.619 179.489 149.595 179.469C149.57 179.45 149.554 179.423 149.548 179.392C149.541 179.362 149.546 179.33 149.561 179.303C149.576 179.275 149.599 179.254 149.628 179.243Z" fill="#455A64"/>
<path d="M148.312 180.383C150.285 179.654 152.827 179.54 154.635 180.724C154.706 180.771 154.635 180.87 154.569 180.861C152.515 180.562 150.434 180.488 148.364 180.638C148.333 180.639 148.303 180.629 148.278 180.61C148.254 180.59 148.237 180.563 148.231 180.532C148.225 180.502 148.23 180.47 148.244 180.443C148.259 180.416 148.283 180.394 148.312 180.383Z" fill="#455A64"/>
<path d="M130.323 67.3406C130.404 67.7192 131.691 73.6919 133.026 78.8223C133.996 82.5706 134.994 85.8646 135.567 86.2054C136.216 86.5887 139.377 87.9896 140.437 88.4298L145.279 134.73L151.824 177.6L173.226 174.287L157.996 80.4645L155.516 67.3406H130.323Z" fill="#455A64"/>
<path d="M151.952 173.298C155.313 172.758 154.319 172.863 157.707 172.351C159.354 172.105 170.183 170.501 171.759 170.544C171.792 170.544 171.802 170.6 171.759 170.61C170.254 171.083 159.397 172.503 157.745 172.711C154.371 173.147 155.336 172.986 151.957 173.388C151.949 173.384 151.942 173.378 151.937 173.37C151.932 173.362 151.929 173.353 151.929 173.344C151.928 173.335 151.93 173.326 151.934 173.318C151.938 173.31 151.945 173.303 151.952 173.298Z" fill="#263238"/>
<path d="M164.328 160.496C163.793 157.524 163.263 154.552 162.714 151.58C161.619 145.635 160.515 139.692 159.401 133.751C157.167 121.859 154.959 109.958 152.775 98.0473C151.554 91.3267 151.583 91.9562 150.518 85.2026C150.518 85.16 150.433 85.1647 150.442 85.2026C151.464 91.2037 150.982 89.888 151.947 95.8986C152.913 101.909 153.925 107.792 154.99 113.722C157.13 125.644 159.373 137.547 161.64 149.445C162.271 152.783 162.916 156.117 163.576 159.445C164.238 162.844 164.995 166.223 165.696 169.611C165.696 169.687 165.833 169.682 165.819 169.611C165.327 166.578 164.882 163.53 164.328 160.496Z" fill="#263238"/>
<path d="M158.445 85.6476C157.877 85.5009 157.267 85.4535 156.69 85.3636C156.216 85.2879 155.743 85.2027 155.27 85.1033C154.379 84.944 153.535 84.5883 152.799 84.0621C151.995 83.4374 151.583 82.4861 151.195 81.5727C150.961 81.0331 150.725 80.4936 150.485 79.9541L150.13 79.1732C149.965 78.8666 149.818 78.5506 149.69 78.2266C149.69 78.1793 149.6 78.2266 149.619 78.2266C149.699 78.4478 149.766 78.6738 149.818 78.9034C149.898 79.1637 149.969 79.424 150.049 79.6843C150.196 80.1576 150.338 80.6308 150.49 81.1041C150.72 81.958 151.052 82.7811 151.479 83.5557C152.34 84.9187 153.874 85.4725 155.407 85.6665C155.847 85.7186 156.292 85.7517 156.737 85.7754C157.294 85.8251 157.855 85.8251 158.412 85.7754C158.425 85.7719 158.437 85.7651 158.447 85.7556C158.456 85.746 158.463 85.7342 158.466 85.7212C158.47 85.7082 158.469 85.6945 158.466 85.6815C158.462 85.6686 158.455 85.6569 158.445 85.6476Z" fill="#263238"/>
<path d="M133.886 85.387C136.144 86.2069 138.324 87.2236 140.403 88.4254C140.421 88.4336 140.435 88.4484 140.441 88.4666C140.448 88.4848 140.447 88.5049 140.439 88.5225C140.431 88.54 140.416 88.5536 140.398 88.5603C140.38 88.567 140.359 88.5661 140.342 88.558C138.146 87.6114 135.907 86.7122 133.768 85.652C133.738 85.6331 133.717 85.6042 133.706 85.5705C133.696 85.5368 133.699 85.5006 133.713 85.4685C133.727 85.4364 133.753 85.4105 133.785 85.3955C133.816 85.3806 133.852 85.3775 133.886 85.387Z" fill="#263238"/>
<path d="M133.224 70.3654C133.224 70.2896 133.366 70.2707 133.366 70.3654C133.364 72.8153 133.487 75.2637 133.735 77.7011C133.834 78.8323 134.743 85.0795 136.707 84.6252C137.034 84.5495 137.18 84.2229 137.251 83.7307C137.244 83.0834 137.157 82.4396 136.991 81.8139C136.773 80.5029 136.598 79.192 136.489 77.8715C136.258 75.4113 136.285 72.9336 136.57 70.4789C136.57 70.4626 136.576 70.447 136.588 70.4354C136.599 70.4239 136.615 70.4174 136.631 70.4174C136.648 70.4174 136.663 70.4239 136.675 70.4354C136.686 70.447 136.693 70.4626 136.693 70.4789C136.638 73.8919 136.837 77.3042 137.289 80.6875C137.535 82.3109 138.354 84.7577 136.655 85.0085C134.956 85.2594 133.815 81.1655 133.593 80.0439C133.051 76.8473 132.927 73.5939 133.224 70.3654Z" fill="#263238"/>
<path d="M136.656 84.767C136.828 85.19 136.975 85.6231 137.096 86.0638C137.222 86.4044 137.285 86.7654 137.28 87.1287C137.277 87.1435 137.27 87.1571 137.26 87.1678C137.249 87.1786 137.236 87.1859 137.221 87.189C137.206 87.192 137.191 87.1906 137.177 87.1849C137.163 87.1792 137.151 87.1696 137.143 87.1571C136.932 86.8386 136.772 86.4888 136.67 86.1206C136.518 85.7231 136.362 85.3208 136.225 84.9185C136.205 84.8614 136.208 84.7986 136.234 84.744C136.261 84.6895 136.307 84.6475 136.364 84.6274C136.422 84.6073 136.484 84.6108 136.539 84.637C136.593 84.6631 136.635 84.7099 136.656 84.767Z" fill="#263238"/>
<path d="M158.218 81.8422C155.625 81.6718 128.236 78.5293 128.236 78.5293L128.449 67.3552H130.342H155.535L158.015 80.4792L158.218 81.8422Z" fill="#263238"/>
<path d="M139.036 41.6941C135.903 51.5004 130.597 61.6238 129.064 63.6163C124.951 68.9738 112.594 74.2508 108.822 74.9323C107.189 75.2257 103.275 64.6953 104.288 63.2471C105.301 61.7989 120.659 55.9303 121.411 55.1494C121.932 54.6051 128.411 46.2565 132.77 41.2208C138.217 34.9594 139.86 39.129 139.036 41.6941Z" fill="#AD6359"/>
<path d="M107.568 61.2023L113.636 73.5075C113.636 73.5075 126.533 67.9181 129.604 63.9284C132.676 59.9386 138.241 46.4171 139.07 42.1103C139.898 37.8035 138.469 34.7272 132.699 41.0218C126.93 47.3164 122.15 53.5873 121.118 54.6379C120.087 55.6886 107.568 61.2023 107.568 61.2023Z" fill="#EBEBEB"/>
<path d="M108.079 60.5775L115.349 73.3276C115.349 73.3276 126.707 67.8991 129.604 64.3353C132.5 60.7716 137.276 49.8294 138.771 43.9229C140.267 38.0165 139.391 33.828 132.704 41.0549C126.016 48.2818 122.235 53.5304 120.872 54.7089C120.223 55.22 108.079 60.5775 108.079 60.5775Z" fill="#37474F"/>
<path d="M111.141 61.7563C111.51 61.7563 111.808 61.4575 111.808 61.0889C111.808 60.7204 111.51 60.4216 111.141 60.4216C110.772 60.4216 110.474 60.7204 110.474 61.0889C110.474 61.4575 110.772 61.7563 111.141 61.7563Z" fill="#263238"/>
<path d="M114.288 60.3083C114.657 60.3083 114.956 60.0095 114.956 59.641C114.956 59.2724 114.657 58.9736 114.288 58.9736C113.92 58.9736 113.621 59.2724 113.621 59.641C113.621 60.0095 113.92 60.3083 114.288 60.3083Z" fill="#263238"/>
<path d="M138.77 43.9043C137.275 49.8108 132.504 60.734 129.603 64.3167C128.363 65.8454 125.59 67.7101 122.812 69.3476L137.45 37.2879C139.717 36.6726 139.788 39.8909 138.77 43.9043Z" fill="#263238"/>
<path d="M159.648 77.1519C159.572 77.2371 126.831 77.3365 126.518 77.0004C126.097 76.5272 133.494 41.0314 136.855 36.6726C137.569 35.726 139.94 35.4752 141.957 35.726C142.482 35.7853 143.002 35.8914 143.509 36.0431H143.566C143.975 36.1637 144.36 36.3525 144.706 36.6016C150.31 41.0788 155.033 56.73 156.136 61.4296C157.982 69.1866 159.917 76.8442 159.648 77.1519Z" fill="#EBEBEB"/>
<path d="M144.611 36.1853C144.611 36.1853 141.947 50.7149 141.483 54.4916C141.019 58.2684 141.701 78.217 141.701 78.217L162.26 79.7362C162.26 79.7362 157.816 66.5318 157.764 65.6941C157.764 65.6941 154.072 49.8772 150.612 43.2702C149.101 40.5343 147.061 38.1259 144.611 36.1853Z" fill="#37474F"/>
<path d="M162.26 79.7364L152.936 79.0454L146.282 37.6479V37.6763L150.457 43.0244C150.504 43.1096 150.551 43.1948 150.594 43.2799C154.053 49.9058 157.745 65.7038 157.745 65.7038C157.816 66.532 162.26 79.7364 162.26 79.7364Z" fill="#263238"/>
<path d="M136.656 36.5022C136.656 36.5022 134.474 51.2164 134.237 52.4327C134.001 53.649 130.697 77.6441 130.697 77.6441L125.553 77.805L128.236 66.8345C128.236 66.8345 134.204 39.6353 136.656 36.5022Z" fill="#37474F"/>
<path d="M139.661 44.576L138.203 41.7363L136.319 43.7904L136.783 45.8349L138.638 46.0763L139.661 44.576Z" fill="#263238"/>
<path d="M138.638 46.0766L139.528 66.967L135.614 73.8768L133.579 66.1009L136.783 45.8352L138.638 46.0766Z" fill="#263238"/>
<path d="M137.819 103.814L137.793 128.349L178.286 128.391L178.312 103.856L137.819 103.814Z" fill="#FAB114"/>
<path opacity="0.1" d="M137.817 103.817L137.805 115.369L178.298 115.412L178.31 103.859L137.817 103.817Z" fill="black"/>
<path d="M136.851 111.65L179.262 111.695L179.274 100.246L136.863 100.202L136.851 111.65Z" fill="#FAB114"/>
<path d="M149.145 93.688L149.136 100.214L152.207 100.219L152.212 96.504L163.926 96.5182L163.921 100.233H166.992L166.997 93.7022L149.145 93.688Z" fill="#263238"/>
<path d="M170.672 114.416L173.436 114.419L173.441 108.948L170.677 108.945L170.672 114.416Z" fill="#263238"/>
<path d="M142.669 114.393L145.433 114.396L145.438 108.925L142.674 108.922L142.669 114.393Z" fill="#263238"/>
<path d="M149.136 40.549C158.27 48.836 164.068 60.6727 164.461 63.0627C165.407 68.8414 166.605 78.9696 166.401 83.4136C166.325 85.0606 153.845 83.0634 153.869 81.3028C153.949 75.7939 153.216 63.678 153.182 63.465C152.96 61.9837 150.243 55.3247 147.503 48.1025C144.763 40.8803 145.293 37.0704 149.136 40.549Z" fill="#AD6359"/>
<path d="M152.553 98.5674C152.917 98.733 153.323 98.7832 153.716 98.7112C154.11 98.6393 154.472 98.4488 154.754 98.1651C155.11 98.7436 155.657 99.179 156.301 99.3957C157.451 99.7269 158.474 98.0657 158.474 98.0657C158.969 98.589 159.611 98.9517 160.315 99.107C161.446 99.3105 162.719 97.7818 162.719 97.7818C163.438 98.0085 164.215 97.9716 164.91 97.6777C166.089 97.1239 167.087 93.7447 167.333 91.7996C167.579 89.8544 166.448 84.1041 166.344 82.9872L153.869 81.3118C153.869 81.3118 150.291 89.7266 150.328 92.0551C150.362 94.0287 151.18 97.8859 152.553 98.5674Z" fill="#AD6359"/>
<path d="M154.565 98.0518C154.03 95.9741 154.139 93.8491 154.129 91.7288C154.129 91.7187 154.133 91.7091 154.14 91.702C154.147 91.6949 154.157 91.6909 154.167 91.6909C154.177 91.6909 154.187 91.6949 154.194 91.702C154.201 91.7091 154.205 91.7187 154.205 91.7288C154.205 93.8396 154.593 95.9267 154.678 98.0376C154.68 98.0526 154.676 98.0678 154.667 98.0798C154.657 98.0918 154.644 98.0996 154.629 98.1015C154.613 98.1033 154.598 98.0991 154.586 98.0898C154.574 98.0805 154.566 98.0668 154.565 98.0518Z" fill="#263238"/>
<path d="M158.318 98.0046C158.241 97.5209 158.229 97.0292 158.28 96.5422C158.28 96.0263 158.337 95.5057 158.379 94.9899C158.461 93.955 158.567 92.9232 158.696 91.8946C158.696 91.8473 158.772 91.8473 158.767 91.8946C158.692 92.9264 158.63 93.9581 158.592 94.9899C158.592 95.5105 158.564 96.0263 158.554 96.5422C158.575 97.0317 158.543 97.5219 158.46 98.0046C158.454 98.0191 158.445 98.0316 158.432 98.0404C158.419 98.0493 158.404 98.054 158.389 98.054C158.373 98.054 158.358 98.0493 158.346 98.0404C158.333 98.0316 158.323 98.0191 158.318 98.0046Z" fill="#263238"/>
<path d="M162.718 97.7397C162.658 97.3005 162.67 96.8543 162.756 96.4193C162.803 95.946 162.846 95.4727 162.889 94.9994C162.974 94.0529 163.054 93.1063 163.102 92.1598C163.102 92.1124 163.177 92.1124 163.177 92.1598C163.13 93.1063 163.097 94.0813 163.045 95.042L162.96 96.4618C162.97 96.8943 162.904 97.3251 162.766 97.735C162.763 97.7391 162.76 97.7427 162.756 97.7454C162.752 97.748 162.748 97.7497 162.743 97.7501C162.739 97.7506 162.734 97.7499 162.729 97.7481C162.725 97.7463 162.721 97.7434 162.718 97.7397Z" fill="#263238"/>
<path d="M153.258 81.3685L167.092 82.1162C167.092 82.1162 166.07 66.9714 164.972 62.764C163.874 58.5565 154.503 44.5334 148.971 39.4504C143.764 34.6656 143.764 38.6458 145.738 44.2541C147.712 49.8625 152.596 63.4171 152.761 64.4062C152.927 65.3954 153.258 81.3685 153.258 81.3685Z" fill="#37474F"/>
<path d="M153.878 78.5767C154.409 78.5294 154.943 78.5767 155.473 78.5767C156.003 78.5767 156.534 78.6004 157.064 78.624C158.086 78.6666 159.108 78.7281 160.13 78.7944L163.193 78.9979C164.248 79.0689 165.327 79.0878 166.373 79.244C166.38 79.2467 166.386 79.2515 166.391 79.2579C166.395 79.2642 166.398 79.2718 166.398 79.2795C166.398 79.2872 166.395 79.2948 166.391 79.3011C166.386 79.3075 166.38 79.3123 166.373 79.315C165.318 79.3576 164.243 79.2629 163.188 79.2251L160.064 79.0973C159.023 79.05 157.982 78.9979 156.941 78.9317C156.429 78.9033 155.918 78.8654 155.412 78.8086C154.905 78.7518 154.375 78.7471 153.874 78.6477C153.826 78.6382 153.841 78.5814 153.878 78.5767Z" fill="#263238"/>
<path d="M138.695 41.3584C139.235 41.3348 142.818 38.5188 143.901 36.3512C143.977 36.1997 143.698 34.6568 143.452 32.7685C143.305 31.6231 143.168 30.3405 143.13 29.1621C143.13 28.9207 142.316 29.394 142.316 29.394L140.802 29.8105L135.804 31.2019C136.275 32.6611 136.564 34.1728 136.665 35.7028C136.671 35.8612 136.659 36.0199 136.632 36.176C136.634 36.2028 136.634 36.2297 136.632 36.2565C136.523 37.1889 137.825 41.3916 138.695 41.3584Z" fill="#AD6359"/>
<path d="M136.651 36.1853C136.653 36.2121 136.653 36.239 136.651 36.2658C136.904 36.2898 137.159 36.2898 137.413 36.2658C142.382 35.9913 142.794 29.6399 142.794 29.6399L140.83 29.7913L135.832 31.1828C136.303 32.642 136.592 34.1537 136.693 35.6836C136.698 35.8519 136.683 36.0202 136.651 36.1853Z" fill="#263238"/>
<path d="M142.945 19.1754C144.138 21.6412 143.939 29.3367 142.354 31.2913C140.063 34.1309 135.728 35.0349 133.172 32.1432C130.697 29.3461 131.137 19.3221 132.959 17.4716C135.643 14.7834 141.185 15.5312 142.945 19.1754Z" fill="#AD6359"/>
<path d="M136.348 24.7883C136.348 24.7883 136.386 24.7883 136.386 24.8357C136.357 25.3515 136.414 25.9526 136.859 26.1324C136.859 26.1324 136.859 26.1656 136.859 26.1608C136.305 26.0709 136.239 25.2758 136.348 24.7883Z" fill="#263238"/>
<path d="M136.821 24.259C137.654 24.2117 137.687 25.8871 136.911 25.9297C136.135 25.9723 136.121 24.2969 136.821 24.259Z" fill="#263238"/>
<path d="M133.347 24.9307C133.347 24.9307 133.309 24.9543 133.309 24.978C133.333 25.4939 133.276 26.0949 132.808 26.2748V26.3032C133.385 26.2085 133.456 25.4039 133.347 24.9307Z" fill="#263238"/>
<path d="M132.874 24.3906C132.041 24.3433 132.004 26.0187 132.78 26.0613C133.556 26.1039 133.565 24.4569 132.874 24.3906Z" fill="#263238"/>
<path d="M137.47 23.4825C137.238 23.4257 137.035 23.3405 136.817 23.2648C136.575 23.2219 136.355 23.0984 136.192 22.9146C136.152 22.8481 136.135 22.7699 136.144 22.6925C136.154 22.6152 136.189 22.5434 136.244 22.4886C136.368 22.3937 136.515 22.3336 136.67 22.3145C136.824 22.2953 136.981 22.3179 137.125 22.3798C137.434 22.4617 137.702 22.6556 137.877 22.924C137.913 22.9874 137.931 23.06 137.927 23.1329C137.923 23.2058 137.898 23.2761 137.854 23.3351C137.811 23.3941 137.752 23.4395 137.684 23.4656C137.616 23.4918 137.542 23.4976 137.47 23.4825Z" fill="#263238"/>
<path d="M132.211 23.5628C132.435 23.5135 132.657 23.4519 132.874 23.3782C133.116 23.3445 133.34 23.2332 133.513 23.0611C133.557 22.9965 133.578 22.9189 133.573 22.8409C133.568 22.7628 133.537 22.6887 133.484 22.6304C133.366 22.5289 133.222 22.4613 133.067 22.4346C132.913 22.408 132.755 22.4233 132.609 22.479C132.296 22.5451 132.019 22.7257 131.833 22.9854C131.794 23.0469 131.773 23.1184 131.773 23.1913C131.774 23.2642 131.795 23.3355 131.835 23.3964C131.875 23.4574 131.932 23.5056 131.999 23.5351C132.066 23.5646 132.139 23.5742 132.211 23.5628Z" fill="#263238"/>
<path d="M134.771 28.6886C134.994 28.9704 135.286 29.189 135.619 29.3228C135.802 29.3913 136.002 29.4012 136.191 29.3512C136.608 29.2329 136.608 28.8779 136.527 28.5277C136.481 28.3631 136.416 28.2043 136.333 28.0544C135.893 28.4264 135.346 28.6485 134.771 28.6886Z" fill="#263238"/>
<path d="M135.619 29.3227C135.803 29.3911 136.003 29.4011 136.192 29.3511C136.608 29.2328 136.608 28.8778 136.528 28.5276C136.31 28.5404 136.102 28.6255 135.937 28.7695C135.773 28.9134 135.661 29.1081 135.619 29.3227Z" fill="#FF9ABB"/>
<path d="M131.899 20.0464C132.169 19.3838 132.486 18.7165 132.879 18.5745C133.272 18.4326 133.551 19.398 134.455 19.4406C135.671 19.5022 136.239 18.3758 137.938 18.2243C140.376 18.0066 141.488 20.0275 141.616 23.4919C141.725 26.5824 143.604 26.8379 143.604 26.8379C143.604 26.8379 144.607 19.9944 142.657 17.77C140.707 15.5456 136.258 14.6321 133.333 16.8234C132.25 17.6516 131.899 20.0464 131.899 20.0464Z" fill="#263238"/>
<path d="M142.018 25.65C142.018 25.65 143.385 22.9949 144.569 23.4493C145.752 23.9036 144.952 27.5952 143.721 28.253C143.57 28.3477 143.4 28.4106 143.223 28.438C143.047 28.4655 142.866 28.4568 142.693 28.4126C142.519 28.3684 142.357 28.2895 142.215 28.1807C142.073 28.072 141.954 27.9356 141.866 27.7798L142.018 25.65Z" fill="#AD6359"/>
<path d="M144.313 24.5046C144.313 24.5046 144.341 24.5283 144.313 24.5378C143.456 25.011 143.092 25.9292 142.893 26.8474C142.933 26.7489 142.994 26.6604 143.072 26.5879C143.149 26.5155 143.242 26.4609 143.343 26.428C143.444 26.3951 143.551 26.3846 143.656 26.3974C143.762 26.4102 143.863 26.4458 143.953 26.5019C143.977 26.5019 143.953 26.5539 143.953 26.5539C143.787 26.5244 143.616 26.5472 143.463 26.6193C143.311 26.6914 143.184 26.8091 143.101 26.9562C142.963 27.2021 142.852 27.4624 142.77 27.7324C142.742 27.8223 142.586 27.7986 142.604 27.6993C142.406 26.5255 143.087 24.7886 144.313 24.5046Z" fill="#263238"/>
<path d="M136.627 36.3652L138.411 40.7478L143.826 35.2104L145.369 36.9805C145.369 36.9805 140.077 45.755 140.044 45.3717L138.236 41.6139L135.647 44.2358L135.842 37.662L136.627 36.3652Z" fill="#EBEBEB"/>
<path d="M135.557 40.9842C135.628 39.9004 135.666 38.8024 135.785 37.7234C135.785 37.6855 135.851 37.6713 135.86 37.7234C136.078 38.7693 135.794 42.9294 135.799 43.9091C135.908 43.7955 138.198 41.6042 138.222 41.6373C138.615 42.2337 139.94 44.9503 140.03 45.22C140.868 43.8239 144.072 38.7504 145.066 37.4299C145.072 37.4246 145.079 37.4214 145.087 37.4208C145.095 37.4201 145.103 37.422 145.11 37.4263C145.117 37.4305 145.122 37.4368 145.125 37.4443C145.128 37.4517 145.129 37.46 145.127 37.4678C144.403 38.916 140.162 45.7549 140.096 45.7549C139.398 44.4626 138.766 43.1358 138.203 41.7793C137.815 42.2526 135.501 44.7373 135.491 44.5764C135.451 43.3787 135.473 42.1797 135.557 40.9842Z" fill="#263238"/>
<path d="M75.4938 40.8805C81.4476 52.6319 87.4961 80.9007 88.0592 84.6822C88.4426 87.2521 74.9306 89.5759 74.9306 87.7964C74.9306 85.5152 72.2045 58.8319 72.4648 48.2873C72.6068 42.4707 74.2632 38.4526 75.4938 40.8805Z" fill="#CB8D5F"/>
<path d="M74.8784 86.6692C74.6607 88.2168 75.1765 93.579 76.1893 97.5546C76.6626 99.495 78.6882 104.914 80.2075 104.654C81.7267 104.393 81.2771 102.761 81.2771 102.761C81.2771 102.761 82.4697 104.919 83.97 104.516C85.4703 104.114 84.6988 101.587 84.6988 101.587C84.6988 101.587 86.0808 103.721 87.5385 103.21C88.9962 102.699 87.7988 100.29 87.7988 100.29C87.7988 100.29 88.9773 102.302 90.009 101.369C91.2537 100.248 88.6696 96.7926 88.2342 94.6202C88.1348 94.147 86.928 84.4827 86.928 84.4827L74.8784 86.6692Z" fill="#CB8D5F"/>
<path d="M87.8179 100.258C85.9248 97.7113 85.5367 96.2678 85.3001 93.1584C85.2968 93.1478 85.2902 93.1385 85.2812 93.1319C85.2723 93.1254 85.2615 93.1218 85.2504 93.1218C85.2393 93.1218 85.2285 93.1254 85.2195 93.1319C85.2106 93.1385 85.204 93.1478 85.2007 93.1584C85.1581 96.2299 85.3853 98.1088 87.6996 100.366C87.8132 100.466 87.9078 100.376 87.8179 100.258Z" fill="#263238"/>
<path d="M84.7374 101.725C83.0005 98.9085 82.565 97.3467 82.0728 94.1048C82.0728 94.0575 81.9876 94.0622 81.9924 94.1048C82.2054 97.3278 82.4657 99.1972 84.5812 101.786C84.6759 101.909 84.8178 101.852 84.7374 101.725Z" fill="#263238"/>
<path d="M81.14 102.548C79.6586 99.7084 79.1096 98.0093 79.0386 94.8005C79.0349 94.7876 79.0272 94.7763 79.0165 94.7683C79.0058 94.7602 78.9928 94.7559 78.9795 94.7559C78.9661 94.7559 78.9531 94.7602 78.9424 94.7683C78.9317 94.7763 78.924 94.7876 78.9203 94.8005C78.6742 98.0803 79.3462 100.196 81.05 102.591C81.1684 102.728 81.2346 102.709 81.14 102.548Z" fill="#263238"/>
<path d="M87.974 84.0098C87.974 84.0098 90.1511 87.3227 90.7853 89.0123C91.4195 90.7019 91.4905 97.7868 89.957 97.891C87.9788 98.0235 87.1174 93.9296 86.9754 91.8709C86.9754 91.8709 82.3941 92.1785 81.1541 89.372C79.9141 86.5655 87.974 84.0098 87.974 84.0098Z" fill="#CB8D5F"/>
<path d="M89.4037 97.7438C87.5106 96.5654 87.4822 93.8488 87.184 91.861C87.181 91.8314 87.1708 91.803 87.1544 91.7782C87.138 91.7534 87.1158 91.7329 87.0898 91.7185C87.0638 91.7041 87.0347 91.6961 87.0049 91.6954C86.9752 91.6947 86.9457 91.7012 86.919 91.7143C84.9928 91.7143 82.2714 91.1558 81.1072 89.4899C81.1047 89.4835 81.1009 89.4777 81.0959 89.4729C81.091 89.4681 81.0851 89.4644 81.0786 89.4621C81.0721 89.4599 81.0652 89.459 81.0584 89.4597C81.0515 89.4604 81.0449 89.4625 81.039 89.466C81.033 89.4695 81.0279 89.4742 81.024 89.4799C81.0201 89.4856 81.0175 89.492 81.0163 89.4988C81.0151 89.5056 81.0155 89.5125 81.0173 89.5192C81.0191 89.5258 81.0223 89.532 81.0267 89.5372C82.0301 91.4966 84.6615 92.2633 86.7723 92.1261C87.0468 94.1659 87.1935 96.892 89.3895 97.7628C89.4037 97.7675 89.4132 97.7533 89.4037 97.7438Z" fill="#263238"/>
<path d="M89.3556 83.2146L74.0072 85.581C74.0072 85.581 71.5604 57.085 71.4705 47.5201C71.3806 37.9552 74.8165 35.6124 78.5034 45.3951C82.1902 55.1777 89.3556 83.2146 89.3556 83.2146Z" fill="#FAB114"/>
<path d="M73.9322 83.1816C80.2126 81.7617 87.023 81.2364 88.2062 81.0613C88.263 81.0613 88.2677 81.1417 88.2062 81.1465C87.0419 81.2601 79.3181 82.713 73.9322 83.2762C73.8896 83.2809 73.8849 83.191 73.9322 83.1816Z" fill="#263238"/>
<path d="M107.952 187.558C106.887 187.904 75.6745 187.435 74.5291 186.683C74.3919 186.597 74.373 183.777 74.4108 179.91L72.8916 156.942L92.6414 156.999L94.2032 176.876C94.2032 176.876 98.6331 178.921 102.287 180.71C103.885 181.436 105.439 182.258 106.939 183.171C108.118 184.155 109.017 187.217 107.952 187.558Z" fill="#CB8D5F"/>
<path d="M107.952 187.558C106.887 187.903 75.6743 187.435 74.529 186.682C74.3917 186.597 74.3728 183.776 74.4107 179.91C82.1203 181.628 102.679 184.411 103.281 182.797C103.522 182.148 103.03 181.415 102.296 180.738C103.895 181.464 105.448 182.286 106.948 183.199C108.117 184.155 109.017 187.217 107.952 187.558Z" fill="#263238"/>
<path d="M64.5518 73.3467C64.5518 73.3467 70.1459 132.705 70.2689 133.424C70.2689 133.519 70.3305 134.617 70.3825 136.401C70.6949 146.193 71.4616 176.729 71.4616 176.729H94.9266C94.9266 176.729 93.398 140.561 92.5177 132.128C91.396 121.361 84.5004 73.3467 84.5004 73.3467H64.5518Z" fill="#37474F"/>
<path d="M73.0661 135.431C72.3436 123.107 71.2566 110.802 69.8053 98.5157C68.9818 91.6059 67.9879 84.7197 67.0035 77.8288C67.0035 77.7673 66.8993 77.772 66.9088 77.8288C68.7262 90.0914 70.0088 102.439 71.1162 114.796C72.2237 127.154 73.0093 139.483 73.4826 151.854C73.7713 158.858 73.989 165.872 74.2115 172.882C74.2173 172.912 74.2334 172.939 74.2572 172.959C74.2809 172.978 74.3108 172.989 74.3416 172.989C74.3724 172.989 74.4023 172.978 74.426 172.959C74.4498 172.939 74.466 172.912 74.4718 172.882C74.1594 160.406 73.7997 147.912 73.0661 135.431Z" fill="#263238"/>
<path d="M93.4458 172.948C92.8305 172.867 92.1632 172.891 91.5527 172.872C90.8522 172.872 90.1329 172.839 89.4419 172.815C88.0836 172.763 86.7205 172.725 85.3622 172.707C82.622 172.659 79.877 172.678 77.1414 172.763L74.8792 172.844C74.0746 172.872 73.27 172.948 72.4654 172.943C72.4087 172.943 72.4087 173.014 72.4654 173.014C73.8427 173.014 75.2388 173.132 76.6208 173.185C78.0028 173.237 79.3374 173.256 80.6957 173.274C83.436 173.312 86.1857 173.274 88.9213 173.189C89.6738 173.161 90.4263 173.151 91.1788 173.128L92.3904 173.066C92.7501 173.066 93.105 173.066 93.4647 173.033C93.5121 173.033 93.5073 172.957 93.4458 172.948Z" fill="#263238"/>
<path d="M81.5045 73.3467L70.7848 150.661C70.6334 144.897 70.4819 139.568 70.3825 136.401C70.3305 134.617 70.2879 133.519 70.2689 133.424C70.1364 132.705 64.5518 73.3467 64.5518 73.3467H81.5045Z" fill="#263238"/>
<path d="M68.641 191.675C67.5241 191.585 38.8908 179.148 38.1241 178.012C38.0295 177.884 39.0707 175.271 40.6183 171.717L46.9318 149.473L65.2003 156.804L60.0463 176.554C60.0463 176.554 63.3592 180.146 66.038 183.18C67.2344 184.468 68.3533 185.825 69.3888 187.245C70.1034 188.594 69.7532 191.77 68.641 191.675Z" fill="#CB8D5F"/>
<path d="M68.641 191.676C67.5241 191.586 38.8908 179.148 38.1241 178.012C38.0295 177.884 39.0707 175.272 40.6183 171.718C47.0785 176.27 64.9826 186.739 66.1752 185.48C66.6485 184.979 66.4734 184.108 66.0569 183.199C67.2533 184.487 68.3722 185.844 69.4077 187.265C70.1034 188.595 69.7532 191.77 68.641 191.676Z" fill="#263238"/>
<path d="M38.5645 169.427L61.4568 176.526C61.4568 176.526 72.6356 137.315 73.4923 128.105C74.3394 118.976 75.1582 100.324 75.5226 86.7928C75.5226 86.7928 79.3467 84.5305 80.3169 83.2952C81.2871 82.06 82.1579 77.6159 84.07 73.3564H56.0615C49.3694 86.3573 54.405 92.1408 54.405 94.9757C54.405 108.663 52.3368 126.832 51.6789 129.525C50.3064 135.138 38.5645 169.427 38.5645 169.427Z" fill="#37474F"/>
<path d="M61.4044 171.518C60.8318 171.281 60.1834 171.135 59.5871 170.95C58.9103 170.747 58.2288 170.557 57.5567 170.349C56.2599 169.947 54.9537 169.563 53.6474 169.194C51.0129 168.443 48.3594 167.752 45.6869 167.121L43.4815 166.615C42.7006 166.435 41.9007 166.298 41.1151 166.09C41.0536 166.09 41.0394 166.142 41.1151 166.161C42.4497 166.511 43.7654 166.989 45.0859 167.396C46.4063 167.803 47.6936 168.167 48.9999 168.541C51.636 169.284 54.2958 169.961 56.9651 170.581C57.7034 170.747 58.4323 170.931 59.1658 171.106L60.3443 171.367C60.6945 171.447 61.0353 171.561 61.3902 171.613C61.4028 171.615 61.4156 171.611 61.4258 171.604C61.436 171.596 61.4428 171.585 61.4447 171.573C61.4466 171.56 61.4434 171.547 61.4358 171.537C61.4283 171.527 61.417 171.52 61.4044 171.518Z" fill="#263238"/>
<path d="M80.9695 82.9877C79.6329 83.602 78.364 84.3538 77.1833 85.2311C75.9291 86.0924 74.7743 87.0816 73.5675 88.0045C73.5201 88.0423 73.5675 88.118 73.6148 88.0849C74.8879 87.2709 76.2225 86.5562 77.4815 85.7185C78.7455 84.9517 79.9368 84.0709 81.0405 83.0871C81.0736 83.0493 81.031 82.9641 80.9695 82.9877Z" fill="#263238"/>
<path d="M81.145 75.0982C80.9841 75.969 80.7712 76.8351 80.5818 77.7012C80.3925 78.5673 80.2742 79.3435 80.0612 80.148C79.8852 80.9263 79.4893 81.6376 78.9206 82.1973C78.6035 82.4955 78.2486 82.7558 77.9078 83.0303C77.728 83.177 77.5292 83.3143 77.3399 83.4657C77.3636 83.3474 77.3825 83.2338 77.4014 83.1107C77.4629 82.7842 77.5197 82.4529 77.5718 82.1216C77.6949 81.388 77.8132 80.6497 77.9268 79.9161C78.1492 78.4679 78.3527 77.0055 78.6556 75.5715C78.6587 75.5589 78.6568 75.5456 78.6501 75.5345C78.6435 75.5234 78.6327 75.5154 78.6201 75.5123C78.6076 75.5092 78.5943 75.5111 78.5832 75.5178C78.5721 75.5245 78.5641 75.5352 78.5609 75.5478C78.2013 76.9676 77.8037 78.3875 77.4913 79.8073C77.3352 80.5077 76.7862 83.9721 76.7625 84.2182C76.7388 84.4643 76.7152 84.7246 76.7057 84.9802C76.6749 85.2396 76.6749 85.5017 76.7057 85.7611C76.7057 85.8226 76.8004 85.8132 76.824 85.7611C76.93 85.5208 77.0048 85.2679 77.0465 85.0086C77.108 84.7625 77.1648 84.5116 77.2074 84.2608C77.2074 84.1709 77.2358 84.0762 77.25 83.9816C77.5907 83.7733 77.9078 83.5083 78.2297 83.2717C78.5515 83.035 78.9206 82.7984 79.2472 82.505C79.849 81.9971 80.2829 81.319 80.4919 80.5598C80.7022 79.7421 80.84 78.9075 80.9037 78.0656C81.0125 77.0812 81.093 76.0921 81.2302 75.1124C81.2444 75.0982 81.1545 75.0509 81.145 75.0982Z" fill="#263238"/>
<path d="M80.5579 37.3592C80.1083 42.9202 79.5499 48.6374 78.2531 54.0706C77.2403 58.3017 74.9401 61.5909 70.3494 62.0311C66.0899 62.4381 60.1976 61.5578 57.074 58.3348C55.6163 56.8345 55.2992 54.9509 55.6825 52.9442C56.2173 50.1566 60.5573 35.0685 61.8777 30.3547C62.6823 27.4866 63.4774 24.576 64.7836 21.8783C67.5192 16.199 70.463 16.6723 70.87 16.6013C71.2533 16.4214 73.6386 15.7305 76.7055 17.1881C77.5124 17.5648 78.2306 18.1078 78.813 18.7815C79.3953 19.4552 79.8287 20.2445 80.0847 21.0974C81.7127 26.1709 80.9934 32.1531 80.5579 37.3592Z" fill="#263238"/>
<path d="M69.8572 17.2965C66.1041 18.4607 64.7316 22.1996 63.4064 25.5315C61.5607 30.1743 59.7906 34.8503 58.2477 39.6067C57.5094 41.8926 56.8279 44.1975 56.1984 46.5165C55.6069 48.7409 54.8354 51.0931 54.6745 53.398C54.4095 57.1842 57.6277 59.3991 60.9028 60.3977C60.9355 60.4084 60.971 60.4057 61.0016 60.3901C61.0322 60.3746 61.0554 60.3475 61.0661 60.3149C61.0768 60.2823 61.074 60.2467 61.0585 60.2161C61.043 60.1855 61.0159 60.1623 60.9833 60.1516C59.128 59.5127 57.2586 58.7318 56.0328 57.1085C54.4568 55.045 54.9963 52.707 55.5311 50.3785C56.4493 46.4124 57.5899 42.5079 58.8441 38.6459C60.0982 34.784 61.5465 30.9599 63.0231 27.169C64.4429 23.5579 65.7539 18.7305 69.8477 17.358C69.9093 17.358 69.8951 17.2823 69.8572 17.2965Z" fill="#263238"/>
<path d="M81.1308 25.3522C80.8563 22.3752 79.7394 19.3557 76.8192 18.1016C80.5771 19.8905 80.9462 24.3157 80.9746 27.9694C81.0062 31.8218 80.8973 35.668 80.648 39.5079C80.4114 43.2041 80.0896 46.9194 79.5169 50.5778C78.8969 54.5249 77.6711 58.1502 74.8883 61.0798C74.8821 61.0854 74.877 61.0921 74.8734 61.0997C74.8698 61.1072 74.8677 61.1154 74.8673 61.1238C74.8668 61.1321 74.868 61.1405 74.8708 61.1484C74.8736 61.1562 74.8779 61.1635 74.8835 61.1697C74.8891 61.1759 74.8959 61.181 74.9034 61.1846C74.911 61.1882 74.9192 61.1903 74.9275 61.1907C74.9359 61.1911 74.9442 61.1899 74.9521 61.1871C74.96 61.1843 74.9672 61.18 74.9735 61.1744C77.638 58.8507 78.9016 55.32 79.55 51.9408C80.3324 47.4548 80.8177 42.922 81.003 38.372C81.2491 34.0888 81.5283 29.6637 81.1308 25.3522Z" fill="#263238"/>
<path d="M69.6348 38.1165C69.8147 38.5898 72.5739 41.4768 74.8078 41.084C75.5319 40.9514 74.9971 36.9523 74.9971 36.9523L75.0255 36.6494L75.4135 32.3899L70.146 29.9004L69.3935 29.5786C69.3935 29.5786 69.3603 30.7523 69.3414 32.21C69.3414 32.281 69.3414 32.3473 69.3414 32.4183C69.3367 32.4987 69.3367 32.5793 69.3414 32.6596C69.3414 32.8774 69.3414 33.0998 69.3414 33.3222C69.3414 33.5447 69.3414 33.6535 69.3414 33.8286C69.3414 34.0037 69.3414 34.1836 69.3414 34.3587C69.3539 35.6165 69.4519 36.872 69.6348 38.1165Z" fill="#CB8D5F"/>
<path d="M69.3418 32.21C69.9098 33.3177 70.712 34.2884 71.6927 35.055C72.6734 35.8216 73.8091 36.3656 75.0211 36.6494L75.4092 32.3899L70.1464 29.9004L69.3939 29.5786C69.3939 29.5786 69.3607 30.7523 69.3418 32.21Z" fill="#263238"/>
<path d="M80.828 26.1188C81.4243 33.5966 77.0134 34.7987 75.3995 34.9265C73.9324 35.0401 68.9298 35.2483 67.5668 27.8652C66.2038 20.4821 69.493 17.8318 72.8296 17.4058C76.1662 16.9799 80.2364 18.6363 80.828 26.1188Z" fill="#CB8D5F"/>
<path d="M79.569 24.5288C79.3983 24.5037 79.2293 24.4689 79.0626 24.4247C78.8776 24.4135 78.7013 24.342 78.5609 24.2212C78.5252 24.1742 78.5059 24.1169 78.5059 24.0579C78.5059 23.9989 78.5252 23.9415 78.5609 23.8946C78.6453 23.8132 78.7497 23.7554 78.8635 23.7272C78.9773 23.6989 79.0966 23.7012 79.2093 23.7337C79.4505 23.764 79.6708 23.8861 79.8245 24.0744C79.8581 24.1186 79.878 24.1715 79.8818 24.2268C79.8856 24.2821 79.8732 24.3373 79.846 24.3856C79.8188 24.4339 79.7781 24.4732 79.7289 24.4986C79.6797 24.5241 79.6241 24.5346 79.569 24.5288Z" fill="#263238"/>
<path d="M74.59 24.6327C74.7651 24.609 74.9213 24.5617 75.0964 24.5238C75.2726 24.5041 75.4381 24.4296 75.5697 24.3109C75.6061 24.2642 75.626 24.2068 75.626 24.1476C75.626 24.0884 75.6061 24.0309 75.5697 23.9843C75.4841 23.9032 75.3785 23.8465 75.2637 23.8199C75.1489 23.7932 75.0291 23.7977 74.9166 23.8328C74.6784 23.871 74.4627 23.9957 74.3108 24.1831C74.2764 24.2288 74.2567 24.2839 74.2542 24.341C74.2517 24.3982 74.2665 24.4548 74.2966 24.5034C74.3268 24.552 74.371 24.5903 74.4233 24.6134C74.4757 24.6365 74.5338 24.6432 74.59 24.6327Z" fill="#263238"/>
<path d="M75.7592 26.521C75.7592 26.521 75.7213 26.521 75.7213 26.5636C75.7545 27.0747 75.7213 27.6663 75.248 27.8509C75.248 27.8509 75.248 27.884 75.248 27.8793C75.8254 27.7704 75.8728 26.999 75.7592 26.521Z" fill="#263238"/>
<path d="M75.2857 26C74.4622 25.9669 74.4527 27.6139 75.2147 27.647C75.9767 27.6801 75.9767 26.0284 75.2857 26Z" fill="#263238"/>
<path d="M74.9642 26.0857C74.8175 26.1803 74.6755 26.3412 74.4909 26.3602C74.3064 26.3791 74.1407 26.204 74.0177 26.0383H73.9893C73.9893 26.3507 74.0981 26.6773 74.4625 26.7246C74.827 26.7719 74.9973 26.4927 75.0778 26.1756C75.0731 26.1377 75.021 26.0478 74.9642 26.0857Z" fill="#263238"/>
<path d="M78.5989 26.407C78.5989 26.407 78.6367 26.407 78.6367 26.4496C78.6131 26.9607 78.6699 27.5523 79.1337 27.7274C79.1337 27.7274 79.1337 27.7606 79.1337 27.7558C78.5657 27.6706 78.4947 26.885 78.5989 26.407Z" fill="#263238"/>
<path d="M79.0626 25.8775C79.8814 25.8301 79.924 27.4771 79.162 27.5245C78.4 27.5718 78.3716 25.9201 79.0626 25.8775Z" fill="#263238"/>
<path d="M79.4084 25.9816C79.5409 26.062 79.6735 26.2182 79.8296 26.2277C79.9858 26.2371 80.1373 26.0526 80.2509 25.8774H80.2745C80.2745 26.1898 80.1941 26.5211 79.8959 26.5874C79.5977 26.6536 79.4226 26.3838 79.328 26.0762C79.3138 26.0336 79.3564 25.9437 79.4084 25.9816Z" fill="#263238"/>
<path d="M77.8516 28.7166C77.8516 28.7166 77.9605 29.4786 77.9605 29.8383C77.9605 29.8761 77.8753 29.8903 77.7522 29.8998C77.4435 29.9582 77.1247 29.9304 76.8308 29.8193C76.5368 29.7083 76.2793 29.5183 76.0863 29.2704C76.0794 29.2628 76.0758 29.2529 76.0762 29.2427C76.0767 29.2324 76.0811 29.2228 76.0887 29.2159C76.0962 29.209 76.1062 29.2054 76.1164 29.2058C76.1266 29.2063 76.1362 29.2108 76.1431 29.2183C76.6021 29.5308 77.1503 29.6853 77.7049 29.6584C77.7286 29.5591 77.473 28.3569 77.5298 28.3522C77.8096 28.3746 78.0851 28.4351 78.3486 28.532C78.1687 26.9371 77.7333 25.3848 77.5724 23.7993C77.5724 23.7867 77.5774 23.7747 77.5862 23.7658C77.5951 23.7569 77.6072 23.752 77.6197 23.752C77.6323 23.752 77.6443 23.7569 77.6532 23.7658C77.6621 23.7747 77.667 23.7867 77.667 23.7993C78.186 25.4497 78.5395 27.1477 78.7224 28.8681C78.7366 29.029 77.9936 28.7639 77.8516 28.7166Z" fill="#263238"/>
<path d="M78.4286 26.9042C78.315 25.6831 78.8782 24.6324 79.6828 24.5378C80.4874 24.4431 81.2399 25.3897 81.3535 26.6107C81.4671 27.8318 80.8802 28.8825 80.0993 28.9771C79.3184 29.0718 78.5422 28.1252 78.4286 26.9042ZM78.7268 26.8758C78.8262 27.9312 79.4272 28.7405 80.0709 28.6837C80.7146 28.6269 81.1594 27.7135 81.06 26.6581C80.9607 25.6027 80.3549 24.7933 79.7112 24.8501C79.0676 24.9069 78.6274 25.8204 78.7268 26.8758Z" fill="#263238"/>
<path d="M72.8678 27.4297C72.8577 27.0252 72.9659 26.6265 73.1792 26.2826C73.3925 25.9388 73.7015 25.6647 74.0684 25.494C74.4353 25.3233 74.844 25.2634 75.2444 25.3218C75.6448 25.3801 76.0195 25.5541 76.3224 25.8224C76.6253 26.0906 76.8433 26.4415 76.9496 26.8319C77.0559 27.2224 77.0459 27.6353 76.9207 28.0201C76.7956 28.405 76.5609 28.7449 76.2453 28.9981C75.9297 29.2514 75.5471 29.407 75.1443 29.4458C74.5756 29.4782 74.0171 29.2845 73.5907 28.9068C73.1642 28.5291 72.9044 27.9981 72.8678 27.4297ZM73.166 27.4013C73.2263 27.7416 73.3843 28.0569 73.6208 28.3089C73.8574 28.5609 74.1621 28.7385 74.4979 28.8201C74.8337 28.9018 75.1861 28.8839 75.5118 28.7686C75.8376 28.6533 76.1228 28.4457 76.3326 28.171C76.5423 27.8963 76.6675 27.5665 76.693 27.2219C76.7184 26.8772 76.6429 26.5326 76.4757 26.2302C76.3086 25.9277 76.0569 25.6805 75.7516 25.5186C75.4462 25.3568 75.1004 25.2874 74.7562 25.3189C74.2695 25.3848 73.8287 25.641 73.5306 26.0313C73.2325 26.4217 73.1014 26.9144 73.166 27.4013Z" fill="#263238"/>
<path d="M76.8809 26.8475C77.9505 26.3742 78.4853 26.6724 78.49 26.6771L78.6509 26.4263C78.6273 26.4263 77.9931 26.0098 76.7578 26.5777L76.8809 26.8475Z" fill="#263238"/>
<path d="M72.9857 27.2209L73.0141 26.9228C72.8153 26.9228 68.2246 26.4968 67.7323 26.5157C67.2401 26.5347 66.0711 27.3251 65.9434 27.415L66.1137 27.6611C66.6 27.2934 67.1437 27.0087 67.7229 26.8186H67.7797C68.1394 26.8234 71.3529 27.0742 72.9857 27.2209Z" fill="#263238"/>
<path d="M67.7793 27.3303C68.5886 27.283 70.6994 25.0444 70.7657 21.1256C70.7657 21.1256 70.4628 24.6421 70.2025 25.158C69.9422 25.6738 71.3809 23.899 71.4756 20.7423C72.4726 21.4535 73.5658 22.0193 74.7223 22.4224C76.2131 22.8389 77.1265 22.8247 77.2353 22.7159C77.3442 22.607 75.1435 21.916 74.5471 21.2345C74.5471 21.2345 78.5227 23.0755 80.3495 23.2175C80.5625 23.2175 80.8228 18.8776 77.9831 17.0318C75.1435 15.186 70.671 17.1833 69.4642 18.3475C69.4642 18.3475 68.0443 18.5463 66.5156 20.6429C64.987 22.7395 66.9085 27.3824 67.7793 27.3303Z" fill="#263238"/>
<path d="M68.8019 28.3479C68.8019 28.3479 67.1785 25.9815 66.1137 26.5684C65.0488 27.1553 66.2509 30.5487 67.4956 31.0219C67.6511 31.0936 67.8195 31.1332 67.9907 31.1383C68.1619 31.1434 68.3323 31.1139 68.4918 31.0516C68.6513 30.9893 68.7966 30.8955 68.919 30.7757C69.0414 30.656 69.1384 30.5127 69.2042 30.3546L68.8019 28.3479Z" fill="#CB8D5F"/>
<path d="M66.4824 27.5339V27.5671C67.3533 27.9315 67.8076 28.7455 68.1247 29.588C68.075 29.4995 68.0066 29.423 67.9243 29.3638C67.8419 29.3046 67.7476 29.2641 67.648 29.2451C67.5483 29.2262 67.4458 29.2293 67.3474 29.2542C67.2491 29.279 67.1574 29.3251 67.0788 29.3892C67.0788 29.3892 67.0788 29.4412 67.1024 29.4365C67.2565 29.3881 67.4218 29.3891 67.5754 29.4391C67.7289 29.4892 67.8631 29.5859 67.959 29.7157C68.1191 29.9325 68.2555 30.1657 68.3661 30.4115C68.4039 30.4919 68.5459 30.4493 68.5175 30.3594C68.5364 29.2235 67.6798 27.657 66.4824 27.5339Z" fill="#263238"/>
<path d="M68.5413 30.8512C68.5423 30.9599 68.5109 31.0665 68.4511 31.1574C68.3914 31.2483 68.306 31.3194 68.2057 31.3617C68.1055 31.404 67.995 31.4156 67.8882 31.3949C67.7814 31.3743 67.6831 31.3224 67.6058 31.2458C67.5286 31.1692 67.4758 31.0714 67.4543 30.9647C67.4327 30.8581 67.4433 30.7475 67.4847 30.6469C67.5261 30.5463 67.5965 30.4603 67.6868 30.3997C67.7772 30.3392 67.8836 30.3069 67.9923 30.3069C68.1371 30.3069 68.2761 30.3641 68.3789 30.466C68.4817 30.5679 68.5401 30.7064 68.5413 30.8512Z" fill="white"/>
<path d="M85.2906 75.8788C85.2906 75.8788 60.0839 76.2527 53.8271 75.8126C53.8271 75.8126 58.9291 46.8954 65.6591 39.588C65.9097 39.3135 66.1752 39.0528 66.4542 38.8071C66.8659 38.4616 66.8091 35.7024 67.0032 35.4942C67.1972 35.2859 75.3754 36.3603 75.4795 36.5591C75.5837 36.7578 76.0049 39.3608 76.0049 39.3608C77.8601 41.7272 83.8281 49.9054 84.5239 53.2799C85.2196 56.6544 83.0283 60.379 83.0283 60.379L85.2906 75.8788Z" fill="#FAB114"/>
<path d="M63.7331 44.7467C62.2423 51.931 63.1273 67.4639 66.5728 70.3036C72.2521 74.9512 85.9014 76.3095 89.7113 76.7591C91.3535 76.9531 94.6239 66.205 93.4975 64.8183C92.3711 63.4316 75.5934 61.2735 74.7936 60.5588C74.2399 60.0477 71.6321 50.6626 69.384 45.3714C66.3598 38.2107 64.2774 42.0963 63.7331 44.7467Z" fill="#CB8D5F"/>
<path d="M90.6571 63.9519C90.6571 63.9519 95.6928 63.8998 98.9868 64.0228C100.828 64.0891 103.966 64.4961 105.296 65.1587C107.279 66.1573 114.946 71.6 113.663 73.4884C112.504 75.1969 110.222 72.9488 110.222 72.9488C110.222 72.9488 112.948 75.1685 111.278 76.5126C109.607 77.8567 106.905 74.6479 106.905 74.6479C106.905 74.6479 109.962 76.806 108.041 78.065C106.375 79.163 102.877 75.7932 102.877 75.7932C102.877 75.7932 106.337 77.6863 104.737 78.9973C102.972 80.4171 97.0937 76.0251 97.0937 76.0251C92.8815 76.9717 90.2264 76.9717 87.1312 76.4653C86.5633 76.3706 90.6571 63.9519 90.6571 63.9519Z" fill="#CB8D5F"/>
<path d="M107.747 75.3964L107.061 74.6723C106.636 74.1924 106.184 73.7373 105.707 73.3093C105.234 72.9023 104.761 72.5142 104.24 72.145C103.72 71.7759 103.133 71.4067 102.612 71.0044C102.57 70.9713 102.522 71.0328 102.57 71.0612C103.086 71.4598 103.582 71.8847 104.056 72.3343C104.529 72.7603 105.002 73.1957 105.475 73.6264C105.949 74.057 106.422 74.4404 106.895 74.8521C107.127 75.0557 107.369 75.2686 107.582 75.4816C107.783 75.7003 108.003 75.9014 108.239 76.0827C108.263 76.0827 108.291 76.0827 108.277 76.0448C108.124 75.8104 107.946 75.593 107.747 75.3964Z" fill="#263238"/>
<path d="M110.782 73.4221C110.023 72.5047 109.2 71.6412 108.321 70.838C107.431 70.0402 106.462 69.3346 105.429 68.7319C105.391 68.7319 105.354 68.7603 105.382 68.7887C106.272 69.5886 107.176 70.3742 108.08 71.1551C108.52 71.5385 110.47 73.3464 110.697 73.5215C110.749 73.5499 110.815 73.4742 110.782 73.4221Z" fill="#263238"/>
<path d="M104.941 77.3268C104.204 76.4799 103.414 75.6816 102.574 74.9367C101.651 74.2564 100.678 73.6458 99.6637 73.1099C99.6258 73.1099 99.588 73.1477 99.6211 73.1714C100.539 73.8529 101.467 74.5108 102.352 75.2349C102.787 75.5898 104.425 77.0949 104.87 77.393C104.917 77.4214 104.969 77.3646 104.941 77.3268Z" fill="#263238"/>
<path d="M85.9347 77.2039L91.9406 63.1997C91.9406 63.1997 75.4895 60.4783 74.9831 60.147C74.4767 59.8157 71.4761 48.8925 69.5499 44.6046C67.6236 40.3168 64.3154 37.7989 63.0376 47.0042C61.7597 56.2094 63.6102 67.4497 65.4607 69.7877C67.7041 72.6179 76.5875 76.2006 85.9347 77.2039Z" fill="#FAB114"/>
<path d="M77.4817 75.4336C75.0207 74.7663 72.6212 73.602 70.269 72.5939C68.2481 71.7468 66.1846 70.7008 65.063 68.7178C64.54 67.7081 64.1745 66.6244 63.9792 65.5043C63.7189 64.2548 63.5059 62.9912 63.326 61.7181C63.1083 60.2667 62.9127 58.8121 62.7392 57.3544C62.654 56.6067 62.5688 55.8589 62.4931 55.1111C62.4173 54.3633 62.2801 53.6156 62.2517 52.8631C62.2517 52.853 62.2477 52.8434 62.2406 52.8363C62.2335 52.8292 62.2239 52.8252 62.2138 52.8252C62.2038 52.8252 62.1942 52.8292 62.1871 52.8363C62.18 52.8434 62.176 52.853 62.176 52.8631C62.228 53.554 62.176 54.2498 62.2328 54.9455C62.2328 55.4187 62.2896 55.8542 62.3227 56.3085L62.1902 56.0198C62.0444 55.6883 61.9334 55.3425 61.8589 54.9881C61.8589 54.9455 61.7784 54.9644 61.7879 54.9881C61.8731 55.343 61.9583 55.7027 62.0577 56.0529C62.105 56.2233 62.1618 56.3937 62.228 56.5641C62.2677 56.6785 62.3135 56.7907 62.3653 56.9001C62.4789 58.26 62.6256 59.6136 62.8054 60.9608C62.9805 62.2671 63.184 63.5638 63.416 64.8606C63.5876 66.0075 63.8926 67.1305 64.3246 68.2067C64.7544 69.2212 65.4119 70.1232 66.2461 70.8428C67.1107 71.5526 68.0656 72.1447 69.0858 72.6034C71.3925 73.6691 73.7768 74.5583 76.2181 75.2632C79.1382 76.1814 80.028 76.1199 77.4817 75.4336Z" fill="#263238"/>
<path d="M83.658 61.742C83.0522 61.6616 75.8915 60.1566 75.6123 60.0761C75.4725 60.0335 75.3461 59.9552 75.2457 59.849C75.1453 59.7428 75.0743 59.6123 75.0396 59.4703C74.8172 58.8929 74.6231 58.3013 74.4149 57.7192C74.0552 56.7159 73.6892 55.7172 73.3169 54.7234C73.3169 54.5009 73.2743 54.2501 73.2506 54.056C73.2269 53.862 73.1796 53.526 73.137 53.2609C73.0424 52.6883 72.872 52.1251 72.801 51.5524C72.801 51.4956 72.7111 51.5145 72.7253 51.5524C72.8695 52.1163 72.9551 52.6936 72.9808 53.2751C73.0045 53.5023 73.0187 53.7484 73.0329 53.9614C72.8152 53.3793 72.5928 52.7971 72.3608 52.2197C72.0911 51.5477 71.7835 50.8709 71.5657 50.1799C71.5657 50.1326 71.4806 50.1562 71.4948 50.1799C71.7409 50.7999 71.916 51.4578 72.11 52.073C72.3041 52.6883 72.5123 53.3509 72.7205 53.9898C73.1276 55.244 73.5582 56.4887 73.9937 57.7381C74.2019 58.3392 74.4054 58.9497 74.6278 59.546C74.6889 59.7693 74.8091 59.972 74.9756 60.1328C75.1422 60.2935 75.3491 60.4064 75.5744 60.4595C76.8191 60.7955 82.9055 61.8036 83.6438 61.832C83.7195 61.8793 83.7384 61.7515 83.658 61.742Z" fill="#263238"/>
<path d="M88.8971 63.4179C87.9505 65.4294 87.004 67.4266 86.1474 69.4806C85.2808 71.5013 84.5209 73.566 83.8709 75.6663C83.8671 75.6757 83.8673 75.6863 83.8713 75.6956C83.8752 75.7049 83.8828 75.7123 83.8922 75.716C83.9016 75.7198 83.9121 75.7197 83.9215 75.7157C83.9308 75.7117 83.9381 75.7041 83.9419 75.6947C84.8884 73.7212 85.7167 71.6719 86.5544 69.6415C87.3921 67.6112 88.154 65.524 89.0012 63.4889C89.0438 63.4037 88.935 63.3375 88.8971 63.4179Z" fill="#263238"/>
<path d="M106.588 61.8175C105.864 62.2245 101.718 61.0791 100.038 62.3381C98.9261 63.171 97.8376 65.1777 97.6009 67.7949C97.3596 70.4973 99.494 70.3601 100.284 69.2148C101.247 67.707 102.088 66.1243 102.798 64.482C103.558 64.6334 104.307 64.8342 105.041 65.0831L106.588 61.8175Z" fill="#AD6359"/>
<path d="M101.504 71.2501C100.222 69.906 93.8137 74.8328 95.8251 77.0714C97.8366 79.31 102.953 72.774 101.504 71.2501Z" fill="#AD6359"/>
<path d="M103.644 73.1768C102.362 71.8327 95.9534 76.7595 97.9648 78.9981C99.9762 81.2367 105.092 74.7008 103.644 73.1768Z" fill="#AD6359"/>
<path d="M105.329 73.8582C103.98 72.8123 98.8406 78.184 100.994 79.9351C103.147 81.6862 106.858 75.0414 105.329 73.8582Z" fill="#AD6359"/>
<path d="M107.161 74.1516C105.614 73.56 102.353 79.9966 104.847 81.0141C107.341 82.0317 108.917 74.8 107.161 74.1516Z" fill="#AD6359"/>
<path d="M101.317 73.4653C100.961 73.7037 100.625 73.9713 100.313 74.2652C99.9677 74.5681 99.627 74.8757 99.3146 75.2117C99.01 75.5294 98.724 75.8644 98.458 76.2151C98.1788 76.5937 97.9468 77.0054 97.6629 77.3746C97.6577 77.3779 97.6535 77.3824 97.6505 77.3877C97.6474 77.393 97.6458 77.399 97.6455 77.4051C97.6453 77.4112 97.6466 77.4172 97.6492 77.4227C97.6518 77.4282 97.6558 77.433 97.6607 77.4367C97.6655 77.4404 97.6712 77.4428 97.6773 77.4438C97.6833 77.4448 97.6895 77.4443 97.6953 77.4424C97.7011 77.4404 97.7063 77.4371 97.7106 77.4328C97.7148 77.4284 97.7179 77.423 97.7197 77.4172C98.0002 77.0602 98.3054 76.7233 98.6331 76.4091C98.9407 76.0873 99.2294 75.7512 99.5371 75.4247C99.8447 75.0981 100.119 74.781 100.422 74.4781C100.725 74.1752 101.066 73.8629 101.369 73.5316C101.383 73.489 101.35 73.4464 101.317 73.4653Z" fill="#263238"/>
<path d="M103.862 74.0658C103.587 74.4871 102.627 76.1199 102.333 76.5316C102.04 76.9434 101.732 77.3551 101.42 77.7574C101.107 78.1597 100.805 78.5998 100.45 78.9784C100.421 79.0116 100.473 79.0636 100.506 79.0305C100.861 78.6519 101.249 78.3064 101.585 77.9088C101.921 77.5113 102.229 77.109 102.532 76.6878C103.058 75.853 103.532 74.9869 103.952 74.0942C103.952 74.0516 103.886 74.028 103.862 74.0658Z" fill="#263238"/>
<path d="M105.641 74.984C105.357 75.6087 105.111 76.2571 104.823 76.8771C104.681 77.1847 104.534 77.4923 104.392 77.8236L104.193 78.2733C104.131 78.4523 104.051 78.625 103.956 78.7891C103.928 78.827 104.004 78.8696 104.023 78.8175C104.118 78.6302 104.229 78.4513 104.354 78.2827C104.435 78.1407 104.52 77.9988 104.595 77.8568C104.756 77.5413 104.903 77.2336 105.036 76.9339C105.312 76.3207 105.543 75.6879 105.727 75.0408C105.734 75.0295 105.737 75.0156 105.734 75.0023C105.731 74.989 105.724 74.9773 105.712 74.9698C105.701 74.9622 105.687 74.9595 105.674 74.9622C105.661 74.9648 105.649 74.9727 105.641 74.984Z" fill="#263238"/>
<path d="M109.821 21.1916C109.595 23.3535 108.772 25.41 107.445 27.1318C106.118 28.8535 104.339 30.1728 102.306 30.9424C100.273 31.712 98.0665 31.9016 95.9321 31.4903C93.7976 31.0789 91.8194 30.0826 90.2181 28.6125L84.3447 29.4739L87.2838 24.4004C86.5201 22.5235 86.2555 20.4808 86.5157 18.4713C86.776 16.4618 87.5523 14.5539 88.769 12.9336C89.9857 11.3132 91.6013 10.0356 93.4585 9.22514C95.3157 8.4147 97.3511 8.09906 99.3665 8.30898C102.461 8.63238 105.3 10.1709 107.26 12.5865C109.22 15.0021 110.142 18.0972 109.821 21.1916Z" fill="white"/>
<path d="M109.821 21.1916C109.593 23.3528 108.774 25.4095 107.454 27.136C107.128 27.5672 106.774 27.9766 106.394 28.3618C106.003 28.7358 105.589 29.0851 105.154 29.4077C104.288 30.0664 103.332 30.5971 102.314 30.9837C101.303 31.3824 100.24 31.6357 99.1577 31.7362C98.6166 31.7874 98.0724 31.7985 97.5296 31.7694C96.9849 31.7555 96.442 31.6986 95.9063 31.599C93.7445 31.2098 91.7338 30.2266 90.0992 28.7593L90.2412 28.8019L84.382 29.6633L83.9561 29.7295L84.169 29.3557L87.0891 24.2727V24.4714C86.4044 22.7945 86.1124 20.9832 86.2355 19.176C86.3585 17.3689 86.8934 15.6138 87.7991 14.0452C88.7123 12.4801 89.9678 11.142 91.4717 10.1312C93.3408 8.87981 95.5278 8.18714 97.7765 8.13436C100.025 8.08158 102.242 8.67088 104.168 9.83318C106.094 10.9955 107.648 12.6826 108.65 14.6969C109.651 16.7111 110.057 18.969 109.821 21.2058V21.1916ZM109.821 21.1916C110.008 19.4249 109.787 17.6388 109.175 15.9708C108.563 14.3029 107.577 12.7976 106.291 11.571C105.006 10.3443 103.457 9.42898 101.762 8.89546C100.067 8.36194 98.2729 8.22447 96.5168 8.49363C94.7787 8.74892 93.1214 9.39629 91.6705 10.3867C90.2374 11.3933 89.0407 12.6999 88.1635 14.2155C87.2966 15.736 86.7868 17.4337 86.6727 19.1802C86.5651 20.9224 86.8464 22.6668 87.4962 24.2869L87.5388 24.391L87.482 24.4904L84.5287 29.5544L84.3205 29.2421L90.1938 28.4186H90.2743L90.3358 28.4706C91.9023 29.9375 93.8456 30.9403 95.9489 31.3671C96.4749 31.4719 97.008 31.5367 97.5438 31.5611C98.078 31.5989 98.6141 31.5989 99.1482 31.5611C100.22 31.4783 101.274 31.2457 102.281 30.8701C103.299 30.5065 104.256 29.9929 105.121 29.3462C106.001 28.7229 106.779 27.966 107.426 27.1029C108.75 25.3888 109.578 23.3441 109.821 21.1916Z" fill="#263238"/>
<path d="M96.7778 26.6623L91.7705 21.5888L93.4506 19.9276L96.3802 22.8903L102.462 13.3538L104.454 14.6269L96.7778 26.6623Z" fill="#FAB114"/>
</svg>
