<svg width="250" height="200" viewBox="0 0 250 200" fill="none" xmlns="http://www.w3.org/2000/svg">
<path d="M231.927 86.3093H213.531V108.653H208.796V96.0021H185.4V116.031H182.304V69.0251H161.971V81.931H151.549V97.981H148.395V87.884H129.908V118.016H124.503V93.5177H107.597V74.9195H96.1006V64.3276H82.8063V111.313H78.3376V91.7036H56.4304V119.771H53.4034V96.8639H31.1877V76.2228H18.7393V172.353H231.927V86.3093Z" fill="#EBEBEB"/>
<path d="M226.56 93.3901H229.672V89.1183H226.56V93.3901Z" fill="white"/>
<path d="M221.165 93.3901H224.277V89.1183H221.165V93.3901Z" fill="white"/>
<path d="M215.766 93.3901H218.878V89.1183H215.766V93.3901Z" fill="white"/>
<path d="M226.56 99.8164H229.672V95.5446H226.56V99.8164Z" fill="white"/>
<path d="M221.165 99.8164H224.277V95.5446H221.165V99.8164Z" fill="white"/>
<path d="M215.766 99.8164H218.878V95.5446H215.766V99.8164Z" fill="white"/>
<path d="M226.56 106.243H229.672V101.971H226.56V106.243Z" fill="white"/>
<path d="M221.165 106.243H224.277V101.971H221.165V106.243Z" fill="white"/>
<path d="M215.766 106.243H218.878V101.971H215.766V106.243Z" fill="white"/>
<path d="M226.56 112.675H229.672V108.403H226.56V112.675Z" fill="white"/>
<path d="M221.165 112.675H224.277V108.403H221.165V112.675Z" fill="white"/>
<path d="M215.766 112.675H218.878V108.403H215.766V112.675Z" fill="white"/>
<path d="M118.795 100.141H121.907V96.5768H118.795V100.141Z" fill="white"/>
<path d="M113.401 100.141H116.513V96.5768H113.401V100.141Z" fill="white"/>
<path d="M108.001 100.141H111.113V96.5768H108.001V100.141Z" fill="white"/>
<path d="M118.795 105.498H121.907V101.934H118.795V105.498Z" fill="white"/>
<path d="M113.401 105.498H116.513V101.934H113.401V105.498Z" fill="white"/>
<path d="M108.001 105.498H111.113V101.934H108.001V105.498Z" fill="white"/>
<path d="M118.795 110.861H121.907V107.296H118.795V110.861Z" fill="white"/>
<path d="M113.401 110.861H116.513V107.296H113.401V110.861Z" fill="white"/>
<path d="M108.001 110.861H111.113V107.296H108.001V110.861Z" fill="white"/>
<path d="M118.795 116.223H121.907V112.659H118.795V116.223Z" fill="white"/>
<path d="M113.401 116.223H116.513V112.659H113.401V116.223Z" fill="white"/>
<path d="M108.001 116.223H111.113V112.659H108.001V116.223Z" fill="white"/>
<path d="M118.795 121.718H121.907V118.154H118.795V121.718Z" fill="white"/>
<path d="M113.401 121.718H116.513V118.154H113.401V121.718Z" fill="white"/>
<path d="M108.001 121.718H111.113V118.154H108.001V121.718Z" fill="white"/>
<path d="M118.795 127.214H121.907V123.65H118.795V127.214Z" fill="white"/>
<path d="M113.401 127.214H116.513V123.65H113.401V127.214Z" fill="white"/>
<path d="M108.001 127.214H111.113V123.65H108.001V127.214Z" fill="white"/>
<path d="M118.795 132.704H121.907V129.14H118.795V132.704Z" fill="white"/>
<path d="M113.401 132.704H116.513V129.14H113.401V132.704Z" fill="white"/>
<path d="M108.001 132.704H111.113V129.14H108.001V132.704Z" fill="white"/>
<path d="M118.795 138.199H121.907V134.635H118.795V138.199Z" fill="white"/>
<path d="M113.401 138.199H116.513V134.635H113.401V138.199Z" fill="white"/>
<path d="M108.001 138.199H111.113V134.635H108.001V138.199Z" fill="white"/>
<path d="M188.219 101.412H206.137V98.7418H188.219V101.412Z" fill="white"/>
<path d="M188.219 106.599H206.137V103.929H188.219V106.599Z" fill="white"/>
<path d="M188.219 111.781H206.137V109.11H188.219V111.781Z" fill="white"/>
<path d="M188.219 116.962H206.137V114.292H188.219V116.962Z" fill="white"/>
<path d="M188.219 122.149H206.137V119.479H188.219V122.149Z" fill="white"/>
<path d="M188.219 127.331H206.137V124.66H188.219V127.331Z" fill="white"/>
<path d="M188.219 132.518H206.137V129.847H188.219V132.518Z" fill="white"/>
<path d="M188.219 137.694H206.137V135.023H188.219V137.694Z" fill="white"/>
<path d="M59.207 96.864H75.6826V94.1934H59.207V96.864Z" fill="white"/>
<path d="M59.207 102.051H75.6826V99.3802H59.207V102.051Z" fill="white"/>
<path d="M59.207 107.238H75.6826V104.567H59.207V107.238Z" fill="white"/>
<path d="M59.207 112.419H75.6826V109.749H59.207V112.419Z" fill="white"/>
<path d="M59.207 117.601H75.6826V114.93H59.207V117.601Z" fill="white"/>
<path d="M59.207 122.788H75.6826V120.117H59.207V122.788Z" fill="white"/>
<path d="M59.207 127.969H75.6826V125.299H59.207V127.969Z" fill="white"/>
<path d="M59.207 133.156H75.6826V130.485H59.207V133.156Z" fill="white"/>
<path d="M59.207 138.077H75.6826V135.406H59.207V138.077Z" fill="white"/>
<path d="M59.207 143.003H75.6826V140.333H59.207V143.003Z" fill="white"/>
<path d="M59.207 147.929H75.6826V145.259H59.207V147.929Z" fill="white"/>
<path d="M59.207 152.85H75.6826V150.18H59.207V152.85Z" fill="white"/>
<path d="M59.207 157.776H75.6826V155.106H59.207V157.776Z" fill="white"/>
<path d="M32.5763 103.125H49.9775V100.455H32.5763V103.125Z" fill="white"/>
<path d="M32.5763 108.312H49.9775V105.642H32.5763V108.312Z" fill="white"/>
<path d="M32.5763 113.499H49.9775V110.829H32.5763V113.499Z" fill="white"/>
<path d="M32.5763 118.681H49.9775V116.01H32.5763V118.681Z" fill="white"/>
<path d="M32.5763 123.862H49.9775V121.192H32.5763V123.862Z" fill="white"/>
<path d="M32.5763 129.049H49.9775V126.379H32.5763V129.049Z" fill="white"/>
<path d="M32.5763 134.231H49.9775V131.56H32.5763V134.231Z" fill="white"/>
<path d="M32.5763 139.417H49.9775V136.747H32.5763V139.417Z" fill="white"/>
<path d="M32.5763 144.056H49.9775V141.386H32.5763V144.056Z" fill="white"/>
<path d="M32.5763 148.695H49.9775V146.025H32.5763V148.695Z" fill="white"/>
<path d="M32.5763 153.334H49.9775V150.664H32.5763V153.334Z" fill="white"/>
<path d="M137.452 92.8848H142.984V90.3046H137.452V92.8848Z" fill="white"/>
<path d="M137.452 97.8906H142.984V95.3105H137.452V97.8906Z" fill="white"/>
<path d="M137.452 102.897H142.984V100.317H137.452V102.897Z" fill="white"/>
<path d="M137.452 107.903H142.984V105.322H137.452V107.903Z" fill="white"/>
<path d="M137.452 112.909H142.984V110.329H137.452V112.909Z" fill="white"/>
<path d="M137.452 117.915H142.984V115.334H137.452V117.915Z" fill="white"/>
<path d="M137.452 122.921H142.984V120.341H137.452V122.921Z" fill="white"/>
<path d="M137.452 127.927H142.984V125.346H137.452V127.927Z" fill="white"/>
<path d="M129.924 92.8848H135.457V90.3046H129.924V92.8848Z" fill="white"/>
<path d="M129.924 97.8906H135.457V95.3105H129.924V97.8906Z" fill="white"/>
<path d="M129.924 102.897H135.457V100.317H129.924V102.897Z" fill="white"/>
<path d="M129.924 107.903H135.457V105.322H129.924V107.903Z" fill="white"/>
<path d="M129.924 112.909H135.457V110.329H129.924V112.909Z" fill="white"/>
<path d="M129.924 117.915H135.457V115.334H129.924V117.915Z" fill="white"/>
<path d="M129.924 122.921H135.457V120.341H129.924V122.921Z" fill="white"/>
<path d="M129.924 127.927H135.457V125.346H129.924V127.927Z" fill="white"/>
<path d="M173.451 75.8027H179.218V71.733H173.451V75.8027Z" fill="white"/>
<path d="M164.86 75.8027H170.627V71.733H164.86V75.8027Z" fill="white"/>
<path d="M173.451 81.7769H179.218V77.7072H173.451V81.7769Z" fill="white"/>
<path d="M164.86 81.7769H170.627V77.7072H164.86V81.7769Z" fill="white"/>
<path d="M173.451 87.7563H179.218V83.6867H173.451V87.7563Z" fill="white"/>
<path d="M164.86 87.7563H170.627V83.6867H164.86V87.7563Z" fill="white"/>
<path d="M173.451 93.7305H179.218V89.6608H173.451V93.7305Z" fill="white"/>
<path d="M164.86 93.7305H170.627V89.6608H164.86V93.7305Z" fill="white"/>
<path d="M173.451 99.7102H179.218V95.6405H173.451V99.7102Z" fill="white"/>
<path d="M164.86 99.7102H170.627V95.6405H164.86V99.7102Z" fill="white"/>
<path d="M173.451 105.69H179.218V101.62H173.451V105.69Z" fill="white"/>
<path d="M164.86 105.69H170.627V101.62H164.86V105.69Z" fill="white"/>
<path d="M173.451 111.664H179.218V107.594H173.451V111.664Z" fill="white"/>
<path d="M164.86 111.664H170.627V107.594H164.86V111.664Z" fill="white"/>
<path d="M173.451 117.643H179.218V113.574H173.451V117.643Z" fill="white"/>
<path d="M164.86 117.643H170.627V113.574H164.86V117.643Z" fill="white"/>
<path d="M154.204 87.7563H159.971V83.6867H154.204V87.7563Z" fill="white"/>
<path d="M154.204 93.7305H159.971V89.6608H154.204V93.7305Z" fill="white"/>
<path d="M154.204 99.7102H159.971V95.6405H154.204V99.7102Z" fill="white"/>
<path d="M154.204 105.69H159.971V101.62H154.204V105.69Z" fill="white"/>
<path d="M154.204 111.664H159.971V107.594H154.204V111.664Z" fill="white"/>
<path d="M154.204 117.643H159.971V113.574H154.204V117.643Z" fill="white"/>
<path d="M173.451 123.548H179.218V119.479H173.451V123.548Z" fill="white"/>
<path d="M164.86 123.548H170.627V119.479H164.86V123.548Z" fill="white"/>
<path d="M154.204 123.548H159.971V119.479H154.204V123.548Z" fill="white"/>
<path d="M173.451 129.448H179.218V125.378H173.451V129.448Z" fill="white"/>
<path d="M164.86 129.448H170.627V125.378H164.86V129.448Z" fill="white"/>
<path d="M154.204 129.448H159.971V125.378H154.204V129.448Z" fill="white"/>
<path d="M173.451 135.353H179.218V131.283H173.451V135.353Z" fill="white"/>
<path d="M164.86 135.353H170.627V131.283H164.86V135.353Z" fill="white"/>
<path d="M154.204 135.353H159.971V131.283H154.204V135.353Z" fill="white"/>
<path d="M173.451 141.258H179.218V137.189H173.451V141.258Z" fill="white"/>
<path d="M164.86 141.258H170.627V137.189H164.86V141.258Z" fill="white"/>
<path d="M154.204 141.258H159.971V137.189H154.204V141.258Z" fill="white"/>
<path d="M173.451 147.163H179.218V143.094H173.451V147.163Z" fill="white"/>
<path d="M164.86 147.163H170.627V143.094H164.86V147.163Z" fill="white"/>
<path d="M154.204 147.163H159.971V143.094H154.204V147.163Z" fill="white"/>
<path d="M102.139 81.1013H105.251V77.537H102.139V81.1013Z" fill="white"/>
<path d="M96.7443 81.1013H99.8564V77.537H96.7443V81.1013Z" fill="white"/>
<path d="M102.139 86.4636H105.251V82.8993H102.139V86.4636Z" fill="white"/>
<path d="M96.7443 86.4636H99.8564V82.8993H96.7443V86.4636Z" fill="white"/>
<path d="M102.139 91.8262H105.251V88.2619H102.139V91.8262Z" fill="white"/>
<path d="M96.7443 91.8262H99.8564V88.2619H96.7443V91.8262Z" fill="white"/>
<path d="M102.139 97.1938H105.251V93.6295H102.139V97.1938Z" fill="white"/>
<path d="M96.7443 97.1938H99.8564V93.6295H96.7443V97.1938Z" fill="white"/>
<path d="M102.139 102.689H105.251V99.1249H102.139V102.689Z" fill="white"/>
<path d="M96.7443 102.689H99.8564V99.1249H96.7443V102.689Z" fill="white"/>
<path d="M102.139 108.179H105.251V104.615H102.139V108.179Z" fill="white"/>
<path d="M96.7443 108.179H99.8564V104.615H96.7443V108.179Z" fill="white"/>
<path d="M102.139 113.675H105.251V110.11H102.139V113.675Z" fill="white"/>
<path d="M96.7443 113.675H99.8564V110.11H96.7443V113.675Z" fill="white"/>
<path d="M102.139 119.17H105.251V115.606H102.139V119.17Z" fill="white"/>
<path d="M96.7443 119.17H99.8564V115.606H96.7443V119.17Z" fill="white"/>
<path d="M102.139 124.724H105.251V121.16H102.139V124.724Z" fill="white"/>
<path d="M96.7443 124.724H99.8564V121.16H96.7443V124.724Z" fill="white"/>
<path d="M102.139 130.273H105.251V126.708H102.139V130.273Z" fill="white"/>
<path d="M96.7443 130.273H99.8564V126.708H96.7443V130.273Z" fill="white"/>
<path d="M102.139 135.827H105.251V132.262H102.139V135.827Z" fill="white"/>
<path d="M96.7443 135.827H99.8564V132.262H96.7443V135.827Z" fill="white"/>
<path d="M102.139 141.386H105.251V137.821H102.139V141.386Z" fill="white"/>
<path d="M96.7443 141.386H99.8564V137.821H96.7443V141.386Z" fill="white"/>
<path d="M26.1232 82.3142H29.2354V78.1168H26.1232V82.3142Z" fill="white"/>
<path d="M20.7346 82.3142H23.8467V78.1168H20.7346V82.3142Z" fill="white"/>
<path d="M26.1232 88.6343H29.2354V84.4369H26.1232V88.6343Z" fill="white"/>
<path d="M20.7346 88.6343H23.8467V84.4369H20.7346V88.6343Z" fill="white"/>
<path d="M26.1232 94.9487H29.2354V90.7514H26.1232V94.9487Z" fill="white"/>
<path d="M20.7346 94.9487H23.8467V90.7514H20.7346V94.9487Z" fill="white"/>
<path d="M26.1232 101.269H29.2354V97.0714H26.1232V101.269Z" fill="white"/>
<path d="M20.7346 101.269H23.8467V97.0714H20.7346V101.269Z" fill="white"/>
<path d="M26.1232 107.743H29.2354V103.546H26.1232V107.743Z" fill="white"/>
<path d="M20.7346 107.743H23.8467V103.546H20.7346V107.743Z" fill="white"/>
<path d="M26.1232 114.217H29.2354V110.02H26.1232V114.217Z" fill="white"/>
<path d="M20.7346 114.217H23.8467V110.02H20.7346V114.217Z" fill="white"/>
<path d="M26.1232 120.686H29.2354V116.489H26.1232V120.686Z" fill="white"/>
<path d="M20.7346 120.686H23.8467V116.489H20.7346V120.686Z" fill="white"/>
<path d="M26.1232 127.166H29.2354V122.968H26.1232V127.166Z" fill="white"/>
<path d="M20.7346 127.166H23.8467V122.968H20.7346V127.166Z" fill="white"/>
<path d="M26.1232 133.709H29.2354V129.512H26.1232V133.709Z" fill="white"/>
<path d="M20.7346 133.709H23.8467V129.512H20.7346V133.709Z" fill="white"/>
<path d="M26.1232 140.247H29.2354V136.05H26.1232V140.247Z" fill="white"/>
<path d="M20.7346 140.247H23.8467V136.05H20.7346V140.247Z" fill="white"/>
<path d="M26.1232 146.791H29.2354V142.593H26.1232V146.791Z" fill="white"/>
<path d="M20.7346 146.791H23.8467V142.593H20.7346V146.791Z" fill="white"/>
<path d="M26.1232 153.334H29.2354V149.137H26.1232V153.334Z" fill="white"/>
<path d="M20.7346 153.334H23.8467V149.137H20.7346V153.334Z" fill="white"/>
<path d="M90.5949 81.1013H93.707V77.537H90.5949V81.1013Z" fill="white"/>
<path d="M85.2004 81.1013H88.3125V77.537H85.2004V81.1013Z" fill="white"/>
<path d="M90.5949 75.606H93.707V72.0417H90.5949V75.606Z" fill="white"/>
<path d="M85.2004 75.606H88.3125V72.0417H85.2004V75.606Z" fill="white"/>
<path d="M90.5949 70.1104H93.707V66.546H90.5949V70.1104Z" fill="white"/>
<path d="M85.2004 70.1104H88.3125V66.546H85.2004V70.1104Z" fill="white"/>
<path d="M90.5949 86.4636H93.707V82.8993H90.5949V86.4636Z" fill="white"/>
<path d="M85.2004 86.4636H88.3125V82.8993H85.2004V86.4636Z" fill="white"/>
<path d="M90.5949 91.8262H93.707V88.2619H90.5949V91.8262Z" fill="white"/>
<path d="M85.2004 91.8262H88.3125V88.2619H85.2004V91.8262Z" fill="white"/>
<path d="M90.5949 97.1938H93.707V93.6295H90.5949V97.1938Z" fill="white"/>
<path d="M85.2004 97.1938H88.3125V93.6295H85.2004V97.1938Z" fill="white"/>
<path d="M90.5949 102.689H93.707V99.1249H90.5949V102.689Z" fill="white"/>
<path d="M85.2004 102.689H88.3125V99.1249H85.2004V102.689Z" fill="white"/>
<path d="M90.5949 108.179H93.707V104.615H90.5949V108.179Z" fill="white"/>
<path d="M85.2004 108.179H88.3125V104.615H85.2004V108.179Z" fill="white"/>
<path d="M90.5949 113.675H93.707V110.11H90.5949V113.675Z" fill="white"/>
<path d="M85.2004 113.675H88.3125V110.11H85.2004V113.675Z" fill="white"/>
<path d="M90.5949 119.17H93.707V115.606H90.5949V119.17Z" fill="white"/>
<path d="M85.2004 119.17H88.3125V115.606H85.2004V119.17Z" fill="white"/>
<path d="M90.5949 124.724H93.707V121.16H90.5949V124.724Z" fill="white"/>
<path d="M85.2004 124.724H88.3125V121.16H85.2004V124.724Z" fill="white"/>
<path d="M90.5949 130.273H93.707V126.708H90.5949V130.273Z" fill="white"/>
<path d="M85.2004 130.273H88.3125V126.708H85.2004V130.273Z" fill="white"/>
<path d="M90.5949 135.827H93.707V132.262H90.5949V135.827Z" fill="white"/>
<path d="M85.2004 135.827H88.3125V132.262H85.2004V135.827Z" fill="white"/>
<path d="M90.5949 141.386H93.707V137.821H90.5949V141.386Z" fill="white"/>
<path d="M85.2004 141.386H88.3125V137.821H85.2004V141.386Z" fill="white"/>
<path d="M229.661 56.6672H172.382C172.382 56.6672 178.063 41.1545 186.804 41.1545C195.544 41.1545 198.279 51.8634 198.279 51.8634C198.279 51.8634 204.179 46.0435 209.025 46.0435C213.871 46.0435 218.069 53.7307 218.069 53.7307C218.069 53.7307 224.926 49.5972 229.661 56.6672Z" fill="#EBEBEB"/>
<path d="M197.604 25.9876H170.834C170.834 25.9876 176.814 17.3215 181.527 17.3215C186.24 17.3215 187.634 23.0989 187.634 23.0989C187.634 23.0989 190.959 20.4017 194.018 20.8858C197.077 21.3699 197.604 25.9876 197.604 25.9876Z" fill="#EBEBEB"/>
<path d="M73.1453 52.0496H21.0107C21.0107 52.0496 28.15 36.09 35.7893 35.1112C43.4286 34.1323 47.078 46.9532 47.078 46.9532C47.078 46.9532 52.0042 42.4153 55.8771 42.4153C59.7499 42.4153 62.745 48.3949 62.745 48.3949C62.745 48.3949 70.4854 44.2986 73.1453 52.0496Z" fill="#EBEBEB"/>
<path d="M122.7 12.5921H87.4775C87.4775 12.5921 93.5262 1.04273 100.091 0.888459C106.656 0.734183 110.103 9.62898 110.103 9.62898C110.103 9.62898 120.312 1.42044 122.7 12.5921Z" fill="#EBEBEB"/>
<path d="M146.752 200C194.654 200 233.486 197.43 233.486 194.26C233.486 191.09 194.654 188.52 146.752 188.52C98.8492 188.52 60.0166 191.09 60.0166 194.26C60.0166 197.43 98.8492 200 146.752 200Z" fill="#EBEBEB"/>
<path d="M249.999 172.353L218.83 172.48L187.666 172.528L125.333 172.613L63.0007 172.528L31.837 172.48L0.667969 172.353L31.837 172.22L63.0007 172.172L125.333 172.087L187.666 172.172L218.83 172.22L249.999 172.353Z" fill="#263238"/>
<path d="M121.444 90.0705C130.446 99.4334 157.486 141.104 159.593 142.349C159.593 142.349 159.593 169.602 144.532 164.16C129.472 158.718 115.667 109.823 112.72 94.2359C111.166 86.0061 114.092 82.4311 121.444 90.0705Z" fill="#CB8D5F"/>
<path d="M119.151 122.288L146.751 119.149C146.751 119.149 129.631 96.4383 120.785 88.3309C111.56 79.883 107.038 81.0693 111.315 97.0714C115.614 113.169 119.151 122.288 119.151 122.288Z" fill="#FAB114"/>
<path d="M117.854 107.254C117.551 108.015 117.357 108.816 117.28 109.632C118.242 108.301 118.842 106.742 119.019 105.11C118.527 105.763 118.134 106.485 117.854 107.254ZM133.356 107.876C132.597 107.572 131.798 107.379 130.984 107.301C132.312 108.265 133.869 108.865 135.5 109.041C134.848 108.548 134.125 108.155 133.356 107.876ZM129.244 118.611C128.919 117.861 128.489 117.161 127.967 116.531C128.089 117.339 128.326 118.126 128.669 118.867C128.984 119.622 129.411 120.325 129.936 120.952C129.816 120.143 129.584 119.355 129.244 118.611ZM113.05 84.0324C112.912 83.7398 112.774 83.4525 112.614 83.1653C112.425 83.1467 112.234 83.1467 112.045 83.1653C112.173 83.5536 112.316 83.926 112.476 84.2984C112.795 85.052 113.224 85.7546 113.747 86.3838C113.627 85.5709 113.393 84.7792 113.05 84.0324ZM144.858 116.664L144.326 116.877C143.573 117.201 142.869 117.629 142.235 118.149C143.046 118.028 143.836 117.794 144.581 117.452C144.794 117.356 145.001 117.255 145.209 117.143L144.858 116.664ZM123.578 94.7413C122.827 95.0634 122.125 95.4897 121.493 96.0074C122.304 95.891 123.094 95.6581 123.839 95.3158C124.591 94.993 125.293 94.5649 125.924 94.0444C125.109 94.1614 124.315 94.3962 123.568 94.7413H123.578ZM121.727 94.7891C121.696 94.8105 121.665 94.8336 121.637 94.8583H121.732C121.732 94.8583 121.716 94.8051 121.716 94.7891H121.727Z" fill="white"/>
<path d="M120.477 117.324C121.12 117.175 121.796 117.117 122.45 117.026L124.482 116.744C125.85 116.553 127.222 116.383 128.595 116.212C131.34 115.893 134.085 115.558 136.835 115.287C137.591 115.212 138.351 115.138 139.107 115.079C139.862 115.021 140.703 115.021 141.501 114.962C141.549 114.962 141.549 115.031 141.501 115.037C140.825 115.138 140.155 115.292 139.479 115.398C138.804 115.505 138.085 115.601 137.388 115.686C136.021 115.861 134.643 116.021 133.271 116.175C130.568 116.468 127.861 116.776 125.147 117.016L122.881 117.207C122.089 117.276 121.285 117.393 120.487 117.388C120.481 117.386 120.476 117.382 120.471 117.377C120.467 117.372 120.464 117.366 120.463 117.359C120.462 117.353 120.463 117.346 120.465 117.34C120.468 117.334 120.472 117.328 120.477 117.324Z" fill="#263238"/>
<path opacity="0.1" d="M132.542 120.766L119.157 122.287C119.157 122.287 115.619 113.169 111.316 97.0714C109.502 90.2832 109.273 86.1603 110.316 84.3037L132.542 120.766Z" fill="black"/>
<path d="M126.807 179.05H84.8279C84.4821 177.699 84.1469 176.39 83.8118 175.06C83.4287 173.555 83.051 172.087 82.6893 170.656C82.6095 170.336 82.5244 170.017 82.4446 169.703C82.1679 168.607 81.8966 167.543 81.6306 166.511C81.471 165.878 81.3114 165.256 81.1572 164.639C81.0029 164.022 80.838 163.394 80.6837 162.793C80.6411 162.633 80.6039 162.474 80.5613 162.319L80.4337 161.787L80.2741 161.165C80.2155 160.947 80.1623 160.734 80.1091 160.521C80.0027 160.117 79.9017 159.718 79.8059 159.33C79.6569 158.755 79.5133 158.191 79.375 157.643C79.3165 157.404 79.2526 157.164 79.1941 156.93C79.093 156.547 78.9973 156.175 78.9068 155.808C78.843 155.563 78.7845 155.324 78.726 155.09C78.4777 154.125 78.2472 153.221 78.0344 152.377C77.9759 152.153 77.9227 151.935 77.8642 151.722C77.7737 151.355 77.6833 151.004 77.5982 150.658C77.5379 150.445 77.4847 150.238 77.4386 150.036C77.2524 149.312 77.0821 148.653 76.9385 148.073C76.8959 147.919 76.8587 147.77 76.8215 147.626C76.7257 147.243 76.6353 146.902 76.5608 146.599C76.5289 146.477 76.5023 146.36 76.4704 146.253L76.3852 145.918C76.3852 145.844 76.348 145.769 76.332 145.705L76.2576 145.418C76.2576 145.372 76.2469 145.33 76.2256 145.291L76.1299 144.913H116.992C116.992 144.913 118.338 149.552 120.492 157.031C120.928 158.553 121.402 160.223 121.907 161.942C123.338 166.932 125.009 172.752 126.807 179.05Z" fill="#37474F"/>
<path d="M91.7016 179.05H90.6377C89.0843 172.62 87.5787 166.178 86.1211 159.723C85.7664 158.152 85.4118 156.581 85.0571 155.01L84.9614 154.568C84.9596 154.553 84.9634 154.538 84.9721 154.525C84.9808 154.512 84.9938 154.503 85.0087 154.499C85.0236 154.495 85.0394 154.497 85.0532 154.504C85.067 154.511 85.0778 154.522 85.0837 154.536C85.0837 154.584 85.1103 154.632 85.1263 154.68C85.598 156.368 86.0679 158.058 86.5361 159.75C88.3342 166.166 90.056 172.599 91.7016 179.05Z" fill="#263238"/>
<path d="M115.667 144.918L113.864 153.962L112.385 161.367L109.868 173.986L109.608 175.279L109.177 177.433L108.842 179.05H84.8225C84.4821 177.694 84.1416 176.39 83.8118 175.06C83.4287 173.555 83.051 172.087 82.6893 170.656C82.6095 170.336 82.5244 170.017 82.4446 169.703C82.1679 168.607 81.8966 167.543 81.6306 166.511C81.471 165.878 81.3114 165.256 81.1572 164.639C81.0029 164.022 80.838 163.394 80.6837 162.793C80.6411 162.633 80.6039 162.474 80.5613 162.319L80.4337 161.787L80.2741 161.165C80.2155 160.947 80.1623 160.734 80.1091 160.521C80.0027 160.117 79.9017 159.718 79.8059 159.33C79.6569 158.755 79.5133 158.191 79.375 157.643C79.3112 157.399 79.2526 157.164 79.1941 156.93C79.093 156.547 78.9973 156.175 78.9068 155.808C78.843 155.563 78.7845 155.324 78.726 155.09C78.4777 154.125 78.2472 153.221 78.0344 152.377C77.9759 152.153 77.9227 151.935 77.8642 151.722C77.7737 151.355 77.6833 151.004 77.5982 150.658C77.5379 150.445 77.4847 150.238 77.4386 150.036C77.2524 149.312 77.0821 148.653 76.9385 148.073C76.8959 147.919 76.8587 147.77 76.8215 147.626C76.7257 147.243 76.6353 146.902 76.5608 146.599C76.5289 146.477 76.5023 146.36 76.4704 146.253L76.3852 145.918C76.3852 145.844 76.348 145.769 76.332 145.705L76.2576 145.418C76.2576 145.372 76.2469 145.33 76.2256 145.291L76.1299 144.913L115.667 144.918Z" fill="#263238"/>
<path d="M115.672 144.902C115.672 145.126 115.502 147.562 115.108 151.286C114.997 152.35 114.864 153.563 114.709 154.84C114.47 156.856 114.177 159.096 113.805 161.431C113.177 165.533 112.358 170.007 111.294 174.38C110.916 175.975 110.501 177.513 110.06 179.04H57.3135C57.9359 171.001 58.5051 163.729 58.9573 158C59.5904 149.935 60.0213 144.886 60.0213 144.886H107.868L115.672 144.902Z" fill="#37474F"/>
<path d="M115.561 149.749C115.503 151.637 115.423 153.52 115.3 155.398C115.173 157.436 114.987 159.468 114.721 161.5C114.721 161.575 114.721 161.649 114.694 161.724C114.446 163.628 114.16 165.527 113.838 167.421C113.534 169.187 113.306 171.092 112.529 172.741C112.234 173.373 111.814 173.94 111.295 174.406C110.819 174.841 110.238 175.142 109.608 175.279C109.505 175.304 109.4 175.322 109.294 175.332H109.204C109.223 175.343 109.239 175.359 109.25 175.379C109.26 175.399 109.264 175.421 109.262 175.443C109.262 176.077 109.262 176.72 109.188 177.348C109.188 177.375 109.188 177.401 109.188 177.428C109.124 177.96 109.023 178.518 108.922 179.061H108.018V179.029C108.177 178.433 108.31 177.832 108.459 177.231C108.608 176.63 108.821 176.018 108.965 175.396C108.972 175.372 108.987 175.352 109.007 175.337C108.433 175.365 107.864 175.216 107.377 174.91C106.89 174.605 106.509 174.158 106.283 173.629C106.056 172.82 106.042 171.967 106.241 171.15C106.406 170.086 106.565 168.99 106.73 167.911C107.039 165.926 107.438 163.963 107.794 161.99L107.954 161.09C108.661 157.074 109.401 153.057 110.289 149.078C110.321 148.913 110.358 148.748 110.396 148.584C110.433 148.419 110.598 148.504 110.587 148.61C110.56 148.876 110.534 149.142 110.502 149.413C110.346 150.942 110.169 152.463 109.97 153.978C109.715 155.76 109.539 157.553 109.289 159.335C109.204 159.941 109.119 160.548 109.028 161.154C108.619 164.086 108.193 167.006 107.693 169.937C107.459 171.294 106.629 173.725 108.566 174.145C109.013 174.245 109.481 174.186 109.89 173.98C110.752 173.461 111.397 172.646 111.704 171.688C112.183 170.091 112.53 168.458 112.742 166.804C113.061 165.031 113.345 163.241 113.593 161.436C113.912 159.198 114.245 156.962 114.593 154.728C114.767 153.589 114.944 152.451 115.125 151.313L115.38 149.717C115.386 149.605 115.561 149.637 115.561 149.749Z" fill="#263238"/>
<path d="M68.8841 163.772C71.0807 163.749 73.2661 163.454 75.3903 162.894C76.3691 162.644 77.3373 162.33 78.3002 162.016C79.2542 161.753 80.1472 161.305 80.9282 160.697C82.4072 159.42 83.0934 157.414 83.7371 155.627C84.4359 153.614 85.0028 151.558 85.4341 149.472C85.4341 149.371 85.6044 149.408 85.6097 149.504C85.6608 151.863 85.3614 154.217 84.7213 156.489C84.1893 158.42 83.4764 160.569 81.9177 161.92C80.359 163.272 78.0555 163.846 75.9542 164.102C73.5979 164.376 71.2161 164.344 68.8681 164.006C68.8371 164.004 68.8082 163.989 68.7877 163.966C68.7672 163.942 68.7569 163.912 68.7591 163.881C68.7612 163.85 68.7755 163.821 68.799 163.8C68.8224 163.78 68.853 163.77 68.8841 163.772Z" fill="#263238"/>
<path d="M65.219 149.536C65.102 152.487 64.9778 155.441 64.8466 158.399C64.5452 165.283 64.2135 172.167 63.8518 179.05H62.8623C63.3163 172.152 63.7933 165.258 64.2933 158.367C64.5097 155.42 64.7331 152.474 64.9636 149.531C64.9644 149.497 64.9785 149.465 65.0029 149.441C65.0274 149.418 65.0601 149.405 65.094 149.406C65.1278 149.406 65.16 149.42 65.1835 149.445C65.2069 149.469 65.2197 149.502 65.219 149.536Z" fill="#263238"/>
<path d="M124.754 166.751L53.1963 161.325C53.1963 161.325 67.5918 104.269 96.0158 83.293C103.283 77.9359 111.236 81.3725 114.816 85.3784C123.913 95.5818 124.966 166.522 124.754 166.751Z" fill="#FAB114"/>
<path d="M99.3247 85.8892C99.0245 86.6497 98.8311 87.4482 98.7502 88.2618C99.24 87.6121 99.6341 86.8955 99.9206 86.1339C100.221 85.3733 100.414 84.5748 100.495 83.7612C100.007 84.4122 99.6133 85.1285 99.3247 85.8892ZM91.5577 116.67C91.2519 117.43 91.06 118.231 90.9885 119.048C91.9469 117.715 92.5443 116.158 92.7228 114.526C92.2344 115.181 91.8421 115.903 91.5577 116.67ZM65.9905 129.868C65.6878 130.63 65.4944 131.431 65.416 132.246C66.3788 130.916 66.9784 129.357 67.1556 127.725C66.6713 128.383 66.2793 129.104 65.9905 129.868ZM86.6262 149.312C86.3174 150.07 86.1237 150.87 86.0517 151.685C87.01 150.353 87.6075 148.795 87.786 147.163C87.2981 147.82 86.9075 148.544 86.6262 149.312ZM117.854 107.243C117.55 108.004 117.357 108.805 117.279 109.621C118.242 108.29 118.842 106.732 119.019 105.099C118.526 105.755 118.133 106.482 117.854 107.254V107.243ZM105.118 145.945C104.809 146.703 104.613 147.502 104.538 148.318C105.027 147.668 105.42 146.952 105.703 146.19C106.006 145.43 106.199 144.631 106.278 143.817C105.79 144.467 105.4 145.183 105.118 145.945ZM79.3327 105.796C79.0294 106.556 78.8359 107.355 78.7582 108.169C79.7224 106.839 80.3204 105.28 80.4924 103.647C80.0025 104.302 79.6118 105.027 79.3327 105.796ZM107.922 95.5819C107.163 95.2755 106.364 95.082 105.549 95.0074C106.199 95.4935 106.916 95.884 107.677 96.1671C108.437 96.4748 109.238 96.6684 110.055 96.7417C109.403 96.2542 108.685 95.8636 107.922 95.5819ZM116.029 121.229C115.27 120.924 114.471 120.73 113.656 120.654C114.305 121.143 115.022 121.533 115.784 121.814C116.543 122.121 117.342 122.316 118.157 122.394C117.507 121.911 116.79 121.526 116.029 121.25V121.229ZM118.205 151.882C117.445 151.579 116.646 151.385 115.832 151.307C116.481 151.797 117.198 152.19 117.96 152.472C118.72 152.775 119.519 152.968 120.333 153.047C119.68 152.568 118.964 152.183 118.205 151.903V151.882ZM67.2673 149.36C66.5079 149.056 65.7089 148.863 64.8946 148.786C66.2226 149.75 67.7797 150.349 69.4112 150.525C68.7549 150.044 68.0329 149.658 67.2673 149.382V149.36ZM85.6793 129.677C84.92 129.372 84.1211 129.177 83.3066 129.097C83.9566 129.586 84.6732 129.981 85.4346 130.267C86.1951 130.568 86.9936 130.761 87.8072 130.842C87.1562 130.36 86.4397 129.973 85.6793 129.693V129.677ZM113.05 84.0166C112.975 83.857 112.901 83.7027 112.821 83.5484C112.561 83.3516 112.289 83.1601 111.997 82.9739C112.128 83.4198 112.288 83.8569 112.475 84.2826C112.795 85.0361 113.223 85.7387 113.747 86.3679C113.626 85.5606 113.391 84.7743 113.05 84.0325V84.0166ZM92.1376 100.561C91.8168 99.8084 91.3886 99.1059 90.8662 98.4759C91.1219 100.099 91.8008 101.625 92.8345 102.902C92.7175 102.092 92.4827 101.303 92.1376 100.561ZM110.603 163.511C110.282 162.759 109.856 162.057 109.337 161.426C109.454 162.235 109.687 163.023 110.028 163.767C110.332 164.466 110.723 165.124 111.193 165.724H111.278C111.156 164.959 110.928 164.214 110.603 163.511ZM103.809 126.437C103.486 125.686 103.058 124.984 102.538 124.352C102.802 125.971 103.478 127.495 104.501 128.778C104.383 127.969 104.15 127.18 103.809 126.437ZM55.0688 154.707C55.0369 154.819 55.005 154.93 54.9678 155.037C55.0369 155.111 55.1008 155.191 55.1646 155.265C55.1433 155.083 55.1113 154.902 55.0688 154.723V154.707ZM76.3483 140.513C76.0254 139.763 75.5972 139.063 75.0768 138.433C75.334 140.054 76.0128 141.579 77.0452 142.854C76.9183 142.05 76.6783 141.267 76.3323 140.529L76.3483 140.513ZM80.9127 160.995C80.5899 160.243 80.1618 159.541 79.6413 158.91C79.9047 160.532 80.5827 162.058 81.6096 163.341C81.4845 162.536 81.2444 161.753 80.8968 161.016L80.9127 160.995ZM116.699 136.353C115.948 136.677 115.246 137.105 114.614 137.625C115.423 137.505 116.212 137.271 116.955 136.928C117.709 136.607 118.413 136.179 119.045 135.656C118.228 135.778 117.432 136.018 116.683 136.369L116.699 136.353ZM60.2557 139.46L59.9844 140.194C60.5581 139.917 61.0944 139.569 61.5804 139.157C61.1236 139.217 60.6744 139.324 60.2397 139.476L60.2557 139.46ZM96.7393 157.186C95.9872 157.506 95.2849 157.932 94.6539 158.452C95.4647 158.334 96.2546 158.101 97 157.76C97.7514 157.434 98.4534 157.005 99.0853 156.484C98.2667 156.604 97.4706 156.846 96.7233 157.202L96.7393 157.186ZM64.1126 161.931L63.7455 162.107L64.9957 162.202C65.5182 161.939 66.0076 161.614 66.4533 161.234C65.638 161.359 64.8444 161.599 64.0966 161.947L64.1126 161.931ZM76.6462 118.186C75.8968 118.514 75.1952 118.941 74.5608 119.457C76.1823 119.196 77.7088 118.519 78.9922 117.494C78.1747 117.614 77.379 117.853 76.6302 118.202L76.6462 118.186ZM94.9891 138.561C94.237 138.886 93.5348 139.316 92.9037 139.838C94.5265 139.577 96.0537 138.899 97.3351 137.869C96.5181 137.992 95.7227 138.23 94.9731 138.577L94.9891 138.561ZM104.565 110.552C103.815 110.878 103.113 111.306 102.479 111.823C104.101 111.566 105.627 110.89 106.906 109.86C106.085 109.981 105.286 110.219 104.533 110.568L104.565 110.552Z" fill="white"/>
<path d="M110.763 97.3001C106.635 96.6883 102.443 88.3574 101.719 82.6758C101.671 82.2821 108.103 70.0092 109.108 67.4504C109.316 66.9184 123.658 77.7496 123.658 77.7496C123.658 77.7496 119.934 82.4949 118.195 86.9796C118.072 87.352 114.753 97.8853 110.763 97.3001Z" fill="#CB8D5F"/>
<path d="M123.679 77.7497C123.679 77.7497 119.955 82.4951 118.21 86.9744C118.178 87.0648 117.966 87.7245 117.614 88.6661C110.241 84.9422 107.235 78.2924 106.022 73.9035C107.416 71.1106 108.714 68.4879 109.129 67.4505C109.337 66.9238 123.679 77.7497 123.679 77.7497Z" fill="#263238"/>
<path d="M112.422 47.5168C108.225 52.3738 104.027 69.8921 106.426 75.2758C109.911 83.0747 119.194 87.7615 126.706 82.7768C134.01 77.9411 139.074 55.0125 136.058 49.7565C131.621 42.0108 118.614 40.3457 112.422 47.5168Z" fill="#CB8D5F"/>
<path d="M123.636 61.7475C123.104 61.7901 122.572 61.7475 122.04 61.7475C121.475 61.8244 120.901 61.7122 120.407 61.4283C120.269 61.3086 120.174 61.1468 120.138 60.9679C120.101 60.789 120.125 60.603 120.205 60.4388C120.412 60.1388 120.696 59.8998 121.028 59.7464C121.359 59.593 121.725 59.5309 122.088 59.5664C122.834 59.5225 123.57 59.7576 124.152 60.226C124.275 60.3421 124.363 60.4911 124.403 60.6554C124.444 60.8197 124.437 60.9923 124.383 61.1526C124.329 61.3129 124.229 61.4542 124.097 61.5597C123.964 61.6652 123.804 61.7304 123.636 61.7475Z" fill="#263238"/>
<path d="M123.169 64.3171C123.169 64.2692 123.062 64.3543 123.052 64.4075C122.855 65.6045 122.424 66.9451 121.269 67.126C121.232 67.126 121.221 67.1898 121.269 67.1951C122.615 67.2696 123.169 65.4874 123.169 64.3171Z" fill="#263238"/>
<path d="M122.349 62.8595C120.461 62.3275 119.546 66.1525 121.285 66.6366C123.025 67.1207 123.929 63.301 122.349 62.8595Z" fill="#263238"/>
<path d="M130.031 65.7906C130.031 65.748 130.111 65.8704 130.1 65.9183C129.781 67.0886 129.611 68.4877 130.584 69.1102C130.616 69.1102 130.584 69.19 130.558 69.174C129.297 68.7059 129.542 66.8546 130.031 65.7906Z" fill="#263238"/>
<path d="M131.382 64.8118C133.318 65.1203 132.558 68.9666 130.765 68.6793C128.972 68.392 129.759 64.5511 131.382 64.8118Z" fill="#263238"/>
<path d="M133.345 62.9178C132.856 62.6906 132.38 62.4367 131.919 62.1571C131.379 61.9573 130.92 61.5829 130.616 61.0931C130.549 60.9219 130.542 60.7335 130.594 60.5573C130.645 60.3811 130.754 60.2272 130.903 60.1195C131.558 59.694 132.313 59.8908 132.983 60.2206C133.667 60.5319 134.211 61.0853 134.51 61.774C134.573 61.936 134.587 62.1128 134.551 62.2827C134.514 62.4526 134.428 62.608 134.304 62.7297C134.18 62.8514 134.024 62.9341 133.853 62.9676C133.682 63.001 133.506 62.9837 133.345 62.9178Z" fill="#263238"/>
<path d="M119.21 74.5578C119.423 74.9035 119.614 75.3504 120.035 75.4887C120.478 75.5844 120.937 75.5844 121.381 75.4887C121.39 75.4879 121.399 75.4899 121.406 75.4945C121.414 75.4991 121.42 75.5061 121.424 75.5143C121.427 75.5226 121.428 75.5318 121.426 75.5406C121.424 75.5494 121.419 75.5573 121.413 75.5632C121.189 75.7545 120.917 75.8818 120.627 75.9314C120.337 75.981 120.038 75.9512 119.763 75.8452C119.537 75.7258 119.351 75.5415 119.23 75.316C119.108 75.0905 119.057 74.8339 119.082 74.579C119.082 74.5099 119.178 74.5046 119.21 74.5578Z" fill="#263238"/>
<path d="M121.295 71.3179C121.485 71.8567 121.784 72.3506 122.173 72.7688C122.562 73.1871 123.033 73.5208 123.556 73.7491C124.011 73.9545 124.493 74.0942 124.987 74.1641C125.08 74.1849 125.174 74.1956 125.269 74.196C125.36 74.2017 125.45 74.2017 125.541 74.196C125.606 74.2 125.672 74.1817 125.726 74.144C125.78 74.1064 125.819 74.0516 125.838 73.9885C125.841 73.946 125.841 73.9033 125.838 73.8608V73.7544C126.078 72.8501 126.323 71.4456 126.323 71.4456C126.615 71.6903 128.126 72.8607 128.216 72.3766C128.924 68.3867 129.706 63.9499 129.568 59.827C129.568 59.7974 129.556 59.769 129.535 59.7481C129.514 59.7271 129.486 59.7153 129.456 59.7153C129.426 59.7153 129.398 59.7271 129.377 59.7481C129.356 59.769 129.344 59.7974 129.344 59.827C128.514 63.6361 128.36 67.5674 127.583 71.4084C127.063 70.9809 126.484 70.6298 125.865 70.3657C125.727 70.3657 125.445 73.0895 125.301 73.4831C125.302 73.4973 125.302 73.5115 125.301 73.5257C123.705 73.3554 122.684 72.616 121.444 71.2381C121.364 71.1477 121.247 71.2062 121.295 71.3179Z" fill="#263238"/>
<path d="M124.563 73.5737C123.907 74.1025 123.127 74.4542 122.296 74.5951C121.842 74.6584 121.379 74.5784 120.972 74.3663C120.089 73.8929 120.269 73.0204 120.621 72.3182C120.812 71.9481 121.046 71.6017 121.317 71.2861C122.127 72.3758 123.264 73.1775 124.563 73.5737Z" fill="#263238"/>
<path d="M122.296 74.595C121.842 74.6583 121.379 74.5783 120.972 74.3663C120.089 73.8928 120.269 73.0203 120.621 72.3181C121.61 72.6639 122.445 73.5949 122.296 74.595Z" fill="#FF97B8"/>
<path d="M137.665 56.5766C130.217 59.694 122.684 51.0705 122.684 51.0705C121.831 52.3793 120.577 53.3774 119.111 53.9161C117.644 54.4549 116.043 54.5054 114.545 54.0603C114.545 54.0603 110.97 64.8436 108.055 64.1946C103.623 63.2477 105.395 47.8946 107.4 45.224C109.406 42.5534 113.343 42.5641 113.343 42.5641C113.343 42.5641 114.093 40.3244 117.274 38.7976C120.785 37.1059 130.574 42.4098 130.574 42.4098C131.462 41.1356 132.637 40.0879 134.005 39.3509C134.335 39.1654 134.699 39.0488 135.076 39.0082C135.452 38.9676 135.833 39.0039 136.195 39.1148C136.557 39.2257 136.893 39.409 137.182 39.6535C137.472 39.898 137.708 40.1986 137.878 40.5372C137.151 41.2363 136.593 42.0912 136.245 43.0375C135.048 46.1656 137.692 46.7136 138.282 43.7717C138.539 42.6799 138.395 41.5323 137.878 40.5372C139.58 38.8881 141.841 38.7072 142.921 40.0052C144.905 42.3832 143.863 53.9911 137.665 56.5766Z" fill="#263238"/>
<path d="M119.396 70.2379C118.48 69.9441 117.664 69.3989 117.043 68.6643C116.421 67.9298 116.018 67.0354 115.88 66.083C115.741 65.1306 115.873 64.1586 116.26 63.2775C116.647 62.3964 117.274 61.6417 118.069 61.0993C118.864 60.5569 119.795 60.2486 120.757 60.2096C121.718 60.1705 122.671 60.4022 123.508 60.8784C124.344 61.3545 125.03 62.0559 125.487 62.9027C125.944 63.7495 126.155 64.7077 126.094 65.6682C126.044 66.4481 125.816 67.2064 125.429 67.8853C125.042 68.5643 124.505 69.1461 123.86 69.5866C123.214 70.0271 122.476 70.3147 121.703 70.4275C120.93 70.5404 120.141 70.4756 119.396 70.2379ZM122.333 61.1144C121.988 61.0027 121.631 60.933 121.269 60.9069C120.135 60.8264 119.013 61.1816 118.132 61.9001C117.251 62.6185 116.677 63.646 116.528 64.7729C116.379 65.8998 116.665 67.0412 117.329 67.9642C117.992 68.8873 118.983 69.5223 120.099 69.7399C121.214 69.9575 122.371 69.7411 123.333 69.135C124.294 68.5289 124.989 67.5787 125.274 66.4782C125.559 65.3778 125.413 64.2101 124.867 63.2133C124.32 62.2165 123.414 61.4658 122.333 61.1144Z" fill="#FAB114"/>
<path d="M130.734 72.3872C128.893 71.6957 127.935 69.1953 128.606 66.5833C128.891 65.3336 129.563 64.2057 130.526 63.3594C130.915 62.9673 131.399 62.6829 131.931 62.5339C132.463 62.3849 133.024 62.3764 133.56 62.5094C134.097 62.6423 134.589 62.9121 134.99 63.2924C135.39 63.6726 135.685 64.1503 135.846 64.6788C136.297 65.8791 136.362 67.1902 136.032 68.4293C135.351 71.1743 133.133 72.999 131.085 72.4883C130.965 72.4652 130.847 72.4314 130.734 72.3872ZM133.612 63.2637L133.362 63.1892C132.932 63.1024 132.487 63.1204 132.066 63.2417C131.645 63.363 131.259 63.5841 130.941 63.8861C130.091 64.6403 129.498 65.6408 129.244 66.7482C128.653 69.1315 129.531 71.4084 131.218 71.8233C132.904 72.2383 134.745 70.6423 135.335 68.2644C135.631 67.1667 135.576 66.0037 135.176 64.9394C135.047 64.566 134.841 64.2238 134.572 63.9351C134.303 63.6464 133.975 63.4176 133.612 63.2637Z" fill="#FAB114"/>
<path d="M125.812 66.2215L125.482 65.6204C126.371 65.1256 128.307 64.6149 129.281 66.1524L128.696 66.5141C127.828 65.1363 125.892 66.1736 125.812 66.2215Z" fill="#FAB114"/>
<path d="M103.107 63.0829L102.575 62.6573C102.777 62.4073 104.57 60.2102 106.118 60.2634C107.571 60.3166 116.433 62.9233 116.811 63.0563L116.614 63.716C114.071 62.9606 107.219 60.9869 106.097 60.9497C105.065 60.9124 103.591 62.4765 103.107 63.0829Z" fill="#FAB114"/>
<path d="M109.954 63.1945C109.954 63.1945 108.523 56.3425 105.565 56.6351C102.607 56.9277 102.107 65.7427 104.475 67.993C104.757 68.3023 105.1 68.5513 105.481 68.7249C105.863 68.8984 106.275 68.993 106.694 69.003C107.113 69.0129 107.53 68.938 107.919 68.7827C108.308 68.6274 108.662 68.395 108.959 68.0994L109.954 63.1945Z" fill="#CB8D5F"/>
<path d="M105.485 59.1674C105.443 59.1408 105.405 59.1993 105.437 59.2365C107.071 60.875 107.321 63.1466 107.241 65.349C106.964 64.3702 106.336 63.6254 105.06 63.9074C104.996 63.9074 105.012 64.0191 105.06 64.035C105.454 64.0714 105.826 64.2299 106.126 64.4884C106.425 64.7469 106.637 65.0924 106.73 65.4767C106.886 66.1182 106.973 66.7745 106.991 67.4344C106.991 67.6525 107.363 67.6951 107.384 67.4344C107.382 67.4168 107.382 67.3989 107.384 67.3812C108.523 64.9234 108.076 60.5718 105.485 59.1674Z" fill="#263238"/>
<path d="M146.427 111.286C147.773 107.743 178.979 114.159 177.734 119.59C173.164 139.487 160.429 157.266 157.21 161.33C152.986 166.65 144.581 165.469 141.517 162.245C137.074 157.569 145.097 114.797 146.427 111.286Z" fill="#CB8D5F"/>
<path d="M144.23 121.053C143.536 122.96 142.987 124.916 142.586 126.905C142.134 128.873 141.74 130.852 141.421 132.842C140.79 136.867 140.435 140.93 140.357 145.003C140.299 147.28 140.357 149.552 140.357 151.829C140.357 151.882 140.442 151.876 140.442 151.829C140.442 149.812 140.565 147.78 140.729 145.769C140.894 143.758 141.097 141.71 141.357 139.694C141.863 135.731 142.421 131.773 143.139 127.841C143.338 126.738 143.545 125.639 143.762 124.543C143.991 123.405 144.251 122.271 144.4 121.117C144.4 121.032 144.267 120.957 144.23 121.053Z" fill="#263238"/>
<path d="M138.899 55.2095C138.694 57.9187 138.288 60.609 137.686 63.2584C137.585 63.7106 137.473 64.1734 137.362 64.6309C136.915 66.4503 136.383 68.2803 135.766 70.0412C135.624 70.4668 135.475 70.8871 135.319 71.302C133.43 76.4038 130.935 80.7926 128.126 82.6546C127.413 83.1329 126.656 83.5426 125.866 83.8782C121.839 81.5297 118.476 78.1953 116.094 74.1888C113.711 70.1823 112.387 65.6354 112.247 60.9762L111.396 60.7421C111.529 60.5346 111.667 60.3218 111.8 60.0984C111.933 59.875 112.098 59.593 112.241 59.327C112.455 52.4779 115.221 45.956 119.998 41.0427C126.685 39.2446 134.691 41.8141 138.059 47.6819C138.878 49.1342 139.128 51.8686 138.899 55.2095Z" fill="#CB8D5F"/>
<path d="M124.882 60.3804C124.316 60.4096 123.75 60.4096 123.185 60.3804C122.53 60.3804 122.009 60.4282 121.45 60.0399C121.3 59.9126 121.197 59.7382 121.159 59.545C121.12 59.3518 121.148 59.1512 121.238 58.9759C121.647 58.2524 122.445 58.0662 123.233 58.0503C124.023 58.0035 124.802 58.2518 125.419 58.7472C125.556 58.8684 125.654 59.0271 125.702 59.2036C125.75 59.3801 125.745 59.5667 125.687 59.7404C125.63 59.9141 125.524 60.0672 125.38 60.181C125.237 60.2947 125.064 60.364 124.882 60.3804Z" fill="#263238"/>
<path d="M124.387 63.1308C124.387 63.0829 124.275 63.1733 124.264 63.2212C124.057 64.4926 123.599 65.913 122.376 66.1046C122.339 66.1046 122.328 66.1737 122.376 66.179C123.802 66.2322 124.387 64.3437 124.387 63.1308Z" fill="#263238"/>
<path d="M123.52 61.5614C121.519 61.0028 120.551 65.0459 122.403 65.5619C124.254 66.0779 125.196 62.0295 123.52 61.5614Z" fill="#263238"/>
<path d="M131.658 64.6628C131.658 64.6203 131.744 64.7479 131.728 64.8011C131.387 66.0407 131.196 67.5196 132.26 68.2059C132.291 68.2059 132.26 68.291 132.233 68.275C130.882 67.7483 131.137 65.7906 131.658 64.6628Z" fill="#263238"/>
<path d="M133.089 63.6255C135.138 63.9554 134.329 68.0304 132.43 67.7271C130.531 67.4239 131.371 63.3489 133.089 63.6255Z" fill="#263238"/>
<path d="M135.164 61.6199C134.632 61.3912 134.17 61.0879 133.659 60.8166C133.089 60.6073 132.603 60.2167 132.276 59.7048C132.206 59.5241 132.198 59.3255 132.253 59.1398C132.308 58.9541 132.422 58.7918 132.579 58.678C133.276 58.2259 134.074 58.4333 134.781 58.7844C135.499 59.116 136.067 59.7017 136.377 60.4283C136.438 60.5967 136.449 60.7788 136.409 60.9532C136.369 61.1275 136.28 61.2868 136.152 61.4122C136.025 61.5376 135.864 61.6237 135.689 61.6606C135.514 61.6974 135.332 61.6833 135.164 61.6199Z" fill="#263238"/>
<path d="M120.194 73.9514C120.423 74.3131 120.625 74.7866 121.072 74.9356C121.54 75.0392 122.025 75.0392 122.492 74.9356C122.502 74.9353 122.511 74.9377 122.519 74.9426C122.527 74.9475 122.533 74.9547 122.537 74.9632C122.541 74.9717 122.543 74.9811 122.541 74.9904C122.54 74.9997 122.536 75.0084 122.53 75.0154C122.292 75.2186 122.004 75.3537 121.696 75.4061C121.388 75.4586 121.071 75.4265 120.779 75.3133C120.54 75.186 120.345 74.9907 120.217 74.752C120.089 74.5134 120.035 74.2421 120.061 73.9727C120.056 73.8982 120.157 73.8982 120.194 73.9514Z" fill="#263238"/>
<path d="M122.408 70.5146C122.606 71.0862 122.921 71.6105 123.332 72.0546C123.743 72.4986 124.242 72.8528 124.796 73.0947C125.278 73.312 125.789 73.459 126.312 73.5309C126.412 73.5535 126.514 73.5659 126.616 73.5681C126.709 73.574 126.804 73.574 126.898 73.5681C126.967 73.5726 127.037 73.5536 127.095 73.5141C127.153 73.4745 127.196 73.4168 127.217 73.35C127.222 73.3077 127.222 73.2647 127.217 73.2224V73.1106C127.472 72.1531 127.749 70.6635 127.749 70.6635C128.057 70.9242 129.659 72.1637 129.749 71.653C130.499 67.3971 131.345 62.721 131.185 58.3534C131.185 58.3223 131.173 58.2926 131.151 58.2706C131.129 58.2487 131.099 58.2363 131.068 58.2363C131.037 58.2363 131.008 58.2487 130.986 58.2706C130.964 58.2926 130.951 58.3223 130.951 58.3534C130.068 62.3858 129.887 66.5513 129.084 70.589C128.514 70.1487 127.886 69.7905 127.217 69.5251C127.073 69.5251 126.77 72.4084 126.621 72.8287C126.623 72.8428 126.623 72.8572 126.621 72.8712C124.956 72.6904 123.849 71.9137 122.541 70.4454C122.477 70.339 122.354 70.3975 122.408 70.5146Z" fill="#263238"/>
<path d="M125.865 72.9086C125.17 73.4639 124.344 73.8304 123.466 73.9726C122.986 74.0415 122.496 73.9558 122.067 73.7279C121.125 73.2278 121.322 72.3022 121.695 71.5627C121.895 71.1698 122.142 70.8019 122.429 70.4668C123.284 71.627 124.488 72.4827 125.865 72.9086Z" fill="#263238"/>
<path d="M123.461 73.9885C122.981 74.0575 122.491 73.9718 122.062 73.7438C121.12 73.2437 121.317 72.3181 121.69 71.5786C122.732 71.9457 123.621 72.9245 123.461 73.9885Z" fill="#FF97B8"/>
<path d="M139.74 54.9061C139.458 55.0232 139.176 55.1242 138.899 55.2094C131.281 57.5714 123.871 49.0703 123.871 49.0703C122.971 50.4608 121.645 51.5231 120.092 52.0984C118.539 52.6736 116.841 52.7311 115.253 52.2622C114.426 54.6965 113.414 57.0637 112.226 59.3429C112.369 54.8192 113.626 50.4008 115.887 46.4799C118.148 42.559 121.342 39.2568 125.185 36.8665C127.611 37.718 129.973 38.7457 132.25 39.9414C133.193 38.5919 134.439 37.4823 135.888 36.7016C136.238 36.5048 136.623 36.381 137.022 36.3375C137.42 36.2941 137.823 36.3319 138.207 36.4488C138.59 36.5657 138.946 36.7591 139.252 37.0175C139.559 37.2758 139.81 37.5936 139.99 37.9517C139.222 38.6981 138.631 39.607 138.261 40.6117C136.995 43.9206 139.793 44.5005 140.416 41.3884C140.69 40.2306 140.539 39.0126 139.99 37.9571C141.793 36.2175 144.187 36.026 145.31 37.4251C147.406 39.8829 146.31 52.1664 139.74 54.9061Z" fill="#263238"/>
<path d="M125.531 60.0132C124.645 59.2755 123.547 58.8394 122.397 58.7684C122.051 58.7459 121.703 58.7584 121.36 58.8056C120.498 58.9171 119.675 59.2337 118.96 59.7289C118.245 60.2242 117.66 60.8835 117.253 61.6518C117.135 61.8666 117.036 62.0908 116.955 62.3221C116.77 62.8135 116.661 63.33 116.63 63.8542C116.556 65.0614 116.885 66.259 117.566 67.2587C118.247 68.2583 119.241 69.0032 120.392 69.3762C120.823 69.5119 121.27 69.5959 121.722 69.6262H122.062C123.366 69.6287 124.628 69.1637 125.619 68.3155C126.609 67.4673 127.263 66.2922 127.462 65.0033C127.462 64.849 127.499 64.6947 127.51 64.5351C127.52 64.3755 127.51 64.3011 127.51 64.1893C127.508 63.3904 127.329 62.6018 126.987 61.8798C126.645 61.1579 126.148 60.5205 125.531 60.0132ZM121.764 68.8974C120.62 68.8242 119.542 68.3367 118.732 67.5262C117.922 66.7158 117.434 65.6378 117.361 64.494C117.288 63.3502 117.635 62.219 118.335 61.312C119.036 60.4051 120.043 59.7845 121.168 59.5664C121.559 59.4907 121.958 59.4656 122.355 59.4919C122.745 59.5174 123.131 59.5906 123.504 59.71C123.979 59.8627 124.426 60.0908 124.828 60.3856C125.655 60.9843 126.265 61.8355 126.566 62.811C126.867 63.7865 126.843 64.8333 126.497 65.7938C126.151 66.7543 125.503 67.5764 124.649 68.1362C123.795 68.696 122.783 68.9631 121.764 68.8974Z" fill="#FAB114"/>
<path d="M137.782 63.4871L137.686 63.2583C137.36 62.5104 136.8 61.8886 136.09 61.4868C135.861 61.3593 135.616 61.2627 135.361 61.1995C134.99 61.1093 134.606 61.0877 134.228 61.1357C133.457 61.2436 132.734 61.5746 132.148 62.0879C131.708 62.4626 131.328 62.9021 131.02 63.3913C130.786 63.7538 130.588 64.1387 130.43 64.5404C130.321 64.7994 130.232 65.0661 130.164 65.3384C130.144 65.3924 130.129 65.4475 130.116 65.5033C129.8 66.7096 129.834 67.9805 130.212 69.1687C130.369 69.7189 130.647 70.2273 131.025 70.6569C131.403 71.0866 131.872 71.4268 132.398 71.6531C132.51 71.6956 132.621 71.7275 132.738 71.7594C133.179 71.8594 133.635 71.8705 134.08 71.7919C134.525 71.7134 134.95 71.5468 135.329 71.3019C136.684 70.4164 137.639 69.0359 137.989 67.4557C138.336 66.1436 138.264 64.7558 137.782 63.4871ZM137.25 67.2801C137.008 68.3177 136.491 69.2713 135.755 70.0411C135.408 70.4454 134.961 70.7515 134.459 70.9289C133.957 71.1062 133.416 71.1487 132.893 71.0519C131.105 70.6104 130.174 68.2005 130.802 65.6788C131.07 64.5065 131.697 63.4467 132.595 62.6465C132.933 62.3269 133.343 62.0929 133.79 61.9642C134.237 61.8356 134.708 61.816 135.164 61.9071C135.253 61.9281 135.34 61.9547 135.425 61.9869C135.81 62.1511 136.157 62.394 136.443 62.7C136.728 63.0059 136.947 63.3683 137.085 63.7637C137.198 64.0436 137.284 64.334 137.34 64.6308C137.51 65.5085 137.486 66.4126 137.271 67.2801H137.25Z" fill="#FAB114"/>
<path d="M127.185 65.1204L126.839 64.482C127.78 63.95 129.834 63.418 130.861 65.0672L130.244 65.4502C129.323 63.9713 127.275 65.0725 127.185 65.1204Z" fill="#FAB114"/>
<path d="M117.647 61.7688L117.439 62.4657L116.955 62.322C115.758 61.9709 113.992 61.4602 112.231 60.9708L111.38 60.7367C111.513 60.5292 111.651 60.3165 111.784 60.093L112.215 60.2154C114.343 60.8006 116.402 61.4017 117.253 61.6517L117.647 61.7688Z" fill="#FAB114"/>
<g opacity="0.3">
<path opacity="0.3" d="M145.549 86.9583C140.249 88.1257 134.721 87.6951 129.666 85.7209C124.61 83.7468 120.254 80.3179 117.147 75.8677C114.041 71.4176 112.323 66.1461 112.213 60.72C112.102 55.2939 113.603 49.9568 116.526 45.3838C119.448 40.8107 123.662 37.2071 128.632 35.0286C133.603 32.8501 139.109 32.1946 144.452 33.145C149.795 34.0953 154.737 36.6089 158.652 40.3678C162.566 44.1267 165.279 48.9621 166.445 54.2625C167.22 57.7815 167.295 61.4186 166.664 64.9664C166.034 68.5141 164.71 71.9028 162.77 74.939C160.829 77.9752 158.31 80.5994 155.355 82.6617C152.4 84.724 149.068 86.184 145.549 86.9583Z" fill="white"/>
<path opacity="0.3" d="M115.582 73.3342C119.058 79.6792 124.898 84.3958 131.832 86.4588C138.766 88.5218 146.235 87.7646 152.614 84.3517L115.582 73.3342Z" fill="#EBEBEB"/>
<path opacity="0.3" d="M116.369 45.655L167.089 60.7474C167.133 58.5681 166.918 56.3913 166.45 54.2625C165.92 51.8202 165.051 49.4639 163.87 47.2616L126.429 36.1165C122.315 38.3833 118.851 41.6674 116.369 45.655Z" fill="#EBEBEB"/>
<path opacity="0.3" d="M112.412 63.3647L160.722 77.7284C161.873 76.3459 162.887 74.8547 163.749 73.2756L112.306 57.9651C112.157 59.7639 112.193 61.5732 112.412 63.3647Z" fill="#EBEBEB"/>
<path opacity="0.3" d="M114.614 48.9745L166.749 64.4925C166.802 64.1627 166.85 63.8329 166.887 63.503L115.029 48.0754C114.886 48.368 114.742 48.6659 114.614 48.9745Z" fill="#EBEBEB"/>
<path opacity="0.3" d="M135.111 33.1055L158.253 39.9894C157.652 39.4308 157.018 38.9255 156.364 38.3935L137.569 32.8076C136.745 32.8647 135.925 32.9641 135.111 33.1055Z" fill="#EBEBEB"/>
</g>
<path d="M149.326 120.879L156.371 119.327L149.548 88.3475L142.503 89.899L149.326 120.879Z" fill="#EBEBEB"/>
<path d="M169.446 53.6028C168.148 47.7109 165.133 42.336 160.781 38.1579C156.429 33.9797 150.935 31.1859 144.995 30.1298C139.056 29.0736 132.936 29.8025 127.41 32.2244C121.885 34.6462 117.201 38.6522 113.952 43.7358C110.703 48.8193 109.035 54.7521 109.158 60.7839C109.281 66.8158 111.189 72.6757 114.642 77.6227C118.096 82.5698 122.938 86.3817 128.558 88.5766C134.178 90.7714 140.322 91.2506 146.214 89.9534C154.114 88.2114 160.998 83.4038 165.355 76.5874C169.711 69.771 171.183 61.5037 169.446 53.6028ZM145.549 86.9583C140.249 88.1267 134.721 87.6971 129.665 85.7238C124.609 83.7504 120.252 80.3221 117.145 75.8722C114.037 71.4224 112.319 66.151 112.208 60.7248C112.097 55.2985 113.597 49.9611 116.519 45.3875C119.441 40.814 123.654 37.2098 128.625 35.0307C133.596 32.8517 139.101 32.1957 144.445 33.1457C149.788 34.0957 154.73 36.609 158.646 40.3678C162.561 44.1266 165.273 48.962 166.44 54.2625C167.215 57.7811 167.29 61.4179 166.66 64.9653C166.029 68.5128 164.706 71.9013 162.767 74.9374C160.827 77.9735 158.308 80.5978 155.353 82.6604C152.399 84.7229 149.068 86.1834 145.549 86.9583Z" fill="#455A64"/>
<path d="M152.236 142.678L162.892 140.332L156.848 112.866L146.188 115.212L152.236 142.678Z" fill="#263238"/>
<path d="M156.886 56.5659C156.874 56.5347 156.865 56.5027 156.859 56.4702C156.731 56.0126 156.997 56.9117 156.901 56.6138C156.806 56.3159 156.667 55.8956 156.534 55.5498C156.069 54.3157 155.499 53.1233 154.832 51.9855C154.742 51.8259 154.641 51.6663 154.55 51.5067C154.518 51.4535 154.784 51.8791 154.55 51.544L154.364 51.2567C154.119 50.8896 153.869 50.5279 153.608 50.1927C153.032 49.4142 152.405 48.6749 151.731 47.9797L151.241 47.4902C151.018 47.2721 151.502 47.7296 151.193 47.4477L150.885 47.1657C150.486 46.8199 150.076 46.4848 149.651 46.1656C149.225 45.8464 148.72 45.4953 148.235 45.1921C148.012 45.0537 147.789 44.9207 147.56 44.7931C147.166 44.5643 147.73 44.8729 147.437 44.7239L147.017 44.5111C145.746 43.8858 144.417 43.3869 143.049 43.0216H142.979L142.83 42.9896L142.219 42.8566C141.82 42.7768 141.426 42.7077 141.022 42.6492C140.177 42.5283 139.326 42.4501 138.474 42.4151C138.237 42.3882 138.007 42.3149 137.799 42.1994C137.59 42.084 137.407 41.9285 137.258 41.7421C136.958 41.3654 136.821 40.8851 136.875 40.4068C136.929 39.9286 137.171 39.4914 137.548 39.1916C137.925 38.8918 138.405 38.7539 138.883 38.8082C144.319 38.9764 149.517 41.0756 153.545 44.7292C156.221 47.2353 158.313 50.2992 159.673 53.7038C159.984 54.4639 160.244 55.2441 160.45 56.0392C160.523 56.5145 160.406 56.9996 160.123 57.3884C159.839 57.7772 159.414 58.0381 158.939 58.114C158.465 58.1777 157.985 58.0562 157.599 57.7748C157.212 57.4934 156.949 57.0737 156.864 56.6031L156.886 56.5659Z" fill="white"/>
<path d="M157.63 61.9125C157.684 62.2623 157.841 62.5882 158.08 62.8489C158.32 63.1097 158.631 63.2934 158.975 63.377C159.319 63.4605 159.68 63.4401 160.012 63.3182C160.345 63.1963 160.633 62.9786 160.842 62.6925C161.05 62.4064 161.169 62.0648 161.183 61.7112C161.197 61.3575 161.106 61.0076 160.921 60.7058C160.736 60.4041 160.465 60.164 160.144 60.0161C159.822 59.8682 159.464 59.8191 159.115 59.875C158.648 59.9496 158.23 60.2058 157.952 60.5875C157.674 60.9693 157.558 61.4457 157.63 61.9125Z" fill="white"/>
<path d="M175.638 125.809C175.638 125.809 183.256 113.286 173.771 101.338C169.866 96.4223 160.652 87.6073 141.958 88.8362C137.521 89.1287 131.409 92.6877 138.825 94.8423C144.091 96.3744 147.895 95.752 150.8 97.199C150.8 97.199 143.559 102.652 144.028 107.083C144.235 109.062 144.389 113.387 145.533 117.505C145.533 117.505 147.033 118.569 148.251 118.388C148.251 118.388 151.534 127.857 163.339 130.767L175.638 125.809Z" fill="#CB8D5F"/>
<path d="M169.765 99.7313C166.712 98.5131 160.19 96.0447 154.152 95.8744C147.443 95.6882 134.468 97.1405 134.388 102.093C134.324 105.727 139.325 105.604 139.325 105.604C139.325 105.604 134.09 107.333 134.755 110.626C135.357 113.627 139.219 113.286 139.219 113.286C139.219 113.286 136.224 114.882 137.362 117.659C138.729 121 144.778 117.127 149.066 119.298C150.055 119.808 169.765 99.7313 169.765 99.7313Z" fill="#CB8D5F"/>
<path d="M155.125 102.992C152.066 102.322 144.719 102.577 139.389 105.487C139.267 105.551 139.251 105.679 139.389 105.642C144.511 104.148 149.794 103.28 155.125 103.056C155.173 103.056 155.173 103.03 155.125 102.992Z" fill="#263238"/>
<path d="M154.752 109.759C152.05 109.451 144.49 110.052 139.191 113.185C139.069 113.254 139.064 113.382 139.191 113.339C144.232 111.583 149.456 110.403 154.763 109.823C154.771 109.822 154.779 109.817 154.784 109.81C154.789 109.803 154.791 109.794 154.789 109.786C154.788 109.777 154.783 109.77 154.776 109.765C154.769 109.76 154.76 109.758 154.752 109.759Z" fill="#263238"/>
<path d="M165.642 131.581C162.934 130.939 160.32 129.95 157.864 128.639C155.392 127.301 153.203 125.495 151.422 123.32C150.89 122.655 150.358 121.963 149.895 121.255C149.432 120.548 148.922 119.745 148.374 119.042C148.331 118.989 148.23 119.042 148.262 119.09C148.878 120.567 149.637 121.98 150.528 123.309C151.327 124.552 152.282 125.687 153.369 126.687C155.516 128.597 158.059 130.007 160.817 130.815C162.383 131.251 163.985 131.542 165.605 131.682C165.685 131.704 165.716 131.597 165.642 131.581Z" fill="#263238"/>
<path d="M87.9885 91.5068C74.2845 109.908 51.4145 157.867 48.0523 164.921C45.7701 169.709 70.7894 182.317 71.8481 178.838C73.2099 174.38 95.5799 115.531 98.7133 94.0763C100.426 82.3141 92.7285 85.1389 87.9885 91.5068Z" fill="#CB8D5F"/>
<path d="M72.5233 176.444C71.9434 180.779 68.9962 189.514 66.8044 190.85C64.6127 192.185 53.0952 191.914 47.2912 191.914C41.4873 191.914 40.3754 190.291 40.4446 188.296C40.5137 186.301 52.7175 185.918 52.7175 185.918C52.7175 185.918 36.4494 190.557 32.3584 191.339C28.2674 192.121 18.8459 194.478 17.4628 191.089C16.851 189.557 19.4311 188.009 19.4311 188.009C19.4311 188.009 15.4785 189.163 14.8454 187.2C14.1326 184.961 17.2766 183.732 17.2766 183.732C17.2766 183.732 14.8029 184.227 14.7443 182.402C14.6379 178.306 30.1081 176.305 30.1081 176.305C30.1081 176.305 18.2661 182.072 17.8724 178.742C17.3404 174.14 41.6203 169.092 44.1472 167.086C45.9858 165.553 47.7055 163.883 49.2915 162.091L72.5233 176.444Z" fill="#CB8D5F"/>
<path d="M40.5293 189.286C40.4882 189.003 40.5151 188.715 40.6076 188.445C40.7001 188.175 40.8556 187.931 41.0613 187.732C41.4784 187.35 41.9568 187.041 42.4763 186.817C43.5496 186.361 44.6626 186.005 45.8013 185.753C48.0888 185.174 50.4348 184.764 52.7703 184.158C50.3629 184.121 47.9606 184.39 45.6204 184.955C44.4246 185.23 43.2732 185.67 42.1997 186.264C41.6439 186.57 41.1568 186.986 40.7687 187.488C40.5778 187.742 40.4556 188.041 40.4137 188.355C40.3717 188.67 40.4115 188.991 40.5293 189.286Z" fill="#263238"/>
<path d="M19.4688 187.988C21.1445 187.578 22.7937 187.11 24.4375 186.631C26.0813 186.152 27.7198 185.652 29.3584 185.158L34.258 183.626C35.8911 183.094 37.5243 182.604 39.1735 182.109C37.4614 182.298 35.7641 182.602 34.093 183.019C32.412 183.402 30.7628 183.881 29.119 184.381C27.4751 184.881 25.8473 185.445 24.2407 186.041C22.6341 186.637 21.0115 187.264 19.4688 187.988Z" fill="#263238"/>
<path d="M35.2262 178.04C33.6482 178.139 32.0798 178.356 30.5341 178.689C28.9831 178.997 27.4504 179.391 25.9431 179.87C24.4321 180.338 22.949 180.892 21.501 181.529C20.0478 182.15 18.6414 182.876 17.293 183.7C18.7878 183.168 20.2455 182.609 21.7297 182.104C23.214 181.599 24.6929 181.098 26.1878 180.641C27.6826 180.183 29.1775 179.731 30.683 179.29C32.1886 178.848 33.6994 178.465 35.2262 178.04Z" fill="#263238"/>
<path d="M32.8323 174.167C30.2907 174.371 27.7868 174.908 25.3845 175.763C22.9588 176.566 20.6496 177.686 18.5166 179.093C20.9212 178.236 23.2619 177.332 25.6505 176.534C28.0391 175.736 30.4065 174.949 32.8323 174.167Z" fill="#263238"/>
<path d="M93.8136 123.048L66.0439 122.282C66.0439 122.282 81.1789 98.1938 89.2864 89.3576C97.7503 80.1542 102.357 80.9469 99.4686 97.2522C96.5586 113.669 93.8136 123.048 93.8136 123.048Z" fill="#FAB114"/>
<path d="M76.6303 118.202C75.8809 118.529 75.1794 118.957 74.5449 119.473C76.1664 119.211 77.6929 118.535 78.9764 117.51C78.1651 117.627 77.375 117.86 76.6303 118.202ZM92.1377 100.561C91.8169 99.8083 91.3887 99.1058 90.8662 98.4758C91.122 100.099 91.8009 101.625 92.8346 102.902C92.7176 102.092 92.4828 101.303 92.1377 100.561ZM79.3328 105.796C79.0295 106.556 78.836 107.354 78.7582 108.169C79.7225 106.839 80.3205 105.28 80.4925 103.647C80.0026 104.302 79.6118 105.027 79.3328 105.796ZM91.5685 116.67C91.2626 117.43 91.0708 118.231 90.9992 119.048C91.9576 117.715 92.555 116.157 92.7335 114.526C92.2413 115.181 91.8454 115.903 91.5578 116.67H91.5685ZM99.7078 85.0432C99.5748 85.3198 99.4525 85.6018 99.3355 85.8891C99.0352 86.6496 98.8419 87.4481 98.7609 88.2617C99.2507 87.612 99.6449 86.8954 99.9313 86.1338C99.9579 86.0646 99.9792 86.0008 100 85.9316C99.9245 85.6275 99.823 85.3303 99.6972 85.0432H99.7078Z" fill="white"/>
<path d="M92.0734 118.218C91.4137 118.122 90.7381 118.122 90.0784 118.09L88.0303 117.978C86.6542 117.911 85.2728 117.856 83.8861 117.814C81.1198 117.728 78.3588 117.633 75.5978 117.595C74.837 117.595 74.0763 117.595 73.3156 117.595C72.5548 117.595 71.7196 117.675 70.9216 117.681C70.8738 117.681 70.8791 117.755 70.9216 117.755C71.6026 117.798 72.2835 117.899 72.9698 117.941C73.656 117.984 74.3689 118.026 75.0711 118.053C76.4543 118.106 77.8375 118.154 79.2206 118.186C81.9391 118.25 84.6628 118.324 87.3813 118.33H89.6901C90.4827 118.33 91.286 118.372 92.084 118.303C92.1053 118.287 92.1159 118.223 92.0734 118.218Z" fill="#263238"/>
<path d="M99.1974 104.987C99.1974 104.934 99.1336 104.902 99.107 104.955C98.5919 105.904 98.1508 106.891 97.7876 107.908C97.8834 107.424 97.9951 106.94 98.0855 106.45C98.3888 104.886 98.6654 103.312 98.974 101.747C98.9707 101.738 98.9646 101.73 98.9565 101.724C98.9484 101.718 98.9387 101.715 98.9287 101.715C98.9188 101.715 98.9091 101.718 98.901 101.724C98.8929 101.73 98.8868 101.738 98.8835 101.747C98.1653 104.439 97.3301 107.105 96.6917 109.818C96.0534 112.531 95.4097 115.244 94.8138 117.968C94.4893 119.473 94.1967 121.351 93.8669 122.851C93.0636 122.947 92.0316 122.851 91.1644 122.963C91.0899 122.963 91.1112 123.096 91.1644 123.096C92.0794 123.123 93.17 123.33 94.1329 123.272C94.2553 123.272 96.5853 113.595 97.5536 108.961C98.1494 107.642 98.7026 106.323 99.1974 104.987Z" fill="#263238"/>
<path d="M118.95 89.9427C118.561 91.2141 118.12 92.4696 117.615 93.6985C117.193 94.8056 116.675 95.8736 116.066 96.8904C114.917 98.7045 113.151 100.205 110.912 100.199C108.784 100.199 106.837 98.9651 105.475 97.3905C103.985 95.6721 102.996 93.5176 102.107 91.4429C101.575 90.1608 101.043 88.8521 100.618 87.5274C100.399 86.8571 100.171 86.1868 99.9792 85.5059C99.7877 84.825 99.6228 84.1387 99.3887 83.4737C99.3887 83.4205 99.2717 83.4258 99.2876 83.4737C99.6813 85.0058 100.825 89.8575 101.283 91.0918C102.123 93.3527 103.07 95.6881 104.586 97.5926C106.023 99.3907 107.975 100.753 110.31 100.976C112.646 101.199 114.646 99.9706 115.933 98.1193C116.69 96.9531 117.281 95.6873 117.689 94.3581C118.184 92.9005 118.599 91.4056 118.976 89.9107C118.998 89.932 118.95 89.9267 118.95 89.9427Z" fill="#263238"/>
<path d="M206.121 193.201H167.972L166.27 159.665H206.121V193.201Z" fill="#DBDBDB"/>
<path d="M206.121 159.665L219.825 142.508L230.731 159.665L229.028 193.201H206.121V159.665Z" fill="#C7C7C7"/>
<path d="M179.585 137.061H220.308L234.997 161.021H230.267L220.308 144.434L208.823 163H162.907L179.585 137.061Z" fill="#A6A6A6"/>
<path d="M184.304 144.642H175.548L170.877 150.238H180.985L184.304 144.642Z" fill="#C7C7C7"/>
<path d="M177.67 149.28V156.095H172.797V149.28L175.233 146.232L177.67 149.28Z" fill="#DBDBDB"/>
<path d="M177.67 149.275H181.5L177.67 156.095V149.275Z" fill="#C7C7C7"/>
<path d="M176.494 149.387H173.723V154.063H176.494V149.387Z" fill="#FBFAFF"/>
<path d="M174.957 149.711H174.063V151.217H174.957V149.711Z" fill="#EBEBEB"/>
<path d="M176.149 149.711H175.255V151.217H176.149V149.711Z" fill="#EBEBEB"/>
<path d="M174.957 151.488H174.063V153.717H174.957V151.488Z" fill="#EBEBEB"/>
<path d="M176.149 151.488H175.255V153.717H176.149V151.488Z" fill="#EBEBEB"/>
<path d="M205.744 144.642H196.987L192.604 150.238H202.403L205.744 144.642Z" fill="#C7C7C7"/>
<path d="M199.109 149.28V156.095H194.236V149.28L196.673 146.232L199.109 149.28Z" fill="#DBDBDB"/>
<path d="M199.109 149.275H202.945L199.109 156.095V149.275Z" fill="#C7C7C7"/>
<path d="M197.934 149.387H195.162V154.063H197.934V149.387Z" fill="#FBFAFF"/>
<path d="M196.396 149.711H195.502V151.217H196.396V149.711Z" fill="#EBEBEB"/>
<path d="M197.593 149.711H196.699V151.217H197.593V149.711Z" fill="#EBEBEB"/>
<path d="M196.396 151.488H195.502V153.717H196.396V151.488Z" fill="#EBEBEB"/>
<path d="M197.593 151.488H196.699V153.717H197.593V151.488Z" fill="#EBEBEB"/>
<path d="M213.005 136.093H208.132V142.508H213.005V136.093Z" fill="#DBDBDB"/>
<path d="M213.005 136.093H216.835V137.125L213.005 142.508V136.093Z" fill="#C7C7C7"/>
<path d="M213.005 133.911H207.584V136.093H213.005V133.911Z" fill="#C7C7C7"/>
<path d="M217.255 133.911H213.005V136.093H217.255V133.911Z" fill="#A6A6A6"/>
<path d="M178.038 165.745H172.005V175.933H178.038V165.745Z" fill="#FBFAFF"/>
<path d="M174.691 166.453H172.749V169.735H174.691V166.453Z" fill="#EBEBEB"/>
<path d="M177.292 166.453H175.351V169.735H177.292V166.453Z" fill="#EBEBEB"/>
<path d="M174.691 170.326H172.749V175.188H174.691V170.326Z" fill="#EBEBEB"/>
<path d="M177.292 170.326H175.351V175.188H177.292V170.326Z" fill="#EBEBEB"/>
<path d="M200.445 165.745H194.412V175.933H200.445V165.745Z" fill="#FBFAFF"/>
<path d="M197.098 166.453H195.156V169.735H197.098V166.453Z" fill="#EBEBEB"/>
<path d="M199.7 166.453H197.758V169.735H199.7V166.453Z" fill="#EBEBEB"/>
<path d="M197.098 170.326H195.156V175.188H197.098V170.326Z" fill="#EBEBEB"/>
<path d="M199.7 170.326H197.758V175.188H199.7V170.326Z" fill="#EBEBEB"/>
<path d="M178.038 179.902H172.005V190.089H178.038V179.902Z" fill="#FBFAFF"/>
<path d="M174.691 180.609H172.749V183.891H174.691V180.609Z" fill="#EBEBEB"/>
<path d="M177.292 180.609H175.351V183.891H177.292V180.609Z" fill="#EBEBEB"/>
<path d="M174.691 184.482H172.749V189.344H174.691V184.482Z" fill="#EBEBEB"/>
<path d="M177.292 184.482H175.351V189.344H177.292V184.482Z" fill="#EBEBEB"/>
<path d="M200.445 179.902H194.412V190.089H200.445V179.902Z" fill="#FBFAFF"/>
<path d="M197.098 180.609H195.156V183.891H197.098V180.609Z" fill="#EBEBEB"/>
<path d="M199.7 180.609H197.758V183.891H199.7V180.609Z" fill="#EBEBEB"/>
<path d="M197.098 184.482H195.156V189.344H197.098V184.482Z" fill="#EBEBEB"/>
<path d="M199.7 184.482H197.758V189.344H199.7V184.482Z" fill="#EBEBEB"/>
<path d="M189.209 165.745H183.177V175.933H189.209V165.745Z" fill="#FBFAFF"/>
<path d="M185.863 166.453H183.921V169.735H185.863V166.453Z" fill="#EBEBEB"/>
<path d="M188.469 166.453H186.527V169.735H188.469V166.453Z" fill="#EBEBEB"/>
<path d="M185.863 170.326H183.921V175.188H185.863V170.326Z" fill="#EBEBEB"/>
<path d="M188.469 170.326H186.527V175.188H188.469V170.326Z" fill="#EBEBEB"/>
<path d="M189.209 179.971H183.177V190.158H189.209V179.971Z" fill="#FBFAFF"/>
<path d="M185.863 180.673H183.921V183.955H185.863V180.673Z" fill="#EBEBEB"/>
<path d="M188.469 180.673H186.527V183.955H188.469V180.673Z" fill="#EBEBEB"/>
<path d="M185.863 184.551H183.921V189.413H185.863V184.551Z" fill="#EBEBEB"/>
<path d="M188.469 184.551H186.527V189.413H188.469V184.551Z" fill="#EBEBEB"/>
<path d="M216.962 175.933H222.995V165.745H216.962V175.933Z" fill="#FBFAFF"/>
<path d="M222.25 166.453H220.309V169.735H222.25V166.453Z" fill="#EBEBEB"/>
<path d="M219.644 166.453H217.702V169.735H219.644V166.453Z" fill="#EBEBEB"/>
<path d="M222.25 170.326H220.309V175.188H222.25V170.326Z" fill="#EBEBEB"/>
<path d="M219.644 170.326H217.702V175.188H219.644V170.326Z" fill="#EBEBEB"/>
<path d="M216.962 160.186H222.995V151.563H216.962V160.186Z" fill="#FBFAFF"/>
<path d="M222.25 152.265H220.309V155.547H222.25V152.265Z" fill="#EBEBEB"/>
<path d="M219.644 152.265H217.702V155.547H219.644V152.265Z" fill="#EBEBEB"/>
<path d="M222.25 156.175H220.309V159.457H222.25V156.175Z" fill="#EBEBEB"/>
<path d="M219.644 156.175H217.702V159.457H219.644V156.175Z" fill="#EBEBEB"/>
<path d="M216.104 193.264L223.419 193.298L223.482 180.015L216.167 179.98L216.104 193.264Z" fill="#FBFAFF"/>
<path d="M219.026 180.9L219.017 182.889L220.591 182.897L220.601 180.907L219.026 180.9Z" fill="#EBEBEB"/>
<path d="M216.968 180.889L216.959 182.879L218.534 182.886L218.543 180.896L216.968 180.889Z" fill="#EBEBEB"/>
<path d="M218.113 190.113L221.438 190.129L221.44 189.65L218.115 189.634L218.113 190.113Z" fill="#EBEBEB"/>
<path d="M220.011 179.886V181.875H221.585V179.886H220.011Z" fill="#EBEBEB"/>
<path d="M219.021 183.412L219.012 185.402L220.586 185.409L220.596 183.419L219.021 183.412Z" fill="#EBEBEB"/>
<path d="M216.947 183.396L216.938 185.385L218.512 185.393L218.522 183.403L216.947 183.396Z" fill="#EBEBEB"/>
<path d="M221.085 183.423L221.075 185.412L222.65 185.42L222.659 183.43L221.085 183.423Z" fill="#EBEBEB"/>
<path d="M219.01 185.929L219.001 187.919L220.576 187.926L220.585 185.937L219.01 185.929Z" fill="#EBEBEB"/>
<path d="M216.942 185.919L216.933 187.908L218.507 187.916L218.517 185.926L216.942 185.919Z" fill="#EBEBEB"/>
<path d="M221.074 185.94L221.064 187.93L222.639 187.937L222.648 185.948L221.074 185.94Z" fill="#EBEBEB"/>
<path d="M101.128 193.292H67.2408L65.7246 176.869H101.128V193.292Z" fill="#DBDBDB"/>
<path d="M101.117 176.848L113.289 161.612L122.982 176.848L121.466 193.27H101.117V176.848Z" fill="#C7C7C7"/>
<path d="M77.3537 156.792H114.162L127.797 179.832H124.078L113.662 162.49L103.655 179.832H62.873L77.3537 156.792Z" fill="#A6A6A6"/>
<path d="M76.2628 182.966H70.9004V190.626H76.2628V182.966Z" fill="#FBFAFF"/>
<path d="M73.2842 183.594H71.5605V186.509H73.2842V183.594Z" fill="#DBDBDB"/>
<path d="M75.5986 183.594H73.875V186.509H75.5986V183.594Z" fill="#DBDBDB"/>
<path d="M73.2842 187.062H71.5605V189.977H73.2842V187.062Z" fill="#DBDBDB"/>
<path d="M75.5986 187.062H73.875V189.977H75.5986V187.062Z" fill="#DBDBDB"/>
<path d="M95.9571 182.966H90.5947V190.626H95.9571V182.966Z" fill="#FBFAFF"/>
<path d="M92.9785 183.594H91.2549V186.509H92.9785V183.594Z" fill="#DBDBDB"/>
<path d="M95.292 183.594H93.5684V186.509H95.292V183.594Z" fill="#DBDBDB"/>
<path d="M92.9785 187.062H91.2549V189.977H92.9785V187.062Z" fill="#DBDBDB"/>
<path d="M95.292 187.062H93.5684V189.977H95.292V187.062Z" fill="#DBDBDB"/>
<path d="M86.1418 182.556H80.2314V193.292H86.1418V182.556Z" fill="#FBFAFF"/>
<path d="M83.8222 183.296H82.5508V184.902H83.8222V183.296Z" fill="#DBDBDB"/>
<path d="M85.4931 183.296H84.2217V184.902H85.4931V183.296Z" fill="#DBDBDB"/>
<path d="M84.5303 190.344H81.8438V190.733H84.5303V190.344Z" fill="#DBDBDB"/>
<path d="M82.1523 183.296H80.8809V184.902H82.1523V183.296Z" fill="#DBDBDB"/>
<path d="M83.8222 185.328H82.5508V186.934H83.8222V185.328Z" fill="#DBDBDB"/>
<path d="M85.4931 185.328H84.2217V186.934H85.4931V185.328Z" fill="#DBDBDB"/>
<path d="M82.1523 185.328H80.8809V186.934H82.1523V185.328Z" fill="#DBDBDB"/>
<path d="M83.8222 187.36H82.5508V188.966H83.8222V187.36Z" fill="#DBDBDB"/>
<path d="M85.4931 187.36H84.2217V188.966H85.4931V187.36Z" fill="#DBDBDB"/>
<path d="M82.1523 187.36H80.8809V188.966H82.1523V187.36Z" fill="#DBDBDB"/>
<path d="M85.1419 155.872H80.8115V161.569H85.1419V155.872Z" fill="#DBDBDB"/>
<path d="M85.1416 155.872H88.5463V156.787L85.1416 161.569V155.872Z" fill="#C7C7C7"/>
<path d="M85.1416 153.93H80.3271V155.866H85.1416V153.93Z" fill="#C7C7C7"/>
<path d="M88.9187 153.93H85.1416V155.866H88.9187V153.93Z" fill="#A6A6A6"/>
<path d="M114.523 193.297H125.514L126.562 181.971H114.523V193.297Z" fill="#C7C7C7"/>
<path d="M114.523 181.971L109.092 179.519L109.214 193.297H114.523V181.971Z" fill="#DBDBDB"/>
<path d="M122.939 184.902H118.316V193.292H122.939V184.902Z" fill="#FBFAFF"/>
<path d="M121.126 185.477H120.131V186.732H121.126V185.477Z" fill="#DBDBDB"/>
<path d="M122.428 185.477H121.434V186.732H122.428V185.477Z" fill="#DBDBDB"/>
<path d="M121.678 190.424H119.577V190.728H121.678V190.424Z" fill="#DBDBDB"/>
<path d="M119.822 185.477H118.827V186.732H119.822V185.477Z" fill="#DBDBDB"/>
<path d="M108.262 178.955H124.232L129.392 182.881H114.06L108.262 178.955Z" fill="#A6A6A6"/>
<path d="M114.06 182.881H108.262V178.955L114.06 182.881Z" fill="#C7C7C7"/>
<path d="M110.63 173.215C110.63 173.757 110.791 174.287 111.092 174.737C111.393 175.188 111.821 175.539 112.322 175.746C112.823 175.953 113.374 176.007 113.906 175.901C114.438 175.795 114.926 175.534 115.309 175.15C115.692 174.766 115.952 174.278 116.057 173.746C116.162 173.214 116.107 172.663 115.899 172.162C115.691 171.662 115.339 171.234 114.888 170.934C114.437 170.634 113.906 170.474 113.364 170.475C112.639 170.476 111.943 170.766 111.43 171.279C110.918 171.793 110.63 172.489 110.63 173.215Z" fill="#FBFAFF"/>
<path d="M111.241 173.214C111.241 173.779 111.465 174.32 111.864 174.719C112.264 175.118 112.805 175.342 113.369 175.342C113.549 175.344 113.728 175.32 113.901 175.273C114.397 175.139 114.827 174.83 115.112 174.403C115.398 173.976 115.519 173.46 115.455 172.951C115.39 172.442 115.143 171.973 114.76 171.631C114.376 171.29 113.883 171.098 113.369 171.092C113.19 171.091 113.011 171.114 112.837 171.161C112.59 171.221 112.356 171.33 112.151 171.48C111.871 171.675 111.643 171.935 111.485 172.236C111.326 172.538 111.243 172.874 111.241 173.214Z" fill="#C7C7C7"/>
<path d="M113.072 175.715H113.662V170.672H113.072V175.715Z" fill="#FBFAFF"/>
<path d="M115.891 173.486V172.895H110.847V173.486H115.891Z" fill="#FBFAFF"/>
<path d="M130.186 193.297H113.061L111.891 180.63H130.186V193.297Z" fill="#FFC727"/>
<path opacity="0.2" d="M130.186 193.297H113.061L111.891 180.63H130.186V193.297Z" fill="black"/>
<path d="M130.186 180.63L139.575 168.874L147.049 180.63L145.884 193.297H130.186V180.63Z" fill="#FFC727"/>
<path d="M131.318 182.178H108.081L122.216 164.405H139.67L150.161 182.178H147.496L139.67 170.001L131.318 182.178Z" fill="#FFC727"/>
<path opacity="0.4" d="M131.318 182.178H108.081L122.216 164.405H139.67L150.161 182.178H147.496L139.67 170.001L131.318 182.178Z" fill="black"/>
<path d="M154.768 148.685H149.927V155.058H154.768V148.685Z" fill="#FFC727"/>
<path opacity="0.2" d="M154.768 148.685H149.927V155.058H154.768V148.685Z" fill="black"/>
<path d="M158.578 148.685H154.769V155.058H158.578V148.685Z" fill="#FFC727"/>
<path d="M154.768 146.514H149.385V148.679H154.768V146.514Z" fill="#FFC727"/>
<path opacity="0.5" d="M154.768 146.514H149.385V148.679H154.768V146.514Z" fill="black"/>
<path d="M158.993 146.514H154.769V148.679H158.993V146.514Z" fill="#FFC727"/>
<path opacity="0.4" d="M158.993 146.514H154.769V148.679H158.993V146.514Z" fill="black"/>
<path d="M171.781 193.281H133.877L132.18 174.912H171.781V193.281Z" fill="#FFC727"/>
<path opacity="0.2" d="M171.781 193.281H133.877L132.18 174.912H171.781V193.281Z" fill="black"/>
<path d="M171.781 174.911L185.395 157.861L196.237 174.911L194.54 193.281H171.781V174.911Z" fill="#FFC727"/>
<path d="M185.23 158.941L196.423 176.252H200.333L185.565 152.451H145.246L124.817 178.226H174.063L185.23 158.941Z" fill="#FFC727"/>
<path opacity="0.5" d="M185.23 158.941L196.423 176.252H200.333L185.565 152.451H145.246L124.817 178.226H174.063L185.23 158.941Z" fill="black"/>
<path d="M181.857 177.492H187.853V168.921H181.857V177.492Z" fill="#FBFAFF"/>
<path d="M187.113 169.618H185.182V172.879H187.113V169.618Z" fill="#FFC727"/>
<path d="M184.528 169.618H182.597V172.879H184.528V169.618Z" fill="#FFC727"/>
<path d="M187.113 173.502H185.182V176.763H187.113V173.502Z" fill="#FFC727"/>
<path d="M184.528 173.502H182.597V176.763H184.528V173.502Z" fill="#FFC727"/>
<path d="M143.963 181.726H137.968V190.297H143.963V181.726Z" fill="#FBFAFF"/>
<path d="M140.639 182.428H138.708V185.69H140.639V182.428Z" fill="#FFC727"/>
<path d="M143.23 182.428H141.299V185.69H143.23V182.428Z" fill="#FFC727"/>
<path d="M140.639 186.312H138.708V189.573H140.639V186.312Z" fill="#FFC727"/>
<path d="M143.23 186.312H141.299V189.573H143.23V186.312Z" fill="#FFC727"/>
<path d="M154.981 181.726H148.985V190.297H154.981V181.726Z" fill="#FBFAFF"/>
<path d="M151.651 182.428H149.72V185.69H151.651V182.428Z" fill="#FFC727"/>
<path d="M154.242 182.428H152.311V185.69H154.242V182.428Z" fill="#FFC727"/>
<path d="M151.651 186.312H149.72V189.573H151.651V186.312Z" fill="#FFC727"/>
<path d="M154.242 186.312H152.311V189.573H154.242V186.312Z" fill="#FFC727"/>
<path d="M165.994 181.726H159.998V190.297H165.994V181.726Z" fill="#FBFAFF"/>
<path d="M162.668 182.428H160.737V185.69H162.668V182.428Z" fill="#FFC727"/>
<path d="M165.253 182.428H163.322V185.69H165.253V182.428Z" fill="#FFC727"/>
<path d="M162.668 186.312H160.737V189.573H162.668V186.312Z" fill="#FFC727"/>
<path d="M165.253 186.312H163.322V189.573H165.253V186.312Z" fill="#FFC727"/>
<path d="M181.549 193.276H188.161V181.269H181.549V193.276Z" fill="#FBFAFF"/>
<path d="M185.57 182.099H184.145V183.897H185.57V182.099Z" fill="#FFC727"/>
<path d="M183.703 182.099H182.277V183.897H183.703V182.099Z" fill="#FFC727"/>
<path d="M183.352 190.419H186.357V189.983H183.352V190.419Z" fill="#FFC727"/>
<path d="M187.433 182.099H186.007V183.897H187.433V182.099Z" fill="#FFC727"/>
<path d="M185.57 184.37H184.145V186.168H185.57V184.37Z" fill="#FFC727"/>
<path d="M183.703 184.37H182.277V186.168H183.703V184.37Z" fill="#FFC727"/>
<path d="M187.433 184.37H186.007V186.168H187.433V184.37Z" fill="#FFC727"/>
<path d="M185.57 186.642H184.145V188.44H185.57V186.642Z" fill="#FFC727"/>
<path d="M183.703 186.642H182.277V188.44H183.703V186.642Z" fill="#FFC727"/>
<path d="M187.433 186.642H186.007V188.44H187.433V186.642Z" fill="#FFC727"/>
<path d="M160.854 158.622H152.151L147.677 164.208H157.529L160.854 158.622Z" fill="#FFC727"/>
<path opacity="0.4" d="M160.854 158.622H152.151L147.677 164.208H157.529L160.854 158.622Z" fill="black"/>
<path d="M154.262 163.229V170.001H149.416V163.229L151.842 160.202L154.262 163.229Z" fill="#FFC727"/>
<path opacity="0.2" d="M154.262 163.229V170.001H149.416V163.229L151.842 160.202L154.262 163.229Z" fill="black"/>
<path d="M154.263 163.229H158.072L154.263 170.001V163.229Z" fill="#FFC727"/>
<path d="M153.087 163.335H150.337V167.98H153.087V163.335Z" fill="#FBFAFF"/>
<path d="M151.566 163.655H150.678V165.15H151.566V163.655Z" fill="#FFC727"/>
<path d="M152.752 163.655H151.863V165.15H152.752V163.655Z" fill="#FFC727"/>
<path d="M151.566 165.426H150.678V167.645H151.566V165.426Z" fill="#FFC727"/>
<path d="M152.752 165.426H151.863V167.645H152.752V165.426Z" fill="#FFC727"/>
<path d="M211.313 93.9433C213.682 95.958 215.445 98.5915 216.404 101.55C217.364 104.508 217.482 107.675 216.746 110.697C216.01 113.719 214.448 116.476 212.236 118.662C210.023 120.848 207.247 122.376 204.216 123.075L200.492 130.698L196.88 123.128C194.179 122.549 191.665 121.306 189.565 119.511C187.887 118.082 186.506 116.337 185.501 114.375C184.497 112.413 183.889 110.272 183.712 108.075C183.354 103.638 184.773 99.2409 187.658 95.8504C190.543 92.46 194.656 90.3544 199.093 89.9967C203.53 89.639 207.928 91.0587 211.318 93.9433H211.313Z" fill="white"/>
<path d="M211.313 93.9433C213.681 95.9585 215.447 98.5895 216.414 101.545C216.657 102.281 216.852 103.03 217 103.79C217.127 104.554 217.207 105.325 217.239 106.099C217.311 107.651 217.166 109.205 216.808 110.717C216.456 112.232 215.896 113.691 215.143 115.052C214.762 115.731 214.334 116.382 213.861 117C213.404 117.63 212.899 118.224 212.35 118.776C210.132 121.011 207.333 122.581 204.269 123.309L204.434 123.181L200.753 130.826L200.487 131.384L200.221 130.826L196.582 123.272L196.805 123.447C193.635 122.76 190.728 121.179 188.428 118.892C186.129 116.605 184.532 113.706 183.827 110.54C183.123 107.374 183.34 104.072 184.453 101.025C185.566 97.9783 187.528 95.314 190.108 93.3474C192.154 91.8138 194.517 90.756 197.024 90.2513C199.529 89.744 202.118 89.8127 204.593 90.4523C207.068 91.0919 209.366 92.2856 211.313 93.9433ZM211.313 93.9433C209.379 92.2929 207.093 91.1084 204.63 90.4812C202.166 89.8539 199.592 89.8006 197.105 90.3254C194.618 90.8502 192.284 91.939 190.284 93.5079C188.285 95.0769 186.672 97.0841 185.57 99.3748C184.471 101.639 183.904 104.125 183.91 106.642C183.941 109.147 184.515 111.615 185.591 113.877C186.683 116.127 188.271 118.101 190.235 119.649C192.204 121.189 194.492 122.269 196.933 122.809L197.093 122.846L197.157 122.99L200.747 130.57H200.215L203.998 122.974L204.046 122.867H204.157C207.165 122.209 209.929 120.724 212.137 118.58C212.686 118.044 213.193 117.468 213.653 116.856C214.129 116.255 214.562 115.62 214.946 114.957C215.717 113.626 216.298 112.193 216.67 110.701C217.055 109.208 217.22 107.666 217.159 106.126C217.132 105.356 217.059 104.589 216.941 103.828C216.797 103.07 216.607 102.322 216.372 101.588C215.424 98.6213 213.673 95.9753 211.313 93.9433Z" fill="#263238"/>
<path d="M204.998 102.466C204.812 102.276 204.605 102.108 204.381 101.966C204.084 101.773 203.773 101.604 203.45 101.46C202.668 101.106 201.831 100.89 200.976 100.822V105.61L201.417 105.7C202.179 105.882 202.931 106.106 203.668 106.37C204.275 106.584 204.847 106.887 205.365 107.269C205.815 107.616 206.179 108.062 206.429 108.573C206.696 109.164 206.825 109.808 206.807 110.456C206.828 111.176 206.678 111.89 206.37 112.541C206.086 113.113 205.67 113.608 205.157 113.988C204.614 114.384 204.003 114.677 203.354 114.85C202.636 115.048 201.896 115.153 201.152 115.164V117.59H199.955V115.116C198.865 115.051 197.79 114.83 196.763 114.462C195.773 114.106 194.846 113.594 194.018 112.946L195.193 110.733C195.416 110.961 195.664 111.163 195.933 111.334C196.293 111.569 196.67 111.777 197.061 111.956C197.52 112.168 197.995 112.346 198.481 112.488C199.002 112.643 199.536 112.751 200.077 112.813V108.025C199.986 107.998 199.885 107.966 199.79 107.945C199.692 107.925 199.596 107.898 199.502 107.865C198.781 107.679 198.07 107.451 197.374 107.184C196.827 106.98 196.316 106.687 195.864 106.317C195.474 105.996 195.163 105.59 194.954 105.131C194.73 104.609 194.623 104.044 194.64 103.476C194.625 102.787 194.76 102.103 195.034 101.471C195.289 100.893 195.667 100.378 196.14 99.96C196.63 99.5263 197.196 99.1888 197.811 98.9651C198.495 98.7158 199.212 98.5654 199.939 98.5183V96.1829H201.136V98.5183C202.086 98.5666 203.022 98.7697 203.907 99.1194C204.702 99.4293 205.455 99.8387 206.147 100.338L204.998 102.466ZM197.38 103.061C197.361 103.342 197.413 103.623 197.532 103.878C197.652 104.133 197.833 104.353 198.061 104.519C198.695 104.918 199.393 105.206 200.125 105.37V100.822C199.377 100.803 198.645 101.036 198.045 101.481C197.823 101.679 197.649 101.923 197.534 102.196C197.419 102.47 197.366 102.765 197.38 103.061ZM204.067 110.727C204.081 110.423 204.013 110.121 203.871 109.851C203.729 109.582 203.517 109.355 203.258 109.195C202.552 108.775 201.789 108.46 200.992 108.259V112.829C201.786 112.867 202.574 112.683 203.269 112.297C203.528 112.128 203.738 111.894 203.878 111.619C204.018 111.343 204.083 111.036 204.067 110.727Z" fill="#FAB114"/>
</svg>
