<svg xmlns="http://www.w3.org/2000/svg" viewBox="0 0 48 48"><path fill="#eceff1" d="M2 9H46V39H2z"/><path fill="#263238" d="M2 9H46V18H2z"/><path fill="#d50000" d="M2 20H46V28H2z"/><path fill="#33691e" d="M2 30H46V39H2z"/><path fill="#eceff1" d="M27.688,15.854c-0.301,0.521-0.59,1.043-0.612,1.58l-8.513,15.323l0.874,0.485l8.5-15.3 c0.46-0.287,0.77-0.801,1.072-1.325c0.254-0.441,0.768-1.328,1.209-3.617C28.456,14.527,27.942,15.414,27.688,15.854z"/><path fill="#eceff1" d="M27.688,15.854c-0.301,0.521-0.59,1.043-0.612,1.58l-8.513,15.323l0.874,0.485l8.5-15.3 c0.46-0.287,0.77-0.801,1.072-1.325c0.254-0.441,0.768-1.328,1.209-3.617C28.456,14.527,27.942,15.414,27.688,15.854z"/><path fill="#eceff1" d="M20.312,15.854c0.301,0.521,0.59,1.043,0.612,1.58l8.513,15.323l-0.874,0.485l-8.5-15.3 c-0.46-0.287-0.77-0.801-1.072-1.325c-0.254-0.441-0.768-1.328-1.209-3.617C19.544,14.527,20.058,15.414,20.312,15.854z"/><path fill="#d50000" d="M27.958,19.5C27.333,18,25.25,15,24,15s-3.333,3-3.958,4.5S19,22.5,19,24s0.417,3,1.042,4.5 S22.75,33,24,33s3.333-3,3.958-4.5S29,25.5,29,24S28.583,21,27.958,19.5z"/><path d="M19 24c0 1.478.407 2.956 1.016 4.433.585-1.478.976-2.956.976-4.433s-.39-2.956-.976-4.433C19.407 21.044 19 22.522 19 24zM29 24c0 1.478-.407 2.956-1.016 4.433-.585-1.478-.976-2.956-.976-4.433s.39-2.956.976-4.433C28.593 21.044 29 22.522 29 24z"/><path fill="#eceff1" d="M24 23A1 1 0 1 0 24 25 1 1 0 1 0 24 23zM24 15c0 0-1 1.524-1 4s1 4 1 4 1-1.524 1-4S24 15 24 15zM24 25c0 0-1 1.524-1 4s1 4 1 4 1-1.524 1-4S24 25 24 25z"/></svg>