<svg width="1440" height="144" viewBox="0 0 1440 144" fill="none" xmlns="http://www.w3.org/2000/svg">
<g opacity="0.5">
<path d="M86.1499 92.3538C80.4763 90.0311 75.1245 86.9906 70.2256 83.3068C72.8176 79.2741 75.8937 75.5735 79.3853 72.2874C81.1283 70.7278 83.1699 69.5379 85.3865 68.7896C86.5025 68.4337 87.689 68.3579 88.8413 68.5689C89.9935 68.7799 91.076 69.2712 91.9932 69.9994C92.7825 70.8141 93.3699 71.8022 93.7081 72.8846C94.0464 73.967 94.1261 75.1135 93.9409 76.2323C93.5288 78.4723 92.7554 80.6306 91.651 82.623C90.0191 85.9893 87.7818 88.9874 86.1499 92.3538Z" fill="white"/>
<path d="M67.6195 86.6738C73.0196 89.5223 78.0273 93.0584 82.5173 97.1935C79.5189 100.948 76.0715 104.322 72.252 107.24C70.3667 108.62 68.216 109.596 65.935 110.107C64.7893 110.348 63.6016 110.304 62.4769 109.978C61.3523 109.653 60.3252 109.055 59.4863 108.239C58.7815 107.346 58.2974 106.3 58.0733 105.185C57.8492 104.07 57.8914 102.918 58.1965 101.822C58.8403 99.6464 59.8264 97.5868 61.1182 95.7208C63.1975 92.6175 65.6454 89.856 67.6195 86.6738Z" fill="white"/>
<path d="M185.591 18.4012C180.824 22.2465 175.588 25.4719 170.008 28.0004C167.72 23.7853 165.952 19.3079 164.744 14.6666C164.21 12.3979 164.147 10.0438 164.56 7.74993C164.715 6.5927 165.184 5.49974 165.914 4.58876C166.645 3.67779 167.611 2.98334 168.708 2.5802C169.805 2.17707 170.991 2.08051 172.138 2.30098C173.286 2.52145 174.351 3.0506 175.22 3.83136C176.975 5.26946 178.494 6.9732 179.721 8.88077C181.853 11.9315 183.406 15.3505 185.591 18.4012Z" fill="#4B855A"/>
<path d="M171.693 31.8927C176.823 28.5653 182.361 25.9135 188.17 24.0029C190.014 28.432 191.314 33.0682 192.04 37.81C192.355 40.1269 192.175 42.4841 191.513 44.7267C191.242 45.8599 190.666 46.8975 189.847 47.7272C189.029 48.5569 187.998 49.1473 186.868 49.4343C185.738 49.7213 184.551 49.6942 183.435 49.3558C182.319 49.0174 181.317 48.3807 180.537 47.5144C178.935 45.9053 177.602 44.0495 176.589 42.0179C174.747 38.8357 173.536 35.1538 171.693 31.8927Z" fill="white"/>
<path d="M4.79152 21.2677C1.75892 15.9427 -0.576419 10.2506 -2.15723 4.33093C2.36914 2.75477 7.07179 1.73907 11.8456 1.30652C14.1774 1.10965 16.524 1.433 18.7154 2.25326C19.8118 2.65504 20.7917 3.32153 21.5678 4.19337C22.3439 5.0652 22.8922 6.11529 23.1637 7.25012C23.2896 8.38172 23.1453 9.52706 22.7427 10.5922C22.34 11.6573 21.6906 12.612 20.8474 13.3779C19.1462 14.8731 17.2183 16.0892 15.1357 16.9809C11.7666 18.6378 8.13431 19.6108 4.79152 21.2677Z" fill="white"/>
<path d="M301.352 102.534C295.792 105.11 289.928 106.974 283.901 108.083C282.683 103.437 282.046 98.6579 282.006 93.8552C282.024 91.5218 282.535 89.2186 283.506 87.0963C283.934 86.0115 284.651 85.0644 285.58 84.3577C286.508 83.651 287.612 83.2115 288.773 83.0869C289.933 82.9623 291.105 83.1573 292.163 83.6508C293.22 84.1443 294.123 84.9175 294.772 85.8866C296.131 87.7084 297.197 89.7316 297.93 91.8828C299.299 95.3543 300.089 99.0625 301.352 102.534Z" fill="#4B855A"/>
<path d="M284.585 112.264C290.366 110.26 296.382 109.014 302.483 108.556C303.214 113.298 303.356 118.112 302.904 122.889C302.65 125.21 301.906 127.451 300.72 129.464C300.125 130.471 299.29 131.315 298.288 131.921C297.287 132.527 296.151 132.875 294.982 132.935C293.846 132.852 292.747 132.498 291.776 131.903C290.805 131.308 289.991 130.49 289.402 129.516C288.234 127.569 287.39 125.447 286.901 123.231C285.901 119.628 285.585 115.867 284.585 112.264Z" fill="white"/>
<path d="M39.5073 67.3438C42.4378 71.2185 45.3419 75.1021 48.2196 78.9944C48.5628 79.3351 48.8258 79.7479 48.9897 80.2027C49.1536 80.6576 49.2143 81.1432 49.1672 81.6243C48.9821 82.2077 48.6241 82.7212 48.1407 83.0971C42.543 88.5323 36.6909 93.6957 30.5844 98.5874C29.7695 99.4326 28.7795 100.089 27.6837 100.512C26.5879 100.934 25.413 101.112 24.2411 101.033C23.0708 100.713 21.99 100.128 21.0825 99.3238C13.4494 93.0645 5.87765 86.7177 -1.63265 80.2831C-2.25667 80.0064 -2.79881 79.5738 -3.20688 79.0269C-3.61495 78.4801 -3.87522 77.8374 -3.9625 77.1609C-4.04979 76.4844 -3.96116 75.7968 -3.70522 75.1644C-3.44928 74.532 -3.03461 73.9762 -2.50122 73.5505L3.89481 65.6606C5.89522 66.3707 9.3696 66.3707 11.37 67.0808C13.3704 67.7908 15.2919 68.8691 15.0023 70.7364C14.8181 71.8936 13.7126 72.6562 13.2125 73.7345C12.9684 74.3653 12.8862 75.0472 12.9736 75.7179C13.0609 76.3886 13.315 77.0269 13.7126 77.5743C14.517 78.6495 15.4955 79.5828 16.6079 80.3357C18.5376 82.1192 21.0867 83.0814 23.7146 83.0182C25.8863 82.4509 27.8103 81.1847 29.1894 79.4152C29.635 79.0346 29.9407 78.5163 30.0581 77.9424C30.028 77.4306 29.8342 76.942 29.5053 76.5485L26.4783 71.8409C26.2293 71.5494 26.1063 71.1711 26.1362 70.789C26.1362 70.2893 26.7679 70.0526 27.2153 69.8685C31.2234 68.6399 35.3392 67.7945 39.5073 67.3438Z" fill="#4B855A"/>
<path d="M205.806 56.6406L218.967 62.6895C219.835 63.084 220.809 63.5836 221.046 64.5304C221.147 65.1344 221.074 65.7546 220.836 66.3188C218.546 73.7615 215.861 81.099 212.939 88.305C212.018 90.4615 210.807 92.8811 208.544 93.5648C207.356 93.7956 206.131 93.7506 204.964 93.4334C195.26 91.6801 185.565 89.7339 175.879 87.5949C175.132 87.5401 174.404 87.3263 173.746 86.968C173.088 86.6097 172.514 86.1151 172.063 85.5173C171.636 84.435 171.58 83.2418 171.905 82.1246C172.484 78.7583 173.063 75.392 173.668 72.0257C175.748 71.6575 178.801 70.0007 180.906 69.6588C183.012 69.3169 185.197 69.3958 185.829 71.1316C186.25 72.2361 185.618 73.4722 185.829 74.6293C185.925 75.2984 186.184 75.9337 186.583 76.4794C186.982 77.0251 187.51 77.4644 188.118 77.7589C189.342 78.3198 190.649 78.6752 191.988 78.811C194.561 79.5449 197.32 79.2428 199.673 77.9694C201.305 76.4432 202.38 74.416 202.727 72.2098C202.937 71.6595 202.937 71.0508 202.727 70.5004C202.469 70.0588 202.07 69.7162 201.595 69.5273L196.673 66.8974C196.331 66.7133 195.962 66.5029 195.857 66.1347C195.834 65.8895 195.87 65.6424 195.961 65.4137C196.053 65.1851 196.197 64.9815 196.383 64.8197C199.261 61.8041 202.415 59.0656 205.806 56.6406Z" fill="white"/>
<path d="M297.878 31.1825C297.114 35.969 296.377 40.7818 295.614 45.5682C295.61 46.0457 295.502 46.5164 295.298 46.9479C295.093 47.3794 294.797 47.7612 294.43 48.0667C293.874 48.3358 293.252 48.4364 292.64 48.356C284.849 48.1631 277.066 47.5933 269.293 46.6465C268.113 46.6712 266.942 46.4312 265.867 45.9442C264.792 45.4572 263.84 44.7356 263.081 43.8325C262.546 42.7521 262.258 41.5662 262.239 40.361C261.361 30.525 260.598 20.6804 259.949 10.8269C259.727 10.1936 259.669 9.5144 259.781 8.85273C259.893 8.19107 260.171 7.56849 260.589 7.04321C261.007 6.51794 261.551 6.1071 262.171 5.84896C262.791 5.59082 263.466 5.49383 264.134 5.56709L274.347 4.51514C275.268 6.43498 277.689 8.93334 278.584 10.8532C279.479 12.773 280.032 14.9033 278.584 16.113C277.637 16.7968 276.294 16.5339 275.189 16.9284C274.569 17.2002 274.026 17.6209 273.608 18.1531C273.19 18.6854 272.91 19.3126 272.794 19.979C272.557 21.3011 272.557 22.6546 272.794 23.9766C272.61 25.2076 272.732 26.4647 273.146 27.6382C273.561 28.8118 274.257 29.866 275.174 30.709C276.09 31.552 277.199 32.1581 278.404 32.4744C279.608 32.7907 280.872 32.8077 282.085 32.5238C282.356 32.5866 282.639 32.5879 282.911 32.5277C283.183 32.4675 283.438 32.3473 283.657 32.1758C283.877 32.0044 284.055 31.7861 284.179 31.5369C284.304 31.2877 284.37 31.0139 284.375 30.7355C284.77 28.9209 285.191 27.1062 285.586 25.2915C285.634 24.9057 285.821 24.5505 286.112 24.2922C286.341 24.192 286.591 24.1515 286.84 24.1745C287.088 24.1975 287.327 24.2832 287.534 24.4236C291.18 26.3577 294.642 28.6201 297.878 31.1825Z" fill="white"/>
<path d="M47.0096 44.2277C46.4907 41.2621 45.3516 38.4393 43.6667 35.9434C42.8055 34.7112 41.5864 33.773 40.1741 33.2556C38.7619 32.7382 37.2246 32.6666 35.7704 33.0505C31.9275 34.4181 30.1903 39.8094 26.1369 40.1513C22.6362 40.4406 20.2409 36.7324 17.1087 35.1018C15.4497 34.2859 13.5692 34.0345 11.7539 34.3858C9.93858 34.7372 8.28807 35.6722 7.05404 37.048C5.92223 38.363 5.23783 39.9936 4.2113 41.4137C2.34031 43.833 -0.381367 45.4507 -3.40198 45.9391C-6.42259 46.4274 -9.51607 45.7499 -12.0552 44.0437C-12.9718 43.2899 -13.9296 42.5875 -14.9242 41.9397C-18.4512 40.0198 -23.0837 41.9397 -25.4526 45.2534C-27.5532 48.6967 -28.7987 52.5923 -29.085 56.6147L47.0096 44.2277Z" fill="#FFD77D"/>
<path d="M466.2 53.274C467.931 50.8055 469.124 48.001 469.701 45.0424C469.958 43.5636 469.758 42.0419 469.128 40.6795C468.498 39.3171 467.467 38.1786 466.174 37.4156C462.489 35.6798 457.435 38.2572 454.329 35.6273C451.697 33.3655 452.566 29.0788 451.513 25.7125C450.915 23.9598 449.761 22.4495 448.227 21.4103C446.693 20.3711 444.862 19.8595 443.011 19.9529C441.274 20.0844 439.642 20.7681 437.931 21.0574C434.889 21.4564 431.808 20.6837 429.315 18.896C426.822 17.1083 425.103 14.4397 424.507 11.4319C424.411 10.2554 424.235 9.08682 423.981 7.93411C422.849 4.06812 418.164 2.20086 414.19 2.83204C410.298 3.80113 406.69 5.67553 403.661 8.30234L466.2 53.274Z" fill="#FFD77D"/>
<path d="M366.55 73.2344C366.535 70.2265 365.899 67.2541 364.681 64.5031C364.038 63.1441 362.996 62.0132 361.693 61.2614C360.391 60.5096 358.889 60.1725 357.39 60.2952C353.363 61.0053 350.731 66.0285 346.677 65.5551C343.177 65.2395 341.413 61.1894 338.649 59.0592C337.149 57.9714 335.334 57.4033 333.481 57.4412C331.628 57.4792 329.838 58.1212 328.384 59.2695C327.042 60.3741 326.094 61.8995 324.857 63.083C322.619 65.174 319.669 66.3372 316.605 66.3372C313.541 66.3372 310.592 65.174 308.354 63.083C307.601 62.1494 306.783 61.2705 305.906 60.453C304.19 59.4008 302.164 58.9727 300.169 59.241C298.173 59.5094 296.332 60.4577 294.956 61.9258C292.324 64.9542 290.44 68.5573 289.455 72.4455L366.55 73.2344Z" fill="#FFD77D"/>
<path d="M223.018 132.094C223.752 129.18 223.886 126.147 223.413 123.179C223.137 121.703 222.417 120.346 221.35 119.289C220.282 118.232 218.918 117.524 217.438 117.261C213.385 116.893 209.542 121.101 205.725 119.707C202.409 118.524 201.751 114.184 199.592 111.397C198.428 109.961 196.824 108.946 195.026 108.509C193.229 108.072 191.338 108.237 189.643 108.977C188.064 109.714 186.748 110.897 185.247 111.765C182.542 113.203 179.389 113.558 176.431 112.757C173.473 111.956 170.931 110.059 169.323 107.452C168.826 106.379 168.255 105.342 167.612 104.349C166.228 102.888 164.38 101.954 162.383 101.704C160.386 101.455 158.364 101.906 156.663 102.981C153.311 105.231 150.548 108.252 148.608 111.791L223.018 132.094Z" fill="#FFD77D"/>
<path d="M96.2571 14.6926C91.5456 9.64309 84.4125 10.7214 78.385 12.2467C72.3574 13.7721 68.5409 19.7157 67.3301 25.3964C66.6904 28.2051 66.7828 31.1308 67.5985 33.8937C68.4142 36.6565 69.9259 39.1639 71.989 41.176C74.1429 43.2105 76.9301 44.4451 79.8853 44.6737C82.2778 44.6523 84.6399 44.1365 86.8232 43.1589C89.0065 42.1813 90.9639 40.763 92.5721 38.9931C95.949 35.8993 98.3462 31.8861 99.4683 27.4477C99.9909 25.2199 99.9721 22.8994 99.4134 20.6804C98.8547 18.4613 97.7725 16.4081 96.2571 14.6926ZM90.4927 27.3688C90.085 28.8148 89.3264 30.1379 88.2841 31.2206C87.2418 32.3033 85.9481 33.1122 84.5179 33.5754C83.0579 34.0189 81.4921 33.968 80.0641 33.4306C78.6361 32.8931 77.4258 31.8993 76.6215 30.6036C76.069 29.5224 75.8075 28.3162 75.8629 27.1035C75.9183 25.8908 76.2886 24.7133 76.9373 23.6869C79.7011 19.1634 87.4658 16.3494 90.2822 22.6086C90.9167 24.1198 90.9913 25.8076 90.4927 27.3688Z" fill="white"/>
<path d="M318.724 0.281249C311.906 1.28062 308.722 7.77654 306.563 13.5887C304.405 19.4008 307.09 25.9231 311.143 30.2099C313.095 32.3017 315.545 33.8663 318.265 34.7583C320.985 35.6503 323.886 35.8408 326.699 35.3119C329.562 34.7117 332.134 33.153 333.99 30.8937C335.345 28.9219 336.278 26.6918 336.731 24.3432C337.184 21.9946 337.147 19.578 336.622 17.2443C335.984 12.7148 334.046 8.46719 331.042 5.01517C329.514 3.30366 327.599 1.98127 325.456 1.15792C323.314 0.33457 321.006 0.0340008 318.724 0.281249ZM325.883 12.2475C326.842 13.4051 327.499 14.7814 327.798 16.2541C328.096 17.7268 328.026 19.2504 327.594 20.6895C327.212 22.0031 326.427 23.1636 325.35 24.007C324.272 24.8503 322.956 25.3338 321.588 25.389C320.221 25.4443 318.87 25.0685 317.728 24.3148C316.585 23.5612 315.709 22.4677 315.223 21.1892C313.065 16.3501 315.223 8.30255 321.935 9.59122C323.52 9.99082 324.916 10.9302 325.883 12.2475Z" fill="white"/>
<path d="M-6.5538 106.293C-13.3973 107.292 -16.5822 113.788 -18.7405 119.6C-20.8989 125.412 -18.1878 131.934 -14.1343 136.221C-12.1836 138.315 -9.7339 139.881 -7.01375 140.773C-4.2936 141.665 -1.39163 141.855 1.42151 141.323C4.27523 140.7 6.84022 139.145 8.71244 136.905C10.0731 134.936 11.0097 132.706 11.4628 130.356C11.9159 128.007 11.8756 125.589 11.3446 123.256C10.733 118.724 8.80179 114.471 5.79083 111.027C4.26002 109.311 2.34084 107.986 0.193405 107.163C-1.95403 106.339 -4.26746 106.041 -6.5538 106.293ZM0.605556 118.259C1.56187 119.418 2.21615 120.795 2.51008 122.268C2.80402 123.741 2.72843 125.264 2.29007 126.701C1.81568 128.12 0.890478 129.345 -0.344858 130.19C-1.58019 131.035 -3.05797 131.454 -4.55337 131.382C-5.75875 131.225 -6.90228 130.756 -7.87147 130.023C-8.84065 129.29 -9.6021 128.317 -10.0808 127.201C-12.2392 122.362 -10.0809 114.314 -3.36897 115.603C-1.77321 115.995 -0.366251 116.935 0.605556 118.259Z" fill="white"/>
<path d="M431.694 86.1744C432.51 93.0122 438.906 96.3785 444.67 98.7191C450.435 101.06 457.041 98.535 461.411 94.6164C463.563 92.7306 465.201 90.3301 466.173 87.6394C467.144 84.9487 467.416 82.0558 466.964 79.2313C466.446 76.3583 464.972 73.7446 462.779 71.815C460.841 70.415 458.634 69.4306 456.297 68.9237C453.959 68.4168 451.542 68.3983 449.197 68.8695C444.643 69.3873 440.336 71.2145 436.8 74.1293C435.059 75.5923 433.688 77.4462 432.801 79.5396C431.913 81.633 431.534 83.9065 431.694 86.1744ZM443.881 79.3629C445.066 78.4451 446.459 77.8331 447.937 77.5808C449.415 77.3285 450.933 77.4438 452.356 77.9164C453.769 78.4325 454.975 79.3946 455.792 80.6568C456.609 81.919 456.992 83.4128 456.883 84.912C456.661 86.0871 456.144 87.1864 455.38 88.1066C454.615 89.0268 453.629 89.7374 452.514 90.1718C447.618 92.1969 439.643 89.8037 441.117 83.15C441.517 81.5873 442.447 80.2116 443.749 79.2576L443.881 79.3629Z" fill="#4B855A"/>
<path d="M253.182 98.8509C246.365 100.008 243.338 106.583 241.312 112.421C239.285 118.26 242.128 124.756 246.286 128.937C248.279 130.992 250.762 132.506 253.501 133.339C256.241 134.171 259.147 134.295 261.947 133.697C264.784 133.011 267.312 131.401 269.133 129.121C270.428 127.114 271.295 124.861 271.68 122.503C272.065 120.146 271.96 117.734 271.37 115.419C270.646 110.904 268.615 106.698 265.527 103.322C263.972 101.652 262.041 100.376 259.895 99.5984C257.748 98.821 255.447 98.5648 253.182 98.8509ZM260.605 110.659C261.585 111.795 262.27 113.155 262.6 114.618C262.931 116.081 262.896 117.602 262.5 119.049C262.051 120.481 261.149 121.73 259.929 122.607C258.709 123.484 257.238 123.943 255.736 123.914C254.526 123.772 253.374 123.319 252.392 122.6C251.409 121.881 250.63 120.921 250.129 119.811C247.866 115.051 249.84 106.951 256.578 108.108C258.185 108.444 259.615 109.35 260.605 110.659Z" fill="white"/>
<path d="M42.8501 10.8004C42.9305 11.6675 43.2251 12.501 43.7075 13.2263C44.1898 13.9515 44.8449 14.5458 45.6139 14.9557C46.5301 15.371 47.53 15.569 48.5355 15.5343C49.8876 15.5509 51.2184 15.1968 52.3831 14.5106C53.5479 13.8244 54.5022 12.8322 55.1421 11.642C55.6331 10.5026 55.7549 9.23821 55.4906 8.02615C55.2262 6.81408 54.589 5.71505 53.6681 4.88304C52.6314 4.08741 51.3855 3.61028 50.0822 3.50973C48.7789 3.40918 47.4744 3.68954 46.3278 4.31674C45.1812 4.94393 44.2418 5.89088 43.6243 7.04209C43.0069 8.19331 42.7378 9.49908 42.8501 10.8004Z" fill="#4B855A"/>
<path d="M227.916 41.2297C227.996 42.0967 228.291 42.9303 228.773 43.6556C229.255 44.3808 229.91 44.975 230.679 45.3849C231.587 45.798 232.578 45.996 233.575 45.9635C234.931 45.982 236.266 45.629 237.435 44.9429C238.604 44.2567 239.563 43.2636 240.207 42.0713C240.698 40.9319 240.82 39.6675 240.556 38.4554C240.292 37.2434 239.654 36.1443 238.734 35.3123C237.697 34.5167 236.451 34.0395 235.148 33.9389C233.844 33.8384 232.54 34.1188 231.393 34.746C230.247 35.3732 229.307 36.3201 228.69 37.4713C228.072 38.6225 227.803 39.9284 227.916 41.2297Z" fill="white"/>
<path d="M101.653 127.254C101.736 128.124 102.035 128.959 102.522 129.685C103.009 130.41 103.669 131.003 104.443 131.41C105.35 131.825 106.341 132.023 107.338 131.988C108.69 132.005 110.021 131.651 111.186 130.965C112.351 130.278 113.305 129.286 113.945 128.096C114.436 126.957 114.558 125.692 114.293 124.48C114.029 123.268 113.392 122.169 112.471 121.337C111.434 120.542 110.188 120.064 108.885 119.964C107.582 119.863 106.277 120.144 105.131 120.771C103.984 121.398 103.045 122.345 102.427 123.496C101.81 124.647 101.541 125.953 101.653 127.254Z" fill="#FFD77D"/>
<path d="M93.335 105.137C93.4112 106.008 93.7039 106.847 94.1865 107.577C94.6691 108.308 95.3263 108.906 96.0987 109.318C97.0045 109.735 97.9984 109.924 98.9941 109.87C100.349 109.9 101.686 109.555 102.857 108.873C104.027 108.19 104.986 107.198 105.627 106.004C106.118 104.865 106.24 103.601 105.975 102.389C105.711 101.177 105.074 100.078 104.153 99.2455C103.118 98.4519 101.875 97.9756 100.574 97.8744C99.2736 97.7731 97.9715 98.0512 96.8261 98.6749C95.6806 99.2987 94.741 100.241 94.1213 101.388C93.5016 102.535 93.2285 103.837 93.335 105.137Z" fill="white"/>
<path d="M371.155 92.0126C371.232 92.8843 371.524 93.7232 372.007 94.4534C372.489 95.1836 373.147 95.7819 373.919 96.1942C374.825 96.6108 375.819 96.8003 376.814 96.7465C378.168 96.7705 379.503 96.4227 380.672 95.741C381.842 95.0593 382.802 94.0698 383.447 92.8805C383.938 91.7411 384.06 90.4768 383.796 89.2647C383.531 88.0526 382.894 86.9536 381.973 86.1216C380.938 85.328 379.695 84.8516 378.395 84.7503C377.094 84.6491 375.792 84.9272 374.646 85.551C373.501 86.1748 372.561 87.1174 371.942 88.2644C371.322 89.4114 371.049 90.7135 371.155 92.0126Z" fill="white"/>
<path d="M217.36 14.2452C217.436 15.1169 217.729 15.9558 218.211 16.6859C218.694 17.4161 219.351 18.0145 220.124 18.4268C221.042 18.8339 222.042 19.023 223.045 18.9791C224.397 18.9957 225.728 18.6416 226.893 17.9554C228.058 17.2692 229.012 16.277 229.652 15.0868C230.143 13.9474 230.265 12.6831 230 11.471C229.736 10.259 229.099 9.15985 228.178 8.32784C227.138 7.54427 225.894 7.07719 224.596 6.98269C223.297 6.8882 221.998 7.17034 220.856 7.79516C219.714 8.41997 218.776 9.36096 218.156 10.5051C217.536 11.6493 217.26 12.9479 217.36 14.2452Z" fill="white"/>
<path d="M388.159 26.7389C388.235 27.6106 388.528 28.4495 389.01 29.1796C389.493 29.9098 390.15 30.5081 390.922 30.9204C391.832 31.3254 392.823 31.5145 393.818 31.4728C395.174 31.4913 396.509 31.1383 397.678 30.4521C398.848 29.7659 399.806 28.7728 400.451 27.5805C400.942 26.4411 401.064 25.1768 400.799 23.9647C400.535 22.7526 399.898 21.6535 398.977 20.8215C397.94 20.0259 396.694 19.5488 395.391 19.4482C394.088 19.3477 392.783 19.628 391.636 20.2552C390.49 20.8824 389.55 21.8294 388.933 22.9806C388.315 24.1318 388.046 25.4376 388.159 26.7389Z" fill="white"/>
<path d="M97.4131 56.3774C97.211 56.4808 97.0319 56.6239 96.8866 56.7982C96.4392 57.4293 97.0445 58.271 97.6236 58.7969C100.406 61.291 103.411 63.527 106.599 65.477C106.915 65.6874 107.389 65.8452 107.599 65.477C107.652 65.3325 107.652 65.1743 107.599 65.0299L107.994 53.616C107.994 50.4601 105.652 52.2221 103.862 52.9848C101.644 53.9814 99.4904 55.1144 97.4131 56.3774Z" fill="#4B855A"/>
<path d="M226.732 92.3284C226.568 92.1843 226.381 92.0687 226.179 91.9865C225.442 91.7498 224.836 92.6177 224.547 93.3541C223.114 96.8033 222.004 100.378 221.23 104.032C221.23 104.4 221.23 104.899 221.52 105.005C221.656 105.055 221.805 105.055 221.941 105.005L232.838 101.559C235.865 100.613 233.391 98.9295 232.075 97.4567C230.413 95.6275 228.628 93.914 226.732 92.3284Z" fill="#4B855A"/>
<path d="M54.6963 66.0813C54.5418 66.2322 54.4169 66.4106 54.3279 66.6073C54.091 67.3699 54.9333 67.9748 55.6439 68.3167C59.0373 69.8397 62.561 71.0544 66.1724 71.946C66.5146 71.946 67.041 71.946 67.1463 71.7093C67.1853 71.5629 67.1853 71.4087 67.1463 71.2622L64.0404 60.2691C63.1981 57.2184 61.4082 59.638 59.9079 60.9266C58.0556 62.5245 56.3143 64.2467 54.6963 66.0813Z" fill="white"/>
<path d="M350.624 106.977C350.464 107.123 350.338 107.302 350.256 107.503C350.019 108.239 350.861 108.87 351.572 109.186C354.964 110.717 358.488 111.941 362.1 112.841C362.469 112.841 362.969 112.841 363.074 112.578C363.113 112.441 363.113 112.295 363.074 112.158C362.047 108.476 360.995 104.82 359.968 101.138C359.126 98.1139 357.336 100.533 355.836 101.796C353.983 103.403 352.242 105.134 350.624 106.977Z" fill="white"/>
<path d="M373.129 35.2338C372.954 35.1171 372.757 35.0366 372.55 34.9971C371.76 34.9971 371.313 35.8913 371.155 36.6539C370.397 40.3079 369.965 44.0219 369.865 47.7522C369.865 48.1204 369.865 48.6201 370.313 48.6464C370.45 48.6859 370.596 48.6859 370.734 48.6464L380.815 43.255C383.631 41.7822 380.815 40.6251 379.315 39.3628C377.346 37.8524 375.279 36.4731 373.129 35.2338Z" fill="white"/>
<path d="M314.406 95.0641C314.366 95.2725 314.366 95.4868 314.406 95.6952C314.696 96.4316 315.749 96.3527 316.512 96.116C320.09 95.0422 323.561 93.6425 326.883 91.9345C327.198 91.7504 327.593 91.4348 327.462 91.0929C327.392 90.9576 327.281 90.8473 327.146 90.7773L317.591 84.5181C314.959 82.7823 315.17 85.8067 314.959 87.7266C314.617 90.158 314.432 92.6089 314.406 95.0641Z" fill="white"/>
<path d="M213.228 43.544C213.436 43.5826 213.65 43.5826 213.859 43.544C214.649 43.4125 214.781 42.3605 214.728 41.5716C214.444 37.8509 213.827 34.1631 212.885 30.5522C212.885 30.184 212.57 29.7369 212.201 29.8158C212.056 29.8522 211.926 29.9354 211.833 30.0525L203.647 37.9423C201.357 40.1514 204.357 40.5722 206.279 41.256C208.541 42.1734 210.863 42.9378 213.228 43.544Z" fill="white"/>
<path d="M353.546 30.7886C353.483 30.5834 353.375 30.3948 353.23 30.2364C352.678 29.6841 351.73 30.2363 351.125 30.6834C348.261 33.0714 345.618 35.712 343.228 38.5732C342.992 38.8625 342.755 39.3096 343.018 39.5726C343.138 39.6678 343.286 39.723 343.439 39.7304L354.678 41.7292C357.81 42.2815 356.415 39.5989 355.915 37.7316C355.271 35.3703 354.48 33.0515 353.546 30.7886Z" fill="#4B855A"/>
<path d="M153.663 38.0742C142.895 50.7719 133.094 64.2573 124.341 78.4173C123.683 79.4692 122.683 80.6528 121.499 80.3635C121.026 80.1833 120.602 79.8951 120.261 79.5219L115.655 75.0247C125.736 59.9289 135.738 44.7279 146.898 30.3159C149.146 32.378 151.24 34.6019 153.163 36.9696C153.505 37.4693 154.137 38.3372 153.663 38.0742Z" fill="white"/>
<path d="M154.901 74.1548C153.477 71.1699 151.604 68.4205 149.347 66.002C138.261 79.1075 127.892 92.8032 118.288 107.029C120.762 108.186 123.552 109.974 126.053 111.132C135.66 98.4553 144.794 86.5154 154.901 74.1548Z" fill="#4B855A"/>
<path d="M147.004 12.5354C138.002 23.2655 129.009 34.0044 120.025 44.752C119.735 45.0939 119.367 45.4621 118.945 45.4358C118.759 45.4111 118.579 45.3495 118.416 45.2547C118.253 45.1599 118.111 45.0337 117.998 44.8835L111.76 38.5717C121.183 26.0006 130.342 13.8766 140.897 2.22607C143.117 3.52224 145.175 5.07593 147.03 6.85477C147.771 7.47256 148.312 8.29639 148.583 9.22169C148.794 10.0633 147.951 12.2987 147.004 12.5354Z" fill="white"/>
<path d="M423.797 70.0268C413.04 82.7237 403.239 96.1996 394.475 110.344C393.843 111.396 392.843 112.605 391.659 112.29C391.183 112.116 390.758 111.827 390.422 111.448L385.815 106.951C395.896 91.8552 405.898 76.6542 417.059 62.2422C419.3 64.3107 421.394 66.5341 423.323 68.8959C423.797 69.4219 424.402 70.3949 423.797 70.0268Z" fill="white"/>
<path d="M425.167 106.083C423.742 103.099 421.87 100.349 419.613 97.9307C408.538 111.052 398.162 124.747 388.527 138.958C391.028 140.115 393.792 141.903 396.292 143.06C405.926 130.384 415.164 118.47 425.167 106.083Z" fill="#4B855A"/>
<path d="M417.27 44.3587L390.291 76.5753C390.167 76.7649 390.005 76.9261 389.815 77.0485C389.624 77.1709 389.41 77.2516 389.186 77.2854C388.82 77.2076 388.493 77.0026 388.264 76.7068L382.026 70.395C391.449 57.8239 400.609 45.7263 411.164 34.0757C413.38 35.3652 415.43 36.9195 417.27 38.7044C418.032 39.3082 418.585 40.1362 418.85 41.0713C419.034 42.0181 418.218 44.2272 417.27 44.3587Z" fill="white"/>
<path d="M46.3528 113.658C46.3528 112.29 46.0895 110.633 44.8261 110.081C44.3528 109.917 43.8524 109.846 43.3521 109.87C39.325 109.87 35.2716 110.081 31.2707 110.449C29.8141 110.426 28.3966 110.92 27.2699 111.843C26.479 112.923 26.0799 114.24 26.1382 115.577C25.8517 121.19 26.3209 126.816 27.5332 132.304C27.6606 133.082 27.9281 133.83 28.3228 134.513C30.5601 138.116 41.6939 139.247 44.9314 136.196C47.1424 134.171 46.3791 129.805 46.4054 127.175C46.4844 122.652 46.4581 118.155 46.3528 113.658Z" fill="#FFD77D"/>
<path d="M354.599 0.885254C353.81 0.885254 352.836 0.885222 352.467 1.67421C352.301 2.04499 352.237 2.45385 352.283 2.85771L352.467 6.9341C352.449 7.37019 352.539 7.80405 352.731 8.1965C352.992 8.61693 353.393 8.9331 353.862 9.09067C355.627 9.84859 357.486 10.3618 359.39 10.616C365.043 11.8003 370.782 12.5303 376.551 12.7989C377.214 12.8698 377.884 12.7695 378.497 12.5076C379.11 12.2458 379.646 11.8311 380.052 11.3033C380.459 10.7755 380.724 10.1523 380.82 9.49317C380.917 8.83408 380.843 8.16125 380.605 7.53901C379.815 4.90907 377.973 4.90903 375.341 4.46194C368.523 3.27847 361.627 1.12195 354.599 0.885254Z" fill="#FFD77D"/>
<path d="M335.227 108.475C335.227 107.687 335.227 106.713 334.411 106.345C334.035 106.195 333.626 106.15 333.227 106.214L329.173 106.424C328.727 106.424 328.286 106.522 327.883 106.713C327.481 107 327.178 107.405 327.015 107.871C326.296 109.642 325.81 111.498 325.567 113.393C324.468 119.066 323.826 124.818 323.646 130.593C323.597 131.247 323.713 131.903 323.983 132.501C324.253 133.098 324.67 133.619 325.193 134.014C325.717 134.409 326.332 134.667 326.981 134.763C327.631 134.859 328.294 134.791 328.91 134.564C331.542 133.723 331.542 131.777 331.911 129.305C333.069 122.361 335.122 115.497 335.227 108.475Z" fill="#FFD77D"/>
<path d="M242.42 74.1029C241.709 74.4711 240.92 75.0497 240.972 75.8387C241.015 76.2416 241.17 76.6243 241.42 76.9432L243.631 80.3622C243.841 80.7573 244.149 81.0923 244.526 81.3352C244.967 81.549 245.463 81.6224 245.947 81.5456C247.846 81.2851 249.704 80.7814 251.474 80.0466C256.913 78.1924 262.194 75.9058 267.267 73.2088C267.882 72.9361 268.416 72.5088 268.817 71.9685C269.218 71.4282 269.472 70.7935 269.554 70.126C269.636 69.4585 269.544 68.7812 269.286 68.16C269.028 67.5388 268.614 66.9948 268.083 66.5813C266.004 64.6614 264.345 65.7134 262.003 66.5813C255.58 69.106 248.579 70.7103 242.42 74.1029Z" fill="#4B855A"/>
<path d="M586.96 92.3538C581.287 90.0311 575.935 86.9906 571.036 83.3068C573.628 79.2741 576.704 75.5735 580.196 72.2874C581.939 70.7278 583.98 69.5379 586.197 68.7896C587.313 68.4337 588.5 68.3579 589.652 68.5689C590.804 68.7799 591.887 69.2712 592.804 69.9994C593.593 70.8141 594.18 71.8022 594.519 72.8846C594.857 73.967 594.937 75.1135 594.751 76.2323C594.339 78.4723 593.566 80.6306 592.462 82.623C590.83 85.9893 588.592 88.9874 586.96 92.3538Z" fill="white"/>
<path d="M568.43 86.6738C573.83 89.5223 578.838 93.0584 583.328 97.1935C580.329 100.948 576.882 104.322 573.063 107.24C571.177 108.62 569.027 109.596 566.746 110.107C565.6 110.348 564.412 110.304 563.287 109.978C562.163 109.653 561.136 109.055 560.297 108.239C559.592 107.346 559.108 106.3 558.884 105.185C558.66 104.07 558.702 102.918 559.007 101.822C559.651 99.6464 560.637 97.5868 561.929 95.7208C564.008 92.6175 566.456 89.856 568.43 86.6738Z" fill="white"/>
<path d="M686.401 18.4012C681.634 22.2465 676.398 25.4719 670.819 28.0004C668.53 23.7853 666.762 19.3079 665.555 14.6666C665.021 12.3979 664.958 10.0438 665.371 7.74993C665.526 6.5927 665.994 5.49974 666.725 4.58876C667.456 3.67779 668.422 2.98334 669.518 2.5802C670.615 2.17707 671.801 2.08051 672.949 2.30098C674.096 2.52145 675.162 3.0506 676.031 3.83136C677.785 5.26946 679.304 6.9732 680.531 8.88077C682.663 11.9315 684.216 15.3505 686.401 18.4012Z" fill="#4B855A"/>
<path d="M672.504 31.8927C677.634 28.5653 683.172 25.9135 688.981 24.0029C690.825 28.432 692.124 33.0682 692.85 37.81C693.165 40.1269 692.986 42.4841 692.324 44.7267C692.053 45.8599 691.476 46.8975 690.658 47.7272C689.839 48.5569 688.809 49.1473 687.679 49.4343C686.549 49.7213 685.361 49.6942 684.246 49.3558C683.13 49.0174 682.128 48.3807 681.348 47.5144C679.746 45.9053 678.413 44.0495 677.4 42.0179C675.557 38.8357 674.346 35.1538 672.504 31.8927Z" fill="white"/>
<path d="M505.602 21.2677C502.569 15.9427 500.234 10.2506 498.653 4.33093C503.18 2.75477 507.882 1.73907 512.656 1.30652C514.988 1.10965 517.335 1.433 519.526 2.25326C520.622 2.65504 521.602 3.32153 522.378 4.19337C523.154 5.0652 523.703 6.11529 523.974 7.25012C524.1 8.38172 523.956 9.52706 523.553 10.5922C523.151 11.6573 522.501 12.612 521.658 13.3779C519.957 14.8731 518.029 16.0892 515.946 16.9809C512.577 18.6378 508.945 19.6108 505.602 21.2677Z" fill="white"/>
<path d="M494.52 5.35693C497.028 10.9515 498.798 16.8481 499.784 22.8986C495.11 23.9985 490.32 24.5284 485.518 24.4766C483.183 24.4035 480.889 23.8483 478.78 22.846C477.702 22.3958 476.769 21.6595 476.081 20.717C475.392 19.7745 474.976 18.6618 474.875 17.4993C474.775 16.3369 474.995 15.1692 475.512 14.1228C476.028 13.0765 476.822 12.1915 477.806 11.5636C479.652 10.2336 481.707 9.2203 483.886 8.56545C487.281 7.27679 490.993 6.6719 494.52 5.35693Z" fill="white"/>
<path d="M802.163 102.534C796.602 105.11 790.739 106.974 784.712 108.083C783.493 103.437 782.857 98.6579 782.816 93.8552C782.835 91.5218 783.346 89.2186 784.317 87.0963C784.745 86.0115 785.462 85.0644 786.39 84.3577C787.319 83.651 788.423 83.2115 789.583 83.0869C790.744 82.9623 791.916 83.1573 792.973 83.6508C794.031 84.1443 794.933 84.9175 795.582 85.8866C796.942 87.7084 798.007 89.7316 798.741 91.8828C800.109 95.3543 800.899 99.0625 802.163 102.534Z" fill="#4B855A"/>
<path d="M785.396 112.264C791.176 110.26 797.192 109.014 803.294 108.556C804.025 113.298 804.166 118.112 803.715 122.889C803.461 125.21 802.716 127.451 801.53 129.464C800.936 130.471 800.1 131.315 799.099 131.921C798.098 132.527 796.961 132.875 795.792 132.935C794.657 132.852 793.557 132.498 792.587 131.903C791.616 131.308 790.802 130.49 790.212 129.516C789.045 127.569 788.201 125.447 787.712 123.231C786.712 119.628 786.396 115.867 785.396 112.264Z" fill="white"/>
<path d="M540.318 67.3438C543.248 71.2185 546.152 75.1021 549.03 78.9944C549.373 79.3351 549.636 79.7479 549.8 80.2027C549.964 80.6576 550.025 81.1432 549.978 81.6243C549.793 82.2077 549.435 82.7212 548.951 83.0971C543.354 88.5323 537.501 93.6957 531.395 98.5874C530.58 99.4326 529.59 100.089 528.494 100.512C527.398 100.934 526.224 101.112 525.052 101.033C523.881 100.713 522.8 100.128 521.893 99.3238C514.26 93.0645 506.688 86.7177 499.178 80.2831C498.554 80.0064 498.012 79.5738 497.604 79.0269C497.196 78.4801 496.935 77.8374 496.848 77.1609C496.761 76.4844 496.849 75.7968 497.105 75.1644C497.361 74.532 497.776 73.9762 498.309 73.5505L504.705 65.6606C506.706 66.3707 510.18 66.3707 512.181 67.0808C514.181 67.7908 516.102 68.8691 515.813 70.7364C515.629 71.8936 514.523 72.6562 514.023 73.7345C513.779 74.3653 513.697 75.0472 513.784 75.7179C513.871 76.3886 514.126 77.0269 514.523 77.5743C515.328 78.6495 516.306 79.5828 517.418 80.3357C519.348 82.1192 521.897 83.0814 524.525 83.0182C526.697 82.4509 528.621 81.1847 530 79.4152C530.446 79.0346 530.751 78.5163 530.869 77.9424C530.839 77.4306 530.645 76.942 530.316 76.5485L527.289 71.8409C527.04 71.5494 526.917 71.1711 526.947 70.789C526.947 70.2893 527.578 70.0526 528.026 69.8685C532.034 68.6399 536.15 67.7945 540.318 67.3438Z" fill="#4B855A"/>
<path d="M706.617 56.6406L719.777 62.6895C720.646 63.084 721.62 63.5836 721.857 64.5304C721.957 65.1344 721.884 65.7546 721.646 66.3188C719.356 73.7615 716.672 81.099 713.75 88.305C712.829 90.4615 711.618 92.8811 709.354 93.5648C708.167 93.7956 706.942 93.7506 705.775 93.4334C696.071 91.6801 686.376 89.7339 676.69 87.5949C675.942 87.5401 675.215 87.3263 674.557 86.968C673.899 86.6097 673.325 86.1151 672.873 85.5173C672.446 84.435 672.391 83.2418 672.715 82.1246C673.294 78.7583 673.873 75.392 674.479 72.0257C676.558 71.6575 679.611 70.0007 681.717 69.6588C683.823 69.3169 686.007 69.3958 686.639 71.1316C687.06 72.2361 686.428 73.4722 686.639 74.6293C686.735 75.2984 686.994 75.9337 687.394 76.4794C687.793 77.0251 688.32 77.4644 688.929 77.7589C690.152 78.3198 691.459 78.6752 692.798 78.811C695.372 79.5449 698.131 79.2428 700.484 77.9694C702.116 76.4432 703.19 74.416 703.537 72.2098C703.748 71.6595 703.748 71.0508 703.537 70.5004C703.279 70.0588 702.881 69.7162 702.405 69.5273L697.483 66.8974C697.141 66.7133 696.773 66.5029 696.667 66.1347C696.644 65.8895 696.68 65.6424 696.772 65.4137C696.863 65.1851 697.008 64.9815 697.194 64.8197C700.071 61.8041 703.226 59.0656 706.617 56.6406Z" fill="white"/>
<path d="M798.688 31.1825C797.925 35.969 797.188 40.7818 796.425 45.5682C796.421 46.0457 796.313 46.5164 796.108 46.9479C795.904 47.3794 795.607 47.7612 795.24 48.0667C794.685 48.3358 794.062 48.4364 793.45 48.356C785.659 48.1631 777.877 47.5933 770.103 46.6465C768.923 46.6712 767.753 46.4312 766.678 45.9442C765.603 45.4572 764.651 44.7356 763.892 43.8325C763.357 42.7521 763.069 41.5662 763.049 40.361C762.172 30.525 761.409 20.6804 760.759 10.8269C760.537 10.1936 760.48 9.5144 760.592 8.85273C760.704 8.19107 760.982 7.56849 761.399 7.04321C761.817 6.51794 762.362 6.1071 762.982 5.84896C763.602 5.59082 764.277 5.49383 764.944 5.56709L775.157 4.51514C776.078 6.43498 778.5 8.93334 779.395 10.8532C780.29 12.773 780.842 14.9033 779.395 16.113C778.447 16.7968 777.105 16.5339 775.999 16.9284C775.379 17.2002 774.836 17.6209 774.418 18.1531C774 18.6854 773.721 19.3126 773.604 19.979C773.368 21.3011 773.368 22.6546 773.604 23.9766C773.421 25.2076 773.542 26.4647 773.957 27.6382C774.372 28.8118 775.068 29.866 775.984 30.709C776.901 31.552 778.01 32.1581 779.214 32.4744C780.419 32.7907 781.683 32.8077 782.896 32.5238C783.167 32.5866 783.449 32.5879 783.721 32.5277C783.993 32.4675 784.248 32.3473 784.468 32.1758C784.687 32.0044 784.866 31.7861 784.99 31.5369C785.114 31.2877 785.181 31.0139 785.186 30.7355C785.58 28.9209 786.001 27.1062 786.396 25.2915C786.445 24.9057 786.632 24.5505 786.923 24.2922C787.151 24.192 787.402 24.1515 787.65 24.1745C787.899 24.1975 788.138 24.2832 788.344 24.4236C791.991 26.3577 795.453 28.6201 798.688 31.1825Z" fill="white"/>
<path d="M547.82 44.2277C547.301 41.2621 546.162 38.4393 544.477 35.9434C543.616 34.7112 542.397 33.773 540.985 33.2556C539.572 32.7382 538.035 32.6666 536.581 33.0505C532.738 34.4181 531.001 39.8094 526.947 40.1513C523.447 40.4406 521.051 36.7324 517.919 35.1018C516.26 34.2859 514.38 34.0345 512.564 34.3858C510.749 34.7372 509.099 35.6722 507.865 37.048C506.733 38.363 506.048 39.9936 505.022 41.4137C503.151 43.833 500.429 45.4507 497.409 45.9391C494.388 46.4274 491.294 45.7499 488.755 44.0437C487.839 43.2899 486.881 42.5875 485.886 41.9397C482.359 40.0198 477.727 41.9397 475.358 45.2534C473.257 48.6967 472.012 52.5923 471.726 56.6147L547.82 44.2277Z" fill="#FFD77D"/>
<path d="M967.011 53.274C968.742 50.8055 969.935 48.001 970.512 45.0424C970.768 43.5636 970.568 42.0419 969.938 40.6795C969.308 39.3171 968.278 38.1786 966.984 37.4156C963.3 35.6798 958.246 38.2572 955.14 35.6273C952.508 33.3655 953.376 29.0788 952.324 25.7125C951.725 23.9598 950.572 22.4495 949.038 21.4103C947.504 20.3711 945.673 19.8595 943.822 19.9529C942.085 20.0844 940.453 20.7681 938.742 21.0574C935.699 21.4564 932.619 20.6837 930.126 18.896C927.633 17.1083 925.914 14.4397 925.318 11.4319C925.222 10.2554 925.046 9.08682 924.792 7.93411C923.66 4.06812 918.975 2.20086 915 2.83204C911.108 3.80113 907.501 5.67553 904.472 8.30234L967.011 53.274Z" fill="#FFD77D"/>
<path d="M867.36 73.2344C867.345 70.2265 866.709 67.2541 865.492 64.5031C864.849 63.1441 863.807 62.0132 862.504 61.2614C861.201 60.5096 859.7 60.1725 858.201 60.2952C854.173 61.0053 851.541 66.0285 847.488 65.5551C843.987 65.2395 842.224 61.1894 839.46 59.0592C837.96 57.9714 836.145 57.4033 834.292 57.4412C832.439 57.4792 830.649 58.1212 829.195 59.2695C827.852 60.3741 826.905 61.8995 825.668 63.083C823.43 65.174 820.48 66.3372 817.416 66.3372C814.352 66.3372 811.402 65.174 809.164 63.083C808.412 62.1494 807.594 61.2705 806.716 60.453C805.001 59.4008 802.974 58.9727 800.979 59.241C798.984 59.5094 797.143 60.4577 795.767 61.9258C793.135 64.9542 791.251 68.5573 790.266 72.4455L867.36 73.2344Z" fill="#FFD77D"/>
<path d="M723.829 132.094C724.562 129.18 724.697 126.147 724.224 123.179C723.947 121.703 723.228 120.346 722.16 119.289C721.093 118.232 719.728 117.524 718.249 117.261C714.195 116.893 710.352 121.101 706.536 119.707C703.219 118.524 702.561 114.184 700.403 111.397C699.238 109.961 697.634 108.946 695.837 108.509C694.04 108.072 692.148 108.237 690.454 108.977C688.874 109.714 687.558 110.897 686.058 111.765C683.352 113.203 680.2 113.558 677.242 112.757C674.284 111.956 671.742 110.059 670.134 107.452C669.637 106.379 669.065 105.342 668.423 104.349C667.039 102.888 665.19 101.954 663.193 101.704C661.196 101.455 659.174 101.906 657.473 102.981C654.121 105.231 651.359 108.252 649.419 111.791L723.829 132.094Z" fill="#FFD77D"/>
<path d="M597.068 14.6926C592.356 9.64309 585.223 10.7214 579.196 12.2467C573.168 13.7721 569.351 19.7157 568.141 25.3964C567.501 28.2051 567.593 31.1308 568.409 33.8937C569.225 36.6565 570.736 39.1639 572.8 41.176C574.953 43.2105 577.741 44.4451 580.696 44.6737C583.088 44.6523 585.45 44.1365 587.634 43.1589C589.817 42.1813 591.774 40.763 593.383 38.9931C596.76 35.8993 599.157 31.8861 600.279 27.4477C600.801 25.2199 600.783 22.8994 600.224 20.6804C599.665 18.4613 598.583 16.4081 597.068 14.6926ZM591.303 27.3688C590.896 28.8148 590.137 30.1379 589.095 31.2206C588.052 32.3033 586.759 33.1122 585.328 33.5754C583.868 34.0189 582.303 33.968 580.875 33.4306C579.447 32.8931 578.236 31.8993 577.432 30.6036C576.88 29.5224 576.618 28.3162 576.673 27.1035C576.729 25.8908 577.099 24.7133 577.748 23.6869C580.512 19.1634 588.276 16.3494 591.093 22.6086C591.727 24.1198 591.802 25.8076 591.303 27.3688Z" fill="white"/>
<path d="M819.534 0.281249C812.717 1.28062 809.532 7.77654 807.374 13.5887C805.215 19.4008 807.9 25.9231 811.954 30.2099C813.906 32.3017 816.356 33.8663 819.075 34.7583C821.795 35.6503 824.696 35.8408 827.509 35.3119C830.372 34.7117 832.945 33.153 834.8 30.8937C836.155 28.9219 837.088 26.6918 837.541 24.3432C837.994 21.9946 837.957 19.578 837.433 17.2443C836.794 12.7148 834.856 8.46719 831.852 5.01517C830.324 3.30366 828.409 1.98127 826.267 1.15792C824.124 0.33457 821.816 0.0340008 819.534 0.281249ZM826.693 12.2475C827.652 13.4051 828.31 14.7814 828.608 16.2541C828.907 17.7268 828.837 19.2504 828.404 20.6895C828.023 22.0031 827.238 23.1636 826.16 24.007C825.082 24.8503 823.767 25.3338 822.399 25.389C821.031 25.4443 819.681 25.0685 818.538 24.3148C817.396 23.5612 816.52 22.4677 816.033 21.1892C813.875 16.3501 816.033 8.30255 822.745 9.59122C824.331 9.99082 825.727 10.9302 826.693 12.2475Z" fill="white"/>
<path d="M494.257 106.293C487.413 107.292 484.228 113.788 482.07 119.6C479.912 125.412 482.623 131.934 486.676 136.221C488.627 138.315 491.077 139.881 493.797 140.773C496.517 141.665 499.419 141.855 502.232 141.323C505.086 140.7 507.651 139.145 509.523 136.905C510.884 134.936 511.82 132.706 512.273 130.356C512.726 128.007 512.686 125.589 512.155 123.256C511.544 118.724 509.612 114.471 506.601 111.027C505.071 109.311 503.151 107.986 501.004 107.163C498.857 106.339 496.543 106.041 494.257 106.293ZM501.416 118.259C502.372 119.418 503.027 120.795 503.321 122.268C503.615 123.741 503.539 125.264 503.101 126.701C502.626 128.12 501.701 129.345 500.466 130.19C499.23 131.035 497.753 131.454 496.257 131.382C495.052 131.225 493.908 130.756 492.939 130.023C491.97 129.29 491.208 128.317 490.73 127.201C488.571 122.362 490.73 114.314 497.442 115.603C499.037 115.995 500.444 116.935 501.416 118.259Z" fill="white"/>
<path d="M932.504 86.1744C933.32 93.0122 939.716 96.3785 945.481 98.7191C951.245 101.06 957.852 98.535 962.221 94.6164C964.373 92.7306 966.012 90.3301 966.983 87.6394C967.955 84.9487 968.227 82.0558 967.775 79.2313C967.257 76.3583 965.782 73.7446 963.59 71.815C961.651 70.415 959.444 69.4306 957.107 68.9237C954.77 68.4168 952.353 68.3983 950.008 68.8695C945.453 69.3873 941.147 71.2145 937.611 74.1293C935.869 75.5923 934.499 77.4462 933.611 79.5396C932.724 81.633 932.344 83.9065 932.504 86.1744ZM944.691 79.3629C945.876 78.4451 947.27 77.8331 948.748 77.5808C950.226 77.3285 951.744 77.4438 953.167 77.9164C954.579 78.4325 955.786 79.3946 956.603 80.6568C957.419 81.919 957.802 83.4128 957.694 84.912C957.472 86.0871 956.954 87.1864 956.19 88.1066C955.426 89.0268 954.44 89.7374 953.325 90.1718C948.429 92.1969 940.453 89.8037 941.927 83.15C942.328 81.5873 943.258 80.2116 944.56 79.2576L944.691 79.3629Z" fill="#4B855A"/>
<path d="M753.993 98.8509C747.176 100.008 744.149 106.583 742.122 112.421C740.095 118.26 742.938 124.756 747.097 128.937C749.09 130.992 751.573 132.506 754.312 133.339C757.051 134.171 759.958 134.295 762.758 133.697C765.595 133.011 768.123 131.401 769.944 129.121C771.239 127.114 772.106 124.861 772.491 122.503C772.876 120.146 772.77 117.734 772.181 115.419C771.456 110.904 769.425 106.698 766.338 103.322C764.782 101.652 762.851 100.376 760.705 99.5984C758.559 98.821 756.258 98.5648 753.993 98.8509ZM761.416 110.659C762.395 111.795 763.08 113.155 763.411 114.618C763.741 116.081 763.707 117.602 763.311 119.049C762.861 120.481 761.959 121.73 760.74 122.607C759.52 123.484 758.049 123.943 756.546 123.914C755.337 123.772 754.185 123.319 753.202 122.6C752.22 121.881 751.44 120.921 750.94 119.811C748.676 115.051 750.65 106.951 757.388 108.108C758.995 108.444 760.426 109.35 761.416 110.659Z" fill="white"/>
<path d="M473.305 99.8764C473.515 100.481 473.752 101.139 474.358 101.376C474.963 101.612 476.147 100.771 476.674 99.9291C478.437 97.0625 480.148 94.1695 481.754 91.1977C482.39 90.2092 482.812 89.0982 482.991 87.9366C483.037 87.6429 482.972 87.3424 482.807 87.095C482.621 86.9259 482.394 86.808 482.149 86.7531C479.8 86.165 477.384 85.8909 474.963 85.9378C471.831 85.9378 469.225 85.3329 469.962 89.2252C470.594 92.6178 473.305 96.4312 473.305 99.8764Z" fill="#4B855A"/>
<path d="M543.661 10.8004C543.741 11.6675 544.036 12.501 544.518 13.2263C545 13.9515 545.655 14.5458 546.424 14.9557C547.341 15.371 548.341 15.569 549.346 15.5343C550.698 15.5509 552.029 15.1968 553.194 14.5106C554.358 13.8244 555.313 12.8322 555.953 11.642C556.444 10.5026 556.565 9.23821 556.301 8.02615C556.037 6.81408 555.4 5.71505 554.479 4.88304C553.442 4.08741 552.196 3.61028 550.893 3.50973C549.589 3.40918 548.285 3.68954 547.138 4.31674C545.992 4.94393 545.052 5.89088 544.435 7.04209C543.817 8.19331 543.548 9.49908 543.661 10.8004Z" fill="#4B855A"/>
<path d="M728.726 41.2297C728.806 42.0967 729.101 42.9303 729.583 43.6556C730.066 44.3808 730.721 44.975 731.49 45.3849C732.397 45.798 733.388 45.996 734.385 45.9635C735.741 45.982 737.076 45.629 738.246 44.9429C739.415 44.2567 740.374 43.2636 741.018 42.0713C741.509 40.9319 741.631 39.6675 741.366 38.4554C741.102 37.2434 740.465 36.1443 739.544 35.3123C738.507 34.5167 737.261 34.0395 735.958 33.9389C734.655 33.8384 733.35 34.1188 732.204 34.746C731.057 35.3732 730.118 36.3201 729.5 37.4713C728.883 38.6225 728.614 39.9284 728.726 41.2297Z" fill="white"/>
<path d="M602.463 127.254C602.546 128.124 602.845 128.959 603.332 129.685C603.819 130.41 604.48 131.003 605.253 131.41C606.161 131.825 607.152 132.023 608.149 131.988C609.501 132.005 610.832 131.651 611.996 130.965C613.161 130.278 614.115 129.286 614.755 128.096C615.246 126.957 615.368 125.692 615.104 124.48C614.84 123.268 614.202 122.169 613.281 121.337C612.245 120.542 610.999 120.064 609.696 119.964C608.392 119.863 607.088 120.144 605.941 120.771C604.794 121.398 603.855 122.345 603.238 123.496C602.62 124.647 602.351 125.953 602.463 127.254Z" fill="#FFD77D"/>
<path d="M594.146 105.137C594.222 106.008 594.514 106.847 594.997 107.577C595.48 108.308 596.137 108.906 596.909 109.318C597.815 109.735 598.809 109.924 599.805 109.87C601.16 109.9 602.496 109.555 603.667 108.873C604.838 108.19 605.797 107.198 606.438 106.004C606.928 104.865 607.05 103.601 606.786 102.389C606.522 101.177 605.884 100.078 604.964 99.2455C603.929 98.4519 602.685 97.9756 601.385 97.8744C600.084 97.7731 598.782 98.0512 597.637 98.6749C596.491 99.2987 595.552 100.241 594.932 101.388C594.312 102.535 594.039 103.837 594.146 105.137Z" fill="white"/>
<path d="M871.966 92.0126C872.042 92.8843 872.335 93.7232 872.817 94.4534C873.3 95.1836 873.957 95.7819 874.73 96.1942C875.635 96.6108 876.629 96.8003 877.625 96.7465C878.979 96.7705 880.313 96.4227 881.483 95.741C882.652 95.0593 883.612 94.0698 884.258 92.8805C884.749 91.7411 884.871 90.4768 884.606 89.2647C884.342 88.0526 883.705 86.9536 882.784 86.1216C881.749 85.328 880.506 84.8516 879.205 84.7503C877.905 84.6491 876.602 84.9272 875.457 85.551C874.312 86.1748 873.372 87.1174 872.752 88.2644C872.132 89.4114 871.859 90.7135 871.966 92.0126Z" fill="white"/>
<path d="M718.171 14.2452C718.247 15.1169 718.539 15.9558 719.022 16.6859C719.505 17.4161 720.162 18.0145 720.934 18.4268C721.852 18.8339 722.852 19.023 723.856 18.9791C725.208 18.9957 726.539 18.6416 727.704 17.9554C728.868 17.2692 729.823 16.277 730.462 15.0868C730.953 13.9474 731.075 12.6831 730.811 11.471C730.547 10.259 729.909 9.15985 728.988 8.32784C727.949 7.54427 726.705 7.07719 725.406 6.98269C724.107 6.8882 722.809 7.17034 721.667 7.79516C720.524 8.41997 719.587 9.36096 718.967 10.5051C718.347 11.6493 718.07 12.9479 718.171 14.2452Z" fill="white"/>
<path d="M888.969 26.7389C889.045 27.6106 889.338 28.4495 889.821 29.1796C890.303 29.9098 890.961 30.5081 891.733 30.9204C892.643 31.3254 893.633 31.5145 894.628 31.4728C895.984 31.4913 897.319 31.1383 898.489 30.4521C899.658 29.7659 900.617 28.7728 901.261 27.5805C901.752 26.4411 901.874 25.1768 901.61 23.9647C901.345 22.7526 900.708 21.6535 899.787 20.8215C898.751 20.0259 897.505 19.5488 896.201 19.4482C894.898 19.3477 893.594 19.628 892.447 20.2552C891.3 20.8824 890.361 21.8294 889.743 22.9806C889.126 24.1318 888.857 25.4376 888.969 26.7389Z" fill="white"/>
<path d="M469.831 74.4976C469.91 75.3719 470.206 76.2125 470.694 76.9429C471.181 77.6732 471.843 78.2702 472.621 78.6792C473.529 79.0888 474.521 79.2781 475.516 79.2314C476.868 79.2481 478.199 78.8941 479.364 78.2078C480.529 77.5216 481.483 76.5294 482.123 75.3392C482.614 74.1998 482.736 72.9354 482.471 71.7234C482.207 70.5113 481.57 69.4123 480.649 68.5803C479.609 67.7967 478.365 67.3296 477.066 67.2351C475.768 67.1406 474.469 67.4228 473.327 68.0476C472.185 68.6724 471.247 69.6134 470.627 70.7575C470.007 71.9017 469.73 73.2003 469.831 74.4976Z" fill="white"/>
<path d="M598.224 56.3774C598.022 56.4808 597.842 56.6239 597.697 56.7982C597.25 57.4293 597.855 58.271 598.434 58.7969C601.217 61.291 604.221 63.527 607.41 65.477C607.726 65.6874 608.199 65.8452 608.41 65.477C608.462 65.3325 608.462 65.1743 608.41 65.0299L608.805 53.616C608.805 50.4601 606.462 52.2221 604.672 52.9848C602.455 53.9814 600.301 55.1144 598.224 56.3774Z" fill="#4B855A"/>
<path d="M727.542 92.3284C727.378 92.1843 727.192 92.0687 726.989 91.9865C726.252 91.7498 725.647 92.6177 725.357 93.3541C723.924 96.8033 722.814 100.378 722.041 104.032C722.041 104.4 722.041 104.899 722.331 105.005C722.466 105.055 722.616 105.055 722.752 105.005L733.649 101.559C736.676 100.613 734.201 98.9295 732.885 97.4567C731.223 95.6275 729.438 93.914 727.542 92.3284Z" fill="#4B855A"/>
<path d="M555.507 66.0813C555.352 66.2322 555.227 66.4106 555.138 66.6073C554.902 67.3699 555.744 67.9748 556.454 68.3167C559.848 69.8397 563.372 71.0544 566.983 71.946C567.325 71.946 567.852 71.946 567.957 71.7093C567.996 71.5629 567.996 71.4087 567.957 71.2622L564.851 60.2691C564.009 57.2184 562.219 59.638 560.718 60.9266C558.866 62.5245 557.125 64.2467 555.507 66.0813Z" fill="white"/>
<path d="M851.435 106.977C851.275 107.123 851.149 107.302 851.066 107.503C850.829 108.239 851.672 108.87 852.382 109.186C855.775 110.717 859.299 111.941 862.911 112.841C863.279 112.841 863.779 112.841 863.885 112.578C863.924 112.441 863.924 112.295 863.885 112.158C862.858 108.476 861.805 104.82 860.779 101.138C859.936 98.1139 858.147 100.533 856.646 101.796C854.793 103.403 853.052 105.134 851.435 106.977Z" fill="white"/>
<path d="M873.94 35.2338C873.764 35.1171 873.567 35.0366 873.361 34.9971C872.571 34.9971 872.123 35.8913 871.965 36.6539C871.207 40.3079 870.776 44.0219 870.676 47.7522C870.676 48.1204 870.676 48.6201 871.123 48.6464C871.261 48.6859 871.407 48.6859 871.544 48.6464L881.625 43.255C884.442 41.7822 881.625 40.6251 880.125 39.3628C878.156 37.8524 876.09 36.4731 873.94 35.2338Z" fill="white"/>
<path d="M815.217 95.0641C815.176 95.2725 815.176 95.4868 815.217 95.6952C815.506 96.4316 816.559 96.3527 817.323 96.116C820.9 95.0422 824.372 93.6425 827.693 91.9345C828.009 91.7504 828.404 91.4348 828.272 91.0929C828.202 90.9576 828.092 90.8473 827.956 90.7773L818.402 84.5181C815.77 82.7823 815.98 85.8067 815.77 87.7266C815.428 90.158 815.243 92.6089 815.217 95.0641Z" fill="white"/>
<path d="M714.038 43.544C714.247 43.5826 714.461 43.5826 714.67 43.544C715.459 43.4125 715.591 42.3605 715.538 41.5716C715.254 37.8509 714.637 34.1631 713.696 30.5522C713.696 30.184 713.38 29.7369 713.012 29.8158C712.866 29.8522 712.737 29.9354 712.643 30.0525L704.457 37.9423C702.167 40.1514 705.168 40.5722 707.089 41.256C709.352 42.1734 711.673 42.9378 714.038 43.544Z" fill="white"/>
<path d="M854.357 30.7886C854.294 30.5834 854.186 30.3948 854.041 30.2364C853.488 29.6841 852.541 30.2363 851.935 30.6834C849.072 33.0714 846.429 35.712 844.039 38.5732C843.802 38.8625 843.565 39.3096 843.828 39.5726C843.949 39.6678 844.096 39.723 844.25 39.7304L855.489 41.7292C858.621 42.2815 857.226 39.5989 856.726 37.7316C856.081 35.3703 855.29 33.0515 854.357 30.7886Z" fill="#4B855A"/>
<path d="M654.474 38.0742C643.706 50.7719 633.904 64.2573 625.152 78.4173C624.494 79.4692 623.494 80.6528 622.309 80.3635C621.837 80.1833 621.413 79.8951 621.072 79.5219L616.466 75.0247C626.547 59.9289 636.549 44.7279 647.709 30.3159C649.957 32.378 652.051 34.6019 653.973 36.9696C654.316 37.4693 654.947 38.3372 654.474 38.0742Z" fill="white"/>
<path d="M655.711 74.1548C654.287 71.1699 652.414 68.4205 650.158 66.002C639.071 79.1075 628.703 92.8032 619.099 107.029C621.573 108.186 624.363 109.974 626.863 111.132C636.471 98.4553 645.604 86.5154 655.711 74.1548Z" fill="#4B855A"/>
<path d="M647.814 12.5354C638.812 23.2655 629.819 34.0044 620.835 44.752C620.546 45.0939 620.177 45.4621 619.756 45.4358C619.569 45.4111 619.389 45.3495 619.227 45.2547C619.064 45.1599 618.922 45.0337 618.808 44.8835L612.57 38.5717C621.993 26.0006 631.153 13.8766 641.708 2.22607C643.927 3.52224 645.986 5.07593 647.841 6.85477C648.582 7.47256 649.122 8.29639 649.394 9.22169C649.604 10.0633 648.762 12.2987 647.814 12.5354Z" fill="white"/>
<path d="M924.607 70.0268C913.85 82.7237 904.05 96.1996 895.286 110.344C894.654 111.396 893.654 112.605 892.469 112.29C891.993 112.116 891.568 111.827 891.232 111.448L886.626 106.951C896.707 91.8552 906.709 76.6542 917.869 62.2422C920.111 64.3107 922.204 66.5341 924.134 68.8959C924.607 69.4219 925.213 70.3949 924.607 70.0268Z" fill="white"/>
<path d="M925.977 106.083C924.553 103.099 922.68 100.349 920.423 97.9307C909.349 111.052 898.973 124.747 889.338 138.958C891.838 140.115 894.602 141.903 897.103 143.06C906.736 130.384 915.975 118.47 925.977 106.083Z" fill="#4B855A"/>
<path d="M918.081 44.3587L891.102 76.5753C890.978 76.7649 890.816 76.9261 890.625 77.0485C890.435 77.1709 890.22 77.2516 889.996 77.2854C889.63 77.2076 889.304 77.0026 889.075 76.7068L882.837 70.395C892.26 57.8239 901.42 45.7263 911.974 34.0757C914.19 35.3652 916.241 36.9195 918.081 38.7044C918.843 39.3082 919.395 40.1362 919.66 41.0713C919.844 42.0181 919.028 44.2272 918.081 44.3587Z" fill="white"/>
<path d="M547.163 113.658C547.163 112.29 546.9 110.633 545.637 110.081C545.163 109.917 544.663 109.846 544.163 109.87C540.136 109.87 536.082 110.081 532.081 110.449C530.625 110.426 529.207 110.92 528.08 111.843C527.29 112.923 526.89 114.24 526.949 115.577C526.662 121.19 527.131 126.816 528.344 132.304C528.471 133.082 528.739 133.83 529.133 134.513C531.371 138.116 542.504 139.247 545.742 136.196C547.953 134.171 547.19 129.805 547.216 127.175C547.295 122.652 547.269 118.155 547.163 113.658Z" fill="#FFD77D"/>
<path d="M855.41 0.885254C854.62 0.885254 853.646 0.885222 853.278 1.67421C853.111 2.04499 853.048 2.45385 853.094 2.85771L853.278 6.9341C853.26 7.37019 853.35 7.80405 853.541 8.1965C853.803 8.61693 854.203 8.9331 854.673 9.09067C856.437 9.84859 858.297 10.3618 860.2 10.616C865.853 11.8003 871.592 12.5303 877.362 12.7989C878.025 12.8698 878.695 12.7695 879.308 12.5076C879.921 12.2458 880.456 11.8311 880.863 11.3033C881.27 10.7755 881.534 10.1523 881.631 9.49317C881.728 8.83408 881.653 8.16125 881.415 7.53901C880.626 4.90907 878.783 4.90903 876.151 4.46194C869.334 3.27847 862.438 1.12195 855.41 0.885254Z" fill="#FFD77D"/>
<path d="M836.038 108.475C836.038 107.687 836.038 106.713 835.222 106.345C834.846 106.195 834.437 106.15 834.037 106.214L829.984 106.424C829.538 106.424 829.097 106.522 828.694 106.713C828.292 107 827.989 107.405 827.825 107.871C827.107 109.642 826.62 111.498 826.378 113.393C825.279 119.066 824.636 124.818 824.456 130.593C824.407 131.247 824.523 131.903 824.794 132.501C825.064 133.098 825.48 133.619 826.004 134.014C826.528 134.409 827.143 134.667 827.792 134.763C828.441 134.859 829.104 134.791 829.721 134.564C832.353 133.723 832.353 131.777 832.721 129.305C833.879 122.361 835.932 115.497 836.038 108.475Z" fill="#FFD77D"/>
<path d="M743.23 74.1029C742.52 74.4711 741.73 75.0497 741.783 75.8387C741.825 76.2416 741.98 76.6243 742.23 76.9432L744.441 80.3622C744.652 80.7573 744.96 81.0923 745.336 81.3352C745.777 81.549 746.273 81.6224 746.757 81.5456C748.657 81.2851 750.514 80.7814 752.285 80.0466C757.723 78.1924 763.005 75.9058 768.078 73.2088C768.693 72.9361 769.227 72.5088 769.628 71.9685C770.028 71.4282 770.282 70.7935 770.364 70.126C770.447 69.4585 770.354 68.7812 770.097 68.16C769.839 67.5388 769.424 66.9948 768.894 66.5813C766.814 64.6614 765.156 65.7134 762.813 66.5813C756.391 69.106 749.39 70.7103 743.23 74.1029Z" fill="#4B855A"/>
<path d="M1087.77 92.3538C1082.1 90.0311 1076.74 86.9906 1071.85 83.3068C1074.44 79.2741 1077.51 75.5735 1081.01 72.2874C1082.75 70.7278 1084.79 69.5379 1087.01 68.7896C1088.12 68.4337 1089.31 68.3579 1090.46 68.5689C1091.61 68.7799 1092.7 69.2712 1093.61 69.9994C1094.4 70.8141 1094.99 71.8022 1095.33 72.8846C1095.67 73.967 1095.75 75.1135 1095.56 76.2323C1095.15 78.4723 1094.38 80.6306 1093.27 82.623C1091.64 85.9893 1089.4 88.9874 1087.77 92.3538Z" fill="white"/>
<path d="M1069.24 86.6738C1074.64 89.5223 1079.65 93.0584 1084.14 97.1935C1081.14 100.948 1077.69 104.322 1073.87 107.24C1071.99 108.62 1069.84 109.596 1067.56 110.107C1066.41 110.348 1065.22 110.304 1064.1 109.978C1062.97 109.653 1061.95 109.055 1061.11 108.239C1060.4 107.346 1059.92 106.3 1059.69 105.185C1059.47 104.07 1059.51 102.918 1059.82 101.822C1060.46 99.6464 1061.45 97.5868 1062.74 95.7208C1064.82 92.6175 1067.27 89.856 1069.24 86.6738Z" fill="white"/>
<path d="M1187.21 18.4012C1182.44 22.2465 1177.21 25.4719 1171.63 28.0004C1169.34 23.7853 1167.57 19.3079 1166.36 14.6666C1165.83 12.3979 1165.77 10.0438 1166.18 7.74993C1166.34 6.5927 1166.8 5.49974 1167.53 4.58876C1168.27 3.67779 1169.23 2.98334 1170.33 2.5802C1171.42 2.17707 1172.61 2.08051 1173.76 2.30098C1174.91 2.52145 1175.97 3.0506 1176.84 3.83136C1178.6 5.26946 1180.11 6.9732 1181.34 8.88077C1183.47 11.9315 1185.03 15.3505 1187.21 18.4012Z" fill="#4B855A"/>
<path d="M1173.31 31.8927C1178.44 28.5653 1183.98 25.9135 1189.79 24.0029C1191.63 28.432 1192.93 33.0682 1193.66 37.81C1193.97 40.1269 1193.8 42.4841 1193.13 44.7267C1192.86 45.8599 1192.29 46.8975 1191.47 47.7272C1190.65 48.5569 1189.62 49.1473 1188.49 49.4343C1187.36 49.7213 1186.17 49.6942 1185.06 49.3558C1183.94 49.0174 1182.94 48.3807 1182.16 47.5144C1180.56 45.9053 1179.22 44.0495 1178.21 42.0179C1176.37 38.8357 1175.16 35.1538 1173.31 31.8927Z" fill="white"/>
<path d="M1006.41 21.2677C1003.38 15.9427 1001.04 10.2506 999.463 4.33093C1003.99 2.75477 1008.69 1.73907 1013.47 1.30652C1015.8 1.10965 1018.14 1.433 1020.34 2.25326C1021.43 2.65504 1022.41 3.32153 1023.19 4.19337C1023.96 5.0652 1024.51 6.11529 1024.78 7.25012C1024.91 8.38172 1024.77 9.52706 1024.36 10.5922C1023.96 11.6573 1023.31 12.612 1022.47 13.3779C1020.77 14.8731 1018.84 16.0892 1016.76 16.9809C1013.39 18.6378 1009.75 19.6108 1006.41 21.2677Z" fill="white"/>
<path d="M995.329 5.35693C997.838 10.9515 999.607 16.8481 1000.59 22.8986C995.919 23.9985 991.129 24.5284 986.327 24.4766C983.993 24.4035 981.699 23.8483 979.589 22.846C978.512 22.3958 977.579 21.6595 976.89 20.717C976.202 19.7745 975.785 18.6618 975.685 17.4993C975.584 16.3369 975.805 15.1692 976.321 14.1228C976.838 13.0765 977.631 12.1915 978.615 11.5636C980.461 10.2336 982.516 9.2203 984.696 8.56545C988.091 7.27679 991.802 6.6719 995.329 5.35693Z" fill="white"/>
<path d="M1302.97 102.534C1297.41 105.11 1291.55 106.974 1285.52 108.083C1284.3 103.437 1283.67 98.6579 1283.63 93.8552C1283.64 91.5218 1284.16 89.2186 1285.13 87.0963C1285.55 86.0115 1286.27 85.0644 1287.2 84.3577C1288.13 83.651 1289.23 83.2115 1290.39 83.0869C1291.55 82.9623 1292.73 83.1573 1293.78 83.6508C1294.84 84.1443 1295.74 84.9175 1296.39 85.8866C1297.75 87.7084 1298.82 89.7316 1299.55 91.8828C1300.92 95.3543 1301.71 99.0625 1302.97 102.534Z" fill="#4B855A"/>
<path d="M1286.21 112.264C1291.99 110.26 1298 109.014 1304.1 108.556C1304.83 113.298 1304.98 118.112 1304.52 122.889C1304.27 125.21 1303.53 127.451 1302.34 129.464C1301.75 130.471 1300.91 131.315 1299.91 131.921C1298.91 132.527 1297.77 132.875 1296.6 132.935C1295.47 132.852 1294.37 132.498 1293.4 131.903C1292.43 131.308 1291.61 130.49 1291.02 129.516C1289.85 127.569 1289.01 125.447 1288.52 123.231C1287.52 119.628 1287.21 115.867 1286.21 112.264Z" fill="white"/>
<path d="M1041.13 67.3438C1044.06 71.2185 1046.96 75.1021 1049.84 78.9944C1050.18 79.3351 1050.45 79.7479 1050.61 80.2027C1050.77 80.6576 1050.83 81.1432 1050.79 81.6243C1050.6 82.2077 1050.24 82.7212 1049.76 83.0971C1044.16 88.5323 1038.31 93.6957 1032.2 98.5874C1031.39 99.4326 1030.4 100.089 1029.3 100.512C1028.21 100.934 1027.03 101.112 1025.86 101.033C1024.69 100.713 1023.61 100.128 1022.7 99.3238C1015.07 93.0645 1007.5 86.7177 999.987 80.2831C999.363 80.0064 998.821 79.5738 998.413 79.0269C998.005 78.4801 997.745 77.8374 997.658 77.1609C997.57 76.4844 997.659 75.7968 997.915 75.1644C998.171 74.532 998.586 73.9762 999.119 73.5505L1005.51 65.6606C1007.52 66.3707 1010.99 66.3707 1012.99 67.0808C1014.99 67.7908 1016.91 68.8691 1016.62 70.7364C1016.44 71.8936 1015.33 72.6562 1014.83 73.7345C1014.59 74.3653 1014.51 75.0472 1014.59 75.7179C1014.68 76.3886 1014.94 77.0269 1015.33 77.5743C1016.14 78.6495 1017.12 79.5828 1018.23 80.3357C1020.16 82.1192 1022.71 83.0814 1025.33 83.0182C1027.51 82.4509 1029.43 81.1847 1030.81 79.4152C1031.26 79.0346 1031.56 78.5163 1031.68 77.9424C1031.65 77.4306 1031.45 76.942 1031.13 76.5485L1028.1 71.8409C1027.85 71.5494 1027.73 71.1711 1027.76 70.789C1027.76 70.2893 1028.39 70.0526 1028.84 69.8685C1032.84 68.6399 1036.96 67.7945 1041.13 67.3438Z" fill="#4B855A"/>
<path d="M1207.43 56.6406L1220.59 62.6895C1221.46 63.084 1222.43 63.5836 1222.67 64.5304C1222.77 65.1344 1222.69 65.7546 1222.46 66.3188C1220.17 73.7615 1217.48 81.099 1214.56 88.305C1213.64 90.4615 1212.43 92.8811 1210.16 93.5648C1208.98 93.7956 1207.75 93.7506 1206.58 93.4334C1196.88 91.6801 1187.19 89.7339 1177.5 87.5949C1176.75 87.5401 1176.02 87.3263 1175.37 86.968C1174.71 86.6097 1174.13 86.1151 1173.68 85.5173C1173.26 84.435 1173.2 83.2418 1173.52 82.1246C1174.1 78.7583 1174.68 75.392 1175.29 72.0257C1177.37 71.6575 1180.42 70.0007 1182.53 69.6588C1184.63 69.3169 1186.82 69.3958 1187.45 71.1316C1187.87 72.2361 1187.24 73.4722 1187.45 74.6293C1187.54 75.2984 1187.8 75.9337 1188.2 76.4794C1188.6 77.0251 1189.13 77.4644 1189.74 77.7589C1190.96 78.3198 1192.27 78.6752 1193.61 78.811C1196.18 79.5449 1198.94 79.2428 1201.29 77.9694C1202.93 76.4432 1204 74.416 1204.35 72.2098C1204.56 71.6595 1204.56 71.0508 1204.35 70.5004C1204.09 70.0588 1203.69 69.7162 1203.21 69.5273L1198.29 66.8974C1197.95 66.7133 1197.58 66.5029 1197.48 66.1347C1197.45 65.8895 1197.49 65.6424 1197.58 65.4137C1197.67 65.1851 1197.82 64.9815 1198 64.8197C1200.88 61.8041 1204.04 59.0656 1207.43 56.6406Z" fill="white"/>
<path d="M1299.5 31.1825C1298.73 35.969 1298 40.7818 1297.23 45.5682C1297.23 46.0457 1297.12 46.5164 1296.92 46.9479C1296.71 47.3794 1296.42 47.7612 1296.05 48.0667C1295.49 48.3358 1294.87 48.4364 1294.26 48.356C1286.47 48.1631 1278.69 47.5933 1270.91 46.6465C1269.73 46.6712 1268.56 46.4312 1267.49 45.9442C1266.41 45.4572 1265.46 44.7356 1264.7 43.8325C1264.17 42.7521 1263.88 41.5662 1263.86 40.361C1262.98 30.525 1262.22 20.6804 1261.57 10.8269C1261.35 10.1936 1261.29 9.5144 1261.4 8.85273C1261.51 8.19107 1261.79 7.56849 1262.21 7.04321C1262.63 6.51794 1263.17 6.1071 1263.79 5.84896C1264.41 5.59082 1265.09 5.49383 1265.75 5.56709L1275.97 4.51514C1276.89 6.43498 1279.31 8.93334 1280.2 10.8532C1281.1 12.773 1281.65 14.9033 1280.2 16.113C1279.26 16.7968 1277.91 16.5339 1276.81 16.9284C1276.19 17.2002 1275.65 17.6209 1275.23 18.1531C1274.81 18.6854 1274.53 19.3126 1274.41 19.979C1274.18 21.3011 1274.18 22.6546 1274.41 23.9766C1274.23 25.2076 1274.35 26.4647 1274.77 27.6382C1275.18 28.8118 1275.88 29.866 1276.79 30.709C1277.71 31.552 1278.82 32.1581 1280.02 32.4744C1281.23 32.7907 1282.49 32.8077 1283.71 32.5238C1283.98 32.5866 1284.26 32.5879 1284.53 32.5277C1284.8 32.4675 1285.06 32.3473 1285.28 32.1758C1285.5 32.0044 1285.68 31.7861 1285.8 31.5369C1285.92 31.2877 1285.99 31.0139 1286 30.7355C1286.39 28.9209 1286.81 27.1062 1287.21 25.2915C1287.25 24.9057 1287.44 24.5505 1287.73 24.2922C1287.96 24.192 1288.21 24.1515 1288.46 24.1745C1288.71 24.1975 1288.95 24.2832 1289.15 24.4236C1292.8 26.3577 1296.26 28.6201 1299.5 31.1825Z" fill="white"/>
<path d="M1048.63 44.2277C1048.11 41.2621 1046.97 38.4393 1045.29 35.9434C1044.43 34.7112 1043.21 33.773 1041.79 33.2556C1040.38 32.7382 1038.84 32.6666 1037.39 33.0505C1033.55 34.4181 1031.81 39.8094 1027.76 40.1513C1024.26 40.4406 1021.86 36.7324 1018.73 35.1018C1017.07 34.2859 1015.19 34.0345 1013.37 34.3858C1011.56 34.7372 1009.91 35.6722 1008.67 37.048C1007.54 38.363 1006.86 39.9936 1005.83 41.4137C1003.96 43.833 1001.24 45.4507 998.218 45.9391C995.198 46.4274 992.104 45.7499 989.565 44.0437C988.648 43.2899 987.69 42.5875 986.696 41.9397C983.169 40.0198 978.536 41.9397 976.167 45.2534C974.067 48.6967 972.821 52.5923 972.535 56.6147L1048.63 44.2277Z" fill="#FFD77D"/>
<path d="M1467.82 53.274C1469.55 50.8055 1470.74 48.001 1471.32 45.0424C1471.58 43.5636 1471.38 42.0419 1470.75 40.6795C1470.12 39.3171 1469.09 38.1786 1467.79 37.4156C1464.11 35.6798 1459.06 38.2572 1455.95 35.6273C1453.32 33.3655 1454.19 29.0788 1453.13 25.7125C1452.53 23.9598 1451.38 22.4495 1449.85 21.4103C1448.31 20.3711 1446.48 19.8595 1444.63 19.9529C1442.89 20.0844 1441.26 20.7681 1439.55 21.0574C1436.51 21.4564 1433.43 20.6837 1430.94 18.896C1428.44 17.1083 1426.72 14.4397 1426.13 11.4319C1426.03 10.2554 1425.86 9.08682 1425.6 7.93411C1424.47 4.06812 1419.78 2.20086 1415.81 2.83204C1411.92 3.80113 1408.31 5.67553 1405.28 8.30234L1467.82 53.274Z" fill="#FFD77D"/>
<path d="M1368.17 73.2344C1368.15 70.2265 1367.52 67.2541 1366.3 64.5031C1365.66 63.1441 1364.62 62.0132 1363.31 61.2614C1362.01 60.5096 1360.51 60.1725 1359.01 60.2952C1354.98 61.0053 1352.35 66.0285 1348.3 65.5551C1344.8 65.2395 1343.03 61.1894 1340.27 59.0592C1338.77 57.9714 1336.95 57.4033 1335.1 57.4412C1333.25 57.4792 1331.46 58.1212 1330 59.2695C1328.66 60.3741 1327.71 61.8995 1326.48 63.083C1324.24 65.174 1321.29 66.3372 1318.23 66.3372C1315.16 66.3372 1312.21 65.174 1309.97 63.083C1309.22 62.1494 1308.4 61.2705 1307.53 60.453C1305.81 59.4008 1303.78 58.9727 1301.79 59.241C1299.79 59.5094 1297.95 60.4577 1296.58 61.9258C1293.94 64.9542 1292.06 68.5573 1291.08 72.4455L1368.17 73.2344Z" fill="#FFD77D"/>
<path d="M1224.64 132.094C1225.37 129.18 1225.51 126.147 1225.03 123.179C1224.76 121.703 1224.04 120.346 1222.97 119.289C1221.9 118.232 1220.54 117.524 1219.06 117.261C1215 116.893 1211.16 121.101 1207.35 119.707C1204.03 118.524 1203.37 114.184 1201.21 111.397C1200.05 109.961 1198.44 108.946 1196.65 108.509C1194.85 108.072 1192.96 108.237 1191.26 108.977C1189.68 109.714 1188.37 110.897 1186.87 111.765C1184.16 113.203 1181.01 113.558 1178.05 112.757C1175.09 111.956 1172.55 110.059 1170.94 107.452C1170.45 106.379 1169.87 105.342 1169.23 104.349C1167.85 102.888 1166 101.954 1164 101.704C1162.01 101.455 1159.98 101.906 1158.28 102.981C1154.93 105.231 1152.17 108.252 1150.23 111.791L1224.64 132.094Z" fill="#FFD77D"/>
<path d="M1097.88 14.6926C1093.17 9.64309 1086.03 10.7214 1080.01 12.2467C1073.98 13.7721 1070.16 19.7157 1068.95 25.3964C1068.31 28.2051 1068.4 31.1308 1069.22 33.8937C1070.03 36.6565 1071.55 39.1639 1073.61 41.176C1075.76 43.2105 1078.55 44.4451 1081.51 44.6737C1083.9 44.6523 1086.26 44.1365 1088.44 43.1589C1090.63 42.1813 1092.58 40.763 1094.19 38.9931C1097.57 35.8993 1099.97 31.8861 1101.09 27.4477C1101.61 25.2199 1101.59 22.8994 1101.03 20.6804C1100.47 18.4613 1099.39 16.4081 1097.88 14.6926ZM1092.11 27.3688C1091.71 28.8148 1090.95 30.1379 1089.9 31.2206C1088.86 32.3033 1087.57 33.1122 1086.14 33.5754C1084.68 34.0189 1083.11 33.968 1081.68 33.4306C1080.26 32.8931 1079.05 31.8993 1078.24 30.6036C1077.69 29.5224 1077.43 28.3162 1077.48 27.1035C1077.54 25.8908 1077.91 24.7133 1078.56 23.6869C1081.32 19.1634 1089.09 16.3494 1091.9 22.6086C1092.54 24.1198 1092.61 25.8076 1092.11 27.3688Z" fill="white"/>
<path d="M1320.34 0.281249C1313.53 1.28062 1310.34 7.77654 1308.18 13.5887C1306.02 19.4008 1308.71 25.9231 1312.76 30.2099C1314.72 32.3017 1317.17 33.8663 1319.88 34.7583C1322.6 35.6503 1325.51 35.8408 1328.32 35.3119C1331.18 34.7117 1333.75 33.153 1335.61 30.8937C1336.96 28.9219 1337.9 26.6918 1338.35 24.3432C1338.8 21.9946 1338.77 19.578 1338.24 17.2443C1337.6 12.7148 1335.67 8.46719 1332.66 5.01517C1331.13 3.30366 1329.22 1.98127 1327.08 1.15792C1324.93 0.33457 1322.63 0.0340008 1320.34 0.281249ZM1327.5 12.2475C1328.46 13.4051 1329.12 14.7814 1329.42 16.2541C1329.72 17.7268 1329.65 19.2504 1329.21 20.6895C1328.83 22.0031 1328.05 23.1636 1326.97 24.007C1325.89 24.8503 1324.58 25.3338 1323.21 25.389C1321.84 25.4443 1320.49 25.0685 1319.35 24.3148C1318.21 23.5612 1317.33 22.4677 1316.84 21.1892C1314.68 16.3501 1316.84 8.30255 1323.55 9.59122C1325.14 9.99082 1326.54 10.9302 1327.5 12.2475Z" fill="white"/>
<path d="M995.066 106.293C988.223 107.292 985.038 113.788 982.88 119.6C980.721 125.412 983.432 131.934 987.486 136.221C989.436 138.315 991.886 139.881 994.606 140.773C997.327 141.665 1000.23 141.855 1003.04 141.323C1005.9 140.7 1008.46 139.145 1010.33 136.905C1011.69 134.936 1012.63 132.706 1013.08 130.356C1013.54 128.007 1013.5 125.589 1012.96 123.256C1012.35 118.724 1010.42 114.471 1007.41 111.027C1005.88 109.311 1003.96 107.986 1001.81 107.163C999.666 106.339 997.353 106.041 995.066 106.293ZM1002.23 118.259C1003.18 119.418 1003.84 120.795 1004.13 122.268C1004.42 123.741 1004.35 125.264 1003.91 126.701C1003.44 128.12 1002.51 129.345 1001.28 130.19C1000.04 131.035 998.562 131.454 997.067 131.382C995.861 131.225 994.718 130.756 993.749 130.023C992.779 129.29 992.018 128.317 991.539 127.201C989.381 122.362 991.539 114.314 998.251 115.603C999.847 115.995 1001.25 116.935 1002.23 118.259Z" fill="white"/>
<path d="M1433.31 86.1744C1434.13 93.0122 1440.53 96.3785 1446.29 98.7191C1452.05 101.06 1458.66 98.535 1463.03 94.6164C1465.18 92.7306 1466.82 90.3301 1467.79 87.6394C1468.76 84.9487 1469.04 82.0558 1468.58 79.2313C1468.07 76.3583 1466.59 73.7446 1464.4 71.815C1462.46 70.415 1460.25 69.4306 1457.92 68.9237C1455.58 68.4168 1453.16 68.3983 1450.82 68.8695C1446.26 69.3873 1441.96 71.2145 1438.42 74.1293C1436.68 75.5923 1435.31 77.4462 1434.42 79.5396C1433.53 81.633 1433.15 83.9065 1433.31 86.1744ZM1445.5 79.3629C1446.69 78.4451 1448.08 77.8331 1449.56 77.5808C1451.04 77.3285 1452.55 77.4438 1453.98 77.9164C1455.39 78.4325 1456.6 79.3946 1457.41 80.6568C1458.23 81.919 1458.61 83.4128 1458.5 84.912C1458.28 86.0871 1457.76 87.1864 1457 88.1066C1456.24 89.0268 1455.25 89.7374 1454.13 90.1718C1449.24 92.1969 1441.26 89.8037 1442.74 83.15C1443.14 81.5873 1444.07 80.2116 1445.37 79.2576L1445.5 79.3629Z" fill="#4B855A"/>
<path d="M1254.8 98.8509C1247.99 100.008 1244.96 106.583 1242.93 112.421C1240.9 118.26 1243.75 124.756 1247.91 128.937C1249.9 130.992 1252.38 132.506 1255.12 133.339C1257.86 134.171 1260.77 134.295 1263.57 133.697C1266.4 133.011 1268.93 131.401 1270.75 129.121C1272.05 127.114 1272.92 124.861 1273.3 122.503C1273.69 120.146 1273.58 117.734 1272.99 115.419C1272.27 110.904 1270.23 106.698 1267.15 103.322C1265.59 101.652 1263.66 100.376 1261.51 99.5984C1259.37 98.821 1257.07 98.5648 1254.8 98.8509ZM1262.23 110.659C1263.2 111.795 1263.89 113.155 1264.22 114.618C1264.55 116.081 1264.52 117.602 1264.12 119.049C1263.67 120.481 1262.77 121.73 1261.55 122.607C1260.33 123.484 1258.86 123.943 1257.36 123.914C1256.15 123.772 1254.99 123.319 1254.01 122.6C1253.03 121.881 1252.25 120.921 1251.75 119.811C1249.49 115.051 1251.46 106.951 1258.2 108.108C1259.8 108.444 1261.24 109.35 1262.23 110.659Z" fill="white"/>
<path d="M974.114 99.8764C974.325 100.481 974.562 101.139 975.167 101.376C975.772 101.612 976.957 100.771 977.483 99.9291C979.247 97.0625 980.958 94.1695 982.563 91.1977C983.2 90.2092 983.621 89.0982 983.8 87.9366C983.847 87.6429 983.781 87.3424 983.616 87.095C983.43 86.9259 983.203 86.808 982.958 86.7531C980.61 86.165 978.193 85.8909 975.773 85.9378C972.64 85.9378 970.034 85.3329 970.771 89.2252C971.403 92.6178 974.114 96.4312 974.114 99.8764Z" fill="#4B855A"/>
<path d="M1044.47 10.8004C1044.55 11.6675 1044.85 12.501 1045.33 13.2263C1045.81 13.9515 1046.47 14.5458 1047.23 14.9557C1048.15 15.371 1049.15 15.569 1050.16 15.5343C1051.51 15.5509 1052.84 15.1968 1054 14.5106C1055.17 13.8244 1056.12 12.8322 1056.76 11.642C1057.25 10.5026 1057.37 9.23821 1057.11 8.02615C1056.85 6.81408 1056.21 5.71505 1055.29 4.88304C1054.25 4.08741 1053.01 3.61028 1051.7 3.50973C1050.4 3.40918 1049.09 3.68954 1047.95 4.31674C1046.8 4.94393 1045.86 5.89088 1045.24 7.04209C1044.63 8.19331 1044.36 9.49908 1044.47 10.8004Z" fill="#4B855A"/>
<path d="M1229.54 41.2297C1229.62 42.0967 1229.91 42.9303 1230.39 43.6556C1230.88 44.3808 1231.53 44.975 1232.3 45.3849C1233.21 45.798 1234.2 45.996 1235.19 45.9635C1236.55 45.982 1237.89 45.629 1239.06 44.9429C1240.22 44.2567 1241.18 43.2636 1241.83 42.0713C1242.32 40.9319 1242.44 39.6675 1242.18 38.4554C1241.91 37.2434 1241.27 36.1443 1240.35 35.3123C1239.32 34.5167 1238.07 34.0395 1236.77 33.9389C1235.46 33.8384 1234.16 34.1188 1233.01 34.746C1231.87 35.3732 1230.93 36.3201 1230.31 37.4713C1229.69 38.6225 1229.42 39.9284 1229.54 41.2297Z" fill="white"/>
<path d="M1103.27 127.254C1103.36 128.124 1103.65 128.959 1104.14 129.685C1104.63 130.41 1105.29 131.003 1106.06 131.41C1106.97 131.825 1107.96 132.023 1108.96 131.988C1110.31 132.005 1111.64 131.651 1112.81 130.965C1113.97 130.278 1114.93 129.286 1115.56 128.096C1116.06 126.957 1116.18 125.692 1115.91 124.48C1115.65 123.268 1115.01 122.169 1114.09 121.337C1113.05 120.542 1111.81 120.064 1110.51 119.964C1109.2 119.863 1107.9 120.144 1106.75 120.771C1105.6 121.398 1104.66 122.345 1104.05 123.496C1103.43 124.647 1103.16 125.953 1103.27 127.254Z" fill="#FFD77D"/>
<path d="M1094.96 105.137C1095.03 106.008 1095.32 106.847 1095.81 107.577C1096.29 108.308 1096.95 108.906 1097.72 109.318C1098.62 109.735 1099.62 109.924 1100.61 109.87C1101.97 109.9 1103.31 109.555 1104.48 108.873C1105.65 108.19 1106.61 107.198 1107.25 106.004C1107.74 104.865 1107.86 103.601 1107.6 102.389C1107.33 101.177 1106.69 100.078 1105.77 99.2455C1104.74 98.4519 1103.49 97.9756 1102.19 97.8744C1100.89 97.7731 1099.59 98.0512 1098.45 98.6749C1097.3 99.2987 1096.36 100.241 1095.74 101.388C1095.12 102.535 1094.85 103.837 1094.96 105.137Z" fill="white"/>
<path d="M1372.78 92.0126C1372.85 92.8843 1373.14 93.7232 1373.63 94.4534C1374.11 95.1836 1374.77 95.7819 1375.54 96.1942C1376.44 96.6108 1377.44 96.8003 1378.43 96.7465C1379.79 96.7705 1381.12 96.4227 1382.29 95.741C1383.46 95.0593 1384.42 94.0698 1385.07 92.8805C1385.56 91.7411 1385.68 90.4768 1385.42 89.2647C1385.15 88.0526 1384.51 86.9536 1383.59 86.1216C1382.56 85.328 1381.32 84.8516 1380.01 84.7503C1378.71 84.6491 1377.41 84.9272 1376.27 85.551C1375.12 86.1748 1374.18 87.1174 1373.56 88.2644C1372.94 89.4114 1372.67 90.7135 1372.78 92.0126Z" fill="white"/>
<path d="M1218.98 14.2452C1219.06 15.1169 1219.35 15.9558 1219.83 16.6859C1220.31 17.4161 1220.97 18.0145 1221.74 18.4268C1222.66 18.8339 1223.66 19.023 1224.67 18.9791C1226.02 18.9957 1227.35 18.6416 1228.51 17.9554C1229.68 17.2692 1230.63 16.277 1231.27 15.0868C1231.76 13.9474 1231.88 12.6831 1231.62 11.471C1231.36 10.259 1230.72 9.15985 1229.8 8.32784C1228.76 7.54427 1227.51 7.07719 1226.22 6.98269C1224.92 6.8882 1223.62 7.17034 1222.48 7.79516C1221.33 8.41997 1220.4 9.36096 1219.78 10.5051C1219.16 11.6493 1218.88 12.9479 1218.98 14.2452Z" fill="white"/>
<path d="M1389.78 26.7389C1389.86 27.6106 1390.15 28.4495 1390.63 29.1796C1391.11 29.9098 1391.77 30.5081 1392.54 30.9204C1393.45 31.3254 1394.44 31.5145 1395.44 31.4728C1396.79 31.4913 1398.13 31.1383 1399.3 30.4521C1400.47 29.7659 1401.43 28.7728 1402.07 27.5805C1402.56 26.4411 1402.68 25.1768 1402.42 23.9647C1402.16 22.7526 1401.52 21.6535 1400.6 20.8215C1399.56 20.0259 1398.31 19.5488 1397.01 19.4482C1395.71 19.3477 1394.4 19.628 1393.26 20.2552C1392.11 20.8824 1391.17 21.8294 1390.55 22.9806C1389.94 24.1318 1389.67 25.4376 1389.78 26.7389Z" fill="white"/>
<path d="M970.64 74.4976C970.719 75.3719 971.016 76.2125 971.503 76.9429C971.99 77.6732 972.653 78.2702 973.43 78.6792C974.338 79.0888 975.33 79.2781 976.326 79.2314C977.678 79.2481 979.009 78.8941 980.173 78.2078C981.338 77.5216 982.292 76.5294 982.932 75.3392C983.423 74.1998 983.545 72.9354 983.281 71.7234C983.016 70.5113 982.379 69.4123 981.458 68.5803C980.419 67.7967 979.175 67.3296 977.876 67.2351C976.577 67.1406 975.279 67.4228 974.136 68.0476C972.994 68.6724 972.057 69.6134 971.436 70.7575C970.816 71.9017 970.54 73.2003 970.64 74.4976Z" fill="white"/>
<path d="M1099.03 56.3774C1098.83 56.4808 1098.65 56.6239 1098.51 56.7982C1098.06 57.4293 1098.66 58.271 1099.24 58.7969C1102.03 61.291 1105.03 63.527 1108.22 65.477C1108.54 65.6874 1109.01 65.8452 1109.22 65.477C1109.27 65.3325 1109.27 65.1743 1109.22 65.0299L1109.61 53.616C1109.61 50.4601 1107.27 52.2221 1105.48 52.9848C1103.26 53.9814 1101.11 55.1144 1099.03 56.3774Z" fill="#4B855A"/>
<path d="M1228.35 92.3284C1228.19 92.1843 1228 92.0687 1227.8 91.9865C1227.06 91.7498 1226.46 92.6177 1226.17 93.3541C1224.73 96.8033 1223.62 100.378 1222.85 104.032C1222.85 104.4 1222.85 104.899 1223.14 105.005C1223.28 105.055 1223.43 105.055 1223.56 105.005L1234.46 101.559C1237.49 100.613 1235.01 98.9295 1233.69 97.4567C1232.03 95.6275 1230.25 93.914 1228.35 92.3284Z" fill="#4B855A"/>
<path d="M1056.32 66.0813C1056.16 66.2322 1056.04 66.4106 1055.95 66.6073C1055.71 67.3699 1056.55 67.9748 1057.26 68.3167C1060.66 69.8397 1064.18 71.0544 1067.79 71.946C1068.13 71.946 1068.66 71.946 1068.77 71.7093C1068.81 71.5629 1068.81 71.4087 1068.77 71.2622L1065.66 60.2691C1064.82 57.2184 1063.03 59.638 1061.53 60.9266C1059.68 62.5245 1057.93 64.2467 1056.32 66.0813Z" fill="white"/>
<path d="M1352.24 106.977C1352.08 107.123 1351.96 107.302 1351.88 107.503C1351.64 108.239 1352.48 108.87 1353.19 109.186C1356.58 110.717 1360.11 111.941 1363.72 112.841C1364.09 112.841 1364.59 112.841 1364.69 112.578C1364.73 112.441 1364.73 112.295 1364.69 112.158C1363.67 108.476 1362.61 104.82 1361.59 101.138C1360.75 98.1139 1358.96 100.533 1357.46 101.796C1355.6 103.403 1353.86 105.134 1352.24 106.977Z" fill="white"/>
<path d="M1374.75 35.2338C1374.57 35.1171 1374.38 35.0366 1374.17 34.9971C1373.38 34.9971 1372.93 35.8913 1372.78 36.6539C1372.02 40.3079 1371.59 44.0219 1371.49 47.7522C1371.49 48.1204 1371.49 48.6201 1371.93 48.6464C1372.07 48.6859 1372.22 48.6859 1372.35 48.6464L1382.44 43.255C1385.25 41.7822 1382.43 40.6251 1380.93 39.3628C1378.97 37.8524 1376.9 36.4731 1374.75 35.2338Z" fill="white"/>
<path d="M1316.03 95.0641C1315.99 95.2725 1315.99 95.4868 1316.03 95.6952C1316.32 96.4316 1317.37 96.3527 1318.13 96.116C1321.71 95.0422 1325.18 93.6425 1328.5 91.9345C1328.82 91.7504 1329.21 91.4348 1329.08 91.0929C1329.01 90.9576 1328.9 90.8473 1328.77 90.7773L1319.21 84.5181C1316.58 82.7823 1316.79 85.8067 1316.58 87.7266C1316.24 90.158 1316.05 92.6089 1316.03 95.0641Z" fill="white"/>
<path d="M1214.85 43.544C1215.06 43.5826 1215.27 43.5826 1215.48 43.544C1216.27 43.4125 1216.4 42.3605 1216.35 41.5716C1216.06 37.8509 1215.45 34.1631 1214.51 30.5522C1214.51 30.184 1214.19 29.7369 1213.82 29.8158C1213.68 29.8522 1213.55 29.9354 1213.45 30.0525L1205.27 37.9423C1202.98 40.1514 1205.98 40.5722 1207.9 41.256C1210.16 42.1734 1212.48 42.9378 1214.85 43.544Z" fill="white"/>
<path d="M1355.17 30.7886C1355.1 30.5834 1355 30.3948 1354.85 30.2364C1354.3 29.6841 1353.35 30.2363 1352.74 30.6834C1349.88 33.0714 1347.24 35.712 1344.85 38.5732C1344.61 38.8625 1344.37 39.3096 1344.64 39.5726C1344.76 39.6678 1344.91 39.723 1345.06 39.7304L1356.3 41.7292C1359.43 42.2815 1358.04 39.5989 1357.54 37.7316C1356.89 35.3703 1356.1 33.0515 1355.17 30.7886Z" fill="#4B855A"/>
<path d="M1155.28 38.0742C1144.52 50.7719 1134.71 64.2573 1125.96 78.4173C1125.3 79.4692 1124.3 80.6528 1123.12 80.3635C1122.65 80.1833 1122.22 79.8951 1121.88 79.5219L1117.28 75.0247C1127.36 59.9289 1137.36 44.7279 1148.52 30.3159C1150.77 32.378 1152.86 34.6019 1154.78 36.9696C1155.13 37.4693 1155.76 38.3372 1155.28 38.0742Z" fill="white"/>
<path d="M1156.52 74.1548C1155.1 71.1699 1153.22 68.4205 1150.97 66.002C1139.88 79.1075 1129.51 92.8032 1119.91 107.029C1122.38 108.186 1125.17 109.974 1127.67 111.132C1137.28 98.4553 1146.41 86.5154 1156.52 74.1548Z" fill="#4B855A"/>
<path d="M1148.62 12.5354C1139.62 23.2655 1130.63 34.0044 1121.64 44.752C1121.36 45.0939 1120.99 45.4621 1120.57 45.4358C1120.38 45.4111 1120.2 45.3495 1120.04 45.2547C1119.87 45.1599 1119.73 45.0337 1119.62 44.8835L1113.38 38.5717C1122.8 26.0006 1131.96 13.8766 1142.52 2.22607C1144.74 3.52224 1146.8 5.07593 1148.65 6.85477C1149.39 7.47256 1149.93 8.29639 1150.2 9.22169C1150.41 10.0633 1149.57 12.2987 1148.62 12.5354Z" fill="white"/>
<path d="M1425.42 70.0268C1414.66 82.7237 1404.86 96.1996 1396.1 110.344C1395.46 111.396 1394.46 112.605 1393.28 112.29C1392.8 112.116 1392.38 111.827 1392.04 111.448L1387.44 106.951C1397.52 91.8552 1407.52 76.6542 1418.68 62.2422C1420.92 64.3107 1423.01 66.5341 1424.94 68.8959C1425.42 69.4219 1426.02 70.3949 1425.42 70.0268Z" fill="white"/>
<path d="M1426.79 106.083C1425.36 103.099 1423.49 100.349 1421.23 97.9307C1410.16 111.052 1399.78 124.747 1390.15 138.958C1392.65 140.115 1395.41 141.903 1397.91 143.06C1407.55 130.384 1416.78 118.47 1426.79 106.083Z" fill="#4B855A"/>
<path d="M1418.89 44.3587L1391.91 76.5753C1391.79 76.7649 1391.63 76.9261 1391.43 77.0485C1391.24 77.1709 1391.03 77.2516 1390.81 77.2854C1390.44 77.2076 1390.11 77.0026 1389.88 76.7068L1383.65 70.395C1393.07 57.8239 1402.23 45.7263 1412.78 34.0757C1415 35.3652 1417.05 36.9195 1418.89 38.7044C1419.65 39.3082 1420.21 40.1362 1420.47 41.0713C1420.65 42.0181 1419.84 44.2272 1418.89 44.3587Z" fill="white"/>
<path d="M1047.97 113.658C1047.97 112.29 1047.71 110.633 1046.45 110.081C1045.97 109.917 1045.47 109.846 1044.97 109.87C1040.95 109.87 1036.89 110.081 1032.89 110.449C1031.43 110.426 1030.02 110.92 1028.89 111.843C1028.1 112.923 1027.7 114.24 1027.76 115.577C1027.47 121.19 1027.94 126.816 1029.15 132.304C1029.28 133.082 1029.55 133.83 1029.94 134.513C1032.18 138.116 1043.31 139.247 1046.55 136.196C1048.76 134.171 1048 129.805 1048.03 127.175C1048.1 122.652 1048.08 118.155 1047.97 113.658Z" fill="#FFD77D"/>
<path d="M1356.22 0.885254C1355.43 0.885254 1354.46 0.885222 1354.09 1.67421C1353.92 2.04499 1353.86 2.45385 1353.9 2.85771L1354.09 6.9341C1354.07 7.37019 1354.16 7.80405 1354.35 8.1965C1354.61 8.61693 1355.01 8.9331 1355.48 9.09067C1357.25 9.84859 1359.11 10.3618 1361.01 10.616C1366.66 11.8003 1372.4 12.5303 1378.17 12.7989C1378.83 12.8698 1379.5 12.7695 1380.12 12.5076C1380.73 12.2458 1381.27 11.8311 1381.67 11.3033C1382.08 10.7755 1382.34 10.1523 1382.44 9.49317C1382.54 8.83408 1382.46 8.16125 1382.22 7.53901C1381.44 4.90907 1379.59 4.90903 1376.96 4.46194C1370.14 3.27847 1363.25 1.12195 1356.22 0.885254Z" fill="#FFD77D"/>
<path d="M1336.85 108.475C1336.85 107.687 1336.85 106.713 1336.03 106.345C1335.66 106.195 1335.25 106.15 1334.85 106.214L1330.79 106.424C1330.35 106.424 1329.91 106.522 1329.5 106.713C1329.1 107 1328.8 107.405 1328.63 107.871C1327.92 109.642 1327.43 111.498 1327.19 113.393C1326.09 119.066 1325.45 124.818 1325.27 130.593C1325.22 131.247 1325.33 131.903 1325.6 132.501C1325.87 133.098 1326.29 133.619 1326.81 134.014C1327.34 134.409 1327.95 134.667 1328.6 134.763C1329.25 134.859 1329.91 134.791 1330.53 134.564C1333.16 133.723 1333.16 131.777 1333.53 129.305C1334.69 122.361 1336.74 115.497 1336.85 108.475Z" fill="#FFD77D"/>
<path d="M1244.04 74.1029C1243.33 74.4711 1242.54 75.0497 1242.59 75.8387C1242.63 76.2416 1242.79 76.6243 1243.04 76.9432L1245.25 80.3622C1245.46 80.7573 1245.77 81.0923 1246.15 81.3352C1246.59 81.549 1247.08 81.6224 1247.57 81.5456C1249.47 81.2851 1251.32 80.7814 1253.09 80.0466C1258.53 78.1924 1263.81 75.9058 1268.89 73.2088C1269.5 72.9361 1270.04 72.5088 1270.44 71.9685C1270.84 71.4282 1271.09 70.7935 1271.17 70.126C1271.26 69.4585 1271.16 68.7812 1270.91 68.16C1270.65 67.5388 1270.23 66.9948 1269.7 66.5813C1267.62 64.6614 1265.97 65.7134 1263.62 66.5813C1257.2 69.106 1250.2 70.7103 1244.04 74.1029Z" fill="#4B855A"/>
</g>
</svg>
