<svg width="1440" height="144" viewBox="0 0 1440 144" fill="none" xmlns="http://www.w3.org/2000/svg">
<g opacity="0.5">
<path d="M352.665 50.9028C358.297 53.228 363.605 56.2687 368.458 59.9498C365.867 63.9834 362.791 67.6842 359.298 70.9692C357.569 72.5335 355.535 73.7243 353.323 74.467C352.235 74.8936 351.05 75.0139 349.897 74.8147C348.745 74.6154 347.669 74.1044 346.788 73.3371C345.906 72.5698 345.251 71.5756 344.895 70.4626C344.539 69.3496 344.496 68.1604 344.769 67.0243C345.181 64.7843 345.954 62.6259 347.059 60.6335C348.77 57.2672 351.033 54.2691 352.665 50.9028Z" fill="white"/>
<path d="M371.195 56.5834C365.795 53.7349 360.787 50.1988 356.297 46.0637C359.295 42.3087 362.743 38.9348 366.562 36.0173C368.447 34.6368 370.598 33.6608 372.879 33.1507C374.005 32.8353 375.197 32.8358 376.323 33.1522C377.449 33.4686 378.466 34.0886 379.262 34.9443C380.059 35.8 380.604 36.8583 380.839 38.0032C381.073 39.1481 380.988 40.3354 380.591 41.435C379.97 43.6193 378.982 45.6824 377.67 47.5364C375.722 50.6397 373.169 53.4012 371.195 56.5834Z" fill="white"/>
<path d="M253.225 124.856C257.991 121.011 263.227 117.785 268.807 115.257C271.096 119.472 272.864 123.949 274.071 128.591C274.631 130.856 274.694 133.215 274.255 135.507C274.046 136.665 273.552 137.752 272.816 138.67C272.081 139.589 271.128 140.309 270.044 140.767C268.948 141.074 267.794 141.117 266.678 140.893C265.562 140.669 264.514 140.185 263.621 139.478C261.845 138.035 260.316 136.312 259.094 134.376C256.936 131.326 255.383 127.907 253.225 124.856Z" fill="#4B855A"/>
<path d="M267.121 111.365C261.989 114.688 256.452 117.339 250.644 119.255C248.792 114.827 247.484 110.19 246.749 105.448C246.447 103.13 246.626 100.776 247.275 98.5309C247.546 97.3977 248.122 96.3603 248.941 95.5305C249.76 94.7008 250.79 94.1105 251.92 93.8234C253.05 93.5364 254.237 93.5635 255.353 93.9019C256.469 94.2403 257.471 94.877 258.251 95.7432C259.861 97.3513 261.203 99.2071 262.226 101.24C264.068 104.527 265.252 108.104 267.121 111.365Z" fill="white"/>
<path d="M434.024 121.988C437.057 127.313 439.392 133.005 440.973 138.925C436.438 140.504 431.727 141.519 426.944 141.949C424.613 142.125 422.271 141.802 420.074 141.003C418.98 140.597 418.002 139.929 417.227 139.058C416.451 138.187 415.902 137.139 415.626 136.006C415.503 134.872 415.652 133.725 416.059 132.66C416.466 131.595 417.12 130.641 417.968 129.878C419.67 128.383 421.597 127.167 423.68 126.275C427.023 124.618 430.655 123.645 434.024 121.988Z" fill="white"/>
<path d="M445.105 137.901C442.609 132.301 440.84 126.407 439.841 120.359C444.524 119.261 449.323 118.731 454.133 118.781C456.468 118.854 458.762 119.409 460.871 120.412C461.942 120.869 462.868 121.608 463.55 122.55C464.233 123.492 464.646 124.602 464.746 125.761C464.846 126.92 464.629 128.084 464.118 129.129C463.607 130.174 462.822 131.061 461.845 131.694C459.999 133.024 457.945 134.037 455.765 134.692C452.343 135.955 448.606 136.586 445.105 137.901Z" fill="white"/>
<path d="M137.463 40.7245C143.022 38.1451 148.885 36.2804 154.914 35.1753C156.119 39.8239 156.756 44.6014 156.809 49.4032C156.778 51.7352 156.268 54.0359 155.309 56.1621C154.823 57.2084 154.09 58.1212 153.173 58.8221C152.256 59.523 151.182 59.991 150.044 60.1859C148.909 60.2137 147.784 59.9733 146.759 59.4843C145.735 58.9953 144.84 58.2716 144.148 57.3719C142.778 55.5568 141.712 53.5318 140.99 51.3757C139.516 47.9042 138.832 44.196 137.463 40.7245Z" fill="#4B855A"/>
<path d="M154.23 30.9666C148.454 32.9911 142.436 34.2468 136.331 34.7012C135.591 29.9602 135.441 25.1459 135.884 20.368C136.15 18.0493 136.894 15.8107 138.068 13.7932C138.667 12.7837 139.507 11.9383 140.513 11.3325C141.519 10.7267 142.66 10.3794 143.833 10.3218C144.967 10.4094 146.065 10.7651 147.035 11.3594C148.005 11.9538 148.82 12.77 149.413 13.7407C150.58 15.6874 151.425 17.81 151.913 20.0262C152.914 23.6292 153.203 27.3899 154.23 30.9666Z" fill="white"/>
<path d="M399.28 75.9119L390.594 64.2613C390.253 63.9176 389.99 63.5052 389.822 63.0516C389.654 62.598 389.585 62.1138 389.62 61.6314C389.825 61.051 390.19 60.5404 390.673 60.1586C396.253 54.7234 402.105 49.56 408.229 44.6684C409.037 43.8143 410.026 43.1514 411.124 42.7283C412.221 42.3051 413.4 42.1323 414.573 42.2225C415.728 42.5762 416.783 43.198 417.652 44.0371C425.303 50.2964 432.883 56.6433 440.394 63.0779C441.022 63.4855 441.556 64.0225 441.96 64.6529C442.364 65.2834 442.628 65.9926 442.736 66.7334C442.601 67.8942 442.082 68.9769 441.262 69.8105L434.866 77.8317C432.866 77.1216 429.391 77.1216 427.365 76.4115C425.338 75.7015 423.469 74.6232 423.759 72.756C423.943 71.5988 425.048 70.8361 425.548 69.7578C425.788 69.1261 425.867 68.4452 425.78 67.7753C425.693 67.1055 425.442 66.4676 425.048 65.9182C424.237 64.8492 423.259 63.917 422.153 63.1568C420.251 61.2668 417.676 60.2076 414.994 60.2113C412.833 60.7873 410.92 62.0524 409.545 63.8142C409.1 64.1948 408.794 64.7131 408.677 65.287C408.707 65.7988 408.9 66.2874 409.229 66.6809L412.256 71.3884C412.505 71.68 412.628 72.0583 412.598 72.4404C412.598 72.9401 411.967 73.1768 411.493 73.3609C407.512 74.5958 403.423 75.45 399.28 75.9119Z" fill="#4B855A"/>
<path d="M233.009 86.6173L219.848 80.5685C218.979 80.174 218.005 79.6743 217.769 78.7275C217.66 78.126 217.723 77.5059 217.953 76.9392C220.269 69.5052 222.901 62.1765 225.849 54.953C226.744 52.7965 227.981 50.3769 230.245 49.6931C231.422 49.4193 232.647 49.4193 233.824 49.6931C243.546 51.5341 253.197 53.4802 262.778 55.5316C263.525 55.5865 264.252 55.8002 264.911 56.1585C265.569 56.5168 266.143 57.0113 266.594 57.6092C267.021 58.6915 267.077 59.8846 266.752 61.0018C266.173 64.3681 265.568 67.7344 264.989 71.1007C262.883 71.4426 259.856 73.1257 257.75 73.4676C255.645 73.8095 253.46 73.7306 252.802 71.9949C252.407 70.864 253.013 69.6543 252.934 68.4971C252.849 67.8277 252.598 67.1902 252.202 66.6433C251.807 66.0964 251.28 65.6577 250.67 65.3675C249.439 64.8034 248.122 64.4479 246.775 64.3155C245.64 63.809 244.399 63.5868 243.16 63.6682C241.92 63.7496 240.719 64.1321 239.66 64.7826C238.602 65.433 237.719 66.3318 237.087 67.4008C236.455 68.4697 236.094 69.6766 236.035 70.9166C235.845 71.4705 235.845 72.0722 236.035 72.6261C236.31 73.0634 236.715 73.4036 237.194 73.5992L242.116 76.2291C242.468 76.3814 242.756 76.6508 242.932 76.9917C242.955 77.2369 242.919 77.4841 242.827 77.7128C242.736 77.9414 242.591 78.145 242.405 78.3067C239.536 81.3606 236.391 84.1427 233.009 86.6173Z" fill="white"/>
<path d="M140.938 112.074C141.702 107.288 142.439 102.475 143.176 97.6885C143.185 97.2094 143.298 96.7378 143.507 96.3065C143.716 95.8752 144.016 95.4943 144.387 95.1901C144.933 94.9231 145.547 94.8225 146.15 94.9008C153.976 95.0937 161.767 95.6635 169.523 96.6103C170.699 96.5896 171.864 96.8315 172.935 97.3183C174.005 97.8052 174.953 98.5246 175.709 99.4242C176.261 100.5 176.558 101.687 176.577 102.896C177.455 112.732 178.218 122.576 178.867 132.43C179.083 133.065 179.135 133.745 179.019 134.406C178.903 135.067 178.622 135.688 178.203 136.212C177.783 136.736 177.239 137.146 176.619 137.404C175.999 137.662 175.324 137.761 174.656 137.69L164.443 138.742C163.548 136.822 161.127 134.323 160.206 132.404C159.284 130.484 158.784 128.353 160.206 127.144C161.153 126.46 162.496 126.723 163.601 126.328C164.222 126.061 164.764 125.641 165.179 125.108C165.593 124.574 165.865 123.945 165.97 123.278C166.194 121.955 166.194 120.603 165.97 119.28C165.991 116.607 164.949 114.034 163.075 112.127C161.153 110.975 158.906 110.486 156.679 110.733C156.094 110.685 155.511 110.833 155.02 111.154C154.681 111.538 154.461 112.014 154.389 112.521C153.994 114.336 153.573 116.151 153.152 117.965C153.123 118.351 152.943 118.71 152.651 118.965C152.422 119.06 152.172 119.098 151.924 119.075C151.677 119.052 151.438 118.969 151.23 118.833C147.602 116.896 144.157 114.634 140.938 112.074Z" fill="white"/>
<path d="M391.778 99.1346C392.309 102.097 393.447 104.917 395.121 107.419C395.99 108.643 397.21 109.574 398.62 110.091C400.029 110.607 401.563 110.684 403.017 110.312C406.834 108.944 408.571 103.553 412.651 103.211C416.152 102.922 418.547 106.604 421.653 108.26C423.317 109.074 425.2 109.324 427.019 108.973C428.838 108.622 430.493 107.689 431.734 106.314C432.866 104.999 433.55 103.369 434.55 101.949C436.43 99.5328 439.155 97.9182 442.179 97.4302C445.202 96.9422 448.298 97.6171 450.843 99.3187C451.753 100.089 452.711 100.801 453.712 101.449C457.239 103.369 461.872 101.449 464.241 98.1352C466.341 94.6919 467.587 90.7963 467.873 86.7739L391.778 99.1346Z" fill="#FFD77D"/>
<path d="M-27.4126 89.9824C-29.1203 92.4512 -30.3029 95.244 -30.887 98.1879C-31.1494 99.6706 -30.9522 101.198 -30.3219 102.566C-29.6916 103.933 -28.6581 105.076 -27.3599 105.841C-23.6749 107.577 -18.6213 104.999 -15.5154 107.629C-12.8832 109.891 -13.7519 114.178 -12.6991 117.544C-12.1008 119.297 -10.9473 120.807 -9.41333 121.846C-7.87933 122.885 -6.04828 123.397 -4.19729 123.304C-2.46009 123.172 -0.828199 122.488 0.882677 122.199C3.91832 121.8 6.99225 122.57 9.48043 124.353C11.9686 126.135 13.6846 128.798 14.2801 131.798C14.396 132.983 14.5806 134.159 14.8329 135.322C15.6147 137.173 17.0167 138.695 18.7985 139.626C20.5802 140.557 22.6307 140.839 24.5981 140.424C28.492 139.461 32.1008 137.586 35.1265 134.954L-27.4126 89.9824Z" fill="#FFD77D"/>
<path d="M72.2129 70.0215C72.2369 73.0312 72.882 76.0036 74.108 78.7529C74.7508 80.1119 75.793 81.2428 77.0957 81.9946C78.3984 82.7464 79.8996 83.0835 81.399 82.9608C85.4261 82.2507 88.0582 77.2275 92.1117 77.5694C95.6124 77.885 97.3759 81.935 100.14 84.0653C101.64 85.1531 103.454 85.7213 105.308 85.6833C107.161 85.6453 108.951 85.0033 110.405 83.8549C111.747 82.7504 112.695 81.225 113.932 80.0415C116.17 77.9505 119.12 76.7872 122.184 76.7872C125.248 76.7872 128.197 77.9505 130.435 80.0415C131.188 80.9751 132.006 81.854 132.883 82.6714C134.599 83.7237 136.625 84.1518 138.621 83.8834C140.616 83.6151 142.457 82.6667 143.833 81.1987C146.465 78.1702 148.349 74.5672 149.334 70.679L72.2129 70.0215Z" fill="#FFD77D"/>
<path d="M215.796 11.1641C215.036 14.0747 214.902 17.1132 215.401 20.0796C215.667 21.5602 216.383 22.9229 217.453 23.9819C218.522 25.0409 219.892 25.7445 221.376 25.9969C225.43 26.3388 229.273 22.1572 233.089 23.5511C236.406 24.7346 237.037 29.0739 239.196 31.8617C240.367 33.2961 241.976 34.3088 243.777 34.7455C245.578 35.1823 247.472 35.0193 249.171 34.2812C250.751 33.5448 252.067 32.3613 253.567 31.4934C256.273 30.0551 259.425 29.7004 262.383 30.5016C265.342 31.3028 267.883 33.1997 269.491 35.8066C269.994 36.8769 270.565 37.9135 271.202 38.9099C272.586 40.3701 274.435 41.3047 276.432 41.5542C278.429 41.8036 280.451 41.3523 282.152 40.2774C285.496 38.0265 288.25 35.0047 290.18 31.4671L215.796 11.1641Z" fill="#FFD77D"/>
<path d="M342.531 128.564C347.242 133.614 354.402 132.535 360.403 131.01C366.404 129.485 370.273 123.541 371.484 117.86C372.119 115.052 372.024 112.127 371.208 109.365C370.393 106.603 368.884 104.096 366.825 102.081C364.719 100.089 362.002 98.8654 359.113 98.6094C356.72 98.6276 354.357 99.142 352.173 100.12C349.989 101.098 348.033 102.518 346.426 104.29C343.04 107.376 340.641 111.392 339.53 115.835C338.982 118.043 338.968 120.349 339.49 122.562C340.012 124.776 341.054 126.834 342.531 128.564ZM348.321 115.888C348.729 114.442 349.488 113.119 350.53 112.036C351.572 110.954 352.866 110.145 354.296 109.681C355.738 109.27 357.275 109.337 358.675 109.873C360.075 110.409 361.264 111.384 362.061 112.653C362.609 113.736 362.867 114.941 362.812 116.153C362.757 117.365 362.389 118.542 361.745 119.57C358.982 124.093 351.217 126.907 348.4 120.648C347.809 119.121 347.781 117.434 348.321 115.888Z" fill="white"/>
<path d="M120.092 142.976C126.909 141.95 130.094 135.48 132.252 129.668C134.41 123.856 131.699 117.308 127.646 113.047C125.699 110.956 123.254 109.391 120.538 108.498C117.823 107.606 114.925 107.416 112.116 107.945C109.248 108.552 106.67 110.109 104.799 112.363C103.438 114.332 102.502 116.562 102.049 118.912C101.596 121.262 101.636 123.679 102.167 126.013C102.805 130.542 104.743 134.79 107.747 138.242C109.278 139.957 111.197 141.282 113.344 142.105C115.492 142.929 117.805 143.227 120.092 142.976ZM112.906 131.01C111.956 129.847 111.305 128.47 111.012 126.998C110.718 125.526 110.79 124.005 111.221 122.567C111.7 121.144 112.629 119.915 113.868 119.066C115.108 118.216 116.59 117.793 118.091 117.86C119.294 118.027 120.433 118.502 121.397 119.239C122.361 119.977 123.117 120.951 123.592 122.068C125.751 126.907 123.592 134.954 116.88 133.666C115.29 133.262 113.887 132.324 112.906 131.01Z" fill="white"/>
<path d="M445.369 36.963C452.212 35.9637 455.397 29.4677 457.529 23.6556C459.661 17.8435 457.003 11.295 452.949 7.03452C450.999 4.94071 448.549 3.37464 445.829 2.48247C443.109 1.5903 440.207 1.40111 437.394 1.93246C434.54 2.55592 431.975 4.11029 430.103 6.35072C428.742 8.31973 427.805 10.5496 427.352 12.8992C426.899 15.2488 426.94 17.6668 427.471 20C428.082 24.5322 430.013 28.7849 433.024 32.2292C434.555 33.9446 436.474 35.2693 438.622 36.0928C440.769 36.9163 443.083 37.2146 445.369 36.963ZM438.21 24.9969C437.251 23.8392 436.593 22.4629 436.295 20.9902C435.996 19.5175 436.066 17.994 436.499 16.5548C436.978 15.134 437.908 13.9081 439.148 13.0633C440.388 12.2184 441.87 11.8007 443.369 11.8736C444.574 12.0311 445.718 12.4996 446.687 13.2328C447.656 13.966 448.417 14.9387 448.896 16.0552C451.054 20.8942 448.896 28.9418 442.184 27.6531C440.588 27.2612 439.181 26.3209 438.21 24.9969Z" fill="white"/>
<path d="M7.22686 57.1878C6.43722 50.35 0.0149021 46.9837 -5.72311 44.6431C-11.4611 42.3024 -18.0941 44.8272 -22.4898 48.7458C-24.6382 50.6347 -26.2739 53.0355 -27.2449 55.7253C-28.2159 58.4151 -28.4906 61.3066 -28.0435 64.1309C-27.5167 67.0067 -26.0326 69.6203 -23.8321 71.5473C-21.894 72.9471 -19.686 73.9293 -17.348 74.4319C-15.0101 74.9344 -12.5931 74.9461 -10.2504 74.4665C-5.69171 73.9635 -1.38111 72.1347 2.14689 69.2066C3.88165 67.745 5.24606 65.8944 6.12888 63.8057C7.01171 61.717 7.38793 59.4494 7.22686 57.1878ZM-4.93351 63.9994C-6.12283 64.9194 -7.52063 65.5326 -9.00338 65.7848C-10.4861 66.0371 -12.0082 65.9207 -13.4353 65.4458C-14.8408 64.9215 -16.0386 63.9568 -16.8499 62.6958C-17.6612 61.4349 -18.0423 59.9455 -17.9362 58.4502C-17.7143 57.2751 -17.1968 56.1758 -16.4324 55.2557C-15.668 54.3355 -14.6819 53.6247 -13.5668 53.1903C-8.67111 51.1653 -0.695835 53.5586 -2.16982 60.2123C-2.63552 61.7508 -3.60984 63.086 -4.93351 63.9994Z" fill="#4B855A"/>
<path d="M185.63 44.4071C192.421 43.2499 195.474 36.6751 197.501 30.8367C199.528 24.9982 196.685 18.5023 192.526 14.3207C190.533 12.2665 188.051 10.752 185.311 9.91933C182.572 9.08668 179.666 8.96325 176.865 9.56057C174.02 10.2265 171.485 11.8403 169.68 14.1366C168.379 16.1418 167.508 18.3947 167.123 20.7532C166.738 23.1116 166.847 25.5243 167.442 27.8386C168.155 32.3583 170.188 36.5669 173.286 39.9362C174.84 41.6077 176.77 42.8852 178.917 43.6627C181.064 44.4402 183.365 44.6954 185.63 44.4071ZM178.181 32.5988C177.206 31.4601 176.526 30.0997 176.2 28.6369C175.874 27.1741 175.913 25.6537 176.313 24.2093C176.754 22.7719 177.655 21.5184 178.876 20.6399C180.097 19.7615 181.573 19.3063 183.077 19.3439C184.282 19.4885 185.43 19.939 186.412 20.6526C187.393 21.3662 188.175 22.319 188.683 23.4203C190.947 28.2067 188.973 36.307 182.235 35.1498C180.627 34.7979 179.193 33.8955 178.181 32.5988Z" fill="white"/>
<path d="M466.295 43.3799C466.243 43.0705 466.124 42.776 465.947 42.5171C465.77 42.2582 465.538 42.0411 465.268 41.8809C464.347 41.5127 463.478 42.4858 462.952 43.3273C461.188 46.194 459.477 49.0869 457.846 52.0587C457.217 53.0486 456.804 54.1598 456.635 55.3198C456.588 55.6135 456.654 55.9139 456.819 56.1614C456.995 56.3306 457.213 56.4488 457.451 56.5033C459.811 57.0762 462.234 57.3501 464.663 57.3186C467.795 57.3186 470.401 57.9234 469.664 54.0311C469.032 50.6122 466.295 46.8251 466.295 43.3799Z" fill="#4B855A"/>
<path d="M395.963 132.456C395.88 131.586 395.581 130.751 395.094 130.026C394.607 129.3 393.947 128.707 393.173 128.301C392.266 127.886 391.274 127.688 390.278 127.722C388.925 127.705 387.595 128.06 386.43 128.746C385.265 129.432 384.311 130.424 383.671 131.614C383.176 132.753 383.052 134.018 383.316 135.231C383.581 136.444 384.221 137.544 385.145 138.373C386.182 139.169 387.427 139.646 388.731 139.747C390.034 139.847 391.339 139.567 392.485 138.94C393.632 138.312 394.571 137.366 395.189 136.214C395.806 135.063 396.075 133.757 395.963 132.456Z" fill="#4B855A"/>
<path d="M210.9 102.029C210.819 101.162 210.525 100.329 210.042 99.6034C209.56 98.8781 208.905 98.2839 208.136 97.874C207.22 97.4587 206.22 97.2607 205.215 97.2954C203.862 97.2788 202.532 97.6329 201.367 98.3191C200.202 99.0053 199.248 99.9975 198.608 101.188C198.117 102.327 197.995 103.591 198.259 104.803C198.524 106.016 199.161 107.115 200.082 107.947C201.119 108.742 202.365 109.219 203.668 109.32C204.971 109.421 206.276 109.14 207.422 108.513C208.569 107.886 209.508 106.939 210.126 105.788C210.743 104.636 211.012 103.331 210.9 102.029Z" fill="white"/>
<path d="M337.135 16.0039C337.068 15.1494 336.794 14.3241 336.335 13.5999C335.876 12.8757 335.247 12.2745 334.503 11.8485C333.596 11.4336 332.605 11.2355 331.608 11.2699C330.254 11.2474 328.921 11.599 327.755 12.2859C326.59 12.9727 325.636 13.9682 325.001 15.1623C324.499 16.2976 324.369 17.5624 324.629 18.7762C324.889 19.9899 325.526 21.0906 326.449 21.9212C327.487 22.6758 328.718 23.1185 329.999 23.1973C331.28 23.2762 332.557 22.9878 333.68 22.3662C334.802 21.7446 335.724 20.8156 336.336 19.6885C336.948 18.5614 337.225 17.2831 337.135 16.0039Z" fill="#FFD77D"/>
<path d="M345.48 38.0945C345.4 37.2274 345.105 36.3938 344.623 35.6686C344.14 34.9433 343.485 34.3491 342.716 33.9391C341.802 33.5194 340.799 33.3298 339.795 33.3869C338.444 33.3618 337.113 33.7095 335.947 34.3916C334.782 35.0736 333.827 36.0637 333.188 37.2529C332.697 38.3923 332.575 39.6566 332.84 40.8686C333.104 42.0807 333.741 43.1798 334.662 44.0118C335.699 44.8075 336.945 45.2846 338.248 45.3851C339.551 45.4857 340.856 45.2053 342.002 44.5781C343.149 43.9509 344.088 43.004 344.706 41.8528C345.323 40.7016 345.592 39.3958 345.48 38.0945Z" fill="white"/>
<path d="M67.6343 51.2167C67.5512 50.3471 67.2526 49.5118 66.7655 48.7863C66.2784 48.0609 65.6181 47.4681 64.8443 47.0615C63.9401 46.6397 62.945 46.4499 61.9489 46.5091C60.5984 46.4841 59.2671 46.8317 58.1015 47.5138C56.9359 48.1959 55.9811 49.186 55.3423 50.3751C54.8513 51.5145 54.7295 52.7789 54.9938 53.991C55.2581 55.203 55.8954 56.3021 56.8162 57.1341C57.8529 57.9297 59.0988 58.4069 60.4022 58.5075C61.7055 58.608 63.01 58.3276 64.1566 57.7004C65.3032 57.0732 66.2426 56.1263 66.86 54.9751C67.4775 53.8239 67.7465 52.518 67.6343 51.2167Z" fill="white"/>
<path d="M221.453 129.011C221.374 128.137 221.077 127.297 220.59 126.566C220.103 125.836 219.44 125.239 218.663 124.83C217.754 124.423 216.763 124.234 215.768 124.278C214.413 124.236 213.073 124.568 211.894 125.235C210.715 125.903 209.742 126.882 209.082 128.065C208.587 129.203 208.463 130.469 208.728 131.682C208.992 132.895 209.632 133.994 210.556 134.824C211.588 135.624 212.829 136.109 214.131 136.22C215.432 136.331 216.738 136.063 217.891 135.448C219.043 134.833 219.993 133.898 220.625 132.756C221.257 131.614 221.545 130.313 221.453 129.011Z" fill="white"/>
<path d="M50.6558 116.52C50.5769 115.646 50.2802 114.805 49.7929 114.075C49.3056 113.344 48.6431 112.748 47.8657 112.338C46.9577 111.929 45.9656 111.74 44.9704 111.786C43.6177 111.767 42.2858 112.12 41.1204 112.806C39.9551 113.493 39.0014 114.486 38.3638 115.679C37.8729 116.818 37.7509 118.082 38.0153 119.294C38.2796 120.506 38.9169 121.605 39.8378 122.437C40.8774 123.221 42.1213 123.688 43.4201 123.783C44.7189 123.877 46.0174 123.595 47.1597 122.97C48.3019 122.345 49.2395 121.404 49.8596 120.26C50.4798 119.116 50.7562 117.817 50.6558 116.52Z" fill="white"/>
<path d="M469.795 68.7591C469.716 67.8849 469.419 67.0442 468.932 66.3138C468.445 65.5834 467.782 64.9865 467.005 64.5775C466.096 64.1706 465.105 63.9815 464.11 64.0252C462.757 64.0056 461.425 64.3585 460.26 65.045C459.094 65.7316 458.141 66.7254 457.503 67.9175C457.009 69.0543 456.883 70.317 457.142 71.5289C457.402 72.7408 458.034 73.8413 458.951 74.6765C459.99 75.4683 461.237 75.9423 462.54 76.0412C463.843 76.1401 465.147 75.8596 466.295 75.2337C467.442 74.6077 468.383 73.6631 469.004 72.5141C469.625 71.3651 469.9 70.0609 469.795 68.7591Z" fill="white"/>
<path d="M341.452 86.88C341.641 86.7689 341.81 86.6266 341.952 86.4592C342.426 85.828 341.821 84.9865 341.215 84.4605C338.447 81.9605 335.451 79.7241 332.266 77.7804C331.95 77.57 331.476 77.4122 331.24 77.7804C331.199 77.9267 331.199 78.0812 331.24 78.2275C331.082 82.0146 330.95 85.828 330.818 89.6414C330.818 92.7973 333.161 91.0353 334.951 90.2726C337.186 89.2771 339.357 88.1441 341.452 86.88Z" fill="#4B855A"/>
<path d="M212.084 50.9292C212.243 51.067 212.42 51.182 212.611 51.271C213.374 51.4814 213.979 50.6398 214.269 49.9035C215.69 46.45 216.8 42.8766 217.585 39.226C217.585 38.8578 217.585 38.3581 217.296 38.2529C217.151 38.2028 216.993 38.2028 216.848 38.2529L205.951 41.6981C202.951 42.6449 205.425 44.328 206.741 45.8008C208.403 47.6301 210.188 49.3436 212.084 50.9292Z" fill="#4B855A"/>
<path d="M384.118 77.1752C384.273 77.0243 384.398 76.846 384.487 76.6493C384.723 75.8866 383.881 75.2817 383.171 74.9398C379.776 73.4207 376.252 72.2063 372.642 71.3105C372.274 71.3105 371.773 71.3105 371.668 71.5472C371.616 71.6917 371.616 71.8498 371.668 71.9943C372.695 75.6499 373.721 79.3318 374.774 82.9874C375.616 86.0381 377.406 83.6186 378.906 82.3299C380.753 80.7252 382.493 79.0035 384.118 77.1752Z" fill="white"/>
<path d="M88.1898 36.2808C88.3417 36.1277 88.4663 35.9498 88.5582 35.7548C88.7951 35.0184 87.9528 34.3872 87.2422 34.0717C83.8479 32.5441 80.3246 31.3208 76.7137 30.416C76.3452 30.416 75.8451 30.416 75.7398 30.679C75.687 30.8143 75.687 30.9645 75.7398 31.0998L78.8195 42.1192C79.688 45.1436 81.4515 42.7241 82.9782 41.4617C84.8246 39.8481 86.5654 38.1175 88.1898 36.2808Z" fill="white"/>
<path d="M65.6852 108.024C65.8605 108.141 66.0574 108.221 66.2642 108.261C67.0539 108.261 67.4751 107.367 67.633 106.604C68.4135 102.953 68.8541 99.2376 68.9491 95.5055C68.9491 95.1374 68.949 94.6377 68.4752 94.6114C68.3461 94.5755 68.2096 94.5755 68.0804 94.6114L57.9731 100.003C55.1831 101.475 57.9731 102.633 59.4998 103.895C61.4688 105.405 63.535 106.785 65.6852 108.024Z" fill="white"/>
<path d="M124.409 48.1943C124.449 47.9858 124.449 47.7716 124.409 47.5631C124.093 46.8267 123.04 46.9056 122.303 47.1423C118.725 48.2162 115.254 49.6159 111.932 51.3239C111.59 51.508 111.195 51.8236 111.353 52.1655C111.423 52.3008 111.534 52.4111 111.669 52.4811L121.224 58.7403C123.856 60.4761 123.645 57.4517 123.856 55.5318C124.211 53.1019 124.396 50.65 124.409 48.1943Z" fill="white"/>
<path d="M225.482 99.7126C225.264 99.6726 225.041 99.6726 224.823 99.7126C224.06 99.8441 223.902 100.896 223.981 101.685C224.253 105.407 224.869 109.096 225.824 112.704C225.824 113.073 226.14 113.52 226.508 113.441C226.65 113.397 226.778 113.315 226.877 113.204L235.062 105.314C237.326 103.105 234.352 102.684 232.43 102.001C230.167 101.087 227.845 100.322 225.482 99.7126Z" fill="white"/>
<path d="M85.3745 112.469C85.4567 112.67 85.5724 112.857 85.7166 113.021C86.2694 113.573 87.217 113.021 87.796 112.574C90.6589 110.185 93.3016 107.544 95.6924 104.684C95.9293 104.395 96.1661 103.948 95.8766 103.685C95.7661 103.59 95.6272 103.534 95.4818 103.527L84.2163 101.528C81.1104 100.976 82.5055 103.658 83.0056 105.526C83.6496 107.887 84.4408 110.206 85.3745 112.469Z" fill="#4B855A"/>
<path d="M285.15 105.184C295.878 92.5167 305.644 79.0668 314.367 64.9465C315.025 63.8945 315.999 62.711 317.183 63.0003C317.667 63.1731 318.101 63.462 318.447 63.8418L323.053 68.3391C312.972 83.4349 302.97 98.6359 291.81 113.048C289.555 110.993 287.461 108.768 285.545 106.394C285.414 105.789 284.65 104.921 285.15 105.184Z" fill="white"/>
<path d="M283.914 69.1008C285.338 72.0793 287.201 74.8275 289.442 77.2536C300.537 64.1484 310.913 50.4527 320.527 36.2267C318.026 35.0695 315.263 33.2812 312.762 32.124C303.155 44.8003 293.916 56.7401 283.914 69.1008Z" fill="#4B855A"/>
<path d="M291.811 130.825L318.79 98.6084C319.079 98.2665 319.422 97.8984 319.869 97.9247C320.244 97.9801 320.584 98.1779 320.817 98.4769L327.028 104.789C317.605 117.36 308.472 129.484 297.917 141.134C295.693 139.845 293.634 138.29 291.784 136.506C291.036 135.889 290.487 135.066 290.205 134.139C290.021 133.323 290.863 130.957 291.811 130.825Z" fill="white"/>
<path d="M14.8858 73.2305C25.6596 60.5466 35.4612 47.0696 44.2076 32.9137C44.8656 31.8617 45.8395 30.6519 47.0503 30.9675C47.5277 31.1381 47.9536 31.4278 48.2874 31.8091L52.8936 36.3063C42.8126 51.4021 32.8106 66.603 21.6504 81.015C19.4088 78.9465 17.3155 76.7231 15.3859 74.3613C15.0438 73.8353 14.3068 72.9675 14.8858 73.2305Z" fill="white"/>
<path d="M13.6484 37.174C15.0725 40.1525 16.9358 42.9007 19.1759 45.3268C30.2586 32.2117 40.635 18.5167 50.2612 4.29995C47.787 3.14278 44.997 1.35443 42.3648 0.197266C32.8892 12.8735 23.6505 24.7871 13.6484 37.174Z" fill="#4B855A"/>
<path d="M21.5432 98.8988L48.5224 66.6822C48.6032 66.487 48.7372 66.3183 48.9091 66.1953C49.0809 66.0723 49.2838 66 49.4948 65.9863C49.7058 65.9726 49.9164 66.0181 50.1027 66.1179C50.2891 66.2177 50.4436 66.3676 50.5491 66.5506L56.7873 72.8625C47.3643 85.4336 38.2045 97.5313 27.6497 109.182C25.4258 107.892 23.3664 106.338 21.5168 104.553C20.7709 103.935 20.222 103.112 19.9376 102.186C19.7534 101.239 20.5956 99.1355 21.5432 98.8988Z" fill="white"/>
<path d="M392.464 29.5999C392.464 30.9675 392.701 32.6244 393.99 33.1767C394.464 33.3402 394.964 33.4116 395.464 33.387C399.491 33.387 403.519 33.1766 407.546 32.8084C408.994 32.8318 410.404 32.3375 411.52 31.4146C412.335 30.3466 412.737 29.0205 412.652 27.68C412.96 22.0683 412.5 16.4409 411.283 10.9537C411.144 10.179 410.877 9.43256 410.494 8.74461C408.256 5.14161 397.123 4.01075 393.859 7.03517C391.674 9.08652 392.437 13.4522 392.411 16.0821C392.332 20.6056 392.332 25.1027 392.464 29.5999Z" fill="#FFD77D"/>
<path d="M84.2153 142.371C85.0049 142.371 85.9788 142.371 86.3473 141.582C86.5063 141.21 86.5609 140.8 86.5052 140.399L86.3473 136.323C86.3539 135.888 86.264 135.456 86.084 135.06C85.8105 134.644 85.4153 134.323 84.9523 134.14C83.1819 133.405 81.3241 132.901 79.4248 132.641C73.7719 131.456 68.0331 130.726 62.2634 130.458C61.5985 130.382 60.9251 130.478 60.3083 130.738C59.6915 130.998 59.1522 131.412 58.7422 131.941C58.3322 132.469 58.0655 133.094 57.9676 133.756C57.8698 134.418 57.9442 135.093 58.1837 135.718C58.9997 138.348 60.9474 138.348 63.4479 138.795C70.3441 139.978 77.1875 142.135 84.2153 142.371Z" fill="#FFD77D"/>
<path d="M103.588 34.7813C103.588 35.5703 103.588 36.5433 104.377 36.9115C104.762 37.0612 105.18 37.1067 105.588 37.0431L109.642 36.8326C110.088 36.8306 110.528 36.7319 110.931 36.5434C111.324 36.2463 111.624 35.8454 111.8 35.3862C112.51 33.614 112.988 31.7577 113.221 29.8633C114.329 24.1912 114.98 18.4395 115.169 12.6636C115.218 12.0095 115.102 11.3536 114.832 10.756C114.562 10.1583 114.145 9.63813 113.621 9.24293C113.098 8.84773 112.483 8.59022 111.833 8.49403C111.184 8.39785 110.521 8.46602 109.905 8.69235C107.273 9.53393 107.273 11.4801 106.904 13.9522C105.746 20.8952 103.798 27.7594 103.588 34.7813Z" fill="#FFD77D"/>
<path d="M196.397 69.1533C197.107 68.7851 197.871 68.2065 197.844 67.4175C197.793 67.0123 197.629 66.6296 197.37 66.3129L195.159 62.894C194.956 62.502 194.658 62.1673 194.291 61.921C193.841 61.705 193.336 61.6316 192.843 61.7105C190.953 61.9746 189.105 62.4784 187.342 63.2096C181.904 65.0638 176.622 67.3504 171.549 70.0474C170.934 70.3201 170.4 70.7474 169.999 71.2877C169.599 71.828 169.345 72.4627 169.263 73.1302C169.18 73.7977 169.273 74.475 169.53 75.0962C169.788 75.7174 170.203 76.2613 170.733 76.6748C172.813 78.5947 174.445 77.5427 176.814 76.6748C183.236 74.1501 190.237 72.5459 196.397 69.1533Z" fill="#4B855A"/>
<path d="M853.482 50.9028C859.113 53.228 864.421 56.2687 869.274 59.9498C866.684 63.9834 863.607 67.6842 860.115 70.9692C858.385 72.5335 856.351 73.7243 854.14 74.467C853.051 74.8936 851.866 75.0139 850.714 74.8147C849.562 74.6154 848.486 74.1044 847.604 73.3371C846.722 72.5698 846.068 71.5756 845.712 70.4626C845.356 69.3496 845.312 68.1604 845.585 67.0243C845.997 64.7843 846.771 62.6259 847.875 60.6335C849.586 57.2672 851.85 54.2691 853.482 50.9028Z" fill="white"/>
<path d="M872.011 56.5834C866.611 53.7349 861.603 50.1988 857.113 46.0637C860.112 42.3087 863.559 38.9348 867.379 36.0173C869.264 34.6368 871.415 33.6608 873.696 33.1507C874.822 32.8353 876.013 32.8358 877.139 33.1522C878.265 33.4686 879.282 34.0886 880.079 34.9443C880.875 35.8 881.421 36.8583 881.655 38.0032C881.89 39.1481 881.804 40.3354 881.408 41.435C880.786 43.6193 879.798 45.6824 878.486 47.5364C876.538 50.6397 873.985 53.4012 872.011 56.5834Z" fill="white"/>
<path d="M754.041 124.856C758.808 121.011 764.044 117.785 769.623 115.257C771.913 119.472 773.68 123.949 774.887 128.591C775.447 130.856 775.51 133.215 775.072 135.507C774.863 136.665 774.368 137.752 773.633 138.67C772.897 139.589 771.944 140.309 770.86 140.767C769.764 141.074 768.61 141.117 767.494 140.893C766.378 140.669 765.331 140.185 764.438 139.478C762.661 138.035 761.132 136.312 759.911 134.376C757.752 131.326 756.199 127.907 754.041 124.856Z" fill="#4B855A"/>
<path d="M767.938 111.365C762.805 114.688 757.268 117.339 751.461 119.255C749.608 114.827 748.3 110.19 747.565 105.448C747.263 103.13 747.443 100.776 748.092 98.5309C748.363 97.3977 748.939 96.3603 749.758 95.5305C750.576 94.7008 751.606 94.1105 752.737 93.8234C753.867 93.5364 755.054 93.5635 756.17 93.9019C757.286 94.2403 758.288 94.877 759.067 95.7432C760.678 97.3513 762.02 99.2071 763.042 101.24C764.884 104.527 766.069 108.104 767.938 111.365Z" fill="white"/>
<path d="M934.841 121.988C937.873 127.313 940.209 133.005 941.789 138.925C937.255 140.504 932.543 141.519 927.76 141.949C925.429 142.125 923.087 141.802 920.89 141.003C919.796 140.597 918.819 139.929 918.043 139.058C917.268 138.187 916.718 137.139 916.442 136.006C916.32 134.872 916.468 133.725 916.875 132.66C917.282 131.595 917.937 130.641 918.785 129.878C920.486 128.383 922.414 127.167 924.496 126.275C927.839 124.618 931.472 123.645 934.841 121.988Z" fill="white"/>
<path d="M945.921 137.901C943.426 132.301 941.657 126.407 940.657 120.359C945.341 119.261 950.139 118.731 954.95 118.781C957.284 118.854 959.578 119.409 961.688 120.412C962.758 120.869 963.684 121.608 964.367 122.55C965.049 123.492 965.462 124.602 965.562 125.761C965.662 126.92 965.445 128.084 964.934 129.129C964.424 130.174 963.638 131.061 962.662 131.694C960.816 133.024 958.761 134.037 956.582 134.692C953.16 135.955 949.422 136.586 945.921 137.901Z" fill="white"/>
<path d="M638.279 40.7245C643.838 38.1451 649.702 36.2804 655.73 35.1753C656.936 39.8239 657.572 44.6014 657.625 49.4032C657.595 51.7352 657.084 54.0359 656.125 56.1621C655.639 57.2084 654.906 58.1212 653.989 58.8221C653.072 59.523 651.999 59.991 650.861 60.1859C649.726 60.2137 648.6 59.9733 647.576 59.4843C646.551 58.9953 645.657 58.2716 644.965 57.3719C643.595 55.5568 642.528 53.5318 641.806 51.3757C640.332 47.9042 639.648 44.196 638.279 40.7245Z" fill="#4B855A"/>
<path d="M655.046 30.9666C649.27 32.9911 643.252 34.2468 637.148 34.7012C636.408 29.9602 636.257 25.1459 636.7 20.368C636.967 18.0493 637.71 15.8107 638.885 13.7932C639.484 12.7837 640.324 11.9383 641.33 11.3325C642.336 10.7267 643.476 10.3794 644.649 10.3218C645.784 10.4094 646.881 10.7651 647.852 11.3594C648.822 11.9538 649.637 12.77 650.229 13.7407C651.397 15.6874 652.241 17.81 652.73 20.0262C653.73 23.6292 654.02 27.3899 655.046 30.9666Z" fill="white"/>
<path d="M900.096 75.9119L891.41 64.2613C891.07 63.9176 890.807 63.5052 890.639 63.0516C890.471 62.598 890.402 62.1138 890.436 61.6314C890.641 61.051 891.006 60.5404 891.489 60.1586C897.069 54.7234 902.921 49.56 909.046 44.6684C909.854 43.8143 910.843 43.1514 911.94 42.7283C913.038 42.3051 914.216 42.1323 915.389 42.2225C916.544 42.5762 917.6 43.198 918.468 44.0371C926.119 50.2964 933.7 56.6433 941.21 63.0779C941.838 63.4855 942.372 64.0225 942.776 64.6529C943.18 65.2834 943.445 65.9926 943.552 66.7334C943.417 67.8942 942.898 68.9769 942.079 69.8105L935.682 77.8317C933.682 77.1216 930.208 77.1216 928.181 76.4115C926.154 75.7015 924.285 74.6232 924.575 72.756C924.759 71.5988 925.865 70.8361 926.365 69.7578C926.604 69.1261 926.684 68.4452 926.597 67.7753C926.509 67.1055 926.258 66.4676 925.865 65.9182C925.053 64.8492 924.076 63.917 922.969 63.1568C921.067 61.2668 918.493 60.2076 915.81 60.2113C913.65 60.7873 911.737 62.0524 910.362 63.8142C909.916 64.1948 909.61 64.7131 909.493 65.287C909.523 65.7988 909.717 66.2874 910.046 66.6809L913.073 71.3884C913.322 71.68 913.445 72.0583 913.415 72.4404C913.415 72.9401 912.783 73.1768 912.309 73.3609C908.328 74.5958 904.239 75.45 900.096 75.9119Z" fill="#4B855A"/>
<path d="M733.825 86.6173L720.664 80.5685C719.796 80.174 718.822 79.6743 718.585 78.7275C718.476 78.126 718.54 77.5059 718.769 76.9392C721.085 69.5052 723.718 62.1765 726.666 54.953C727.56 52.7965 728.798 50.3769 731.061 49.6931C732.239 49.4193 733.463 49.4193 734.641 49.6931C744.362 51.5341 754.013 53.4802 763.594 55.5316C764.342 55.5865 765.069 55.8002 765.727 56.1585C766.385 56.5168 766.959 57.0113 767.411 57.6092C767.837 58.6915 767.893 59.8846 767.569 61.0018C766.99 64.3681 766.384 67.7344 765.805 71.1007C763.699 71.4426 760.672 73.1257 758.567 73.4676C756.461 73.8095 754.276 73.7306 753.618 71.9949C753.224 70.864 753.829 69.6543 753.75 68.4971C753.666 67.8277 753.414 67.1902 753.019 66.6433C752.623 66.0964 752.096 65.6577 751.486 65.3675C750.255 64.8034 748.939 64.4479 747.591 64.3155C746.457 63.809 745.216 63.5868 743.976 63.6682C742.736 63.7496 741.535 64.1321 740.477 64.7826C739.419 65.433 738.535 66.3318 737.904 67.4008C737.272 68.4697 736.911 69.6766 736.852 70.9166C736.661 71.4705 736.661 72.0722 736.852 72.6261C737.127 73.0634 737.532 73.4036 738.01 73.5992L742.932 76.2291C743.284 76.3814 743.572 76.6508 743.748 76.9917C743.771 77.2369 743.735 77.4841 743.644 77.7128C743.552 77.9414 743.407 78.145 743.222 78.3067C740.353 81.3606 737.207 84.1427 733.825 86.6173Z" fill="white"/>
<path d="M641.755 112.074C642.518 107.288 643.255 102.475 643.992 97.6885C644.001 97.2094 644.114 96.7378 644.323 96.3065C644.532 95.8752 644.832 95.4943 645.203 95.1901C645.75 94.9231 646.363 94.8225 646.967 94.9008C654.793 95.0937 662.584 95.6635 670.34 96.6103C671.515 96.5896 672.681 96.8315 673.751 97.3183C674.821 97.8052 675.769 98.5246 676.525 99.4242C677.077 100.5 677.374 101.687 677.394 102.896C678.271 112.732 679.034 122.576 679.684 132.43C679.9 133.065 679.952 133.745 679.836 134.406C679.72 135.067 679.439 135.688 679.019 136.212C678.6 136.736 678.055 137.146 677.435 137.404C676.815 137.662 676.14 137.761 675.472 137.69L665.26 138.742C664.365 136.822 661.943 134.323 661.022 132.404C660.101 130.484 659.601 128.353 661.022 127.144C661.97 126.46 663.312 126.723 664.417 126.328C665.038 126.061 665.581 125.641 665.995 125.108C666.409 124.574 666.681 123.945 666.786 123.278C667.01 121.955 667.01 120.603 666.786 119.28C666.807 116.607 665.766 114.034 663.891 112.127C661.969 110.975 659.722 110.486 657.495 110.733C656.911 110.685 656.327 110.833 655.837 111.154C655.497 111.538 655.278 112.014 655.205 112.521C654.81 114.336 654.389 116.151 653.968 117.965C653.939 118.351 653.759 118.71 653.468 118.965C653.238 119.06 652.989 119.098 652.741 119.075C652.493 119.052 652.255 118.969 652.046 118.833C648.418 116.896 644.973 114.634 641.755 112.074Z" fill="white"/>
<path d="M892.595 99.1346C893.126 102.097 894.264 104.917 895.937 107.419C896.806 108.643 898.026 109.574 899.436 110.091C900.846 110.607 902.379 110.684 903.834 110.312C907.65 108.944 909.388 103.553 913.467 103.211C916.968 102.922 919.363 106.604 922.469 108.26C924.133 109.074 926.017 109.324 927.836 108.973C929.654 108.622 931.309 107.689 932.55 106.314C933.682 104.999 934.366 103.369 935.367 101.949C937.246 99.5328 939.972 97.9182 942.995 97.4302C946.018 96.9422 949.114 97.6171 951.659 99.3187C952.569 100.089 953.528 100.801 954.528 101.449C958.055 103.369 962.688 101.449 965.057 98.1352C967.157 94.6919 968.403 90.7963 968.689 86.7739L892.595 99.1346Z" fill="#FFD77D"/>
<path d="M473.404 89.9824C471.696 92.4512 470.514 95.244 469.929 98.1879C469.667 99.6706 469.864 101.198 470.495 102.566C471.125 103.933 472.158 105.076 473.457 105.841C477.141 107.577 482.195 104.999 485.301 107.629C487.933 109.891 487.065 114.178 488.117 117.544C488.716 119.297 489.869 120.807 491.403 121.846C492.937 122.885 494.768 123.397 496.619 123.304C498.356 123.172 499.988 122.488 501.699 122.199C504.735 121.8 507.809 122.57 510.297 124.353C512.785 126.135 514.501 128.798 515.097 131.798C515.212 132.983 515.397 134.159 515.649 135.322C516.431 137.173 517.833 138.695 519.615 139.626C521.397 140.557 523.447 140.839 525.414 140.424C529.308 139.461 532.917 137.586 535.943 134.954L473.404 89.9824Z" fill="#FFD77D"/>
<path d="M573.029 70.0215C573.053 73.0312 573.698 76.0036 574.924 78.7529C575.567 80.1119 576.609 81.2428 577.912 81.9946C579.215 82.7464 580.716 83.0835 582.215 82.9608C586.242 82.2507 588.875 77.2275 592.928 77.5694C596.429 77.885 598.192 81.935 600.956 84.0653C602.456 85.1531 604.271 85.7213 606.124 85.6833C607.977 85.6453 609.767 85.0033 611.221 83.8549C612.564 82.7504 613.511 81.225 614.748 80.0415C616.986 77.9505 619.936 76.7872 623 76.7872C626.064 76.7872 629.014 77.9505 631.252 80.0415C632.004 80.9751 632.822 81.854 633.7 82.6714C635.415 83.7237 637.442 84.1518 639.437 83.8834C641.432 83.6151 643.273 82.6667 644.649 81.1987C647.281 78.1702 649.165 74.5672 650.15 70.679L573.029 70.0215Z" fill="#FFD77D"/>
<path d="M716.613 11.1641C715.852 14.0747 715.718 17.1132 716.218 20.0796C716.483 21.5602 717.2 22.9229 718.269 23.9819C719.338 25.0409 720.709 25.7445 722.193 25.9969C726.246 26.3388 730.089 22.1572 733.906 23.5511C737.222 24.7346 737.854 29.0739 740.012 31.8617C741.184 33.2961 742.793 34.3088 744.593 34.7455C746.394 35.1823 748.288 35.0193 749.988 34.2812C751.567 33.5448 752.883 32.3613 754.383 31.4934C757.089 30.0551 760.242 29.7004 763.2 30.5016C766.158 31.3028 768.7 33.1997 770.308 35.8066C770.81 36.8769 771.382 37.9135 772.019 38.9099C773.403 40.3701 775.251 41.3047 777.248 41.5542C779.245 41.8036 781.267 41.3523 782.968 40.2774C786.313 38.0265 789.066 35.0047 790.996 31.4671L716.613 11.1641Z" fill="#FFD77D"/>
<path d="M843.347 128.564C848.059 133.614 855.218 132.535 861.219 131.01C867.22 129.485 871.09 123.541 872.301 117.86C872.935 115.052 872.84 112.127 872.025 109.365C871.209 106.603 869.7 104.096 867.642 102.081C865.536 100.089 862.818 98.8654 859.93 98.6094C857.537 98.6276 855.173 99.142 852.99 100.12C850.806 101.098 848.849 102.518 847.243 104.29C843.856 107.376 841.457 111.392 840.347 115.835C839.798 118.043 839.784 120.349 840.306 122.562C840.828 124.776 841.871 126.834 843.347 128.564ZM849.138 115.888C849.546 114.442 850.304 113.119 851.347 112.036C852.389 110.954 853.683 110.145 855.113 109.681C856.555 109.27 858.091 109.337 859.491 109.873C860.892 110.409 862.08 111.384 862.878 112.653C863.425 113.736 863.684 114.941 863.628 116.153C863.573 117.365 863.206 118.542 862.562 119.57C859.798 124.093 852.033 126.907 849.217 120.648C848.625 119.121 848.597 117.434 849.138 115.888Z" fill="white"/>
<path d="M620.908 142.976C627.725 141.95 630.91 135.48 633.068 129.668C635.227 123.856 632.516 117.308 628.462 113.047C626.516 110.956 624.07 109.391 621.355 108.498C618.639 107.606 615.742 107.416 612.933 107.945C610.065 108.552 607.486 110.109 605.615 112.363C604.255 114.332 603.318 116.562 602.865 118.912C602.412 121.262 602.452 123.679 602.983 126.013C603.622 130.542 605.56 134.79 608.563 138.242C610.094 139.957 612.013 141.282 614.161 142.105C616.308 142.929 618.622 143.227 620.908 142.976ZM613.722 131.01C612.772 129.847 612.122 128.47 611.828 126.998C611.534 125.526 611.606 124.005 612.038 122.567C612.516 121.144 613.445 119.915 614.685 119.066C615.924 118.216 617.406 117.793 618.908 117.86C620.11 118.027 621.249 118.502 622.213 119.239C623.177 119.977 623.934 120.951 624.409 122.068C626.567 126.907 624.409 134.954 617.697 133.666C616.106 133.262 614.703 132.324 613.722 131.01Z" fill="white"/>
<path d="M946.185 36.963C953.029 35.9637 956.214 29.4677 958.346 23.6556C960.478 17.8435 957.819 11.295 953.766 7.03452C951.815 4.94071 949.366 3.37464 946.645 2.48247C943.925 1.5903 941.023 1.40111 938.21 1.93246C935.356 2.55592 932.791 4.11029 930.919 6.35072C929.558 8.31973 928.622 10.5496 928.169 12.8992C927.716 15.2488 927.756 17.6668 928.287 20C928.899 24.5322 930.83 28.7849 933.841 32.2292C935.372 33.9446 937.291 35.2693 939.438 36.0928C941.586 36.9163 943.899 37.2146 946.185 36.963ZM939.026 24.9969C938.067 23.8392 937.409 22.4629 937.111 20.9902C936.813 19.5175 936.883 17.994 937.315 16.5548C937.795 15.134 938.725 13.9081 939.964 13.0633C941.204 12.2184 942.686 11.8007 944.185 11.8736C945.39 12.0311 946.534 12.4996 947.503 13.2328C948.472 13.966 949.234 14.9387 949.712 16.0552C951.871 20.8942 949.712 28.9418 943.001 27.6531C941.405 27.2612 939.998 26.3209 939.026 24.9969Z" fill="white"/>
<path d="M508.043 57.1878C507.254 50.35 500.831 46.9837 495.093 44.6431C489.355 42.3024 482.722 44.8272 478.327 48.7458C476.178 50.6347 474.542 53.0355 473.572 55.7253C472.601 58.4151 472.326 61.3066 472.773 64.1309C473.3 67.0067 474.784 69.6203 476.984 71.5473C478.922 72.9471 481.13 73.9293 483.468 74.4319C485.806 74.9344 488.223 74.9461 490.566 74.4665C495.125 73.9635 499.435 72.1347 502.963 69.2066C504.698 67.745 506.062 65.8944 506.945 63.8057C507.828 61.717 508.204 59.4494 508.043 57.1878ZM495.883 63.9994C494.694 64.9194 493.296 65.5326 491.813 65.7848C490.33 66.0371 488.808 65.9207 487.381 65.4458C485.976 64.9215 484.778 63.9568 483.966 62.6958C483.155 61.4349 482.774 59.9455 482.88 58.4502C483.102 57.2751 483.62 56.1758 484.384 55.2557C485.148 54.3355 486.134 53.6247 487.25 53.1903C492.145 51.1653 500.121 53.5586 498.647 60.2123C498.181 61.7508 497.207 63.086 495.883 63.9994Z" fill="#4B855A"/>
<path d="M686.447 44.4071C693.237 43.2499 696.291 36.6751 698.317 30.8367C700.344 24.9982 697.502 18.5023 693.343 14.3207C691.35 12.2665 688.867 10.752 686.128 9.91933C683.388 9.08668 680.482 8.96325 677.682 9.56057C674.836 10.2265 672.302 11.8403 670.496 14.1366C669.195 16.1418 668.325 18.3947 667.94 20.7532C667.554 23.1116 667.663 25.5243 668.259 27.8386C668.971 32.3583 671.004 36.5669 674.102 39.9362C675.656 41.6077 677.587 42.8852 679.733 43.6627C681.88 44.4402 684.181 44.6954 686.447 44.4071ZM678.998 32.5988C678.023 31.4601 677.342 30.0997 677.016 28.6369C676.691 27.1741 676.729 25.6537 677.129 24.2093C677.571 22.7719 678.471 21.5184 679.692 20.6399C680.914 19.7615 682.389 19.3063 683.893 19.3439C685.099 19.4885 686.247 19.939 687.228 20.6526C688.209 21.3662 688.992 22.319 689.5 23.4203C691.764 28.2067 689.789 36.307 683.051 35.1498C681.444 34.7979 680.01 33.8955 678.998 32.5988Z" fill="white"/>
<path d="M967.111 43.3799C967.059 43.0705 966.941 42.776 966.763 42.5171C966.586 42.2582 966.354 42.0411 966.084 41.8809C965.163 41.5127 964.295 42.4858 963.768 43.3273C962.005 46.194 960.294 49.0869 958.662 52.0587C958.033 53.0486 957.621 54.1598 957.451 55.3198C957.405 55.6135 957.47 55.9139 957.635 56.1614C957.811 56.3306 958.029 56.4488 958.267 56.5033C960.627 57.0762 963.05 57.3501 965.479 57.3186C968.611 57.3186 971.217 57.9234 970.48 54.0311C969.848 50.6122 967.111 46.8251 967.111 43.3799Z" fill="#4B855A"/>
<path d="M896.779 132.456C896.696 131.586 896.398 130.751 895.911 130.026C895.423 129.3 894.763 128.707 893.989 128.301C893.082 127.886 892.091 127.688 891.094 127.722C889.742 127.705 888.411 128.06 887.246 128.746C886.081 129.432 885.127 130.424 884.487 131.614C883.992 132.753 883.868 134.018 884.133 135.231C884.397 136.444 885.037 137.544 885.961 138.373C886.998 139.169 888.244 139.646 889.547 139.747C890.851 139.847 892.155 139.567 893.302 138.94C894.448 138.312 895.388 137.366 896.005 136.214C896.623 135.063 896.892 133.757 896.779 132.456Z" fill="#4B855A"/>
<path d="M711.716 102.029C711.636 101.162 711.341 100.329 710.859 99.6034C710.377 98.8781 709.722 98.2839 708.953 97.874C708.036 97.4587 707.036 97.2607 706.031 97.2954C704.679 97.2788 703.348 97.6329 702.183 98.3191C701.018 99.0053 700.064 99.9975 699.424 101.188C698.933 102.327 698.812 103.591 699.076 104.803C699.34 106.016 699.977 107.115 700.898 107.947C701.935 108.742 703.181 109.219 704.484 109.32C705.788 109.421 707.092 109.14 708.239 108.513C709.385 107.886 710.325 106.939 710.942 105.788C711.56 104.636 711.829 103.331 711.716 102.029Z" fill="white"/>
<path d="M837.952 16.0039C837.885 15.1494 837.61 14.3241 837.151 13.5999C836.693 12.8757 836.064 12.2745 835.319 11.8485C834.412 11.4336 833.421 11.2355 832.424 11.2699C831.071 11.2474 829.738 11.599 828.572 12.2859C827.406 12.9727 826.453 13.9682 825.818 15.1623C825.315 16.2976 825.185 17.5624 825.445 18.7762C825.705 19.9899 826.342 21.0906 827.265 21.9212C828.303 22.6758 829.535 23.1185 830.816 23.1973C832.097 23.2762 833.374 22.9878 834.496 22.3662C835.619 21.7446 836.54 20.8156 837.152 19.6885C837.765 18.5614 838.042 17.2831 837.952 16.0039Z" fill="#FFD77D"/>
<path d="M846.296 38.0945C846.216 37.2274 845.921 36.3938 845.439 35.6686C844.957 34.9433 844.302 34.3491 843.533 33.9391C842.619 33.5194 841.615 33.3298 840.611 33.3869C839.26 33.3618 837.929 33.7095 836.764 34.3916C835.598 35.0736 834.643 36.0637 834.004 37.2529C833.513 38.3923 833.392 39.6566 833.656 40.8686C833.92 42.0807 834.557 43.1798 835.478 44.0118C836.515 44.8075 837.761 45.2846 839.064 45.3851C840.368 45.4857 841.672 45.2053 842.819 44.5781C843.965 43.9509 844.905 43.004 845.522 41.8528C846.14 40.7016 846.409 39.3958 846.296 38.0945Z" fill="white"/>
<path d="M568.451 51.2167C568.368 50.3471 568.069 49.5118 567.582 48.7863C567.095 48.0609 566.435 47.4681 565.661 47.0615C564.757 46.6397 563.761 46.4499 562.765 46.5091C561.415 46.4841 560.083 46.8317 558.918 47.5138C557.752 48.1959 556.798 49.186 556.159 50.3751C555.668 51.5145 555.546 52.7789 555.81 53.991C556.075 55.203 556.712 56.3021 557.633 57.1341C558.669 57.9297 559.915 58.4069 561.219 58.5075C562.522 58.608 563.826 58.3276 564.973 57.7004C566.12 57.0732 567.059 56.1263 567.676 54.9751C568.294 53.8239 568.563 52.518 568.451 51.2167Z" fill="white"/>
<path d="M722.269 129.011C722.19 128.137 721.894 127.297 721.407 126.566C720.919 125.836 720.257 125.239 719.479 124.83C718.57 124.423 717.579 124.234 716.584 124.278C715.229 124.236 713.889 124.568 712.71 125.235C711.531 125.903 710.559 126.882 709.898 128.065C709.403 129.203 709.279 130.469 709.544 131.682C709.809 132.895 710.448 133.994 711.372 134.824C712.404 135.624 713.646 136.109 714.947 136.22C716.249 136.331 717.555 136.063 718.707 135.448C719.859 134.833 720.809 133.898 721.441 132.756C722.073 131.614 722.361 130.313 722.269 129.011Z" fill="white"/>
<path d="M551.472 116.52C551.393 115.646 551.097 114.805 550.609 114.075C550.122 113.344 549.459 112.748 548.682 112.338C547.774 111.929 546.782 111.74 545.787 111.786C544.434 111.767 543.102 112.12 541.937 112.806C540.772 113.493 539.818 114.486 539.18 115.679C538.689 116.818 538.567 118.082 538.832 119.294C539.096 120.506 539.733 121.605 540.654 122.437C541.694 123.221 542.938 123.688 544.236 123.783C545.535 123.877 546.834 123.595 547.976 122.97C549.118 122.345 550.056 121.404 550.676 120.26C551.296 119.116 551.573 117.817 551.472 116.52Z" fill="white"/>
<path d="M970.611 68.7591C970.533 67.8849 970.236 67.0442 969.749 66.3138C969.261 65.5834 968.599 64.9865 967.821 64.5775C966.912 64.1706 965.921 63.9815 964.926 64.0252C963.573 64.0056 962.241 64.3585 961.076 65.045C959.911 65.7316 958.957 66.7254 958.319 67.9175C957.825 69.0543 957.699 70.317 957.959 71.5289C958.218 72.7408 958.851 73.8413 959.767 74.6765C960.806 75.4683 962.053 75.9423 963.356 76.0412C964.66 76.1401 965.964 75.8596 967.111 75.2337C968.258 74.6077 969.199 73.6631 969.82 72.5141C970.442 71.3651 970.716 70.0609 970.611 68.7591Z" fill="white"/>
<path d="M842.269 86.88C842.458 86.7689 842.627 86.6266 842.769 86.4592C843.242 85.828 842.637 84.9865 842.032 84.4605C839.263 81.9605 836.267 79.7241 833.082 77.7804C832.767 77.57 832.293 77.4122 832.056 77.7804C832.016 77.9267 832.016 78.0812 832.056 78.2275C831.898 82.0146 831.766 85.828 831.635 89.6414C831.635 92.7973 833.977 91.0353 835.767 90.2726C838.002 89.2771 840.174 88.1441 842.269 86.88Z" fill="#4B855A"/>
<path d="M712.901 50.9292C713.059 51.067 713.237 51.182 713.427 51.271C714.19 51.4814 714.796 50.6398 715.085 49.9035C716.507 46.45 717.617 42.8766 718.402 39.226C718.402 38.8578 718.402 38.3581 718.112 38.2529C717.967 38.2028 717.81 38.2028 717.665 38.2529L706.768 41.6981C703.767 42.6449 706.241 44.328 707.557 45.8008C709.219 47.6301 711.005 49.3436 712.901 50.9292Z" fill="#4B855A"/>
<path d="M884.934 77.1752C885.089 77.0243 885.214 76.846 885.303 76.6493C885.54 75.8866 884.698 75.2817 883.987 74.9398C880.592 73.4207 877.069 72.2063 873.458 71.3105C873.09 71.3105 872.59 71.3105 872.485 71.5472C872.432 71.6917 872.432 71.8498 872.485 71.9943C873.511 75.6499 874.538 79.3318 875.59 82.9874C876.433 86.0381 878.223 83.6186 879.723 82.3299C881.569 80.7252 883.31 79.0035 884.934 77.1752Z" fill="white"/>
<path d="M589.006 36.2808C589.158 36.1277 589.283 35.9498 589.375 35.7548C589.612 35.0184 588.769 34.3872 588.059 34.0717C584.664 32.5441 581.141 31.3208 577.53 30.416C577.162 30.416 576.662 30.416 576.556 30.679C576.503 30.8143 576.503 30.9645 576.556 31.0998L579.636 42.1192C580.504 45.1436 582.268 42.7241 583.795 41.4617C585.641 39.8481 587.382 38.1175 589.006 36.2808Z" fill="white"/>
<path d="M566.502 108.024C566.677 108.141 566.874 108.221 567.081 108.261C567.87 108.261 568.291 107.367 568.449 106.604C569.23 102.953 569.67 99.2376 569.765 95.5055C569.765 95.1374 569.765 94.6377 569.292 94.6114C569.162 94.5755 569.026 94.5755 568.897 94.6114L558.79 100.003C555.999 101.475 558.79 102.633 560.316 103.895C562.285 105.405 564.351 106.785 566.502 108.024Z" fill="white"/>
<path d="M625.225 48.1943C625.265 47.9858 625.265 47.7716 625.225 47.5631C624.909 46.8267 623.856 46.9056 623.119 47.1423C619.542 48.2162 616.07 49.6159 612.749 51.3239C612.407 51.508 612.012 51.8236 612.17 52.1655C612.24 52.3008 612.35 52.4111 612.485 52.4811L622.04 58.7403C624.672 60.4761 624.462 57.4517 624.672 55.5318C625.028 53.1019 625.212 50.65 625.225 48.1943Z" fill="white"/>
<path d="M726.298 99.7126C726.08 99.6726 725.857 99.6726 725.64 99.7126C724.877 99.8441 724.719 100.896 724.798 101.685C725.069 105.407 725.686 109.096 726.64 112.704C726.64 113.073 726.956 113.52 727.324 113.441C727.467 113.397 727.594 113.315 727.693 113.204L735.879 105.314C738.142 103.105 735.168 102.684 733.247 102.001C730.983 101.087 728.662 100.322 726.298 99.7126Z" fill="white"/>
<path d="M586.191 112.469C586.273 112.67 586.389 112.857 586.533 113.021C587.086 113.573 588.033 113.021 588.612 112.574C591.475 110.185 594.118 107.544 596.509 104.684C596.746 104.395 596.983 103.948 596.693 103.685C596.582 103.59 596.444 103.534 596.298 103.527L585.033 101.528C581.927 100.976 583.322 103.658 583.822 105.526C584.466 107.887 585.257 110.206 586.191 112.469Z" fill="#4B855A"/>
<path d="M785.967 105.184C796.694 92.5167 806.46 79.0668 815.183 64.9465C815.841 63.8945 816.815 62.711 818 63.0003C818.484 63.1731 818.917 63.462 819.263 63.8418L823.869 68.3391C813.788 83.4349 803.786 98.6359 792.626 113.048C790.371 110.993 788.277 108.768 786.362 106.394C786.23 105.789 785.467 104.921 785.967 105.184Z" fill="white"/>
<path d="M784.73 69.1008C786.155 72.0793 788.018 74.8275 790.258 77.2536C801.353 64.1484 811.73 50.4527 821.343 36.2267C818.843 35.0695 816.079 33.2812 813.579 32.124C803.971 44.8003 794.733 56.7401 784.73 69.1008Z" fill="#4B855A"/>
<path d="M792.627 130.825L819.606 98.6084C819.896 98.2665 820.238 97.8984 820.685 97.9247C821.061 97.9801 821.4 98.1779 821.633 98.4769L827.845 104.789C818.422 117.36 809.288 129.484 798.734 141.134C796.51 139.845 794.45 138.29 792.601 136.506C791.853 135.889 791.303 135.066 791.022 134.139C790.837 133.323 791.68 130.957 792.627 130.825Z" fill="white"/>
<path d="M515.702 73.2305C526.476 60.5466 536.278 47.0696 545.024 32.9137C545.682 31.8617 546.656 30.6519 547.867 30.9675C548.344 31.1381 548.77 31.4278 549.104 31.8091L553.71 36.3063C543.629 51.4021 533.627 66.603 522.467 81.015C520.225 78.9465 518.132 76.7231 516.202 74.3613C515.86 73.8353 515.123 72.9675 515.702 73.2305Z" fill="white"/>
<path d="M514.465 37.174C515.889 40.1525 517.752 42.9007 519.992 45.3268C531.075 32.2117 541.451 18.5167 551.078 4.29995C548.603 3.14278 545.813 1.35443 543.181 0.197266C533.706 12.8735 524.467 24.7871 514.465 37.174Z" fill="#4B855A"/>
<path d="M522.36 98.8988L549.339 66.6822C549.42 66.487 549.554 66.3183 549.725 66.1953C549.897 66.0723 550.1 66 550.311 65.9863C550.522 65.9726 550.733 66.0181 550.919 66.1179C551.105 66.2177 551.26 66.3676 551.365 66.5506L557.604 72.8625C548.181 85.4336 539.021 97.5313 528.466 109.182C526.242 107.892 524.183 106.338 522.333 104.553C521.587 103.935 521.038 103.112 520.754 102.186C520.57 101.239 521.412 99.1355 522.36 98.8988Z" fill="white"/>
<path d="M893.28 29.5999C893.28 30.9675 893.517 32.6244 894.807 33.1767C895.28 33.3402 895.78 33.4116 896.281 33.387C900.308 33.387 904.335 33.1766 908.362 32.8084C909.811 32.8318 911.22 32.3375 912.337 31.4146C913.152 30.3466 913.554 29.0205 913.468 27.68C913.777 22.0683 913.316 16.4409 912.1 10.9537C911.96 10.179 911.693 9.43256 911.31 8.74461C909.073 5.14161 897.939 4.01075 894.675 7.03517C892.49 9.08652 893.254 13.4522 893.227 16.0821C893.148 20.6056 893.149 25.1027 893.28 29.5999Z" fill="#FFD77D"/>
<path d="M585.032 142.371C585.821 142.371 586.795 142.371 587.164 141.582C587.323 141.21 587.377 140.8 587.322 140.399L587.164 136.323C587.17 135.888 587.08 135.456 586.9 135.06C586.627 134.644 586.232 134.323 585.769 134.14C583.998 133.405 582.14 132.901 580.241 132.641C574.588 131.456 568.849 130.726 563.08 130.458C562.415 130.382 561.741 130.478 561.125 130.738C560.508 130.998 559.969 131.412 559.559 131.941C559.149 132.469 558.882 133.094 558.784 133.756C558.686 134.418 558.761 135.093 559 135.718C559.816 138.348 561.764 138.348 564.264 138.795C571.16 139.978 578.004 142.135 585.032 142.371Z" fill="#FFD77D"/>
<path d="M604.404 34.7813C604.404 35.5703 604.404 36.5433 605.194 36.9115C605.579 37.0612 605.997 37.1067 606.405 37.0431L610.458 36.8326C610.904 36.8306 611.344 36.7319 611.748 36.5434C612.14 36.2463 612.441 35.8454 612.616 35.3862C613.326 33.614 613.804 31.7577 614.038 29.8633C615.145 24.1912 615.797 18.4395 615.986 12.6636C616.035 12.0095 615.919 11.3536 615.648 10.756C615.378 10.1583 614.962 9.63813 614.438 9.24293C613.914 8.84773 613.299 8.59022 612.65 8.49403C612 8.39785 611.337 8.46602 610.721 8.69235C608.089 9.53393 608.089 11.4801 607.721 13.9522C606.563 20.8952 604.615 27.7594 604.404 34.7813Z" fill="#FFD77D"/>
<path d="M697.213 69.1533C697.924 68.7851 698.687 68.2065 698.661 67.4175C698.609 67.0123 698.445 66.6296 698.187 66.3129L695.976 62.894C695.773 62.502 695.474 62.1673 695.107 61.921C694.658 61.705 694.152 61.6316 693.66 61.7105C691.77 61.9746 689.921 62.4784 688.159 63.2096C682.72 65.0638 677.439 67.3504 672.366 70.0474C671.751 70.3201 671.217 70.7474 670.816 71.2877C670.415 71.828 670.161 72.4627 670.079 73.1302C669.997 73.7977 670.089 74.475 670.347 75.0962C670.605 75.7174 671.019 76.2613 671.55 76.6748C673.629 78.5947 675.261 77.5427 677.63 76.6748C684.052 74.1501 691.054 72.5459 697.213 69.1533Z" fill="#4B855A"/>
<path d="M1354.3 50.9028C1359.93 53.228 1365.24 56.2687 1370.09 59.9498C1367.5 63.9834 1364.42 67.6842 1360.93 70.9692C1359.2 72.5335 1357.17 73.7243 1354.96 74.467C1353.87 74.8936 1352.68 75.0139 1351.53 74.8147C1350.38 74.6154 1349.3 74.1044 1348.42 73.3371C1347.54 72.5698 1346.88 71.5756 1346.53 70.4626C1346.17 69.3496 1346.13 68.1604 1346.4 67.0243C1346.81 64.7843 1347.59 62.6259 1348.69 60.6335C1350.4 57.2672 1352.67 54.2691 1354.3 50.9028Z" fill="white"/>
<path d="M1372.83 56.5834C1367.43 53.7349 1362.42 50.1988 1357.93 46.0637C1360.93 42.3087 1364.38 38.9348 1368.2 36.0173C1370.08 34.6368 1372.23 33.6608 1374.51 33.1507C1375.64 32.8353 1376.83 32.8358 1377.96 33.1522C1379.08 33.4686 1380.1 34.0886 1380.9 34.9443C1381.69 35.8 1382.24 36.8583 1382.47 38.0032C1382.71 39.1481 1382.62 40.3354 1382.23 41.435C1381.6 43.6193 1380.62 45.6824 1379.3 47.5364C1377.36 50.6397 1374.8 53.4012 1372.83 56.5834Z" fill="white"/>
<path d="M1254.86 124.856C1259.63 121.011 1264.86 117.785 1270.44 115.257C1272.73 119.472 1274.5 123.949 1275.7 128.591C1276.26 130.856 1276.33 133.215 1275.89 135.507C1275.68 136.665 1275.19 137.752 1274.45 138.67C1273.71 139.589 1272.76 140.309 1271.68 140.767C1270.58 141.074 1269.43 141.117 1268.31 140.893C1267.2 140.669 1266.15 140.185 1265.26 139.478C1263.48 138.035 1261.95 136.312 1260.73 134.376C1258.57 131.326 1257.02 127.907 1254.86 124.856Z" fill="#4B855A"/>
<path d="M1268.76 111.365C1263.62 114.688 1258.09 117.339 1252.28 119.255C1250.43 114.827 1249.12 110.19 1248.38 105.448C1248.08 103.13 1248.26 100.776 1248.91 98.5309C1249.18 97.3977 1249.76 96.3603 1250.57 95.5305C1251.39 94.7008 1252.42 94.1105 1253.55 93.8234C1254.68 93.5364 1255.87 93.5635 1256.99 93.9019C1258.1 94.2403 1259.1 94.877 1259.88 95.7432C1261.5 97.3513 1262.84 99.2071 1263.86 101.24C1265.7 104.527 1266.89 108.104 1268.76 111.365Z" fill="white"/>
<path d="M1435.66 121.988C1438.69 127.313 1441.03 133.005 1442.61 138.925C1438.07 140.504 1433.36 141.519 1428.58 141.949C1426.25 142.125 1423.9 141.802 1421.71 141.003C1420.61 140.597 1419.64 139.929 1418.86 139.058C1418.09 138.187 1417.54 137.139 1417.26 136.006C1417.14 134.872 1417.29 133.725 1417.69 132.66C1418.1 131.595 1418.75 130.641 1419.6 129.878C1421.3 128.383 1423.23 127.167 1425.31 126.275C1428.66 124.618 1432.29 123.645 1435.66 121.988Z" fill="white"/>
<path d="M1139.1 40.7245C1144.66 38.1451 1150.52 36.2804 1156.55 35.1753C1157.75 39.8239 1158.39 44.6014 1158.44 49.4032C1158.41 51.7352 1157.9 54.0359 1156.94 56.1621C1156.46 57.2084 1155.72 58.1212 1154.81 58.8221C1153.89 59.523 1152.82 59.991 1151.68 60.1859C1150.54 60.2137 1149.42 59.9733 1148.39 59.4843C1147.37 58.9953 1146.47 58.2716 1145.78 57.3719C1144.41 55.5568 1143.35 53.5318 1142.62 51.3757C1141.15 47.9042 1140.47 44.196 1139.1 40.7245Z" fill="#4B855A"/>
<path d="M1155.86 30.9666C1150.09 32.9911 1144.07 34.2468 1137.97 34.7012C1137.23 29.9602 1137.07 25.1459 1137.52 20.368C1137.78 18.0493 1138.53 15.8107 1139.7 13.7932C1140.3 12.7837 1141.14 11.9383 1142.15 11.3325C1143.15 10.7267 1144.29 10.3794 1145.47 10.3218C1146.6 10.4094 1147.7 10.7651 1148.67 11.3594C1149.64 11.9538 1150.45 12.77 1151.05 13.7407C1152.21 15.6874 1153.06 17.81 1153.55 20.0262C1154.55 23.6292 1154.84 27.3899 1155.86 30.9666Z" fill="white"/>
<path d="M1400.91 75.9119L1392.23 64.2613C1391.89 63.9176 1391.62 63.5052 1391.46 63.0516C1391.29 62.598 1391.22 62.1138 1391.25 61.6314C1391.46 61.051 1391.82 60.5404 1392.31 60.1586C1397.89 54.7234 1403.74 49.56 1409.86 44.6684C1410.67 43.8143 1411.66 43.1514 1412.76 42.7283C1413.86 42.3051 1415.03 42.1323 1416.21 42.2225C1417.36 42.5762 1418.42 43.198 1419.29 44.0371C1426.94 50.2964 1434.52 56.6433 1442.03 63.0779C1442.66 63.4855 1443.19 64.0225 1443.59 64.6529C1444 65.2834 1444.26 65.9926 1444.37 66.7334C1444.23 67.8942 1443.72 68.9769 1442.9 69.8105L1436.5 77.8317C1434.5 77.1216 1431.03 77.1216 1429 76.4115C1426.97 75.7015 1425.1 74.6232 1425.39 72.756C1425.58 71.5988 1426.68 70.8361 1427.18 69.7578C1427.42 69.1261 1427.5 68.4452 1427.41 67.7753C1427.33 67.1055 1427.08 66.4676 1426.68 65.9182C1425.87 64.8492 1424.89 63.917 1423.79 63.1568C1421.88 61.2668 1419.31 60.2076 1416.63 60.2113C1414.47 60.7873 1412.55 62.0524 1411.18 63.8142C1410.73 64.1948 1410.43 64.7131 1410.31 65.287C1410.34 65.7988 1410.53 66.2874 1410.86 66.6809L1413.89 71.3884C1414.14 71.68 1414.26 72.0583 1414.23 72.4404C1414.23 72.9401 1413.6 73.1768 1413.13 73.3609C1409.15 74.5958 1405.06 75.45 1400.91 75.9119Z" fill="#4B855A"/>
<path d="M1234.64 86.6173L1221.48 80.5685C1220.61 80.174 1219.64 79.6743 1219.4 78.7275C1219.29 78.126 1219.36 77.5059 1219.59 76.9392C1221.9 69.5052 1224.53 62.1765 1227.48 54.953C1228.38 52.7965 1229.61 50.3769 1231.88 49.6931C1233.06 49.4193 1234.28 49.4193 1235.46 49.6931C1245.18 51.5341 1254.83 53.4802 1264.41 55.5316C1265.16 55.5865 1265.89 55.8002 1266.54 56.1585C1267.2 56.5168 1267.78 57.0113 1268.23 57.6092C1268.65 58.6915 1268.71 59.8846 1268.39 61.0018C1267.81 64.3681 1267.2 67.7344 1266.62 71.1007C1264.52 71.4426 1261.49 73.1257 1259.38 73.4676C1257.28 73.8095 1255.09 73.7306 1254.44 71.9949C1254.04 70.864 1254.65 69.6543 1254.57 68.4971C1254.48 67.8277 1254.23 67.1902 1253.84 66.6433C1253.44 66.0964 1252.91 65.6577 1252.3 65.3675C1251.07 64.8034 1249.76 64.4479 1248.41 64.3155C1247.27 63.809 1246.03 63.5868 1244.79 63.6682C1243.55 63.7496 1242.35 64.1321 1241.29 64.7826C1240.24 65.433 1239.35 66.3318 1238.72 67.4008C1238.09 68.4697 1237.73 69.6766 1237.67 70.9166C1237.48 71.4705 1237.48 72.0722 1237.67 72.6261C1237.94 73.0634 1238.35 73.4036 1238.83 73.5992L1243.75 76.2291C1244.1 76.3814 1244.39 76.6508 1244.57 76.9917C1244.59 77.2369 1244.55 77.4841 1244.46 77.7128C1244.37 77.9414 1244.22 78.145 1244.04 78.3067C1241.17 81.3606 1238.02 84.1427 1234.64 86.6173Z" fill="white"/>
<path d="M1142.57 112.074C1143.34 107.288 1144.07 102.475 1144.81 97.6885C1144.82 97.2094 1144.93 96.7378 1145.14 96.3065C1145.35 95.8752 1145.65 95.4943 1146.02 95.1901C1146.57 94.9231 1147.18 94.8225 1147.78 94.9008C1155.61 95.0937 1163.4 95.6635 1171.16 96.6103C1172.33 96.5896 1173.5 96.8315 1174.57 97.3183C1175.64 97.8052 1176.59 98.5246 1177.34 99.4242C1177.89 100.5 1178.19 101.687 1178.21 102.896C1179.09 112.732 1179.85 122.576 1180.5 132.43C1180.72 133.065 1180.77 133.745 1180.65 134.406C1180.54 135.067 1180.26 135.688 1179.84 136.212C1179.42 136.736 1178.87 137.146 1178.25 137.404C1177.63 137.662 1176.96 137.761 1176.29 137.69L1166.08 138.742C1165.18 136.822 1162.76 134.323 1161.84 132.404C1160.92 130.484 1160.42 128.353 1161.84 127.144C1162.79 126.46 1164.13 126.723 1165.23 126.328C1165.86 126.061 1166.4 125.641 1166.81 125.108C1167.23 124.574 1167.5 123.945 1167.6 123.278C1167.83 121.955 1167.83 120.603 1167.6 119.28C1167.62 116.607 1166.58 114.034 1164.71 112.127C1162.79 110.975 1160.54 110.486 1158.31 110.733C1157.73 110.685 1157.14 110.833 1156.65 111.154C1156.31 111.538 1156.1 112.014 1156.02 112.521C1155.63 114.336 1155.21 116.151 1154.79 117.965C1154.76 118.351 1154.58 118.71 1154.29 118.965C1154.06 119.06 1153.81 119.098 1153.56 119.075C1153.31 119.052 1153.07 118.969 1152.86 118.833C1149.24 116.896 1145.79 114.634 1142.57 112.074Z" fill="white"/>
<path d="M1393.41 99.1346C1393.94 102.097 1395.08 104.917 1396.75 107.419C1397.62 108.643 1398.84 109.574 1400.25 110.091C1401.66 110.607 1403.2 110.684 1404.65 110.312C1408.47 108.944 1410.2 103.553 1414.28 103.211C1417.79 102.922 1420.18 106.604 1423.29 108.26C1424.95 109.074 1426.83 109.324 1428.65 108.973C1430.47 108.622 1432.13 107.689 1433.37 106.314C1434.5 104.999 1435.18 103.369 1436.18 101.949C1438.06 99.5328 1440.79 97.9182 1443.81 97.4302C1446.84 96.9422 1449.93 97.6171 1452.48 99.3187C1453.39 100.089 1454.34 100.801 1455.35 101.449C1458.87 103.369 1463.51 101.449 1465.87 98.1352C1467.97 94.6919 1469.22 90.7963 1469.51 86.7739L1393.41 99.1346Z" fill="#FFD77D"/>
<path d="M974.221 89.9824C972.513 92.4512 971.331 95.244 970.747 98.1879C970.484 99.6706 970.682 101.198 971.312 102.566C971.942 103.933 972.976 105.076 974.274 105.841C977.959 107.577 983.013 104.999 986.118 107.629C988.751 109.891 987.882 114.178 988.935 117.544C989.533 119.297 990.686 120.807 992.22 121.846C993.754 122.885 995.586 123.397 997.437 123.304C999.174 123.172 1000.81 122.488 1002.52 122.199C1005.55 121.8 1008.63 122.57 1011.11 124.353C1013.6 126.135 1015.32 128.798 1015.91 131.798C1016.03 132.983 1016.21 134.159 1016.47 135.322C1017.25 137.173 1018.65 138.695 1020.43 139.626C1022.21 140.557 1024.26 140.839 1026.23 140.424C1030.13 139.461 1033.73 137.586 1036.76 134.954L974.221 89.9824Z" fill="#FFD77D"/>
<path d="M1073.85 70.0215C1073.87 73.0312 1074.52 76.0036 1075.74 78.7529C1076.38 80.1119 1077.43 81.2428 1078.73 81.9946C1080.03 82.7464 1081.53 83.0835 1083.03 82.9608C1087.06 82.2507 1089.69 77.2275 1093.75 77.5694C1097.25 77.885 1099.01 81.935 1101.77 84.0653C1103.27 85.1531 1105.09 85.7213 1106.94 85.6833C1108.79 85.6453 1110.58 85.0033 1112.04 83.8549C1113.38 82.7504 1114.33 81.225 1115.57 80.0415C1117.8 77.9505 1120.75 76.7872 1123.82 76.7872C1126.88 76.7872 1129.83 77.9505 1132.07 80.0415C1132.82 80.9751 1133.64 81.854 1134.52 82.6714C1136.23 83.7237 1138.26 84.1518 1140.25 83.8834C1142.25 83.6151 1144.09 82.6667 1145.47 81.1987C1148.1 78.1702 1149.98 74.5672 1150.97 70.679L1073.85 70.0215Z" fill="#FFD77D"/>
<path d="M1217.43 11.1641C1216.67 14.0747 1216.54 17.1132 1217.04 20.0796C1217.3 21.5602 1218.02 22.9229 1219.09 23.9819C1220.16 25.0409 1221.53 25.7445 1223.01 25.9969C1227.06 26.3388 1230.91 22.1572 1234.72 23.5511C1238.04 24.7346 1238.67 29.0739 1240.83 31.8617C1242 33.2961 1243.61 34.3088 1245.41 34.7455C1247.21 35.1823 1249.11 35.0193 1250.81 34.2812C1252.38 33.5448 1253.7 32.3613 1255.2 31.4934C1257.91 30.0551 1261.06 29.7004 1264.02 30.5016C1266.98 31.3028 1269.52 33.1997 1271.13 35.8066C1271.63 36.8769 1272.2 37.9135 1272.84 38.9099C1274.22 40.3701 1276.07 41.3047 1278.07 41.5542C1280.06 41.8036 1282.08 41.3523 1283.79 40.2774C1287.13 38.0265 1289.88 35.0047 1291.81 31.4671L1217.43 11.1641Z" fill="#FFD77D"/>
<path d="M1344.16 128.564C1348.88 133.614 1356.04 132.535 1362.04 131.01C1368.04 129.485 1371.91 123.541 1373.12 117.86C1373.75 115.052 1373.66 112.127 1372.84 109.365C1372.03 106.603 1370.52 104.096 1368.46 102.081C1366.35 100.089 1363.64 98.8654 1360.75 98.6094C1358.35 98.6276 1355.99 99.142 1353.81 100.12C1351.62 101.098 1349.67 102.518 1348.06 104.29C1344.67 107.376 1342.27 111.392 1341.16 115.835C1340.62 118.043 1340.6 120.349 1341.12 122.562C1341.65 124.776 1342.69 126.834 1344.16 128.564ZM1349.96 115.888C1350.36 114.442 1351.12 113.119 1352.16 112.036C1353.21 110.954 1354.5 110.145 1355.93 109.681C1357.37 109.27 1358.91 109.337 1360.31 109.873C1361.71 110.409 1362.9 111.384 1363.69 112.653C1364.24 113.736 1364.5 114.941 1364.45 116.153C1364.39 117.365 1364.02 118.542 1363.38 119.57C1360.62 124.093 1352.85 126.907 1350.03 120.648C1349.44 119.121 1349.41 117.434 1349.96 115.888Z" fill="white"/>
<path d="M1121.73 142.976C1128.54 141.95 1131.73 135.48 1133.89 129.668C1136.04 123.856 1133.33 117.308 1129.28 113.047C1127.33 110.956 1124.89 109.391 1122.17 108.498C1119.46 107.606 1116.56 107.416 1113.75 107.945C1110.88 108.552 1108.3 110.109 1106.43 112.363C1105.07 114.332 1104.14 116.562 1103.68 118.912C1103.23 121.262 1103.27 123.679 1103.8 126.013C1104.44 130.542 1106.38 134.79 1109.38 138.242C1110.91 139.957 1112.83 141.282 1114.98 142.105C1117.13 142.929 1119.44 143.227 1121.73 142.976ZM1114.54 131.01C1113.59 129.847 1112.94 128.47 1112.65 126.998C1112.35 125.526 1112.42 124.005 1112.86 122.567C1113.33 121.144 1114.26 119.915 1115.5 119.066C1116.74 118.216 1118.22 117.793 1119.72 117.86C1120.93 118.027 1122.07 118.502 1123.03 119.239C1123.99 119.977 1124.75 120.951 1125.23 122.068C1127.38 126.907 1125.23 134.954 1118.51 133.666C1116.92 133.262 1115.52 132.324 1114.54 131.01Z" fill="white"/>
<path d="M1447 36.963C1453.85 35.9637 1457.03 29.4677 1459.16 23.6556C1461.3 17.8435 1458.64 11.295 1454.58 7.03452C1452.63 4.94071 1450.18 3.37464 1447.46 2.48247C1444.74 1.5903 1441.84 1.40111 1439.03 1.93246C1436.17 2.55592 1433.61 4.11029 1431.74 6.35072C1430.38 8.31973 1429.44 10.5496 1428.99 12.8992C1428.53 15.2488 1428.57 17.6668 1429.1 20C1429.72 24.5322 1431.65 28.7849 1434.66 32.2292C1436.19 33.9446 1438.11 35.2693 1440.26 36.0928C1442.4 36.9163 1444.72 37.2146 1447 36.963ZM1439.84 24.9969C1438.88 23.8392 1438.23 22.4629 1437.93 20.9902C1437.63 19.5175 1437.7 17.994 1438.13 16.5548C1438.61 15.134 1439.54 13.9081 1440.78 13.0633C1442.02 12.2184 1443.5 11.8007 1445 11.8736C1446.21 12.0311 1447.35 12.4996 1448.32 13.2328C1449.29 13.966 1450.05 14.9387 1450.53 16.0552C1452.69 20.8942 1450.53 28.9418 1443.82 27.6531C1442.22 27.2612 1440.82 26.3209 1439.84 24.9969Z" fill="white"/>
<path d="M1008.86 57.1878C1008.07 50.35 1001.65 46.9837 995.911 44.6431C990.173 42.3024 983.54 44.8272 979.144 48.7458C976.996 50.6347 975.36 53.0355 974.389 55.7253C973.418 58.4151 973.143 61.3066 973.59 64.1309C974.117 67.0067 975.601 69.6203 977.802 71.5473C979.74 72.9471 981.948 73.9293 984.286 74.4319C986.624 74.9344 989.041 74.9461 991.383 74.4665C995.942 73.9635 1000.25 72.1347 1003.78 69.2066C1005.52 67.745 1006.88 65.8944 1007.76 63.8057C1008.65 61.717 1009.02 59.4494 1008.86 57.1878ZM996.7 63.9994C995.511 64.9194 994.113 65.5326 992.63 65.7848C991.148 66.0371 989.626 65.9207 988.199 65.4458C986.793 64.9215 985.595 63.9568 984.784 62.6958C983.973 61.4349 983.591 59.9455 983.698 58.4502C983.92 57.2751 984.437 56.1758 985.201 55.2557C985.966 54.3355 986.952 53.6247 988.067 53.1903C992.963 51.1653 1000.94 53.5586 999.464 60.2123C998.998 61.7508 998.024 63.086 996.7 63.9994Z" fill="#4B855A"/>
<path d="M1187.26 44.4071C1194.05 43.2499 1197.11 36.6751 1199.13 30.8367C1201.16 24.9982 1198.32 18.5023 1194.16 14.3207C1192.17 12.2665 1189.68 10.752 1186.95 9.91933C1184.21 9.08668 1181.3 8.96325 1178.5 9.56057C1175.65 10.2265 1173.12 11.8403 1171.31 14.1366C1170.01 16.1418 1169.14 18.3947 1168.76 20.7532C1168.37 23.1116 1168.48 25.5243 1169.08 27.8386C1169.79 32.3583 1171.82 36.5669 1174.92 39.9362C1176.47 41.6077 1178.4 42.8852 1180.55 43.6627C1182.7 44.4402 1185 44.6954 1187.26 44.4071ZM1179.82 32.5988C1178.84 31.4601 1178.16 30.0997 1177.83 28.6369C1177.51 27.1741 1177.55 25.6537 1177.95 24.2093C1178.39 22.7719 1179.29 21.5184 1180.51 20.6399C1181.73 19.7615 1183.21 19.3063 1184.71 19.3439C1185.92 19.4885 1187.06 19.939 1188.05 20.6526C1189.03 21.3662 1189.81 22.319 1190.32 23.4203C1192.58 28.2067 1190.61 36.307 1183.87 35.1498C1182.26 34.7979 1180.83 33.8955 1179.82 32.5988Z" fill="white"/>
<path d="M1397.6 132.456C1397.51 131.586 1397.21 130.751 1396.73 130.026C1396.24 129.3 1395.58 128.707 1394.81 128.301C1393.9 127.886 1392.91 127.688 1391.91 127.722C1390.56 127.705 1389.23 128.06 1388.06 128.746C1386.9 129.432 1385.94 130.424 1385.3 131.614C1384.81 132.753 1384.69 134.018 1384.95 135.231C1385.21 136.444 1385.85 137.544 1386.78 138.373C1387.82 139.169 1389.06 139.646 1390.36 139.747C1391.67 139.847 1392.97 139.567 1394.12 138.94C1395.27 138.312 1396.2 137.366 1396.82 136.214C1397.44 135.063 1397.71 133.757 1397.6 132.456Z" fill="#4B855A"/>
<path d="M1212.53 102.029C1212.45 101.162 1212.16 100.329 1211.68 99.6034C1211.19 98.8781 1210.54 98.2839 1209.77 97.874C1208.85 97.4587 1207.85 97.2607 1206.85 97.2954C1205.5 97.2788 1204.17 97.6329 1203 98.3191C1201.84 99.0053 1200.88 99.9975 1200.24 101.188C1199.75 102.327 1199.63 103.591 1199.89 104.803C1200.16 106.016 1200.79 107.115 1201.72 107.947C1202.75 108.742 1204 109.219 1205.3 109.32C1206.6 109.421 1207.91 109.14 1209.06 108.513C1210.2 107.886 1211.14 106.939 1211.76 105.788C1212.38 104.636 1212.65 103.331 1212.53 102.029Z" fill="white"/>
<path d="M1338.77 16.0039C1338.7 15.1494 1338.43 14.3241 1337.97 13.5999C1337.51 12.8757 1336.88 12.2745 1336.14 11.8485C1335.23 11.4336 1334.24 11.2355 1333.24 11.2699C1331.89 11.2474 1330.56 11.599 1329.39 12.2859C1328.22 12.9727 1327.27 13.9682 1326.63 15.1623C1326.13 16.2976 1326 17.5624 1326.26 18.7762C1326.52 19.9899 1327.16 21.0906 1328.08 21.9212C1329.12 22.6758 1330.35 23.1185 1331.63 23.1973C1332.91 23.2762 1334.19 22.9878 1335.31 22.3662C1336.44 21.7446 1337.36 20.8156 1337.97 19.6885C1338.58 18.5614 1338.86 17.2831 1338.77 16.0039Z" fill="#FFD77D"/>
<path d="M1347.11 38.0945C1347.03 37.2274 1346.74 36.3938 1346.26 35.6686C1345.77 34.9433 1345.12 34.3491 1344.35 33.9391C1343.44 33.5194 1342.43 33.3298 1341.43 33.3869C1340.08 33.3618 1338.75 33.7095 1337.58 34.3916C1336.42 35.0736 1335.46 36.0637 1334.82 37.2529C1334.33 38.3923 1334.21 39.6566 1334.47 40.8686C1334.74 42.0807 1335.37 43.1798 1336.3 44.0118C1337.33 44.8075 1338.58 45.2846 1339.88 45.3851C1341.18 45.4857 1342.49 45.2053 1343.64 44.5781C1344.78 43.9509 1345.72 43.004 1346.34 41.8528C1346.96 40.7016 1347.23 39.3958 1347.11 38.0945Z" fill="white"/>
<path d="M1069.27 51.2167C1069.18 50.3471 1068.89 49.5118 1068.4 48.7863C1067.91 48.0609 1067.25 47.4681 1066.48 47.0615C1065.57 46.6397 1064.58 46.4499 1063.58 46.5091C1062.23 46.4841 1060.9 46.8317 1059.74 47.5138C1058.57 48.1959 1057.61 49.186 1056.98 50.3751C1056.49 51.5145 1056.36 52.7789 1056.63 53.991C1056.89 55.203 1057.53 56.3021 1058.45 57.1341C1059.49 57.9297 1060.73 58.4069 1062.04 58.5075C1063.34 58.608 1064.64 58.3276 1065.79 57.7004C1066.94 57.0732 1067.88 56.1263 1068.49 54.9751C1069.11 53.8239 1069.38 52.518 1069.27 51.2167Z" fill="white"/>
<path d="M1223.09 129.011C1223.01 128.137 1222.71 127.297 1222.22 126.566C1221.74 125.836 1221.07 125.239 1220.3 124.83C1219.39 124.423 1218.4 124.234 1217.4 124.278C1216.05 124.236 1214.71 124.568 1213.53 125.235C1212.35 125.903 1211.38 126.882 1210.72 128.065C1210.22 129.203 1210.1 130.469 1210.36 131.682C1210.63 132.895 1211.27 133.994 1212.19 134.824C1213.22 135.624 1214.46 136.109 1215.76 136.22C1217.07 136.331 1218.37 136.063 1219.52 135.448C1220.68 134.833 1221.63 133.898 1222.26 132.756C1222.89 131.614 1223.18 130.313 1223.09 129.011Z" fill="white"/>
<path d="M1052.29 116.52C1052.21 115.646 1051.91 114.805 1051.43 114.075C1050.94 113.344 1050.28 112.748 1049.5 112.338C1048.59 111.929 1047.6 111.74 1046.6 111.786C1045.25 111.767 1043.92 112.12 1042.75 112.806C1041.59 113.493 1040.64 114.486 1040 115.679C1039.51 116.818 1039.38 118.082 1039.65 119.294C1039.91 120.506 1040.55 121.605 1041.47 122.437C1042.51 123.221 1043.76 123.688 1045.05 123.783C1046.35 123.877 1047.65 123.595 1048.79 122.97C1049.94 122.345 1050.87 121.404 1051.49 120.26C1052.11 119.116 1052.39 117.817 1052.29 116.52Z" fill="white"/>
<path d="M1343.09 86.88C1343.28 86.7689 1343.44 86.6266 1343.59 86.4592C1344.06 85.828 1343.45 84.9865 1342.85 84.4605C1340.08 81.9605 1337.08 79.7241 1333.9 77.7804C1333.58 77.57 1333.11 77.4122 1332.87 77.7804C1332.83 77.9267 1332.83 78.0812 1332.87 78.2275C1332.72 82.0146 1332.58 85.828 1332.45 89.6414C1332.45 92.7973 1334.79 91.0353 1336.58 90.2726C1338.82 89.2771 1340.99 88.1441 1343.09 86.88Z" fill="#4B855A"/>
<path d="M1213.72 50.9292C1213.88 51.067 1214.05 51.182 1214.24 51.271C1215.01 51.4814 1215.61 50.6398 1215.9 49.9035C1217.32 46.45 1218.43 42.8766 1219.22 39.226C1219.22 38.8578 1219.22 38.3581 1218.93 38.2529C1218.78 38.2028 1218.63 38.2028 1218.48 38.2529L1207.59 41.6981C1204.58 42.6449 1207.06 44.328 1208.37 45.8008C1210.04 47.6301 1211.82 49.3436 1213.72 50.9292Z" fill="#4B855A"/>
<path d="M1385.75 77.1752C1385.91 77.0243 1386.03 76.846 1386.12 76.6493C1386.36 75.8866 1385.51 75.2817 1384.8 74.9398C1381.41 73.4207 1377.89 72.2063 1374.28 71.3105C1373.91 71.3105 1373.41 71.3105 1373.3 71.5472C1373.25 71.6917 1373.25 71.8498 1373.3 71.9943C1374.33 75.6499 1375.36 79.3318 1376.41 82.9874C1377.25 86.0381 1379.04 83.6186 1380.54 82.3299C1382.39 80.7252 1384.13 79.0035 1385.75 77.1752Z" fill="white"/>
<path d="M1089.82 36.2808C1089.98 36.1277 1090.1 35.9498 1090.19 35.7548C1090.43 35.0184 1089.59 34.3872 1088.88 34.0717C1085.48 32.5441 1081.96 31.3208 1078.35 30.416C1077.98 30.416 1077.48 30.416 1077.37 30.679C1077.32 30.8143 1077.32 30.9645 1077.37 31.0998L1080.45 42.1192C1081.32 45.1436 1083.09 42.7241 1084.61 41.4617C1086.46 39.8481 1088.2 38.1175 1089.82 36.2808Z" fill="white"/>
<path d="M1067.32 108.024C1067.49 108.141 1067.69 108.221 1067.9 108.261C1068.69 108.261 1069.11 107.367 1069.27 106.604C1070.05 102.953 1070.49 99.2376 1070.58 95.5055C1070.58 95.1374 1070.58 94.6377 1070.11 94.6114C1069.98 94.5755 1069.84 94.5755 1069.71 94.6114L1059.61 100.003C1056.82 101.475 1059.61 102.633 1061.13 103.895C1063.1 105.405 1065.17 106.785 1067.32 108.024Z" fill="white"/>
<path d="M1126.04 48.1943C1126.08 47.9858 1126.08 47.7716 1126.04 47.5631C1125.73 46.8267 1124.67 46.9056 1123.94 47.1423C1120.36 48.2162 1116.89 49.6159 1113.57 51.3239C1113.22 51.508 1112.83 51.8236 1112.99 52.1655C1113.06 52.3008 1113.17 52.4111 1113.3 52.4811L1122.86 58.7403C1125.49 60.4761 1125.28 57.4517 1125.49 55.5318C1125.85 53.1019 1126.03 50.65 1126.04 48.1943Z" fill="white"/>
<path d="M1227.12 99.7126C1226.9 99.6726 1226.67 99.6726 1226.46 99.7126C1225.69 99.8441 1225.54 100.896 1225.61 101.685C1225.89 105.407 1226.5 109.096 1227.46 112.704C1227.46 113.073 1227.77 113.52 1228.14 113.441C1228.28 113.397 1228.41 113.315 1228.51 113.204L1236.7 105.314C1238.96 103.105 1235.99 102.684 1234.06 102.001C1231.8 101.087 1229.48 100.322 1227.12 99.7126Z" fill="white"/>
<path d="M1087.01 112.469C1087.09 112.67 1087.21 112.857 1087.35 113.021C1087.9 113.573 1088.85 113.021 1089.43 112.574C1092.29 110.185 1094.94 107.544 1097.33 104.684C1097.56 104.395 1097.8 103.948 1097.51 103.685C1097.4 103.59 1097.26 103.534 1097.12 103.527L1085.85 101.528C1082.74 100.976 1084.14 103.658 1084.64 105.526C1085.28 107.887 1086.07 110.206 1087.01 112.469Z" fill="#4B855A"/>
<path d="M1286.78 105.184C1297.51 92.5167 1307.28 79.0668 1316 64.9465C1316.66 63.8945 1317.63 62.711 1318.82 63.0003C1319.3 63.1731 1319.73 63.462 1320.08 63.8418L1324.69 68.3391C1314.61 83.4349 1304.6 98.6359 1293.44 113.048C1291.19 110.993 1289.09 108.768 1287.18 106.394C1287.05 105.789 1286.28 104.921 1286.78 105.184Z" fill="white"/>
<path d="M1285.55 69.1008C1286.97 72.0793 1288.84 74.8275 1291.08 77.2536C1302.17 64.1484 1312.55 50.4527 1322.16 36.2267C1319.66 35.0695 1316.9 33.2812 1314.4 32.124C1304.79 44.8003 1295.55 56.7401 1285.55 69.1008Z" fill="#4B855A"/>
<path d="M1293.44 130.825L1320.42 98.6084C1320.71 98.2665 1321.06 97.8984 1321.5 97.9247C1321.88 97.9801 1322.22 98.1779 1322.45 98.4769L1328.66 104.789C1319.24 117.36 1310.11 129.484 1299.55 141.134C1297.33 139.845 1295.27 138.29 1293.42 136.506C1292.67 135.889 1292.12 135.066 1291.84 134.139C1291.65 133.323 1292.5 130.957 1293.44 130.825Z" fill="white"/>
<path d="M1016.52 73.2305C1027.29 60.5466 1037.09 47.0696 1045.84 32.9137C1046.5 31.8617 1047.47 30.6519 1048.68 30.9675C1049.16 31.1381 1049.59 31.4278 1049.92 31.8091L1054.53 36.3063C1044.45 51.4021 1034.44 66.603 1023.28 81.015C1021.04 78.9465 1018.95 76.7231 1017.02 74.3613C1016.68 73.8353 1015.94 72.9675 1016.52 73.2305Z" fill="white"/>
<path d="M1015.28 37.174C1016.71 40.1525 1018.57 42.9007 1020.81 45.3268C1031.89 32.2117 1042.27 18.5167 1051.89 4.29995C1049.42 3.14278 1046.63 1.35443 1044 0.197266C1034.52 12.8735 1025.28 24.7871 1015.28 37.174Z" fill="#4B855A"/>
<path d="M1023.18 98.8988L1050.16 66.6822C1050.24 66.487 1050.37 66.3183 1050.54 66.1953C1050.71 66.0723 1050.92 66 1051.13 65.9863C1051.34 65.9726 1051.55 66.0181 1051.74 66.1179C1051.92 66.2177 1052.08 66.3676 1052.18 66.5506L1058.42 72.8625C1049 85.4336 1039.84 97.5313 1029.28 109.182C1027.06 107.892 1025 106.338 1023.15 104.553C1022.4 103.935 1021.86 103.112 1021.57 102.186C1021.39 101.239 1022.23 99.1355 1023.18 98.8988Z" fill="white"/>
<path d="M1394.1 29.5999C1394.1 30.9675 1394.33 32.6244 1395.62 33.1767C1396.1 33.3402 1396.6 33.4116 1397.1 33.387C1401.13 33.387 1405.15 33.1766 1409.18 32.8084C1410.63 32.8318 1412.04 32.3375 1413.15 31.4146C1413.97 30.3466 1414.37 29.0205 1414.29 27.68C1414.59 22.0683 1414.13 16.4409 1412.92 10.9537C1412.78 10.179 1412.51 9.43256 1412.13 8.74461C1409.89 5.14161 1398.76 4.01075 1395.49 7.03517C1393.31 9.08652 1394.07 13.4522 1394.04 16.0821C1393.97 20.6056 1393.97 25.1027 1394.1 29.5999Z" fill="#FFD77D"/>
<path d="M1085.85 142.371C1086.64 142.371 1087.61 142.371 1087.98 141.582C1088.14 141.21 1088.19 140.8 1088.14 140.399L1087.98 136.323C1087.99 135.888 1087.9 135.456 1087.72 135.06C1087.44 134.644 1087.05 134.323 1086.59 134.14C1084.82 133.405 1082.96 132.901 1081.06 132.641C1075.41 131.456 1069.67 130.726 1063.9 130.458C1063.23 130.382 1062.56 130.478 1061.94 130.738C1061.33 130.998 1060.79 131.412 1060.38 131.941C1059.97 132.469 1059.7 133.094 1059.6 133.756C1059.5 134.418 1059.58 135.093 1059.82 135.718C1060.63 138.348 1062.58 138.348 1065.08 138.795C1071.98 139.978 1078.82 142.135 1085.85 142.371Z" fill="#FFD77D"/>
<path d="M1105.22 34.7813C1105.22 35.5703 1105.22 36.5433 1106.01 36.9115C1106.4 37.0612 1106.81 37.1067 1107.22 37.0431L1111.28 36.8326C1111.72 36.8306 1112.16 36.7319 1112.57 36.5434C1112.96 36.2463 1113.26 35.8454 1113.43 35.3862C1114.14 33.614 1114.62 31.7577 1114.86 29.8633C1115.96 24.1912 1116.61 18.4395 1116.8 12.6636C1116.85 12.0095 1116.74 11.3536 1116.47 10.756C1116.2 10.1583 1115.78 9.63813 1115.26 9.24293C1114.73 8.84773 1114.12 8.59022 1113.47 8.49403C1112.82 8.39785 1112.15 8.46602 1111.54 8.69235C1108.91 9.53393 1108.91 11.4801 1108.54 13.9522C1107.38 20.8952 1105.43 27.7594 1105.22 34.7813Z" fill="#FFD77D"/>
<path d="M1198.03 69.1533C1198.74 68.7851 1199.5 68.2065 1199.48 67.4175C1199.43 67.0123 1199.26 66.6296 1199 66.3129L1196.79 62.894C1196.59 62.502 1196.29 62.1673 1195.92 61.921C1195.47 61.705 1194.97 61.6316 1194.48 61.7105C1192.59 61.9746 1190.74 62.4784 1188.98 63.2096C1183.54 65.0638 1178.26 67.3504 1173.18 70.0474C1172.57 70.3201 1172.03 70.7474 1171.63 71.2877C1171.23 71.828 1170.98 72.4627 1170.9 73.1302C1170.81 73.7977 1170.91 74.475 1171.16 75.0962C1171.42 75.7174 1171.84 76.2613 1172.37 76.6748C1174.45 78.5947 1176.08 77.5427 1178.45 76.6748C1184.87 74.1501 1191.87 72.5459 1198.03 69.1533Z" fill="#4B855A"/>
</g>
</svg>
