<svg width="24" height="24" viewBox="0 0 24 24" fill="none" xmlns="http://www.w3.org/2000/svg">
<path d="M0 12.0007C0 5.37332 5.37258 0.000732422 12 0.000732422C18.6274 0.000732422 24 5.37332 24 12.0007C24 18.6281 18.6274 24.0007 12 24.0007C5.37258 24.0007 0 18.6281 0 12.0007Z" fill="#D1FADF"/>
<path fill-rule="evenodd" clip-rule="evenodd" d="M17.096 7.39065L9.93602 14.3006L8.03602 12.2706C7.68602 11.9406 7.13602 11.9206 6.73602 12.2006C6.34602 12.4906 6.23602 13.0006 6.47602 13.4106L8.72602 17.0706C8.94602 17.4106 9.32601 17.6206 9.75601 17.6206C10.166 17.6206 10.556 17.4106 10.776 17.0706C11.136 16.6006 18.006 8.41065 18.006 8.41065C18.906 7.49065 17.816 6.68065 17.096 7.38065V7.39065Z" fill="#12B76A"/>
</svg>
